G04 #@! TF.GenerationSoftware,KiCad,Pcbnew,(5.1.4)-1*
G04 #@! TF.CreationDate,2019-09-21T18:09:15-04:00*
G04 #@! TF.ProjectId,test2,74657374-322e-46b6-9963-61645f706362,rev?*
G04 #@! TF.SameCoordinates,Original*
G04 #@! TF.FileFunction,Copper,L2,Bot*
G04 #@! TF.FilePolarity,Positive*
%FSLAX46Y46*%
G04 Gerber Fmt 4.6, Leading zero omitted, Abs format (unit mm)*
G04 Created by KiCad (PCBNEW (5.1.4)-1) date 2019-09-21 18:09:15*
%MOMM*%
%LPD*%
G04 APERTURE LIST*
%ADD10C,1.500000*%
%ADD11O,1.250000X0.950000*%
%ADD12O,1.000000X1.550000*%
%ADD13O,1.600000X1.600000*%
%ADD14R,1.600000X1.600000*%
%ADD15R,1.727200X1.727200*%
%ADD16O,1.727200X1.727200*%
%ADD17C,1.727200*%
%ADD18C,0.800000*%
%ADD19C,0.250000*%
G04 APERTURE END LIST*
D10*
X160099000Y-92535000D03*
X160099000Y-89995000D03*
X160099000Y-87455000D03*
X160099000Y-84915000D03*
X160099000Y-82375000D03*
X160099000Y-79835000D03*
X160099000Y-77295000D03*
X157559000Y-92535000D03*
X157559000Y-89995000D03*
X157559000Y-87455000D03*
X157559000Y-84915000D03*
X157559000Y-82375000D03*
X157559000Y-79835000D03*
X157559000Y-77295000D03*
X155019000Y-92535000D03*
X155019000Y-89995000D03*
X155019000Y-87455000D03*
X155019000Y-84915000D03*
X155019000Y-82375000D03*
X155019000Y-79835000D03*
X155019000Y-77295000D03*
X152479000Y-92535000D03*
X152479000Y-89995000D03*
X152479000Y-87455000D03*
X152479000Y-84915000D03*
X152479000Y-82375000D03*
X152479000Y-79835000D03*
X152479000Y-77295000D03*
X149939000Y-92535000D03*
X149939000Y-89995000D03*
X149939000Y-87455000D03*
X149939000Y-84915000D03*
X149939000Y-82375000D03*
X149939000Y-79835000D03*
X149939000Y-77295000D03*
X147399000Y-92535000D03*
X147399000Y-89995000D03*
X147399000Y-87455000D03*
X147399000Y-84915000D03*
X147399000Y-82375000D03*
X147399000Y-79835000D03*
X147399000Y-77295000D03*
X144859000Y-92535000D03*
X144859000Y-89995000D03*
X144859000Y-87455000D03*
X144859000Y-84915000D03*
X144859000Y-82375000D03*
X144859000Y-79835000D03*
X144859000Y-77295000D03*
X142319000Y-92535000D03*
X142319000Y-89995000D03*
X142319000Y-87455000D03*
X142319000Y-84915000D03*
X142319000Y-82375000D03*
X142319000Y-79835000D03*
X142319000Y-77295000D03*
X139779000Y-92535000D03*
X139779000Y-89995000D03*
X139779000Y-87455000D03*
X139779000Y-84915000D03*
X139779000Y-82375000D03*
X139779000Y-79835000D03*
X139779000Y-77295000D03*
X137239000Y-92535000D03*
X137239000Y-89995000D03*
X137239000Y-87455000D03*
X137239000Y-84915000D03*
X137239000Y-82375000D03*
X137239000Y-79835000D03*
X137239000Y-77295000D03*
X120856000Y-60912000D03*
X120856000Y-58372000D03*
X120856000Y-55832000D03*
X120856000Y-53292000D03*
X120856000Y-50752000D03*
X120856000Y-48212000D03*
X118316000Y-60912000D03*
X118316000Y-58372000D03*
X118316000Y-55832000D03*
X118316000Y-53292000D03*
X118316000Y-50752000D03*
X118316000Y-48212000D03*
X115776000Y-60912000D03*
X115776000Y-58372000D03*
X115776000Y-55832000D03*
X115776000Y-53292000D03*
X115776000Y-50752000D03*
X115776000Y-48212000D03*
X113236000Y-60912000D03*
X113236000Y-58372000D03*
X113236000Y-55832000D03*
X113236000Y-53292000D03*
X113236000Y-50752000D03*
X113236000Y-48212000D03*
X110696000Y-60912000D03*
X110696000Y-58372000D03*
X110696000Y-55832000D03*
X110696000Y-53292000D03*
X110696000Y-50752000D03*
X110696000Y-48212000D03*
X108156000Y-60912000D03*
X108156000Y-58372000D03*
X108156000Y-55832000D03*
X108156000Y-53292000D03*
X108156000Y-50752000D03*
X108156000Y-48212000D03*
X105616000Y-60912000D03*
X105616000Y-58372000D03*
X105616000Y-55832000D03*
X105616000Y-53292000D03*
X105616000Y-50752000D03*
X105616000Y-48212000D03*
X103076000Y-60912000D03*
X103076000Y-58372000D03*
X103076000Y-55832000D03*
X103076000Y-53292000D03*
X103076000Y-50752000D03*
X103076000Y-48212000D03*
X100536000Y-60912000D03*
X100536000Y-58372000D03*
X100536000Y-55832000D03*
X100536000Y-53292000D03*
X100536000Y-50752000D03*
X100536000Y-48212000D03*
X97996000Y-60912000D03*
X97996000Y-58372000D03*
X97996000Y-55832000D03*
X97996000Y-53292000D03*
X97996000Y-50752000D03*
X97996000Y-48212000D03*
X95456000Y-60912000D03*
X95456000Y-58372000D03*
X95456000Y-55832000D03*
X95456000Y-53292000D03*
X95456000Y-50752000D03*
X95456000Y-48212000D03*
X92916000Y-60912000D03*
X92916000Y-58372000D03*
X92916000Y-55832000D03*
X92916000Y-53292000D03*
X92916000Y-50752000D03*
X92916000Y-48212000D03*
X90376000Y-60912000D03*
X90376000Y-58372000D03*
X90376000Y-55832000D03*
X90376000Y-53292000D03*
X90376000Y-50752000D03*
X90376000Y-48212000D03*
X87836000Y-60912000D03*
X87836000Y-58372000D03*
X87836000Y-55832000D03*
X87836000Y-53292000D03*
X87836000Y-50752000D03*
X87836000Y-48212000D03*
X85296000Y-60912000D03*
X85296000Y-58372000D03*
X85296000Y-55832000D03*
X85296000Y-53292000D03*
X85296000Y-50752000D03*
X85296000Y-48212000D03*
X82756000Y-60912000D03*
X82756000Y-58372000D03*
X82756000Y-55832000D03*
X82756000Y-53292000D03*
X82756000Y-50752000D03*
X82756000Y-48212000D03*
X80216000Y-60912000D03*
X80216000Y-58372000D03*
X80216000Y-55832000D03*
X80216000Y-53292000D03*
X80216000Y-50752000D03*
X80216000Y-48212000D03*
X77676000Y-60912000D03*
X77676000Y-58372000D03*
X77676000Y-55832000D03*
X77676000Y-53292000D03*
X77676000Y-50752000D03*
X77676000Y-48212000D03*
X75136000Y-60912000D03*
X75136000Y-58372000D03*
X75136000Y-55832000D03*
X75136000Y-53292000D03*
X75136000Y-50752000D03*
X75136000Y-48212000D03*
X72596000Y-60912000D03*
X72596000Y-58372000D03*
X72596000Y-55832000D03*
X72596000Y-53292000D03*
X72596000Y-50752000D03*
X72596000Y-48212000D03*
D11*
X162774000Y-138938000D03*
X157774000Y-138938000D03*
D12*
X156774000Y-141638000D03*
X163774000Y-141638000D03*
D10*
X128476000Y-130762000D03*
X128476000Y-128222000D03*
X128476000Y-125682000D03*
X128476000Y-123142000D03*
X128476000Y-120602000D03*
X128476000Y-118062000D03*
X128476000Y-115522000D03*
X128476000Y-112982000D03*
X128476000Y-110442000D03*
X128476000Y-107902000D03*
X128476000Y-105362000D03*
X128476000Y-102822000D03*
X128476000Y-100282000D03*
X128476000Y-97742000D03*
X128476000Y-95202000D03*
X128476000Y-92662000D03*
X125936000Y-130762000D03*
X125936000Y-128222000D03*
X125936000Y-125682000D03*
X125936000Y-123142000D03*
X125936000Y-120602000D03*
X125936000Y-118062000D03*
X125936000Y-115522000D03*
X125936000Y-112982000D03*
X125936000Y-110442000D03*
X125936000Y-107902000D03*
X125936000Y-105362000D03*
X125936000Y-102822000D03*
X125936000Y-100282000D03*
X125936000Y-97742000D03*
X125936000Y-95202000D03*
X125936000Y-92662000D03*
X123396000Y-130762000D03*
X123396000Y-128222000D03*
X123396000Y-125682000D03*
X123396000Y-123142000D03*
X123396000Y-120602000D03*
X123396000Y-118062000D03*
X123396000Y-115522000D03*
X123396000Y-112982000D03*
X123396000Y-110442000D03*
X123396000Y-107902000D03*
X123396000Y-105362000D03*
X123396000Y-102822000D03*
X123396000Y-100282000D03*
X123396000Y-97742000D03*
X123396000Y-95202000D03*
X123396000Y-92662000D03*
X120856000Y-130762000D03*
X120856000Y-128222000D03*
X120856000Y-125682000D03*
X120856000Y-123142000D03*
X120856000Y-120602000D03*
X120856000Y-118062000D03*
X120856000Y-115522000D03*
X120856000Y-112982000D03*
X120856000Y-110442000D03*
X120856000Y-107902000D03*
X120856000Y-105362000D03*
X120856000Y-102822000D03*
X120856000Y-100282000D03*
X120856000Y-97742000D03*
X120856000Y-95202000D03*
X120856000Y-92662000D03*
X118316000Y-130762000D03*
X118316000Y-128222000D03*
X118316000Y-125682000D03*
X118316000Y-123142000D03*
X118316000Y-120602000D03*
X118316000Y-118062000D03*
X118316000Y-115522000D03*
X118316000Y-112982000D03*
X118316000Y-110442000D03*
X118316000Y-107902000D03*
X118316000Y-105362000D03*
X118316000Y-102822000D03*
X118316000Y-100282000D03*
X118316000Y-97742000D03*
X118316000Y-95202000D03*
X118316000Y-92662000D03*
X115776000Y-130762000D03*
X115776000Y-128222000D03*
X115776000Y-125682000D03*
X115776000Y-123142000D03*
X115776000Y-120602000D03*
X115776000Y-118062000D03*
X115776000Y-115522000D03*
X115776000Y-112982000D03*
X115776000Y-110442000D03*
X115776000Y-107902000D03*
X115776000Y-105362000D03*
X115776000Y-102822000D03*
X115776000Y-100282000D03*
X115776000Y-97742000D03*
X115776000Y-95202000D03*
X115776000Y-92662000D03*
X113236000Y-130762000D03*
X113236000Y-128222000D03*
X113236000Y-125682000D03*
X113236000Y-123142000D03*
X113236000Y-120602000D03*
X113236000Y-118062000D03*
X113236000Y-115522000D03*
X113236000Y-112982000D03*
X113236000Y-110442000D03*
X113236000Y-107902000D03*
X113236000Y-105362000D03*
X113236000Y-102822000D03*
X113236000Y-100282000D03*
X113236000Y-97742000D03*
X113236000Y-95202000D03*
X113236000Y-92662000D03*
X110696000Y-130762000D03*
X110696000Y-128222000D03*
X110696000Y-125682000D03*
X110696000Y-123142000D03*
X110696000Y-120602000D03*
X110696000Y-118062000D03*
X110696000Y-115522000D03*
X110696000Y-112982000D03*
X110696000Y-110442000D03*
X110696000Y-107902000D03*
X110696000Y-105362000D03*
X110696000Y-102822000D03*
X110696000Y-100282000D03*
X110696000Y-97742000D03*
X110696000Y-95202000D03*
X110696000Y-92662000D03*
X108156000Y-130762000D03*
X108156000Y-128222000D03*
X108156000Y-125682000D03*
X108156000Y-123142000D03*
X108156000Y-120602000D03*
X108156000Y-118062000D03*
X108156000Y-115522000D03*
X108156000Y-112982000D03*
X108156000Y-110442000D03*
X108156000Y-107902000D03*
X108156000Y-105362000D03*
X108156000Y-102822000D03*
X108156000Y-100282000D03*
X108156000Y-97742000D03*
X108156000Y-95202000D03*
X108156000Y-92662000D03*
X105616000Y-130762000D03*
X105616000Y-128222000D03*
X105616000Y-125682000D03*
X105616000Y-123142000D03*
X105616000Y-120602000D03*
X105616000Y-118062000D03*
X105616000Y-115522000D03*
X105616000Y-112982000D03*
X105616000Y-110442000D03*
X105616000Y-107902000D03*
X105616000Y-105362000D03*
X105616000Y-102822000D03*
X105616000Y-100282000D03*
X105616000Y-97742000D03*
X105616000Y-95202000D03*
X105616000Y-92662000D03*
X103076000Y-130762000D03*
X103076000Y-128222000D03*
X103076000Y-125682000D03*
X103076000Y-123142000D03*
X103076000Y-120602000D03*
X103076000Y-118062000D03*
X103076000Y-115522000D03*
X103076000Y-112982000D03*
X103076000Y-110442000D03*
X103076000Y-107902000D03*
X103076000Y-105362000D03*
X103076000Y-102822000D03*
X103076000Y-100282000D03*
X103076000Y-97742000D03*
X103076000Y-95202000D03*
X103076000Y-92662000D03*
X100536000Y-130762000D03*
X100536000Y-128222000D03*
X100536000Y-125682000D03*
X100536000Y-123142000D03*
X100536000Y-120602000D03*
X100536000Y-118062000D03*
X100536000Y-115522000D03*
X100536000Y-112982000D03*
X100536000Y-110442000D03*
X100536000Y-107902000D03*
X100536000Y-105362000D03*
X100536000Y-102822000D03*
X100536000Y-100282000D03*
X100536000Y-97742000D03*
X100536000Y-95202000D03*
X100536000Y-92662000D03*
X97996000Y-130762000D03*
X97996000Y-128222000D03*
X97996000Y-125682000D03*
X97996000Y-123142000D03*
X97996000Y-120602000D03*
X97996000Y-118062000D03*
X97996000Y-115522000D03*
X97996000Y-112982000D03*
X97996000Y-110442000D03*
X97996000Y-107902000D03*
X97996000Y-105362000D03*
X97996000Y-102822000D03*
X97996000Y-100282000D03*
X97996000Y-97742000D03*
X97996000Y-95202000D03*
X97996000Y-92662000D03*
X95456000Y-130762000D03*
X95456000Y-128222000D03*
X95456000Y-125682000D03*
X95456000Y-123142000D03*
X95456000Y-120602000D03*
X95456000Y-118062000D03*
X95456000Y-115522000D03*
X95456000Y-112982000D03*
X95456000Y-110442000D03*
X95456000Y-107902000D03*
X95456000Y-105362000D03*
X95456000Y-102822000D03*
X95456000Y-100282000D03*
X95456000Y-97742000D03*
X95456000Y-95202000D03*
X95456000Y-92662000D03*
D13*
X89662000Y-95250000D03*
X74422000Y-123190000D03*
X89662000Y-97790000D03*
X74422000Y-120650000D03*
X89662000Y-100330000D03*
X74422000Y-118110000D03*
X89662000Y-102870000D03*
X74422000Y-115570000D03*
X89662000Y-105410000D03*
X74422000Y-113030000D03*
X89662000Y-107950000D03*
X74422000Y-110490000D03*
X89662000Y-110490000D03*
X74422000Y-107950000D03*
X89662000Y-113030000D03*
X74422000Y-105410000D03*
X89662000Y-115570000D03*
X74422000Y-102870000D03*
X89662000Y-118110000D03*
X74422000Y-100330000D03*
X89662000Y-120650000D03*
X74422000Y-97790000D03*
X89662000Y-123190000D03*
D14*
X74422000Y-95250000D03*
D15*
X151444000Y-105938000D03*
D16*
X151444000Y-103398000D03*
X153984000Y-105938000D03*
X153984000Y-103398000D03*
D17*
X156524000Y-105938000D03*
X156524000Y-103398000D03*
D18*
X128778000Y-62992000D03*
X130302000Y-62992000D03*
X131826000Y-62992000D03*
X133350000Y-62992000D03*
X134874000Y-62992000D03*
X136398000Y-62992000D03*
X137922000Y-62992000D03*
X137922000Y-64262000D03*
X136398000Y-64262000D03*
X134874000Y-64262000D03*
X133350000Y-64262000D03*
X131826000Y-64262000D03*
X130302000Y-64262000D03*
X128778000Y-64262000D03*
X115062000Y-138430000D03*
D19*
X117348000Y-136144000D02*
X115062000Y-138430000D01*
X132588000Y-136144000D02*
X117348000Y-136144000D01*
X133350000Y-135382000D02*
X132588000Y-136144000D01*
X128476000Y-118062000D02*
X133350000Y-122936000D01*
X133350000Y-122936000D02*
X133350000Y-135382000D01*
X156524000Y-105938000D02*
X156524000Y-107890000D01*
X156524000Y-107890000D02*
X155448000Y-108966000D01*
X139700000Y-108966000D02*
X128476000Y-97742000D01*
X155448000Y-108966000D02*
X139700000Y-108966000D01*
X153984000Y-103398000D02*
X153944000Y-103398000D01*
X153944000Y-103398000D02*
X152400000Y-101854000D01*
X152400000Y-101854000D02*
X135890000Y-101854000D01*
X135890000Y-101854000D02*
X130556000Y-96520000D01*
X127254000Y-96520000D02*
X125936000Y-95202000D01*
X130556000Y-96520000D02*
X127254000Y-96520000D01*
X153984000Y-105938000D02*
X153944000Y-105938000D01*
M02*
