G04 #@! TF.GenerationSoftware,KiCad,Pcbnew,(5.1.4)-1*
G04 #@! TF.CreationDate,2019-09-21T18:09:15-04:00*
G04 #@! TF.ProjectId,test2,74657374-322e-46b6-9963-61645f706362,rev?*
G04 #@! TF.SameCoordinates,Original*
G04 #@! TF.FileFunction,Copper,L1,Top*
G04 #@! TF.FilePolarity,Positive*
%FSLAX46Y46*%
G04 Gerber Fmt 4.6, Leading zero omitted, Abs format (unit mm)*
G04 Created by KiCad (PCBNEW (5.1.4)-1) date 2019-09-21 18:09:15*
%MOMM*%
%LPD*%
G04 APERTURE LIST*
%ADD10C,0.300000*%
%ADD11C,0.100000*%
%ADD12C,1.500000*%
%ADD13R,0.400000X1.350000*%
%ADD14O,1.250000X0.950000*%
%ADD15O,1.000000X1.550000*%
%ADD16O,1.600000X1.600000*%
%ADD17R,1.600000X1.600000*%
%ADD18C,1.000000*%
%ADD19C,0.500000*%
%ADD20C,0.100000*%
%ADD21R,1.498600X0.899160*%
%ADD22R,1.727200X1.727200*%
%ADD23O,1.727200X1.727200*%
%ADD24C,1.727200*%
%ADD25C,0.800000*%
%ADD26C,0.250000*%
G04 APERTURE END LIST*
D10*
X76569142Y-133266571D02*
X76569142Y-131766571D01*
X76926285Y-131766571D01*
X77140571Y-131838000D01*
X77283428Y-131980857D01*
X77354857Y-132123714D01*
X77426285Y-132409428D01*
X77426285Y-132623714D01*
X77354857Y-132909428D01*
X77283428Y-133052285D01*
X77140571Y-133195142D01*
X76926285Y-133266571D01*
X76569142Y-133266571D01*
X156166285Y-47525714D02*
X156094857Y-47597142D01*
X155880571Y-47668571D01*
X155737714Y-47668571D01*
X155523428Y-47597142D01*
X155380571Y-47454285D01*
X155309142Y-47311428D01*
X155237714Y-47025714D01*
X155237714Y-46811428D01*
X155309142Y-46525714D01*
X155380571Y-46382857D01*
X155523428Y-46240000D01*
X155737714Y-46168571D01*
X155880571Y-46168571D01*
X156094857Y-46240000D01*
X156166285Y-46311428D01*
X138834857Y-47494000D02*
X139549142Y-47494000D01*
X138692000Y-47922571D02*
X139192000Y-46422571D01*
X139692000Y-47922571D01*
X155555142Y-61106857D02*
X155769428Y-61178285D01*
X155840857Y-61249714D01*
X155912285Y-61392571D01*
X155912285Y-61606857D01*
X155840857Y-61749714D01*
X155769428Y-61821142D01*
X155626571Y-61892571D01*
X155055142Y-61892571D01*
X155055142Y-60392571D01*
X155555142Y-60392571D01*
X155698000Y-60464000D01*
X155769428Y-60535428D01*
X155840857Y-60678285D01*
X155840857Y-60821142D01*
X155769428Y-60964000D01*
X155698000Y-61035428D01*
X155555142Y-61106857D01*
X155055142Y-61106857D01*
D11*
G36*
X71120000Y-133350000D02*
G01*
X82550000Y-133350000D01*
X82550000Y-143383000D01*
X71120000Y-143383000D01*
X71120000Y-133350000D01*
G37*
X71120000Y-133350000D02*
X82550000Y-133350000D01*
X82550000Y-143383000D01*
X71120000Y-143383000D01*
X71120000Y-133350000D01*
G36*
X149860000Y-61976000D02*
G01*
X161290000Y-61976000D01*
X161290000Y-72009000D01*
X149860000Y-72009000D01*
X149860000Y-61976000D01*
G37*
X149860000Y-61976000D02*
X161290000Y-61976000D01*
X161290000Y-72009000D01*
X149860000Y-72009000D01*
X149860000Y-61976000D01*
G36*
X133858000Y-48006000D02*
G01*
X145288000Y-48006000D01*
X145288000Y-58039000D01*
X133858000Y-58039000D01*
X133858000Y-48006000D01*
G37*
X133858000Y-48006000D02*
X145288000Y-48006000D01*
X145288000Y-58039000D01*
X133858000Y-58039000D01*
X133858000Y-48006000D01*
G36*
X149860000Y-47752000D02*
G01*
X161290000Y-47752000D01*
X161290000Y-57785000D01*
X149860000Y-57785000D01*
X149860000Y-47752000D01*
G37*
X149860000Y-47752000D02*
X161290000Y-47752000D01*
X161290000Y-57785000D01*
X149860000Y-57785000D01*
X149860000Y-47752000D01*
D12*
X160099000Y-92535000D03*
X160099000Y-89995000D03*
X160099000Y-87455000D03*
X160099000Y-84915000D03*
X160099000Y-82375000D03*
X160099000Y-79835000D03*
X160099000Y-77295000D03*
X157559000Y-92535000D03*
X157559000Y-89995000D03*
X157559000Y-87455000D03*
X157559000Y-84915000D03*
X157559000Y-82375000D03*
X157559000Y-79835000D03*
X157559000Y-77295000D03*
X155019000Y-92535000D03*
X155019000Y-89995000D03*
X155019000Y-87455000D03*
X155019000Y-84915000D03*
X155019000Y-82375000D03*
X155019000Y-79835000D03*
X155019000Y-77295000D03*
X152479000Y-92535000D03*
X152479000Y-89995000D03*
X152479000Y-87455000D03*
X152479000Y-84915000D03*
X152479000Y-82375000D03*
X152479000Y-79835000D03*
X152479000Y-77295000D03*
X149939000Y-92535000D03*
X149939000Y-89995000D03*
X149939000Y-87455000D03*
X149939000Y-84915000D03*
X149939000Y-82375000D03*
X149939000Y-79835000D03*
X149939000Y-77295000D03*
X147399000Y-92535000D03*
X147399000Y-89995000D03*
X147399000Y-87455000D03*
X147399000Y-84915000D03*
X147399000Y-82375000D03*
X147399000Y-79835000D03*
X147399000Y-77295000D03*
X144859000Y-92535000D03*
X144859000Y-89995000D03*
X144859000Y-87455000D03*
X144859000Y-84915000D03*
X144859000Y-82375000D03*
X144859000Y-79835000D03*
X144859000Y-77295000D03*
X142319000Y-92535000D03*
X142319000Y-89995000D03*
X142319000Y-87455000D03*
X142319000Y-84915000D03*
X142319000Y-82375000D03*
X142319000Y-79835000D03*
X142319000Y-77295000D03*
X139779000Y-92535000D03*
X139779000Y-89995000D03*
X139779000Y-87455000D03*
X139779000Y-84915000D03*
X139779000Y-82375000D03*
X139779000Y-79835000D03*
X139779000Y-77295000D03*
X137239000Y-92535000D03*
X137239000Y-89995000D03*
X137239000Y-87455000D03*
X137239000Y-84915000D03*
X137239000Y-82375000D03*
X137239000Y-79835000D03*
X137239000Y-77295000D03*
X120856000Y-60912000D03*
X120856000Y-58372000D03*
X120856000Y-55832000D03*
X120856000Y-53292000D03*
X120856000Y-50752000D03*
X120856000Y-48212000D03*
X118316000Y-60912000D03*
X118316000Y-58372000D03*
X118316000Y-55832000D03*
X118316000Y-53292000D03*
X118316000Y-50752000D03*
X118316000Y-48212000D03*
X115776000Y-60912000D03*
X115776000Y-58372000D03*
X115776000Y-55832000D03*
X115776000Y-53292000D03*
X115776000Y-50752000D03*
X115776000Y-48212000D03*
X113236000Y-60912000D03*
X113236000Y-58372000D03*
X113236000Y-55832000D03*
X113236000Y-53292000D03*
X113236000Y-50752000D03*
X113236000Y-48212000D03*
X110696000Y-60912000D03*
X110696000Y-58372000D03*
X110696000Y-55832000D03*
X110696000Y-53292000D03*
X110696000Y-50752000D03*
X110696000Y-48212000D03*
X108156000Y-60912000D03*
X108156000Y-58372000D03*
X108156000Y-55832000D03*
X108156000Y-53292000D03*
X108156000Y-50752000D03*
X108156000Y-48212000D03*
X105616000Y-60912000D03*
X105616000Y-58372000D03*
X105616000Y-55832000D03*
X105616000Y-53292000D03*
X105616000Y-50752000D03*
X105616000Y-48212000D03*
X103076000Y-60912000D03*
X103076000Y-58372000D03*
X103076000Y-55832000D03*
X103076000Y-53292000D03*
X103076000Y-50752000D03*
X103076000Y-48212000D03*
X100536000Y-60912000D03*
X100536000Y-58372000D03*
X100536000Y-55832000D03*
X100536000Y-53292000D03*
X100536000Y-50752000D03*
X100536000Y-48212000D03*
X97996000Y-60912000D03*
X97996000Y-58372000D03*
X97996000Y-55832000D03*
X97996000Y-53292000D03*
X97996000Y-50752000D03*
X97996000Y-48212000D03*
X95456000Y-60912000D03*
X95456000Y-58372000D03*
X95456000Y-55832000D03*
X95456000Y-53292000D03*
X95456000Y-50752000D03*
X95456000Y-48212000D03*
X92916000Y-60912000D03*
X92916000Y-58372000D03*
X92916000Y-55832000D03*
X92916000Y-53292000D03*
X92916000Y-50752000D03*
X92916000Y-48212000D03*
X90376000Y-60912000D03*
X90376000Y-58372000D03*
X90376000Y-55832000D03*
X90376000Y-53292000D03*
X90376000Y-50752000D03*
X90376000Y-48212000D03*
X87836000Y-60912000D03*
X87836000Y-58372000D03*
X87836000Y-55832000D03*
X87836000Y-53292000D03*
X87836000Y-50752000D03*
X87836000Y-48212000D03*
X85296000Y-60912000D03*
X85296000Y-58372000D03*
X85296000Y-55832000D03*
X85296000Y-53292000D03*
X85296000Y-50752000D03*
X85296000Y-48212000D03*
X82756000Y-60912000D03*
X82756000Y-58372000D03*
X82756000Y-55832000D03*
X82756000Y-53292000D03*
X82756000Y-50752000D03*
X82756000Y-48212000D03*
X80216000Y-60912000D03*
X80216000Y-58372000D03*
X80216000Y-55832000D03*
X80216000Y-53292000D03*
X80216000Y-50752000D03*
X80216000Y-48212000D03*
X77676000Y-60912000D03*
X77676000Y-58372000D03*
X77676000Y-55832000D03*
X77676000Y-53292000D03*
X77676000Y-50752000D03*
X77676000Y-48212000D03*
X75136000Y-60912000D03*
X75136000Y-58372000D03*
X75136000Y-55832000D03*
X75136000Y-53292000D03*
X75136000Y-50752000D03*
X75136000Y-48212000D03*
X72596000Y-60912000D03*
X72596000Y-58372000D03*
X72596000Y-55832000D03*
X72596000Y-53292000D03*
X72596000Y-50752000D03*
X72596000Y-48212000D03*
D13*
X160274000Y-138938000D03*
X160924000Y-138938000D03*
X161574000Y-138938000D03*
X159624000Y-138938000D03*
X158974000Y-138938000D03*
D14*
X162774000Y-138938000D03*
X157774000Y-138938000D03*
D15*
X156774000Y-141638000D03*
X163774000Y-141638000D03*
D12*
X128476000Y-130762000D03*
X128476000Y-128222000D03*
X128476000Y-125682000D03*
X128476000Y-123142000D03*
X128476000Y-120602000D03*
X128476000Y-118062000D03*
X128476000Y-115522000D03*
X128476000Y-112982000D03*
X128476000Y-110442000D03*
X128476000Y-107902000D03*
X128476000Y-105362000D03*
X128476000Y-102822000D03*
X128476000Y-100282000D03*
X128476000Y-97742000D03*
X128476000Y-95202000D03*
X128476000Y-92662000D03*
X125936000Y-130762000D03*
X125936000Y-128222000D03*
X125936000Y-125682000D03*
X125936000Y-123142000D03*
X125936000Y-120602000D03*
X125936000Y-118062000D03*
X125936000Y-115522000D03*
X125936000Y-112982000D03*
X125936000Y-110442000D03*
X125936000Y-107902000D03*
X125936000Y-105362000D03*
X125936000Y-102822000D03*
X125936000Y-100282000D03*
X125936000Y-97742000D03*
X125936000Y-95202000D03*
X125936000Y-92662000D03*
X123396000Y-130762000D03*
X123396000Y-128222000D03*
X123396000Y-125682000D03*
X123396000Y-123142000D03*
X123396000Y-120602000D03*
X123396000Y-118062000D03*
X123396000Y-115522000D03*
X123396000Y-112982000D03*
X123396000Y-110442000D03*
X123396000Y-107902000D03*
X123396000Y-105362000D03*
X123396000Y-102822000D03*
X123396000Y-100282000D03*
X123396000Y-97742000D03*
X123396000Y-95202000D03*
X123396000Y-92662000D03*
X120856000Y-130762000D03*
X120856000Y-128222000D03*
X120856000Y-125682000D03*
X120856000Y-123142000D03*
X120856000Y-120602000D03*
X120856000Y-118062000D03*
X120856000Y-115522000D03*
X120856000Y-112982000D03*
X120856000Y-110442000D03*
X120856000Y-107902000D03*
X120856000Y-105362000D03*
X120856000Y-102822000D03*
X120856000Y-100282000D03*
X120856000Y-97742000D03*
X120856000Y-95202000D03*
X120856000Y-92662000D03*
X118316000Y-130762000D03*
X118316000Y-128222000D03*
X118316000Y-125682000D03*
X118316000Y-123142000D03*
X118316000Y-120602000D03*
X118316000Y-118062000D03*
X118316000Y-115522000D03*
X118316000Y-112982000D03*
X118316000Y-110442000D03*
X118316000Y-107902000D03*
X118316000Y-105362000D03*
X118316000Y-102822000D03*
X118316000Y-100282000D03*
X118316000Y-97742000D03*
X118316000Y-95202000D03*
X118316000Y-92662000D03*
X115776000Y-130762000D03*
X115776000Y-128222000D03*
X115776000Y-125682000D03*
X115776000Y-123142000D03*
X115776000Y-120602000D03*
X115776000Y-118062000D03*
X115776000Y-115522000D03*
X115776000Y-112982000D03*
X115776000Y-110442000D03*
X115776000Y-107902000D03*
X115776000Y-105362000D03*
X115776000Y-102822000D03*
X115776000Y-100282000D03*
X115776000Y-97742000D03*
X115776000Y-95202000D03*
X115776000Y-92662000D03*
X113236000Y-130762000D03*
X113236000Y-128222000D03*
X113236000Y-125682000D03*
X113236000Y-123142000D03*
X113236000Y-120602000D03*
X113236000Y-118062000D03*
X113236000Y-115522000D03*
X113236000Y-112982000D03*
X113236000Y-110442000D03*
X113236000Y-107902000D03*
X113236000Y-105362000D03*
X113236000Y-102822000D03*
X113236000Y-100282000D03*
X113236000Y-97742000D03*
X113236000Y-95202000D03*
X113236000Y-92662000D03*
X110696000Y-130762000D03*
X110696000Y-128222000D03*
X110696000Y-125682000D03*
X110696000Y-123142000D03*
X110696000Y-120602000D03*
X110696000Y-118062000D03*
X110696000Y-115522000D03*
X110696000Y-112982000D03*
X110696000Y-110442000D03*
X110696000Y-107902000D03*
X110696000Y-105362000D03*
X110696000Y-102822000D03*
X110696000Y-100282000D03*
X110696000Y-97742000D03*
X110696000Y-95202000D03*
X110696000Y-92662000D03*
X108156000Y-130762000D03*
X108156000Y-128222000D03*
X108156000Y-125682000D03*
X108156000Y-123142000D03*
X108156000Y-120602000D03*
X108156000Y-118062000D03*
X108156000Y-115522000D03*
X108156000Y-112982000D03*
X108156000Y-110442000D03*
X108156000Y-107902000D03*
X108156000Y-105362000D03*
X108156000Y-102822000D03*
X108156000Y-100282000D03*
X108156000Y-97742000D03*
X108156000Y-95202000D03*
X108156000Y-92662000D03*
X105616000Y-130762000D03*
X105616000Y-128222000D03*
X105616000Y-125682000D03*
X105616000Y-123142000D03*
X105616000Y-120602000D03*
X105616000Y-118062000D03*
X105616000Y-115522000D03*
X105616000Y-112982000D03*
X105616000Y-110442000D03*
X105616000Y-107902000D03*
X105616000Y-105362000D03*
X105616000Y-102822000D03*
X105616000Y-100282000D03*
X105616000Y-97742000D03*
X105616000Y-95202000D03*
X105616000Y-92662000D03*
X103076000Y-130762000D03*
X103076000Y-128222000D03*
X103076000Y-125682000D03*
X103076000Y-123142000D03*
X103076000Y-120602000D03*
X103076000Y-118062000D03*
X103076000Y-115522000D03*
X103076000Y-112982000D03*
X103076000Y-110442000D03*
X103076000Y-107902000D03*
X103076000Y-105362000D03*
X103076000Y-102822000D03*
X103076000Y-100282000D03*
X103076000Y-97742000D03*
X103076000Y-95202000D03*
X103076000Y-92662000D03*
X100536000Y-130762000D03*
X100536000Y-128222000D03*
X100536000Y-125682000D03*
X100536000Y-123142000D03*
X100536000Y-120602000D03*
X100536000Y-118062000D03*
X100536000Y-115522000D03*
X100536000Y-112982000D03*
X100536000Y-110442000D03*
X100536000Y-107902000D03*
X100536000Y-105362000D03*
X100536000Y-102822000D03*
X100536000Y-100282000D03*
X100536000Y-97742000D03*
X100536000Y-95202000D03*
X100536000Y-92662000D03*
X97996000Y-130762000D03*
X97996000Y-128222000D03*
X97996000Y-125682000D03*
X97996000Y-123142000D03*
X97996000Y-120602000D03*
X97996000Y-118062000D03*
X97996000Y-115522000D03*
X97996000Y-112982000D03*
X97996000Y-110442000D03*
X97996000Y-107902000D03*
X97996000Y-105362000D03*
X97996000Y-102822000D03*
X97996000Y-100282000D03*
X97996000Y-97742000D03*
X97996000Y-95202000D03*
X97996000Y-92662000D03*
X95456000Y-130762000D03*
X95456000Y-128222000D03*
X95456000Y-125682000D03*
X95456000Y-123142000D03*
X95456000Y-120602000D03*
X95456000Y-118062000D03*
X95456000Y-115522000D03*
X95456000Y-112982000D03*
X95456000Y-110442000D03*
X95456000Y-107902000D03*
X95456000Y-105362000D03*
X95456000Y-102822000D03*
X95456000Y-100282000D03*
X95456000Y-97742000D03*
X95456000Y-95202000D03*
X95456000Y-92662000D03*
D16*
X89662000Y-95250000D03*
X74422000Y-123190000D03*
X89662000Y-97790000D03*
X74422000Y-120650000D03*
X89662000Y-100330000D03*
X74422000Y-118110000D03*
X89662000Y-102870000D03*
X74422000Y-115570000D03*
X89662000Y-105410000D03*
X74422000Y-113030000D03*
X89662000Y-107950000D03*
X74422000Y-110490000D03*
X89662000Y-110490000D03*
X74422000Y-107950000D03*
X89662000Y-113030000D03*
X74422000Y-105410000D03*
X89662000Y-115570000D03*
X74422000Y-102870000D03*
X89662000Y-118110000D03*
X74422000Y-100330000D03*
X89662000Y-120650000D03*
X74422000Y-97790000D03*
X89662000Y-123190000D03*
D17*
X74422000Y-95250000D03*
D18*
X131826000Y-69088000D03*
X130302000Y-69088000D03*
X128778000Y-69088000D03*
D19*
X131572000Y-67564000D03*
X130556000Y-67564000D03*
X129540000Y-67564000D03*
X128524000Y-67564000D03*
D20*
X130810000Y-66548000D03*
X130302000Y-66548000D03*
X129794000Y-66548000D03*
X129286000Y-66548000D03*
X128778000Y-66548000D03*
D21*
X104368600Y-70116700D03*
X104368600Y-71615300D03*
X107467400Y-71615300D03*
X107467400Y-70116700D03*
X81280000Y-68605400D03*
X81280000Y-70104000D03*
X78181200Y-70104000D03*
X78181200Y-68605400D03*
X91643200Y-69088000D03*
X91643200Y-70586600D03*
X94742000Y-70586600D03*
X94742000Y-69088000D03*
D22*
X151444000Y-105938000D03*
D23*
X151444000Y-103398000D03*
X153984000Y-105938000D03*
X153984000Y-103398000D03*
D24*
X156524000Y-105938000D03*
X156524000Y-103398000D03*
D25*
X128778000Y-62992000D03*
X130302000Y-62992000D03*
X131826000Y-62992000D03*
X133350000Y-62992000D03*
X134874000Y-62992000D03*
X136398000Y-62992000D03*
X137922000Y-62992000D03*
X137922000Y-64262000D03*
X136398000Y-64262000D03*
X134874000Y-64262000D03*
X133350000Y-64262000D03*
X131826000Y-64262000D03*
X130302000Y-64262000D03*
X128778000Y-64262000D03*
X115062000Y-138430000D03*
D26*
X95154000Y-95504000D02*
X95456000Y-95202000D01*
X95154000Y-98044000D02*
X95456000Y-97742000D01*
X95154000Y-100584000D02*
X95456000Y-100282000D01*
X95154000Y-103124000D02*
X95456000Y-102822000D01*
X95408000Y-95250000D02*
X95456000Y-95202000D01*
X89662000Y-95250000D02*
X95408000Y-95250000D01*
X95408000Y-97790000D02*
X95456000Y-97742000D01*
X89662000Y-97790000D02*
X95408000Y-97790000D01*
X95408000Y-100330000D02*
X95456000Y-100282000D01*
X89662000Y-100330000D02*
X95408000Y-100330000D01*
X95408000Y-102870000D02*
X95456000Y-102822000D01*
X89662000Y-102870000D02*
X95408000Y-102870000D01*
X95408000Y-105410000D02*
X95456000Y-105362000D01*
X89662000Y-105410000D02*
X95408000Y-105410000D01*
X95408000Y-107950000D02*
X95456000Y-107902000D01*
X89662000Y-107950000D02*
X95408000Y-107950000D01*
X95408000Y-110490000D02*
X95456000Y-110442000D01*
X89662000Y-110490000D02*
X95408000Y-110490000D01*
X95408000Y-113030000D02*
X95456000Y-112982000D01*
X89662000Y-113030000D02*
X95408000Y-113030000D01*
X95408000Y-115570000D02*
X95456000Y-115522000D01*
X89662000Y-115570000D02*
X95408000Y-115570000D01*
X95408000Y-118110000D02*
X95456000Y-118062000D01*
X89662000Y-118110000D02*
X95408000Y-118110000D01*
X95408000Y-120650000D02*
X95456000Y-120602000D01*
X89662000Y-120650000D02*
X95408000Y-120650000D01*
X95408000Y-123190000D02*
X95456000Y-123142000D01*
X89662000Y-123190000D02*
X95408000Y-123190000D01*
X74422000Y-95250000D02*
X86360000Y-95250000D01*
X86360000Y-95250000D02*
X87630000Y-96520000D01*
X96678000Y-96520000D02*
X97996000Y-95202000D01*
X87630000Y-96520000D02*
X96678000Y-96520000D01*
X74422000Y-97790000D02*
X86360000Y-97790000D01*
X86360000Y-97790000D02*
X87630000Y-99060000D01*
X96678000Y-99060000D02*
X97996000Y-97742000D01*
X87630000Y-99060000D02*
X96678000Y-99060000D01*
X74422000Y-100330000D02*
X86614000Y-100330000D01*
X86614000Y-100330000D02*
X87884000Y-101600000D01*
X96678000Y-101600000D02*
X97996000Y-100282000D01*
X87884000Y-101600000D02*
X96678000Y-101600000D01*
X74422000Y-102870000D02*
X86614000Y-102870000D01*
X86614000Y-102870000D02*
X87630000Y-103886000D01*
X96932000Y-103886000D02*
X97996000Y-102822000D01*
X87630000Y-103886000D02*
X96932000Y-103886000D01*
X96678000Y-106680000D02*
X97996000Y-105362000D01*
X88138000Y-106680000D02*
X96678000Y-106680000D01*
X74422000Y-105410000D02*
X86868000Y-105410000D01*
X86868000Y-105410000D02*
X88138000Y-106680000D01*
X74422000Y-107950000D02*
X86614000Y-107950000D01*
X86614000Y-107950000D02*
X87884000Y-109220000D01*
X96678000Y-109220000D02*
X97996000Y-107902000D01*
X87884000Y-109220000D02*
X96678000Y-109220000D01*
X74422000Y-110490000D02*
X86360000Y-110490000D01*
X86360000Y-110490000D02*
X87630000Y-111760000D01*
X96678000Y-111760000D02*
X97996000Y-110442000D01*
X87630000Y-111760000D02*
X96678000Y-111760000D01*
X74422000Y-113030000D02*
X85852000Y-113030000D01*
X85852000Y-113030000D02*
X87122000Y-114300000D01*
X96678000Y-114300000D02*
X97996000Y-112982000D01*
X87122000Y-114300000D02*
X96678000Y-114300000D01*
X96678000Y-116840000D02*
X97996000Y-115522000D01*
X88646000Y-116840000D02*
X96678000Y-116840000D01*
X74422000Y-115570000D02*
X87376000Y-115570000D01*
X87376000Y-115570000D02*
X88646000Y-116840000D01*
X74422000Y-118110000D02*
X86360000Y-118110000D01*
X86360000Y-118110000D02*
X87630000Y-119380000D01*
X96678000Y-119380000D02*
X97996000Y-118062000D01*
X87630000Y-119380000D02*
X96678000Y-119380000D01*
X74422000Y-120650000D02*
X86360000Y-120650000D01*
X86360000Y-120650000D02*
X87630000Y-121920000D01*
X96678000Y-121920000D02*
X97996000Y-120602000D01*
X87630000Y-121920000D02*
X96678000Y-121920000D01*
X74422000Y-123190000D02*
X86360000Y-123190000D01*
X86360000Y-123190000D02*
X87630000Y-124460000D01*
X96678000Y-124460000D02*
X97996000Y-123142000D01*
X87630000Y-124460000D02*
X96678000Y-124460000D01*
X152146000Y-70104000D02*
X151034000Y-70104000D01*
X156210000Y-57404000D02*
X164592000Y-57404000D01*
X164592000Y-57404000D02*
X166116000Y-58928000D01*
X166116000Y-58928000D02*
X166116000Y-110998000D01*
X161592000Y-115522000D02*
X128476000Y-115522000D01*
X166116000Y-110998000D02*
X161592000Y-115522000D01*
X160274000Y-66802000D02*
X163576000Y-66802000D01*
X163576000Y-66802000D02*
X165354000Y-68580000D01*
X165354000Y-68580000D02*
X165354000Y-110490000D01*
X165354000Y-110490000D02*
X161290000Y-114554000D01*
X130048000Y-114554000D02*
X128476000Y-112982000D01*
X161290000Y-114554000D02*
X130048000Y-114554000D01*
X144272000Y-56642000D02*
X144272000Y-73660000D01*
X144272000Y-73660000D02*
X145796000Y-75184000D01*
X145796000Y-75184000D02*
X162306000Y-75184000D01*
X162306000Y-75184000D02*
X164592000Y-77470000D01*
X164592000Y-77470000D02*
X164592000Y-109982000D01*
X164592000Y-109982000D02*
X161036000Y-113538000D01*
X131572000Y-113538000D02*
X128476000Y-110442000D01*
X161036000Y-113538000D02*
X131572000Y-113538000D01*
X81534000Y-138430000D02*
X115062000Y-138430000D01*
X115062000Y-138430000D02*
X115062000Y-138430000D01*
X104368600Y-70116700D02*
X102603300Y-70116700D01*
X102603300Y-70116700D02*
X102362000Y-70358000D01*
X102362000Y-70358000D02*
X102362000Y-71628000D01*
X115776000Y-85042000D02*
X115776000Y-92662000D01*
X102362000Y-71628000D02*
X115776000Y-85042000D01*
X118316000Y-84534000D02*
X118316000Y-92662000D01*
X104368600Y-71615300D02*
X105397300Y-71615300D01*
X105397300Y-71615300D02*
X118316000Y-84534000D01*
X107467400Y-71615300D02*
X107467400Y-71653400D01*
X120856000Y-85042000D02*
X120856000Y-92662000D01*
X107467400Y-71653400D02*
X120856000Y-85042000D01*
X107467400Y-70116700D02*
X109740700Y-70116700D01*
X109740700Y-70116700D02*
X110744000Y-71120000D01*
X110744000Y-71120000D02*
X110744000Y-72898000D01*
X123396000Y-85550000D02*
X123396000Y-92662000D01*
X110744000Y-72898000D02*
X123396000Y-85550000D01*
X81280000Y-68605400D02*
X84099400Y-68605400D01*
X84099400Y-68605400D02*
X84582000Y-69088000D01*
X84582000Y-69088000D02*
X84582000Y-74422000D01*
X84582000Y-74422000D02*
X87884000Y-77724000D01*
X87884000Y-77724000D02*
X87884000Y-88392000D01*
X87884000Y-88392000D02*
X89662000Y-90170000D01*
X100584000Y-90170000D02*
X103076000Y-92662000D01*
X89662000Y-90170000D02*
X100584000Y-90170000D01*
X81280000Y-70104000D02*
X81280000Y-74422000D01*
X81280000Y-74422000D02*
X82296000Y-75438000D01*
X82296000Y-75438000D02*
X84836000Y-75438000D01*
X84836000Y-75438000D02*
X87376000Y-77978000D01*
X87376000Y-77978000D02*
X87376000Y-88646000D01*
X87376000Y-88646000D02*
X89408000Y-90678000D01*
X98552000Y-90678000D02*
X100536000Y-92662000D01*
X89408000Y-90678000D02*
X98552000Y-90678000D01*
X78181200Y-70104000D02*
X76200000Y-70104000D01*
X76200000Y-70104000D02*
X74930000Y-71374000D01*
X74930000Y-71374000D02*
X74930000Y-73406000D01*
X74930000Y-73406000D02*
X77470000Y-75946000D01*
X77470000Y-75946000D02*
X84582000Y-75946000D01*
X84582000Y-75946000D02*
X86868000Y-78232000D01*
X86868000Y-78232000D02*
X86868000Y-88900000D01*
X86868000Y-88900000D02*
X89154000Y-91186000D01*
X96520000Y-91186000D02*
X97996000Y-92662000D01*
X89154000Y-91186000D02*
X96520000Y-91186000D01*
X78181200Y-68605400D02*
X76682600Y-68605400D01*
X76682600Y-68605400D02*
X74422000Y-70866000D01*
X74422000Y-70866000D02*
X74422000Y-73660000D01*
X74422000Y-73660000D02*
X77216000Y-76454000D01*
X77216000Y-76454000D02*
X84328000Y-76454000D01*
X84328000Y-76454000D02*
X86360000Y-78486000D01*
X86360000Y-78486000D02*
X86360000Y-89154000D01*
X89868000Y-92662000D02*
X95456000Y-92662000D01*
X86360000Y-89154000D02*
X89868000Y-92662000D01*
X91643200Y-69088000D02*
X89408000Y-69088000D01*
X89408000Y-69088000D02*
X87630000Y-70866000D01*
X87630000Y-70866000D02*
X87630000Y-74422000D01*
X87630000Y-74422000D02*
X89916000Y-76708000D01*
X89916000Y-76708000D02*
X97536000Y-76708000D01*
X105616000Y-84788000D02*
X105616000Y-92662000D01*
X97536000Y-76708000D02*
X105616000Y-84788000D01*
X91643200Y-70586600D02*
X88925400Y-70586600D01*
X88925400Y-70586600D02*
X88138000Y-71374000D01*
X88138000Y-71374000D02*
X88138000Y-74168000D01*
X88138000Y-74168000D02*
X90170000Y-76200000D01*
X90170000Y-76200000D02*
X98552000Y-76200000D01*
X108156000Y-85804000D02*
X108156000Y-92662000D01*
X98552000Y-76200000D02*
X108156000Y-85804000D01*
X94742000Y-70586600D02*
X94742000Y-74168000D01*
X94742000Y-74168000D02*
X96266000Y-75692000D01*
X96266000Y-75692000D02*
X98806000Y-75692000D01*
X110696000Y-87582000D02*
X110696000Y-92662000D01*
X98806000Y-75692000D02*
X110696000Y-87582000D01*
X94742000Y-69088000D02*
X98044000Y-69088000D01*
X98044000Y-69088000D02*
X99314000Y-70358000D01*
X99314000Y-70358000D02*
X99314000Y-75184000D01*
X113236000Y-89106000D02*
X113236000Y-92662000D01*
X99314000Y-75184000D02*
X113236000Y-89106000D01*
X160274000Y-138938000D02*
X160274000Y-136144000D01*
X149812000Y-125682000D02*
X128476000Y-125682000D01*
X160274000Y-136144000D02*
X149812000Y-125682000D01*
X160924000Y-138938000D02*
X160924000Y-135016000D01*
X149050000Y-123142000D02*
X128476000Y-123142000D01*
X160924000Y-135016000D02*
X149050000Y-123142000D01*
X161574000Y-138938000D02*
X161574000Y-133888000D01*
X161574000Y-133888000D02*
X148336000Y-120650000D01*
X128524000Y-120650000D02*
X128476000Y-120602000D01*
X148336000Y-120650000D02*
X128524000Y-120650000D01*
X159624000Y-138938000D02*
X159624000Y-136764000D01*
X151082000Y-128222000D02*
X128476000Y-128222000D01*
X159624000Y-136764000D02*
X151082000Y-128222000D01*
X158974000Y-138938000D02*
X158974000Y-137892000D01*
X151844000Y-130762000D02*
X128476000Y-130762000D01*
X158974000Y-137892000D02*
X151844000Y-130762000D01*
X156524000Y-103398000D02*
X156524000Y-102168000D01*
X156524000Y-102168000D02*
X154686000Y-100330000D01*
X154686000Y-100330000D02*
X136398000Y-100330000D01*
X131270000Y-95202000D02*
X128476000Y-95202000D01*
X136398000Y-100330000D02*
X131270000Y-95202000D01*
X153984000Y-103398000D02*
X153984000Y-102930000D01*
X153984000Y-105938000D02*
X153944000Y-105938000D01*
X153944000Y-105938000D02*
X152654000Y-104648000D01*
X152654000Y-104648000D02*
X134620000Y-104648000D01*
X134620000Y-104648000D02*
X129032000Y-99060000D01*
X127254000Y-99060000D02*
X125936000Y-97742000D01*
X129032000Y-99060000D02*
X127254000Y-99060000D01*
X151444000Y-103398000D02*
X137180000Y-103398000D01*
X137180000Y-103398000D02*
X130302000Y-96520000D01*
X124714000Y-96520000D02*
X123396000Y-95202000D01*
X130302000Y-96520000D02*
X124714000Y-96520000D01*
X122174000Y-98964000D02*
X123396000Y-97742000D01*
X122174000Y-101346000D02*
X122174000Y-98964000D01*
X122428000Y-101600000D02*
X122174000Y-101346000D01*
X129286000Y-101600000D02*
X122428000Y-101600000D01*
X151444000Y-105938000D02*
X133624000Y-105938000D01*
X133624000Y-105938000D02*
X129286000Y-101600000D01*
M02*
