G04 #@! TF.GenerationSoftware,KiCad,Pcbnew,(5.1.4)-1*
G04 #@! TF.CreationDate,2019-09-21T18:09:15-04:00*
G04 #@! TF.ProjectId,test2,74657374-322e-46b6-9963-61645f706362,rev?*
G04 #@! TF.SameCoordinates,Original*
G04 #@! TF.FileFunction,Legend,Top*
G04 #@! TF.FilePolarity,Positive*
%FSLAX46Y46*%
G04 Gerber Fmt 4.6, Leading zero omitted, Abs format (unit mm)*
G04 Created by KiCad (PCBNEW (5.1.4)-1) date 2019-09-21 18:09:15*
%MOMM*%
%LPD*%
G04 APERTURE LIST*
%ADD10C,0.150000*%
%ADD11C,0.120000*%
%ADD12C,0.300000*%
%ADD13C,0.100000*%
%ADD14C,0.127000*%
%ADD15C,0.063500*%
%ADD16C,0.500000*%
%ADD17C,0.152400*%
G04 APERTURE END LIST*
D10*
X130294095Y-118562380D02*
X130294095Y-117562380D01*
X130532190Y-117562380D01*
X130675047Y-117610000D01*
X130770285Y-117705238D01*
X130817904Y-117800476D01*
X130865523Y-117990952D01*
X130865523Y-118133809D01*
X130817904Y-118324285D01*
X130770285Y-118419523D01*
X130675047Y-118514761D01*
X130532190Y-118562380D01*
X130294095Y-118562380D01*
X130865523Y-116181142D02*
X130817904Y-116228761D01*
X130675047Y-116276380D01*
X130579809Y-116276380D01*
X130436952Y-116228761D01*
X130341714Y-116133523D01*
X130294095Y-116038285D01*
X130246476Y-115847809D01*
X130246476Y-115704952D01*
X130294095Y-115514476D01*
X130341714Y-115419238D01*
X130436952Y-115324000D01*
X130579809Y-115276380D01*
X130675047Y-115276380D01*
X130817904Y-115324000D01*
X130865523Y-115371619D01*
X130627428Y-113212571D02*
X130770285Y-113260190D01*
X130817904Y-113307809D01*
X130865523Y-113403047D01*
X130865523Y-113545904D01*
X130817904Y-113641142D01*
X130770285Y-113688761D01*
X130675047Y-113736380D01*
X130294095Y-113736380D01*
X130294095Y-112736380D01*
X130627428Y-112736380D01*
X130722666Y-112784000D01*
X130770285Y-112831619D01*
X130817904Y-112926857D01*
X130817904Y-113022095D01*
X130770285Y-113117333D01*
X130722666Y-113164952D01*
X130627428Y-113212571D01*
X130294095Y-113212571D01*
X130317904Y-110656666D02*
X130794095Y-110656666D01*
X130222666Y-110942380D02*
X130556000Y-109942380D01*
X130889333Y-110942380D01*
X131095714Y-131262380D02*
X130524285Y-131262380D01*
X130810000Y-131262380D02*
X130810000Y-130262380D01*
X130714761Y-130405238D01*
X130619523Y-130500476D01*
X130524285Y-130548095D01*
X130524285Y-127817619D02*
X130571904Y-127770000D01*
X130667142Y-127722380D01*
X130905238Y-127722380D01*
X131000476Y-127770000D01*
X131048095Y-127817619D01*
X131095714Y-127912857D01*
X131095714Y-128008095D01*
X131048095Y-128150952D01*
X130476666Y-128722380D01*
X131095714Y-128722380D01*
X130476666Y-125182380D02*
X131095714Y-125182380D01*
X130762380Y-125563333D01*
X130905238Y-125563333D01*
X131000476Y-125610952D01*
X131048095Y-125658571D01*
X131095714Y-125753809D01*
X131095714Y-125991904D01*
X131048095Y-126087142D01*
X131000476Y-126134761D01*
X130905238Y-126182380D01*
X130619523Y-126182380D01*
X130524285Y-126134761D01*
X130476666Y-126087142D01*
X131000476Y-122975714D02*
X131000476Y-123642380D01*
X130762380Y-122594761D02*
X130524285Y-123309047D01*
X131143333Y-123309047D01*
X131048095Y-120102380D02*
X130571904Y-120102380D01*
X130524285Y-120578571D01*
X130571904Y-120530952D01*
X130667142Y-120483333D01*
X130905238Y-120483333D01*
X131000476Y-120530952D01*
X131048095Y-120578571D01*
X131095714Y-120673809D01*
X131095714Y-120911904D01*
X131048095Y-121007142D01*
X131000476Y-121054761D01*
X130905238Y-121102380D01*
X130667142Y-121102380D01*
X130571904Y-121054761D01*
X130524285Y-121007142D01*
X133754761Y-100480285D02*
X133802380Y-100337428D01*
X133802380Y-100099333D01*
X133754761Y-100004095D01*
X133707142Y-99956476D01*
X133611904Y-99908857D01*
X133516666Y-99908857D01*
X133421428Y-99956476D01*
X133373809Y-100004095D01*
X133326190Y-100099333D01*
X133278571Y-100289809D01*
X133230952Y-100385047D01*
X133183333Y-100432666D01*
X133088095Y-100480285D01*
X132992857Y-100480285D01*
X132897619Y-100432666D01*
X132850000Y-100385047D01*
X132802380Y-100289809D01*
X132802380Y-100051714D01*
X132850000Y-99908857D01*
X133516666Y-99527904D02*
X133516666Y-99051714D01*
X133802380Y-99623142D02*
X132802380Y-99289809D01*
X133802380Y-98956476D01*
X132802380Y-98432666D02*
X132802380Y-98242190D01*
X132850000Y-98146952D01*
X132945238Y-98051714D01*
X133135714Y-98004095D01*
X133469047Y-98004095D01*
X133659523Y-98051714D01*
X133754761Y-98146952D01*
X133802380Y-98242190D01*
X133802380Y-98432666D01*
X133754761Y-98527904D01*
X133659523Y-98623142D01*
X133469047Y-98670761D01*
X133135714Y-98670761D01*
X132945238Y-98623142D01*
X132850000Y-98527904D01*
X132802380Y-98432666D01*
X133802380Y-96813619D02*
X132802380Y-96813619D01*
X133278571Y-96813619D02*
X133278571Y-96242190D01*
X133802380Y-96242190D02*
X132802380Y-96242190D01*
X133754761Y-95385047D02*
X133802380Y-95480285D01*
X133802380Y-95670761D01*
X133754761Y-95766000D01*
X133659523Y-95813619D01*
X133278571Y-95813619D01*
X133183333Y-95766000D01*
X133135714Y-95670761D01*
X133135714Y-95480285D01*
X133183333Y-95385047D01*
X133278571Y-95337428D01*
X133373809Y-95337428D01*
X133469047Y-95813619D01*
X133802380Y-94480285D02*
X133278571Y-94480285D01*
X133183333Y-94527904D01*
X133135714Y-94623142D01*
X133135714Y-94813619D01*
X133183333Y-94908857D01*
X133754761Y-94480285D02*
X133802380Y-94575523D01*
X133802380Y-94813619D01*
X133754761Y-94908857D01*
X133659523Y-94956476D01*
X133564285Y-94956476D01*
X133469047Y-94908857D01*
X133421428Y-94813619D01*
X133421428Y-94575523D01*
X133373809Y-94480285D01*
X133802380Y-93575523D02*
X132802380Y-93575523D01*
X133754761Y-93575523D02*
X133802380Y-93670761D01*
X133802380Y-93861238D01*
X133754761Y-93956476D01*
X133707142Y-94004095D01*
X133611904Y-94051714D01*
X133326190Y-94051714D01*
X133230952Y-94004095D01*
X133183333Y-93956476D01*
X133135714Y-93861238D01*
X133135714Y-93670761D01*
X133183333Y-93575523D01*
X133754761Y-92718380D02*
X133802380Y-92813619D01*
X133802380Y-93004095D01*
X133754761Y-93099333D01*
X133659523Y-93146952D01*
X133278571Y-93146952D01*
X133183333Y-93099333D01*
X133135714Y-93004095D01*
X133135714Y-92813619D01*
X133183333Y-92718380D01*
X133278571Y-92670761D01*
X133373809Y-92670761D01*
X133469047Y-93146952D01*
X133802380Y-92242190D02*
X133135714Y-92242190D01*
X133326190Y-92242190D02*
X133230952Y-92194571D01*
X133183333Y-92146952D01*
X133135714Y-92051714D01*
X133135714Y-91956476D01*
D11*
X130302000Y-93726000D02*
X121920000Y-93726000D01*
X130302000Y-99314000D02*
X130302000Y-93726000D01*
X121920000Y-99314000D02*
X130302000Y-99314000D01*
X121920000Y-93726000D02*
X121920000Y-99314000D01*
D10*
X91489333Y-122998666D02*
X91089333Y-122998666D01*
X91289333Y-122998666D02*
X91289333Y-122298666D01*
X91222666Y-122398666D01*
X91156000Y-122465333D01*
X91089333Y-122498666D01*
X91756000Y-122365333D02*
X91789333Y-122332000D01*
X91856000Y-122298666D01*
X92022666Y-122298666D01*
X92089333Y-122332000D01*
X92122666Y-122365333D01*
X92156000Y-122432000D01*
X92156000Y-122498666D01*
X92122666Y-122598666D01*
X91722666Y-122998666D01*
X92156000Y-122998666D01*
X92489333Y-122965333D02*
X92489333Y-122998666D01*
X92456000Y-123065333D01*
X92422666Y-123098666D01*
X93156000Y-122998666D02*
X92756000Y-122998666D01*
X92956000Y-122998666D02*
X92956000Y-122298666D01*
X92889333Y-122398666D01*
X92822666Y-122465333D01*
X92756000Y-122498666D01*
X93389333Y-122298666D02*
X93822666Y-122298666D01*
X93589333Y-122565333D01*
X93689333Y-122565333D01*
X93756000Y-122598666D01*
X93789333Y-122632000D01*
X93822666Y-122698666D01*
X93822666Y-122865333D01*
X93789333Y-122932000D01*
X93756000Y-122965333D01*
X93689333Y-122998666D01*
X93489333Y-122998666D01*
X93422666Y-122965333D01*
X93389333Y-122932000D01*
X91489333Y-120458666D02*
X91089333Y-120458666D01*
X91289333Y-120458666D02*
X91289333Y-119758666D01*
X91222666Y-119858666D01*
X91156000Y-119925333D01*
X91089333Y-119958666D01*
X92156000Y-120458666D02*
X91756000Y-120458666D01*
X91956000Y-120458666D02*
X91956000Y-119758666D01*
X91889333Y-119858666D01*
X91822666Y-119925333D01*
X91756000Y-119958666D01*
X92489333Y-120425333D02*
X92489333Y-120458666D01*
X92456000Y-120525333D01*
X92422666Y-120558666D01*
X93156000Y-120458666D02*
X92756000Y-120458666D01*
X92956000Y-120458666D02*
X92956000Y-119758666D01*
X92889333Y-119858666D01*
X92822666Y-119925333D01*
X92756000Y-119958666D01*
X93756000Y-119992000D02*
X93756000Y-120458666D01*
X93589333Y-119725333D02*
X93422666Y-120225333D01*
X93856000Y-120225333D01*
X91489333Y-117918666D02*
X91089333Y-117918666D01*
X91289333Y-117918666D02*
X91289333Y-117218666D01*
X91222666Y-117318666D01*
X91156000Y-117385333D01*
X91089333Y-117418666D01*
X91922666Y-117218666D02*
X91989333Y-117218666D01*
X92056000Y-117252000D01*
X92089333Y-117285333D01*
X92122666Y-117352000D01*
X92156000Y-117485333D01*
X92156000Y-117652000D01*
X92122666Y-117785333D01*
X92089333Y-117852000D01*
X92056000Y-117885333D01*
X91989333Y-117918666D01*
X91922666Y-117918666D01*
X91856000Y-117885333D01*
X91822666Y-117852000D01*
X91789333Y-117785333D01*
X91756000Y-117652000D01*
X91756000Y-117485333D01*
X91789333Y-117352000D01*
X91822666Y-117285333D01*
X91856000Y-117252000D01*
X91922666Y-117218666D01*
X92489333Y-117885333D02*
X92489333Y-117918666D01*
X92456000Y-117985333D01*
X92422666Y-118018666D01*
X93156000Y-117918666D02*
X92756000Y-117918666D01*
X92956000Y-117918666D02*
X92956000Y-117218666D01*
X92889333Y-117318666D01*
X92822666Y-117385333D01*
X92756000Y-117418666D01*
X93789333Y-117218666D02*
X93456000Y-117218666D01*
X93422666Y-117552000D01*
X93456000Y-117518666D01*
X93522666Y-117485333D01*
X93689333Y-117485333D01*
X93756000Y-117518666D01*
X93789333Y-117552000D01*
X93822666Y-117618666D01*
X93822666Y-117785333D01*
X93789333Y-117852000D01*
X93756000Y-117885333D01*
X93689333Y-117918666D01*
X93522666Y-117918666D01*
X93456000Y-117885333D01*
X93422666Y-117852000D01*
X91222666Y-115124666D02*
X91356000Y-115124666D01*
X91422666Y-115091333D01*
X91456000Y-115058000D01*
X91522666Y-114958000D01*
X91556000Y-114824666D01*
X91556000Y-114558000D01*
X91522666Y-114491333D01*
X91489333Y-114458000D01*
X91422666Y-114424666D01*
X91289333Y-114424666D01*
X91222666Y-114458000D01*
X91189333Y-114491333D01*
X91156000Y-114558000D01*
X91156000Y-114724666D01*
X91189333Y-114791333D01*
X91222666Y-114824666D01*
X91289333Y-114858000D01*
X91422666Y-114858000D01*
X91489333Y-114824666D01*
X91522666Y-114791333D01*
X91556000Y-114724666D01*
X91889333Y-115091333D02*
X91889333Y-115124666D01*
X91856000Y-115191333D01*
X91822666Y-115224666D01*
X93089333Y-115124666D02*
X92689333Y-115124666D01*
X92889333Y-115124666D02*
X92889333Y-114424666D01*
X92822666Y-114524666D01*
X92756000Y-114591333D01*
X92689333Y-114624666D01*
X93689333Y-114424666D02*
X93556000Y-114424666D01*
X93489333Y-114458000D01*
X93456000Y-114491333D01*
X93389333Y-114591333D01*
X93356000Y-114724666D01*
X93356000Y-114991333D01*
X93389333Y-115058000D01*
X93422666Y-115091333D01*
X93489333Y-115124666D01*
X93622666Y-115124666D01*
X93689333Y-115091333D01*
X93722666Y-115058000D01*
X93756000Y-114991333D01*
X93756000Y-114824666D01*
X93722666Y-114758000D01*
X93689333Y-114724666D01*
X93622666Y-114691333D01*
X93489333Y-114691333D01*
X93422666Y-114724666D01*
X93389333Y-114758000D01*
X93356000Y-114824666D01*
X91289333Y-112184666D02*
X91222666Y-112151333D01*
X91189333Y-112118000D01*
X91156000Y-112051333D01*
X91156000Y-112018000D01*
X91189333Y-111951333D01*
X91222666Y-111918000D01*
X91289333Y-111884666D01*
X91422666Y-111884666D01*
X91489333Y-111918000D01*
X91522666Y-111951333D01*
X91556000Y-112018000D01*
X91556000Y-112051333D01*
X91522666Y-112118000D01*
X91489333Y-112151333D01*
X91422666Y-112184666D01*
X91289333Y-112184666D01*
X91222666Y-112218000D01*
X91189333Y-112251333D01*
X91156000Y-112318000D01*
X91156000Y-112451333D01*
X91189333Y-112518000D01*
X91222666Y-112551333D01*
X91289333Y-112584666D01*
X91422666Y-112584666D01*
X91489333Y-112551333D01*
X91522666Y-112518000D01*
X91556000Y-112451333D01*
X91556000Y-112318000D01*
X91522666Y-112251333D01*
X91489333Y-112218000D01*
X91422666Y-112184666D01*
X91889333Y-112551333D02*
X91889333Y-112584666D01*
X91856000Y-112651333D01*
X91822666Y-112684666D01*
X93089333Y-112584666D02*
X92689333Y-112584666D01*
X92889333Y-112584666D02*
X92889333Y-111884666D01*
X92822666Y-111984666D01*
X92756000Y-112051333D01*
X92689333Y-112084666D01*
X93322666Y-111884666D02*
X93789333Y-111884666D01*
X93489333Y-112584666D01*
X91122666Y-109344666D02*
X91589333Y-109344666D01*
X91289333Y-110044666D01*
X91889333Y-110011333D02*
X91889333Y-110044666D01*
X91856000Y-110111333D01*
X91822666Y-110144666D01*
X93089333Y-110044666D02*
X92689333Y-110044666D01*
X92889333Y-110044666D02*
X92889333Y-109344666D01*
X92822666Y-109444666D01*
X92756000Y-109511333D01*
X92689333Y-109544666D01*
X93489333Y-109644666D02*
X93422666Y-109611333D01*
X93389333Y-109578000D01*
X93356000Y-109511333D01*
X93356000Y-109478000D01*
X93389333Y-109411333D01*
X93422666Y-109378000D01*
X93489333Y-109344666D01*
X93622666Y-109344666D01*
X93689333Y-109378000D01*
X93722666Y-109411333D01*
X93756000Y-109478000D01*
X93756000Y-109511333D01*
X93722666Y-109578000D01*
X93689333Y-109611333D01*
X93622666Y-109644666D01*
X93489333Y-109644666D01*
X93422666Y-109678000D01*
X93389333Y-109711333D01*
X93356000Y-109778000D01*
X93356000Y-109911333D01*
X93389333Y-109978000D01*
X93422666Y-110011333D01*
X93489333Y-110044666D01*
X93622666Y-110044666D01*
X93689333Y-110011333D01*
X93722666Y-109978000D01*
X93756000Y-109911333D01*
X93756000Y-109778000D01*
X93722666Y-109711333D01*
X93689333Y-109678000D01*
X93622666Y-109644666D01*
X91489333Y-106804666D02*
X91356000Y-106804666D01*
X91289333Y-106838000D01*
X91256000Y-106871333D01*
X91189333Y-106971333D01*
X91156000Y-107104666D01*
X91156000Y-107371333D01*
X91189333Y-107438000D01*
X91222666Y-107471333D01*
X91289333Y-107504666D01*
X91422666Y-107504666D01*
X91489333Y-107471333D01*
X91522666Y-107438000D01*
X91556000Y-107371333D01*
X91556000Y-107204666D01*
X91522666Y-107138000D01*
X91489333Y-107104666D01*
X91422666Y-107071333D01*
X91289333Y-107071333D01*
X91222666Y-107104666D01*
X91189333Y-107138000D01*
X91156000Y-107204666D01*
X91889333Y-107471333D02*
X91889333Y-107504666D01*
X91856000Y-107571333D01*
X91822666Y-107604666D01*
X93089333Y-107504666D02*
X92689333Y-107504666D01*
X92889333Y-107504666D02*
X92889333Y-106804666D01*
X92822666Y-106904666D01*
X92756000Y-106971333D01*
X92689333Y-107004666D01*
X93422666Y-107504666D02*
X93556000Y-107504666D01*
X93622666Y-107471333D01*
X93656000Y-107438000D01*
X93722666Y-107338000D01*
X93756000Y-107204666D01*
X93756000Y-106938000D01*
X93722666Y-106871333D01*
X93689333Y-106838000D01*
X93622666Y-106804666D01*
X93489333Y-106804666D01*
X93422666Y-106838000D01*
X93389333Y-106871333D01*
X93356000Y-106938000D01*
X93356000Y-107104666D01*
X93389333Y-107171333D01*
X93422666Y-107204666D01*
X93489333Y-107238000D01*
X93622666Y-107238000D01*
X93689333Y-107204666D01*
X93722666Y-107171333D01*
X93756000Y-107104666D01*
X91522666Y-104264666D02*
X91189333Y-104264666D01*
X91156000Y-104598000D01*
X91189333Y-104564666D01*
X91256000Y-104531333D01*
X91422666Y-104531333D01*
X91489333Y-104564666D01*
X91522666Y-104598000D01*
X91556000Y-104664666D01*
X91556000Y-104831333D01*
X91522666Y-104898000D01*
X91489333Y-104931333D01*
X91422666Y-104964666D01*
X91256000Y-104964666D01*
X91189333Y-104931333D01*
X91156000Y-104898000D01*
X91889333Y-104931333D02*
X91889333Y-104964666D01*
X91856000Y-105031333D01*
X91822666Y-105064666D01*
X92689333Y-104331333D02*
X92722666Y-104298000D01*
X92789333Y-104264666D01*
X92956000Y-104264666D01*
X93022666Y-104298000D01*
X93056000Y-104331333D01*
X93089333Y-104398000D01*
X93089333Y-104464666D01*
X93056000Y-104564666D01*
X92656000Y-104964666D01*
X93089333Y-104964666D01*
X93522666Y-104264666D02*
X93589333Y-104264666D01*
X93656000Y-104298000D01*
X93689333Y-104331333D01*
X93722666Y-104398000D01*
X93756000Y-104531333D01*
X93756000Y-104698000D01*
X93722666Y-104831333D01*
X93689333Y-104898000D01*
X93656000Y-104931333D01*
X93589333Y-104964666D01*
X93522666Y-104964666D01*
X93456000Y-104931333D01*
X93422666Y-104898000D01*
X93389333Y-104831333D01*
X93356000Y-104698000D01*
X93356000Y-104531333D01*
X93389333Y-104398000D01*
X93422666Y-104331333D01*
X93456000Y-104298000D01*
X93522666Y-104264666D01*
X91489333Y-102212000D02*
X91489333Y-102678666D01*
X91322666Y-101945333D02*
X91156000Y-102445333D01*
X91589333Y-102445333D01*
X91889333Y-102645333D02*
X91889333Y-102678666D01*
X91856000Y-102745333D01*
X91822666Y-102778666D01*
X92689333Y-102045333D02*
X92722666Y-102012000D01*
X92789333Y-101978666D01*
X92956000Y-101978666D01*
X93022666Y-102012000D01*
X93056000Y-102045333D01*
X93089333Y-102112000D01*
X93089333Y-102178666D01*
X93056000Y-102278666D01*
X92656000Y-102678666D01*
X93089333Y-102678666D01*
X93756000Y-102678666D02*
X93356000Y-102678666D01*
X93556000Y-102678666D02*
X93556000Y-101978666D01*
X93489333Y-102078666D01*
X93422666Y-102145333D01*
X93356000Y-102178666D01*
X91122666Y-99438666D02*
X91556000Y-99438666D01*
X91322666Y-99705333D01*
X91422666Y-99705333D01*
X91489333Y-99738666D01*
X91522666Y-99772000D01*
X91556000Y-99838666D01*
X91556000Y-100005333D01*
X91522666Y-100072000D01*
X91489333Y-100105333D01*
X91422666Y-100138666D01*
X91222666Y-100138666D01*
X91156000Y-100105333D01*
X91122666Y-100072000D01*
X91889333Y-100105333D02*
X91889333Y-100138666D01*
X91856000Y-100205333D01*
X91822666Y-100238666D01*
X92689333Y-99505333D02*
X92722666Y-99472000D01*
X92789333Y-99438666D01*
X92956000Y-99438666D01*
X93022666Y-99472000D01*
X93056000Y-99505333D01*
X93089333Y-99572000D01*
X93089333Y-99638666D01*
X93056000Y-99738666D01*
X92656000Y-100138666D01*
X93089333Y-100138666D01*
X93356000Y-99505333D02*
X93389333Y-99472000D01*
X93456000Y-99438666D01*
X93622666Y-99438666D01*
X93689333Y-99472000D01*
X93722666Y-99505333D01*
X93756000Y-99572000D01*
X93756000Y-99638666D01*
X93722666Y-99738666D01*
X93322666Y-100138666D01*
X93756000Y-100138666D01*
X91156000Y-96965333D02*
X91189333Y-96932000D01*
X91256000Y-96898666D01*
X91422666Y-96898666D01*
X91489333Y-96932000D01*
X91522666Y-96965333D01*
X91556000Y-97032000D01*
X91556000Y-97098666D01*
X91522666Y-97198666D01*
X91122666Y-97598666D01*
X91556000Y-97598666D01*
X91889333Y-97565333D02*
X91889333Y-97598666D01*
X91856000Y-97665333D01*
X91822666Y-97698666D01*
X92689333Y-96965333D02*
X92722666Y-96932000D01*
X92789333Y-96898666D01*
X92956000Y-96898666D01*
X93022666Y-96932000D01*
X93056000Y-96965333D01*
X93089333Y-97032000D01*
X93089333Y-97098666D01*
X93056000Y-97198666D01*
X92656000Y-97598666D01*
X93089333Y-97598666D01*
X93322666Y-96898666D02*
X93756000Y-96898666D01*
X93522666Y-97165333D01*
X93622666Y-97165333D01*
X93689333Y-97198666D01*
X93722666Y-97232000D01*
X93756000Y-97298666D01*
X93756000Y-97465333D01*
X93722666Y-97532000D01*
X93689333Y-97565333D01*
X93622666Y-97598666D01*
X93422666Y-97598666D01*
X93356000Y-97565333D01*
X93322666Y-97532000D01*
X91556000Y-95058666D02*
X91156000Y-95058666D01*
X91356000Y-95058666D02*
X91356000Y-94358666D01*
X91289333Y-94458666D01*
X91222666Y-94525333D01*
X91156000Y-94558666D01*
X91889333Y-95025333D02*
X91889333Y-95058666D01*
X91856000Y-95125333D01*
X91822666Y-95158666D01*
X92689333Y-94425333D02*
X92722666Y-94392000D01*
X92789333Y-94358666D01*
X92956000Y-94358666D01*
X93022666Y-94392000D01*
X93056000Y-94425333D01*
X93089333Y-94492000D01*
X93089333Y-94558666D01*
X93056000Y-94658666D01*
X92656000Y-95058666D01*
X93089333Y-95058666D01*
X93689333Y-94592000D02*
X93689333Y-95058666D01*
X93522666Y-94325333D02*
X93356000Y-94825333D01*
X93789333Y-94825333D01*
D11*
X99314000Y-93980000D02*
X93980000Y-93980000D01*
X99314000Y-124460000D02*
X99314000Y-93980000D01*
X93980000Y-124460000D02*
X99314000Y-124460000D01*
X93980000Y-93980000D02*
X93980000Y-124460000D01*
D10*
X123634476Y-90717714D02*
X123634476Y-91384380D01*
X123396380Y-90336761D02*
X123158285Y-91051047D01*
X123777333Y-91051047D01*
X120570666Y-90384380D02*
X121189714Y-90384380D01*
X120856380Y-90765333D01*
X120999238Y-90765333D01*
X121094476Y-90812952D01*
X121142095Y-90860571D01*
X121189714Y-90955809D01*
X121189714Y-91193904D01*
X121142095Y-91289142D01*
X121094476Y-91336761D01*
X120999238Y-91384380D01*
X120713523Y-91384380D01*
X120618285Y-91336761D01*
X120570666Y-91289142D01*
X118078285Y-90479619D02*
X118125904Y-90432000D01*
X118221142Y-90384380D01*
X118459238Y-90384380D01*
X118554476Y-90432000D01*
X118602095Y-90479619D01*
X118649714Y-90574857D01*
X118649714Y-90670095D01*
X118602095Y-90812952D01*
X118030666Y-91384380D01*
X118649714Y-91384380D01*
X116109714Y-91384380D02*
X115538285Y-91384380D01*
X115824000Y-91384380D02*
X115824000Y-90384380D01*
X115728761Y-90527238D01*
X115633523Y-90622476D01*
X115538285Y-90670095D01*
X114577904Y-89352380D02*
X114577904Y-88352380D01*
X114816000Y-88352380D01*
X114958857Y-88400000D01*
X115054095Y-88495238D01*
X115101714Y-88590476D01*
X115149333Y-88780952D01*
X115149333Y-88923809D01*
X115101714Y-89114285D01*
X115054095Y-89209523D01*
X114958857Y-89304761D01*
X114816000Y-89352380D01*
X114577904Y-89352380D01*
X115482666Y-88352380D02*
X116101714Y-88352380D01*
X115768380Y-88733333D01*
X115911238Y-88733333D01*
X116006476Y-88780952D01*
X116054095Y-88828571D01*
X116101714Y-88923809D01*
X116101714Y-89161904D01*
X116054095Y-89257142D01*
X116006476Y-89304761D01*
X115911238Y-89352380D01*
X115625523Y-89352380D01*
X115530285Y-89304761D01*
X115482666Y-89257142D01*
X103060476Y-90717714D02*
X103060476Y-91384380D01*
X102822380Y-90336761D02*
X102584285Y-91051047D01*
X103203333Y-91051047D01*
X100250666Y-90384380D02*
X100869714Y-90384380D01*
X100536380Y-90765333D01*
X100679238Y-90765333D01*
X100774476Y-90812952D01*
X100822095Y-90860571D01*
X100869714Y-90955809D01*
X100869714Y-91193904D01*
X100822095Y-91289142D01*
X100774476Y-91336761D01*
X100679238Y-91384380D01*
X100393523Y-91384380D01*
X100298285Y-91336761D01*
X100250666Y-91289142D01*
X97758285Y-90479619D02*
X97805904Y-90432000D01*
X97901142Y-90384380D01*
X98139238Y-90384380D01*
X98234476Y-90432000D01*
X98282095Y-90479619D01*
X98329714Y-90574857D01*
X98329714Y-90670095D01*
X98282095Y-90812952D01*
X97710666Y-91384380D01*
X98329714Y-91384380D01*
X95789714Y-91384380D02*
X95218285Y-91384380D01*
X95504000Y-91384380D02*
X95504000Y-90384380D01*
X95408761Y-90527238D01*
X95313523Y-90622476D01*
X95218285Y-90670095D01*
X94765904Y-89352380D02*
X94765904Y-88352380D01*
X95004000Y-88352380D01*
X95146857Y-88400000D01*
X95242095Y-88495238D01*
X95289714Y-88590476D01*
X95337333Y-88780952D01*
X95337333Y-88923809D01*
X95289714Y-89114285D01*
X95242095Y-89209523D01*
X95146857Y-89304761D01*
X95004000Y-89352380D01*
X94765904Y-89352380D01*
X96289714Y-89352380D02*
X95718285Y-89352380D01*
X96004000Y-89352380D02*
X96004000Y-88352380D01*
X95908761Y-88495238D01*
X95813523Y-88590476D01*
X95718285Y-88638095D01*
X113474476Y-90717714D02*
X113474476Y-91384380D01*
X113236380Y-90336761D02*
X112998285Y-91051047D01*
X113617333Y-91051047D01*
X110410666Y-90384380D02*
X111029714Y-90384380D01*
X110696380Y-90765333D01*
X110839238Y-90765333D01*
X110934476Y-90812952D01*
X110982095Y-90860571D01*
X111029714Y-90955809D01*
X111029714Y-91193904D01*
X110982095Y-91289142D01*
X110934476Y-91336761D01*
X110839238Y-91384380D01*
X110553523Y-91384380D01*
X110458285Y-91336761D01*
X110410666Y-91289142D01*
X107918285Y-90479619D02*
X107965904Y-90432000D01*
X108061142Y-90384380D01*
X108299238Y-90384380D01*
X108394476Y-90432000D01*
X108442095Y-90479619D01*
X108489714Y-90574857D01*
X108489714Y-90670095D01*
X108442095Y-90812952D01*
X107870666Y-91384380D01*
X108489714Y-91384380D01*
X105949714Y-91384380D02*
X105378285Y-91384380D01*
X105664000Y-91384380D02*
X105664000Y-90384380D01*
X105568761Y-90527238D01*
X105473523Y-90622476D01*
X105378285Y-90670095D01*
X104925904Y-89098380D02*
X104925904Y-88098380D01*
X105164000Y-88098380D01*
X105306857Y-88146000D01*
X105402095Y-88241238D01*
X105449714Y-88336476D01*
X105497333Y-88526952D01*
X105497333Y-88669809D01*
X105449714Y-88860285D01*
X105402095Y-88955523D01*
X105306857Y-89050761D01*
X105164000Y-89098380D01*
X104925904Y-89098380D01*
X105878285Y-88193619D02*
X105925904Y-88146000D01*
X106021142Y-88098380D01*
X106259238Y-88098380D01*
X106354476Y-88146000D01*
X106402095Y-88193619D01*
X106449714Y-88288857D01*
X106449714Y-88384095D01*
X106402095Y-88526952D01*
X105830666Y-89098380D01*
X106449714Y-89098380D01*
D12*
X71530000Y-128012000D02*
X72244285Y-128012000D01*
X71387142Y-128440571D02*
X71887142Y-126940571D01*
X72387142Y-128440571D01*
X72887142Y-128440571D02*
X72887142Y-127440571D01*
X72887142Y-127726285D02*
X72958571Y-127583428D01*
X73030000Y-127512000D01*
X73172857Y-127440571D01*
X73315714Y-127440571D01*
X74458571Y-128440571D02*
X74458571Y-126940571D01*
X74458571Y-128369142D02*
X74315714Y-128440571D01*
X74030000Y-128440571D01*
X73887142Y-128369142D01*
X73815714Y-128297714D01*
X73744285Y-128154857D01*
X73744285Y-127726285D01*
X73815714Y-127583428D01*
X73887142Y-127512000D01*
X74030000Y-127440571D01*
X74315714Y-127440571D01*
X74458571Y-127512000D01*
X75815714Y-127440571D02*
X75815714Y-128440571D01*
X75172857Y-127440571D02*
X75172857Y-128226285D01*
X75244285Y-128369142D01*
X75387142Y-128440571D01*
X75601428Y-128440571D01*
X75744285Y-128369142D01*
X75815714Y-128297714D01*
X76530000Y-128440571D02*
X76530000Y-127440571D01*
X76530000Y-126940571D02*
X76458571Y-127012000D01*
X76530000Y-127083428D01*
X76601428Y-127012000D01*
X76530000Y-126940571D01*
X76530000Y-127083428D01*
X77244285Y-127440571D02*
X77244285Y-128440571D01*
X77244285Y-127583428D02*
X77315714Y-127512000D01*
X77458571Y-127440571D01*
X77672857Y-127440571D01*
X77815714Y-127512000D01*
X77887142Y-127654857D01*
X77887142Y-128440571D01*
X78815714Y-128440571D02*
X78672857Y-128369142D01*
X78601428Y-128297714D01*
X78530000Y-128154857D01*
X78530000Y-127726285D01*
X78601428Y-127583428D01*
X78672857Y-127512000D01*
X78815714Y-127440571D01*
X79030000Y-127440571D01*
X79172857Y-127512000D01*
X79244285Y-127583428D01*
X79315714Y-127726285D01*
X79315714Y-128154857D01*
X79244285Y-128297714D01*
X79172857Y-128369142D01*
X79030000Y-128440571D01*
X78815714Y-128440571D01*
X81101428Y-128440571D02*
X81101428Y-126940571D01*
X81672857Y-126940571D01*
X81815714Y-127012000D01*
X81887142Y-127083428D01*
X81958571Y-127226285D01*
X81958571Y-127440571D01*
X81887142Y-127583428D01*
X81815714Y-127654857D01*
X81672857Y-127726285D01*
X81101428Y-127726285D01*
X82601428Y-128440571D02*
X82601428Y-127440571D01*
X82601428Y-127726285D02*
X82672857Y-127583428D01*
X82744285Y-127512000D01*
X82887142Y-127440571D01*
X83030000Y-127440571D01*
X83744285Y-128440571D02*
X83601428Y-128369142D01*
X83530000Y-128297714D01*
X83458571Y-128154857D01*
X83458571Y-127726285D01*
X83530000Y-127583428D01*
X83601428Y-127512000D01*
X83744285Y-127440571D01*
X83958571Y-127440571D01*
X84101428Y-127512000D01*
X84172857Y-127583428D01*
X84244285Y-127726285D01*
X84244285Y-128154857D01*
X84172857Y-128297714D01*
X84101428Y-128369142D01*
X83958571Y-128440571D01*
X83744285Y-128440571D01*
X86030000Y-128440571D02*
X86030000Y-126940571D01*
X86887142Y-128440571D01*
X86887142Y-126940571D01*
X88244285Y-128440571D02*
X88244285Y-127654857D01*
X88172857Y-127512000D01*
X88030000Y-127440571D01*
X87744285Y-127440571D01*
X87601428Y-127512000D01*
X88244285Y-128369142D02*
X88101428Y-128440571D01*
X87744285Y-128440571D01*
X87601428Y-128369142D01*
X87530000Y-128226285D01*
X87530000Y-128083428D01*
X87601428Y-127940571D01*
X87744285Y-127869142D01*
X88101428Y-127869142D01*
X88244285Y-127797714D01*
X88958571Y-127440571D02*
X88958571Y-128440571D01*
X88958571Y-127583428D02*
X89030000Y-127512000D01*
X89172857Y-127440571D01*
X89387142Y-127440571D01*
X89530000Y-127512000D01*
X89601428Y-127654857D01*
X89601428Y-128440571D01*
X90530000Y-128440571D02*
X90387142Y-128369142D01*
X90315714Y-128297714D01*
X90244285Y-128154857D01*
X90244285Y-127726285D01*
X90315714Y-127583428D01*
X90387142Y-127512000D01*
X90530000Y-127440571D01*
X90744285Y-127440571D01*
X90887142Y-127512000D01*
X90958571Y-127583428D01*
X91030000Y-127726285D01*
X91030000Y-128154857D01*
X90958571Y-128297714D01*
X90887142Y-128369142D01*
X90744285Y-128440571D01*
X90530000Y-128440571D01*
D10*
X102727428Y-65476380D02*
X102727428Y-64476380D01*
X103298857Y-65476380D01*
X103298857Y-64476380D01*
X104156000Y-65428761D02*
X104060761Y-65476380D01*
X103870285Y-65476380D01*
X103775047Y-65428761D01*
X103727428Y-65333523D01*
X103727428Y-64952571D01*
X103775047Y-64857333D01*
X103870285Y-64809714D01*
X104060761Y-64809714D01*
X104156000Y-64857333D01*
X104203619Y-64952571D01*
X104203619Y-65047809D01*
X103727428Y-65143047D01*
X104632190Y-65476380D02*
X104632190Y-64809714D01*
X104632190Y-64476380D02*
X104584571Y-64524000D01*
X104632190Y-64571619D01*
X104679809Y-64524000D01*
X104632190Y-64476380D01*
X104632190Y-64571619D01*
X104965523Y-64809714D02*
X105346476Y-64809714D01*
X105108380Y-64476380D02*
X105108380Y-65333523D01*
X105156000Y-65428761D01*
X105251238Y-65476380D01*
X105346476Y-65476380D01*
X105679809Y-65476380D02*
X105679809Y-64476380D01*
X106108380Y-65476380D02*
X106108380Y-64952571D01*
X106060761Y-64857333D01*
X105965523Y-64809714D01*
X105822666Y-64809714D01*
X105727428Y-64857333D01*
X105679809Y-64904952D01*
X106965523Y-65428761D02*
X106870285Y-65476380D01*
X106679809Y-65476380D01*
X106584571Y-65428761D01*
X106536952Y-65333523D01*
X106536952Y-64952571D01*
X106584571Y-64857333D01*
X106679809Y-64809714D01*
X106870285Y-64809714D01*
X106965523Y-64857333D01*
X107013142Y-64952571D01*
X107013142Y-65047809D01*
X106536952Y-65143047D01*
X107441714Y-65476380D02*
X107441714Y-64809714D01*
X107441714Y-65000190D02*
X107489333Y-64904952D01*
X107536952Y-64857333D01*
X107632190Y-64809714D01*
X107727428Y-64809714D01*
X76541714Y-64444571D02*
X76684571Y-64492190D01*
X76732190Y-64539809D01*
X76779809Y-64635047D01*
X76779809Y-64777904D01*
X76732190Y-64873142D01*
X76684571Y-64920761D01*
X76589333Y-64968380D01*
X76208380Y-64968380D01*
X76208380Y-63968380D01*
X76541714Y-63968380D01*
X76636952Y-64016000D01*
X76684571Y-64063619D01*
X76732190Y-64158857D01*
X76732190Y-64254095D01*
X76684571Y-64349333D01*
X76636952Y-64396952D01*
X76541714Y-64444571D01*
X76208380Y-64444571D01*
X77636952Y-64968380D02*
X77636952Y-64444571D01*
X77589333Y-64349333D01*
X77494095Y-64301714D01*
X77303619Y-64301714D01*
X77208380Y-64349333D01*
X77636952Y-64920761D02*
X77541714Y-64968380D01*
X77303619Y-64968380D01*
X77208380Y-64920761D01*
X77160761Y-64825523D01*
X77160761Y-64730285D01*
X77208380Y-64635047D01*
X77303619Y-64587428D01*
X77541714Y-64587428D01*
X77636952Y-64539809D01*
X78541714Y-64920761D02*
X78446476Y-64968380D01*
X78256000Y-64968380D01*
X78160761Y-64920761D01*
X78113142Y-64873142D01*
X78065523Y-64777904D01*
X78065523Y-64492190D01*
X78113142Y-64396952D01*
X78160761Y-64349333D01*
X78256000Y-64301714D01*
X78446476Y-64301714D01*
X78541714Y-64349333D01*
X78970285Y-64968380D02*
X78970285Y-63968380D01*
X79065523Y-64587428D02*
X79351238Y-64968380D01*
X79351238Y-64301714D02*
X78970285Y-64682666D01*
X80732190Y-63968380D02*
X80922666Y-63968380D01*
X81017904Y-64016000D01*
X81113142Y-64111238D01*
X81160761Y-64301714D01*
X81160761Y-64635047D01*
X81113142Y-64825523D01*
X81017904Y-64920761D01*
X80922666Y-64968380D01*
X80732190Y-64968380D01*
X80636952Y-64920761D01*
X80541714Y-64825523D01*
X80494095Y-64635047D01*
X80494095Y-64301714D01*
X80541714Y-64111238D01*
X80636952Y-64016000D01*
X80732190Y-63968380D01*
X81589333Y-64301714D02*
X81589333Y-64968380D01*
X81589333Y-64396952D02*
X81636952Y-64349333D01*
X81732190Y-64301714D01*
X81875047Y-64301714D01*
X81970285Y-64349333D01*
X82017904Y-64444571D01*
X82017904Y-64968380D01*
X82636952Y-64968380D02*
X82541714Y-64920761D01*
X82494095Y-64825523D01*
X82494095Y-63968380D01*
X82922666Y-64301714D02*
X83160761Y-64968380D01*
X83398857Y-64301714D02*
X83160761Y-64968380D01*
X83065523Y-65206476D01*
X83017904Y-65254095D01*
X82922666Y-65301714D01*
X88948190Y-64952571D02*
X88614857Y-64952571D01*
X88614857Y-65476380D02*
X88614857Y-64476380D01*
X89091047Y-64476380D01*
X89472000Y-65476380D02*
X89472000Y-64809714D01*
X89472000Y-65000190D02*
X89519619Y-64904952D01*
X89567238Y-64857333D01*
X89662476Y-64809714D01*
X89757714Y-64809714D01*
X90233904Y-65476380D02*
X90138666Y-65428761D01*
X90091047Y-65381142D01*
X90043428Y-65285904D01*
X90043428Y-65000190D01*
X90091047Y-64904952D01*
X90138666Y-64857333D01*
X90233904Y-64809714D01*
X90376761Y-64809714D01*
X90472000Y-64857333D01*
X90519619Y-64904952D01*
X90567238Y-65000190D01*
X90567238Y-65285904D01*
X90519619Y-65381142D01*
X90472000Y-65428761D01*
X90376761Y-65476380D01*
X90233904Y-65476380D01*
X90995809Y-64809714D02*
X90995809Y-65476380D01*
X90995809Y-64904952D02*
X91043428Y-64857333D01*
X91138666Y-64809714D01*
X91281523Y-64809714D01*
X91376761Y-64857333D01*
X91424380Y-64952571D01*
X91424380Y-65476380D01*
X91757714Y-64809714D02*
X92138666Y-64809714D01*
X91900571Y-64476380D02*
X91900571Y-65333523D01*
X91948190Y-65428761D01*
X92043428Y-65476380D01*
X92138666Y-65476380D01*
X93233904Y-65095428D02*
X93995809Y-65095428D01*
X93614857Y-65476380D02*
X93614857Y-64714476D01*
X95567238Y-64952571D02*
X95710095Y-65000190D01*
X95757714Y-65047809D01*
X95805333Y-65143047D01*
X95805333Y-65285904D01*
X95757714Y-65381142D01*
X95710095Y-65428761D01*
X95614857Y-65476380D01*
X95233904Y-65476380D01*
X95233904Y-64476380D01*
X95567238Y-64476380D01*
X95662476Y-64524000D01*
X95710095Y-64571619D01*
X95757714Y-64666857D01*
X95757714Y-64762095D01*
X95710095Y-64857333D01*
X95662476Y-64904952D01*
X95567238Y-64952571D01*
X95233904Y-64952571D01*
X96662476Y-65476380D02*
X96662476Y-64952571D01*
X96614857Y-64857333D01*
X96519619Y-64809714D01*
X96329142Y-64809714D01*
X96233904Y-64857333D01*
X96662476Y-65428761D02*
X96567238Y-65476380D01*
X96329142Y-65476380D01*
X96233904Y-65428761D01*
X96186285Y-65333523D01*
X96186285Y-65238285D01*
X96233904Y-65143047D01*
X96329142Y-65095428D01*
X96567238Y-65095428D01*
X96662476Y-65047809D01*
X97567238Y-65428761D02*
X97472000Y-65476380D01*
X97281523Y-65476380D01*
X97186285Y-65428761D01*
X97138666Y-65381142D01*
X97091047Y-65285904D01*
X97091047Y-65000190D01*
X97138666Y-64904952D01*
X97186285Y-64857333D01*
X97281523Y-64809714D01*
X97472000Y-64809714D01*
X97567238Y-64857333D01*
X97995809Y-65476380D02*
X97995809Y-64476380D01*
X98091047Y-65095428D02*
X98376761Y-65476380D01*
X98376761Y-64809714D02*
X97995809Y-65190666D01*
D11*
X135382000Y-94107000D02*
X135382000Y-75946000D01*
X161925000Y-94107000D02*
X135382000Y-94107000D01*
X161925000Y-75946000D02*
X161925000Y-94107000D01*
X135382000Y-75946000D02*
X161925000Y-75946000D01*
X70612000Y-62738000D02*
X70612000Y-46482000D01*
X122682000Y-62738000D02*
X70612000Y-62738000D01*
X122682000Y-46482000D02*
X122682000Y-62738000D01*
X70739000Y-46482000D02*
X122682000Y-46482000D01*
D13*
X156174000Y-143838000D02*
X156174000Y-144388000D01*
X156174000Y-144388000D02*
X156824000Y-144388000D01*
X164374000Y-143788000D02*
X164374000Y-144388000D01*
X164374000Y-144388000D02*
X163974000Y-144388000D01*
X163874000Y-138688000D02*
X164374000Y-138688000D01*
X164374000Y-138688000D02*
X164374000Y-139388000D01*
X156924000Y-138688000D02*
X156474000Y-138688000D01*
X156474000Y-138688000D02*
X156174000Y-139038000D01*
X156174000Y-139038000D02*
X156174000Y-139338000D01*
X156174000Y-139338000D02*
X156024000Y-139338000D01*
D11*
X88502000Y-93920000D02*
X83042000Y-93920000D01*
X88502000Y-124520000D02*
X88502000Y-93920000D01*
X75582000Y-124520000D02*
X88502000Y-124520000D01*
X75582000Y-93920000D02*
X75582000Y-124520000D01*
X81042000Y-93920000D02*
X75582000Y-93920000D01*
X83042000Y-93920000D02*
G75*
G02X81042000Y-93920000I-1000000J0D01*
G01*
D14*
X104320340Y-69466460D02*
X107515660Y-69466460D01*
X107515660Y-72265540D02*
X104320340Y-72265540D01*
X104320340Y-71015860D02*
X104320340Y-70766940D01*
X107515660Y-71015860D02*
X107515660Y-70716140D01*
X107515660Y-72265540D02*
X107515660Y-72214740D01*
X107515660Y-69466460D02*
X107515660Y-69517260D01*
X104320340Y-72265540D02*
X104320340Y-72214740D01*
X104320340Y-69466460D02*
X104320340Y-69517260D01*
X102720140Y-69672200D02*
X102727760Y-69735700D01*
X102727760Y-69735700D02*
X102753160Y-69794120D01*
X102753160Y-69794120D02*
X102791260Y-69844920D01*
X102791260Y-69844920D02*
X102842060Y-69885560D01*
X102842060Y-69885560D02*
X102900480Y-69908420D01*
X102900480Y-69908420D02*
X102966520Y-69916040D01*
X102966520Y-69916040D02*
X103030020Y-69908420D01*
X103030020Y-69908420D02*
X103093520Y-69883020D01*
X103093520Y-69883020D02*
X103144320Y-69842380D01*
X103144320Y-69842380D02*
X103184960Y-69789040D01*
X103184960Y-69789040D02*
X103210360Y-69728080D01*
X103210360Y-69728080D02*
X103220520Y-69662040D01*
X103220520Y-69662040D02*
X103210360Y-69598540D01*
X103210360Y-69598540D02*
X103187500Y-69540120D01*
X103187500Y-69540120D02*
X103146860Y-69489320D01*
X103146860Y-69489320D02*
X103096060Y-69451220D01*
X103096060Y-69451220D02*
X103037640Y-69425820D01*
X103037640Y-69425820D02*
X102974140Y-69418200D01*
X102974140Y-69418200D02*
X102908100Y-69425820D01*
X102908100Y-69425820D02*
X102847140Y-69451220D01*
X102847140Y-69451220D02*
X102793800Y-69491860D01*
X102793800Y-69491860D02*
X102753160Y-69545200D01*
X102753160Y-69545200D02*
X102727760Y-69606160D01*
X102727760Y-69606160D02*
X102720140Y-69672200D01*
D15*
X106313131Y-70866000D02*
G75*
G03X106313131Y-70866000I-395131J0D01*
G01*
X80125731Y-69354700D02*
G75*
G03X80125731Y-69354700I-395131J0D01*
G01*
D14*
X76540360Y-68094860D02*
X76532740Y-68160900D01*
X76565760Y-68033900D02*
X76540360Y-68094860D01*
X76606400Y-67980560D02*
X76565760Y-68033900D01*
X76659740Y-67939920D02*
X76606400Y-67980560D01*
X76720700Y-67914520D02*
X76659740Y-67939920D01*
X76786740Y-67906900D02*
X76720700Y-67914520D01*
X76850240Y-67914520D02*
X76786740Y-67906900D01*
X76908660Y-67939920D02*
X76850240Y-67914520D01*
X76959460Y-67978020D02*
X76908660Y-67939920D01*
X77000100Y-68028820D02*
X76959460Y-67978020D01*
X77022960Y-68087240D02*
X77000100Y-68028820D01*
X77033120Y-68150740D02*
X77022960Y-68087240D01*
X77022960Y-68216780D02*
X77033120Y-68150740D01*
X76997560Y-68277740D02*
X77022960Y-68216780D01*
X76956920Y-68331080D02*
X76997560Y-68277740D01*
X76906120Y-68371720D02*
X76956920Y-68331080D01*
X76842620Y-68397120D02*
X76906120Y-68371720D01*
X76779120Y-68404740D02*
X76842620Y-68397120D01*
X76713080Y-68397120D02*
X76779120Y-68404740D01*
X76654660Y-68374260D02*
X76713080Y-68397120D01*
X76603860Y-68333620D02*
X76654660Y-68374260D01*
X76565760Y-68282820D02*
X76603860Y-68333620D01*
X76540360Y-68224400D02*
X76565760Y-68282820D01*
X76532740Y-68160900D02*
X76540360Y-68224400D01*
X78132940Y-67955160D02*
X78132940Y-68005960D01*
X78132940Y-70754240D02*
X78132940Y-70703440D01*
X81328260Y-67955160D02*
X81328260Y-68005960D01*
X81328260Y-70754240D02*
X81328260Y-70703440D01*
X81328260Y-69504560D02*
X81328260Y-69204840D01*
X78132940Y-69504560D02*
X78132940Y-69255640D01*
X81328260Y-70754240D02*
X78132940Y-70754240D01*
X78132940Y-67955160D02*
X81328260Y-67955160D01*
X91594940Y-68437760D02*
X94790260Y-68437760D01*
X94790260Y-71236840D02*
X91594940Y-71236840D01*
X91594940Y-69987160D02*
X91594940Y-69738240D01*
X94790260Y-69987160D02*
X94790260Y-69687440D01*
X94790260Y-71236840D02*
X94790260Y-71186040D01*
X94790260Y-68437760D02*
X94790260Y-68488560D01*
X91594940Y-71236840D02*
X91594940Y-71186040D01*
X91594940Y-68437760D02*
X91594940Y-68488560D01*
X89994740Y-68643500D02*
X90002360Y-68707000D01*
X90002360Y-68707000D02*
X90027760Y-68765420D01*
X90027760Y-68765420D02*
X90065860Y-68816220D01*
X90065860Y-68816220D02*
X90116660Y-68856860D01*
X90116660Y-68856860D02*
X90175080Y-68879720D01*
X90175080Y-68879720D02*
X90241120Y-68887340D01*
X90241120Y-68887340D02*
X90304620Y-68879720D01*
X90304620Y-68879720D02*
X90368120Y-68854320D01*
X90368120Y-68854320D02*
X90418920Y-68813680D01*
X90418920Y-68813680D02*
X90459560Y-68760340D01*
X90459560Y-68760340D02*
X90484960Y-68699380D01*
X90484960Y-68699380D02*
X90495120Y-68633340D01*
X90495120Y-68633340D02*
X90484960Y-68569840D01*
X90484960Y-68569840D02*
X90462100Y-68511420D01*
X90462100Y-68511420D02*
X90421460Y-68460620D01*
X90421460Y-68460620D02*
X90370660Y-68422520D01*
X90370660Y-68422520D02*
X90312240Y-68397120D01*
X90312240Y-68397120D02*
X90248740Y-68389500D01*
X90248740Y-68389500D02*
X90182700Y-68397120D01*
X90182700Y-68397120D02*
X90121740Y-68422520D01*
X90121740Y-68422520D02*
X90068400Y-68463160D01*
X90068400Y-68463160D02*
X90027760Y-68516500D01*
X90027760Y-68516500D02*
X90002360Y-68577460D01*
X90002360Y-68577460D02*
X89994740Y-68643500D01*
D15*
X93587731Y-69837300D02*
G75*
G03X93587731Y-69837300I-395131J0D01*
G01*
D16*
X146415000Y-98933000D02*
G75*
G03X146415000Y-98933000I-1000000J0D01*
G01*
X151765000Y-101092000D02*
X151765000Y-100584000D01*
X156083000Y-100965000D02*
X151765000Y-100965000D01*
X156083000Y-100584000D02*
X156083000Y-101092000D01*
X151765000Y-100584000D02*
X156083000Y-100584000D01*
X147193000Y-108331000D02*
X147193000Y-101219000D01*
X160528000Y-108331000D02*
X147193000Y-108331000D01*
X160528000Y-101219000D02*
X160528000Y-108331000D01*
X147320000Y-101219000D02*
X160528000Y-101219000D01*
D10*
X75374666Y-150947380D02*
X75041333Y-150471190D01*
X74803238Y-150947380D02*
X74803238Y-149947380D01*
X75184190Y-149947380D01*
X75279428Y-149995000D01*
X75327047Y-150042619D01*
X75374666Y-150137857D01*
X75374666Y-150280714D01*
X75327047Y-150375952D01*
X75279428Y-150423571D01*
X75184190Y-150471190D01*
X74803238Y-150471190D01*
X75803238Y-150423571D02*
X76136571Y-150423571D01*
X76279428Y-150947380D02*
X75803238Y-150947380D01*
X75803238Y-149947380D01*
X76279428Y-149947380D01*
X77041333Y-150423571D02*
X76708000Y-150423571D01*
X76708000Y-150947380D02*
X76708000Y-149947380D01*
X77184190Y-149947380D01*
X77708000Y-149947380D02*
X77708000Y-150185476D01*
X77469904Y-150090238D02*
X77708000Y-150185476D01*
X77946095Y-150090238D01*
X77565142Y-150375952D02*
X77708000Y-150185476D01*
X77850857Y-150375952D01*
X78469904Y-149947380D02*
X78469904Y-150185476D01*
X78231809Y-150090238D02*
X78469904Y-150185476D01*
X78708000Y-150090238D01*
X78327047Y-150375952D02*
X78469904Y-150185476D01*
X78612761Y-150375952D01*
X154114666Y-65349380D02*
X153781333Y-64873190D01*
X153543238Y-65349380D02*
X153543238Y-64349380D01*
X153924190Y-64349380D01*
X154019428Y-64397000D01*
X154067047Y-64444619D01*
X154114666Y-64539857D01*
X154114666Y-64682714D01*
X154067047Y-64777952D01*
X154019428Y-64825571D01*
X153924190Y-64873190D01*
X153543238Y-64873190D01*
X154543238Y-64825571D02*
X154876571Y-64825571D01*
X155019428Y-65349380D02*
X154543238Y-65349380D01*
X154543238Y-64349380D01*
X155019428Y-64349380D01*
X155781333Y-64825571D02*
X155448000Y-64825571D01*
X155448000Y-65349380D02*
X155448000Y-64349380D01*
X155924190Y-64349380D01*
X156448000Y-64349380D02*
X156448000Y-64587476D01*
X156209904Y-64492238D02*
X156448000Y-64587476D01*
X156686095Y-64492238D01*
X156305142Y-64777952D02*
X156448000Y-64587476D01*
X156590857Y-64777952D01*
X157209904Y-64349380D02*
X157209904Y-64587476D01*
X156971809Y-64492238D02*
X157209904Y-64587476D01*
X157448000Y-64492238D01*
X157067047Y-64777952D02*
X157209904Y-64587476D01*
X157352761Y-64777952D01*
X159940666Y-135890380D02*
X159940666Y-136604666D01*
X159893047Y-136747523D01*
X159797809Y-136842761D01*
X159654952Y-136890380D01*
X159559714Y-136890380D01*
X160940666Y-136890380D02*
X160369238Y-136890380D01*
X160654952Y-136890380D02*
X160654952Y-135890380D01*
X160559714Y-136033238D01*
X160464476Y-136128476D01*
X160369238Y-136176095D01*
X80708666Y-93372380D02*
X80375333Y-92896190D01*
X80137238Y-93372380D02*
X80137238Y-92372380D01*
X80518190Y-92372380D01*
X80613428Y-92420000D01*
X80661047Y-92467619D01*
X80708666Y-92562857D01*
X80708666Y-92705714D01*
X80661047Y-92800952D01*
X80613428Y-92848571D01*
X80518190Y-92896190D01*
X80137238Y-92896190D01*
X81137238Y-92848571D02*
X81470571Y-92848571D01*
X81613428Y-93372380D02*
X81137238Y-93372380D01*
X81137238Y-92372380D01*
X81613428Y-92372380D01*
X82375333Y-92848571D02*
X82042000Y-92848571D01*
X82042000Y-93372380D02*
X82042000Y-92372380D01*
X82518190Y-92372380D01*
X83042000Y-92372380D02*
X83042000Y-92610476D01*
X82803904Y-92515238D02*
X83042000Y-92610476D01*
X83280095Y-92515238D01*
X82899142Y-92800952D02*
X83042000Y-92610476D01*
X83184857Y-92800952D01*
X83803904Y-92372380D02*
X83803904Y-92610476D01*
X83565809Y-92515238D02*
X83803904Y-92610476D01*
X84042000Y-92515238D01*
X83661047Y-92800952D02*
X83803904Y-92610476D01*
X83946761Y-92800952D01*
D17*
X101129495Y-68036319D02*
X101129495Y-67020319D01*
X101371400Y-67020319D01*
X101516542Y-67068700D01*
X101613304Y-67165461D01*
X101661685Y-67262223D01*
X101710066Y-67455747D01*
X101710066Y-67600890D01*
X101661685Y-67794414D01*
X101613304Y-67891176D01*
X101516542Y-67987938D01*
X101371400Y-68036319D01*
X101129495Y-68036319D01*
X102097114Y-67117080D02*
X102145495Y-67068700D01*
X102242257Y-67020319D01*
X102484161Y-67020319D01*
X102580923Y-67068700D01*
X102629304Y-67117080D01*
X102677685Y-67213842D01*
X102677685Y-67310604D01*
X102629304Y-67455747D01*
X102048733Y-68036319D01*
X102677685Y-68036319D01*
X83527295Y-71859019D02*
X83527295Y-70843019D01*
X83769200Y-70843019D01*
X83914342Y-70891400D01*
X84011104Y-70988161D01*
X84059485Y-71084923D01*
X84107866Y-71278447D01*
X84107866Y-71423590D01*
X84059485Y-71617114D01*
X84011104Y-71713876D01*
X83914342Y-71810638D01*
X83769200Y-71859019D01*
X83527295Y-71859019D01*
X85075485Y-71859019D02*
X84494914Y-71859019D01*
X84785200Y-71859019D02*
X84785200Y-70843019D01*
X84688438Y-70988161D01*
X84591676Y-71084923D01*
X84494914Y-71133304D01*
X97243295Y-72316219D02*
X97243295Y-71300219D01*
X97485200Y-71300219D01*
X97630342Y-71348600D01*
X97727104Y-71445361D01*
X97775485Y-71542123D01*
X97823866Y-71735647D01*
X97823866Y-71880790D01*
X97775485Y-72074314D01*
X97727104Y-72171076D01*
X97630342Y-72267838D01*
X97485200Y-72316219D01*
X97243295Y-72316219D01*
X98210914Y-71396980D02*
X98259295Y-71348600D01*
X98356057Y-71300219D01*
X98597961Y-71300219D01*
X98694723Y-71348600D01*
X98743104Y-71396980D01*
X98791485Y-71493742D01*
X98791485Y-71590504D01*
X98743104Y-71735647D01*
X98162533Y-72316219D01*
X98791485Y-72316219D01*
D10*
X153114476Y-98258380D02*
X153781142Y-99258380D01*
X153781142Y-98258380D02*
X153114476Y-99258380D01*
X154685904Y-99258380D02*
X154114476Y-99258380D01*
X154400190Y-99258380D02*
X154400190Y-98258380D01*
X154304952Y-98401238D01*
X154209714Y-98496476D01*
X154114476Y-98544095D01*
X156753857Y-101479000D02*
X156682428Y-101443285D01*
X156575285Y-101443285D01*
X156468142Y-101479000D01*
X156396714Y-101550428D01*
X156361000Y-101621857D01*
X156325285Y-101764714D01*
X156325285Y-101871857D01*
X156361000Y-102014714D01*
X156396714Y-102086142D01*
X156468142Y-102157571D01*
X156575285Y-102193285D01*
X156646714Y-102193285D01*
X156753857Y-102157571D01*
X156789571Y-102121857D01*
X156789571Y-101871857D01*
X156646714Y-101871857D01*
X157111000Y-102193285D02*
X157111000Y-101443285D01*
X157396714Y-101443285D01*
X157468142Y-101479000D01*
X157503857Y-101514714D01*
X157539571Y-101586142D01*
X157539571Y-101693285D01*
X157503857Y-101764714D01*
X157468142Y-101800428D01*
X157396714Y-101836142D01*
X157111000Y-101836142D01*
X157861000Y-102193285D02*
X157861000Y-101443285D01*
X158361000Y-101443285D02*
X158503857Y-101443285D01*
X158575285Y-101479000D01*
X158646714Y-101550428D01*
X158682428Y-101693285D01*
X158682428Y-101943285D01*
X158646714Y-102086142D01*
X158575285Y-102157571D01*
X158503857Y-102193285D01*
X158361000Y-102193285D01*
X158289571Y-102157571D01*
X158218142Y-102086142D01*
X158182428Y-101943285D01*
X158182428Y-101693285D01*
X158218142Y-101550428D01*
X158289571Y-101479000D01*
X158361000Y-101443285D01*
X159396714Y-102193285D02*
X158968142Y-102193285D01*
X159182428Y-102193285D02*
X159182428Y-101443285D01*
X159111000Y-101550428D01*
X159039571Y-101621857D01*
X158968142Y-101657571D01*
X156753857Y-107321000D02*
X156682428Y-107285285D01*
X156575285Y-107285285D01*
X156468142Y-107321000D01*
X156396714Y-107392428D01*
X156361000Y-107463857D01*
X156325285Y-107606714D01*
X156325285Y-107713857D01*
X156361000Y-107856714D01*
X156396714Y-107928142D01*
X156468142Y-107999571D01*
X156575285Y-108035285D01*
X156646714Y-108035285D01*
X156753857Y-107999571D01*
X156789571Y-107963857D01*
X156789571Y-107713857D01*
X156646714Y-107713857D01*
X157111000Y-108035285D02*
X157111000Y-107285285D01*
X157396714Y-107285285D01*
X157468142Y-107321000D01*
X157503857Y-107356714D01*
X157539571Y-107428142D01*
X157539571Y-107535285D01*
X157503857Y-107606714D01*
X157468142Y-107642428D01*
X157396714Y-107678142D01*
X157111000Y-107678142D01*
X157861000Y-108035285D02*
X157861000Y-107285285D01*
X158361000Y-107285285D02*
X158503857Y-107285285D01*
X158575285Y-107321000D01*
X158646714Y-107392428D01*
X158682428Y-107535285D01*
X158682428Y-107785285D01*
X158646714Y-107928142D01*
X158575285Y-107999571D01*
X158503857Y-108035285D01*
X158361000Y-108035285D01*
X158289571Y-107999571D01*
X158218142Y-107928142D01*
X158182428Y-107785285D01*
X158182428Y-107535285D01*
X158218142Y-107392428D01*
X158289571Y-107321000D01*
X158361000Y-107285285D01*
X158968142Y-107356714D02*
X159003857Y-107321000D01*
X159075285Y-107285285D01*
X159253857Y-107285285D01*
X159325285Y-107321000D01*
X159361000Y-107356714D01*
X159396714Y-107428142D01*
X159396714Y-107499571D01*
X159361000Y-107606714D01*
X158932428Y-108035285D01*
X159396714Y-108035285D01*
X153031142Y-107999571D02*
X153138285Y-108035285D01*
X153316857Y-108035285D01*
X153388285Y-107999571D01*
X153424000Y-107963857D01*
X153459714Y-107892428D01*
X153459714Y-107821000D01*
X153424000Y-107749571D01*
X153388285Y-107713857D01*
X153316857Y-107678142D01*
X153174000Y-107642428D01*
X153102571Y-107606714D01*
X153066857Y-107571000D01*
X153031142Y-107499571D01*
X153031142Y-107428142D01*
X153066857Y-107356714D01*
X153102571Y-107321000D01*
X153174000Y-107285285D01*
X153352571Y-107285285D01*
X153459714Y-107321000D01*
X154209714Y-107963857D02*
X154174000Y-107999571D01*
X154066857Y-108035285D01*
X153995428Y-108035285D01*
X153888285Y-107999571D01*
X153816857Y-107928142D01*
X153781142Y-107856714D01*
X153745428Y-107713857D01*
X153745428Y-107606714D01*
X153781142Y-107463857D01*
X153816857Y-107392428D01*
X153888285Y-107321000D01*
X153995428Y-107285285D01*
X154066857Y-107285285D01*
X154174000Y-107321000D01*
X154209714Y-107356714D01*
X154888285Y-108035285D02*
X154531142Y-108035285D01*
X154531142Y-107285285D01*
X153013285Y-102157571D02*
X153120428Y-102193285D01*
X153299000Y-102193285D01*
X153370428Y-102157571D01*
X153406142Y-102121857D01*
X153441857Y-102050428D01*
X153441857Y-101979000D01*
X153406142Y-101907571D01*
X153370428Y-101871857D01*
X153299000Y-101836142D01*
X153156142Y-101800428D01*
X153084714Y-101764714D01*
X153049000Y-101729000D01*
X153013285Y-101657571D01*
X153013285Y-101586142D01*
X153049000Y-101514714D01*
X153084714Y-101479000D01*
X153156142Y-101443285D01*
X153334714Y-101443285D01*
X153441857Y-101479000D01*
X153763285Y-102193285D02*
X153763285Y-101443285D01*
X153941857Y-101443285D01*
X154049000Y-101479000D01*
X154120428Y-101550428D01*
X154156142Y-101621857D01*
X154191857Y-101764714D01*
X154191857Y-101871857D01*
X154156142Y-102014714D01*
X154120428Y-102086142D01*
X154049000Y-102157571D01*
X153941857Y-102193285D01*
X153763285Y-102193285D01*
X154477571Y-101979000D02*
X154834714Y-101979000D01*
X154406142Y-102193285D02*
X154656142Y-101443285D01*
X154906142Y-102193285D01*
X150812571Y-107321000D02*
X150741142Y-107285285D01*
X150634000Y-107285285D01*
X150526857Y-107321000D01*
X150455428Y-107392428D01*
X150419714Y-107463857D01*
X150384000Y-107606714D01*
X150384000Y-107713857D01*
X150419714Y-107856714D01*
X150455428Y-107928142D01*
X150526857Y-107999571D01*
X150634000Y-108035285D01*
X150705428Y-108035285D01*
X150812571Y-107999571D01*
X150848285Y-107963857D01*
X150848285Y-107713857D01*
X150705428Y-107713857D01*
X151169714Y-108035285D02*
X151169714Y-107285285D01*
X151598285Y-108035285D01*
X151598285Y-107285285D01*
X151955428Y-108035285D02*
X151955428Y-107285285D01*
X152134000Y-107285285D01*
X152241142Y-107321000D01*
X152312571Y-107392428D01*
X152348285Y-107463857D01*
X152384000Y-107606714D01*
X152384000Y-107713857D01*
X152348285Y-107856714D01*
X152312571Y-107928142D01*
X152241142Y-107999571D01*
X152134000Y-108035285D01*
X151955428Y-108035285D01*
X150384000Y-101443285D02*
X150634000Y-102193285D01*
X150884000Y-101443285D01*
X151562571Y-102121857D02*
X151526857Y-102157571D01*
X151419714Y-102193285D01*
X151348285Y-102193285D01*
X151241142Y-102157571D01*
X151169714Y-102086142D01*
X151134000Y-102014714D01*
X151098285Y-101871857D01*
X151098285Y-101764714D01*
X151134000Y-101621857D01*
X151169714Y-101550428D01*
X151241142Y-101479000D01*
X151348285Y-101443285D01*
X151419714Y-101443285D01*
X151526857Y-101479000D01*
X151562571Y-101514714D01*
X152312571Y-102121857D02*
X152276857Y-102157571D01*
X152169714Y-102193285D01*
X152098285Y-102193285D01*
X151991142Y-102157571D01*
X151919714Y-102086142D01*
X151884000Y-102014714D01*
X151848285Y-101871857D01*
X151848285Y-101764714D01*
X151884000Y-101621857D01*
X151919714Y-101550428D01*
X151991142Y-101479000D01*
X152098285Y-101443285D01*
X152169714Y-101443285D01*
X152276857Y-101479000D01*
X152312571Y-101514714D01*
M02*
