M48
; DRILL file {KiCad (5.1.4)-1} date 9/21/2019 6:09:21 PM
; FORMAT={-:-/ absolute / inch / decimal}
; #@! TF.CreationDate,2019-09-21T18:09:21-04:00
; #@! TF.GenerationSoftware,Kicad,Pcbnew,(5.1.4)-1
; #@! TF.FileFunction,Plated,1,2,PTH
FMAT,2
INCH
T1C0.0157
T2C0.0197
T3C0.0217
T4C0.0315
T5C0.0400
%
G90
G05
T1
X4.53Y-5.45
X5.07Y-2.48
X5.07Y-2.53
X5.13Y-2.48
X5.13Y-2.53
X5.19Y-2.48
X5.19Y-2.53
X5.25Y-2.48
X5.25Y-2.53
X5.31Y-2.48
X5.31Y-2.53
X5.37Y-2.48
X5.37Y-2.53
X5.43Y-2.48
X5.43Y-2.53
T4
X2.8581Y-1.8981
X2.8581Y-1.9981
X2.8581Y-2.0981
X2.8581Y-2.1981
X2.8581Y-2.2981
X2.8581Y-2.3981
X2.9581Y-1.8981
X2.9581Y-1.9981
X2.9581Y-2.0981
X2.9581Y-2.1981
X2.9581Y-2.2981
X2.9581Y-2.3981
X3.0581Y-1.8981
X3.0581Y-1.9981
X3.0581Y-2.0981
X3.0581Y-2.1981
X3.0581Y-2.2981
X3.0581Y-2.3981
X3.1581Y-1.8981
X3.1581Y-1.9981
X3.1581Y-2.0981
X3.1581Y-2.1981
X3.1581Y-2.2981
X3.1581Y-2.3981
X3.2581Y-1.8981
X3.2581Y-1.9981
X3.2581Y-2.0981
X3.2581Y-2.1981
X3.2581Y-2.2981
X3.2581Y-2.3981
X3.3581Y-1.8981
X3.3581Y-1.9981
X3.3581Y-2.0981
X3.3581Y-2.1981
X3.3581Y-2.2981
X3.3581Y-2.3981
X3.4581Y-1.8981
X3.4581Y-1.9981
X3.4581Y-2.0981
X3.4581Y-2.1981
X3.4581Y-2.2981
X3.4581Y-2.3981
X3.5581Y-1.8981
X3.5581Y-1.9981
X3.5581Y-2.0981
X3.5581Y-2.1981
X3.5581Y-2.2981
X3.5581Y-2.3981
X3.6581Y-1.8981
X3.6581Y-1.9981
X3.6581Y-2.0981
X3.6581Y-2.1981
X3.6581Y-2.2981
X3.6581Y-2.3981
X3.7581Y-1.8981
X3.7581Y-1.9981
X3.7581Y-2.0981
X3.7581Y-2.1981
X3.7581Y-2.2981
X3.7581Y-2.3981
X3.8581Y-1.8981
X3.8581Y-1.9981
X3.8581Y-2.0981
X3.8581Y-2.1981
X3.8581Y-2.2981
X3.8581Y-2.3981
X3.9581Y-1.8981
X3.9581Y-1.9981
X3.9581Y-2.0981
X3.9581Y-2.1981
X3.9581Y-2.2981
X3.9581Y-2.3981
X4.0581Y-1.8981
X4.0581Y-1.9981
X4.0581Y-2.0981
X4.0581Y-2.1981
X4.0581Y-2.2981
X4.0581Y-2.3981
X4.1581Y-1.8981
X4.1581Y-1.9981
X4.1581Y-2.0981
X4.1581Y-2.1981
X4.1581Y-2.2981
X4.1581Y-2.3981
X4.2581Y-1.8981
X4.2581Y-1.9981
X4.2581Y-2.0981
X4.2581Y-2.1981
X4.2581Y-2.2981
X4.2581Y-2.3981
X4.3581Y-1.8981
X4.3581Y-1.9981
X4.3581Y-2.0981
X4.3581Y-2.1981
X4.3581Y-2.2981
X4.3581Y-2.3981
X4.4581Y-1.8981
X4.4581Y-1.9981
X4.4581Y-2.0981
X4.4581Y-2.1981
X4.4581Y-2.2981
X4.4581Y-2.3981
X4.5581Y-1.8981
X4.5581Y-1.9981
X4.5581Y-2.0981
X4.5581Y-2.1981
X4.5581Y-2.2981
X4.5581Y-2.3981
X4.6581Y-1.8981
X4.6581Y-1.9981
X4.6581Y-2.0981
X4.6581Y-2.1981
X4.6581Y-2.2981
X4.6581Y-2.3981
X4.7581Y-1.8981
X4.7581Y-1.9981
X4.7581Y-2.0981
X4.7581Y-2.1981
X4.7581Y-2.2981
X4.7581Y-2.3981
X2.93Y-3.75
X2.93Y-3.85
X2.93Y-3.95
X2.93Y-4.05
X2.93Y-4.15
X2.93Y-4.25
X2.93Y-4.35
X2.93Y-4.45
X2.93Y-4.55
X2.93Y-4.65
X2.93Y-4.75
X2.93Y-4.85
X3.53Y-3.75
X3.53Y-3.85
X3.53Y-3.95
X3.53Y-4.05
X3.53Y-4.15
X3.53Y-4.25
X3.53Y-4.35
X3.53Y-4.45
X3.53Y-4.55
X3.53Y-4.65
X3.53Y-4.75
X3.53Y-4.85
X3.7581Y-3.6481
X3.7581Y-3.7481
X3.7581Y-3.8481
X3.7581Y-3.9481
X3.7581Y-4.0481
X3.7581Y-4.1481
X3.7581Y-4.2481
X3.7581Y-4.3481
X3.7581Y-4.4481
X3.7581Y-4.5481
X3.7581Y-4.6481
X3.7581Y-4.7481
X3.7581Y-4.8481
X3.7581Y-4.9481
X3.7581Y-5.0481
X3.7581Y-5.1481
X3.8581Y-3.6481
X3.8581Y-3.7481
X3.8581Y-3.8481
X3.8581Y-3.9481
X3.8581Y-4.0481
X3.8581Y-4.1481
X3.8581Y-4.2481
X3.8581Y-4.3481
X3.8581Y-4.4481
X3.8581Y-4.5481
X3.8581Y-4.6481
X3.8581Y-4.7481
X3.8581Y-4.8481
X3.8581Y-4.9481
X3.8581Y-5.0481
X3.8581Y-5.1481
X3.9581Y-3.6481
X3.9581Y-3.7481
X3.9581Y-3.8481
X3.9581Y-3.9481
X3.9581Y-4.0481
X3.9581Y-4.1481
X3.9581Y-4.2481
X3.9581Y-4.3481
X3.9581Y-4.4481
X3.9581Y-4.5481
X3.9581Y-4.6481
X3.9581Y-4.7481
X3.9581Y-4.8481
X3.9581Y-4.9481
X3.9581Y-5.0481
X3.9581Y-5.1481
X4.0581Y-3.6481
X4.0581Y-3.7481
X4.0581Y-3.8481
X4.0581Y-3.9481
X4.0581Y-4.0481
X4.0581Y-4.1481
X4.0581Y-4.2481
X4.0581Y-4.3481
X4.0581Y-4.4481
X4.0581Y-4.5481
X4.0581Y-4.6481
X4.0581Y-4.7481
X4.0581Y-4.8481
X4.0581Y-4.9481
X4.0581Y-5.0481
X4.0581Y-5.1481
X4.1581Y-3.6481
X4.1581Y-3.7481
X4.1581Y-3.8481
X4.1581Y-3.9481
X4.1581Y-4.0481
X4.1581Y-4.1481
X4.1581Y-4.2481
X4.1581Y-4.3481
X4.1581Y-4.4481
X4.1581Y-4.5481
X4.1581Y-4.6481
X4.1581Y-4.7481
X4.1581Y-4.8481
X4.1581Y-4.9481
X4.1581Y-5.0481
X4.1581Y-5.1481
X4.2581Y-3.6481
X4.2581Y-3.7481
X4.2581Y-3.8481
X4.2581Y-3.9481
X4.2581Y-4.0481
X4.2581Y-4.1481
X4.2581Y-4.2481
X4.2581Y-4.3481
X4.2581Y-4.4481
X4.2581Y-4.5481
X4.2581Y-4.6481
X4.2581Y-4.7481
X4.2581Y-4.8481
X4.2581Y-4.9481
X4.2581Y-5.0481
X4.2581Y-5.1481
X4.3581Y-3.6481
X4.3581Y-3.7481
X4.3581Y-3.8481
X4.3581Y-3.9481
X4.3581Y-4.0481
X4.3581Y-4.1481
X4.3581Y-4.2481
X4.3581Y-4.3481
X4.3581Y-4.4481
X4.3581Y-4.5481
X4.3581Y-4.6481
X4.3581Y-4.7481
X4.3581Y-4.8481
X4.3581Y-4.9481
X4.3581Y-5.0481
X4.3581Y-5.1481
X4.4581Y-3.6481
X4.4581Y-3.7481
X4.4581Y-3.8481
X4.4581Y-3.9481
X4.4581Y-4.0481
X4.4581Y-4.1481
X4.4581Y-4.2481
X4.4581Y-4.3481
X4.4581Y-4.4481
X4.4581Y-4.5481
X4.4581Y-4.6481
X4.4581Y-4.7481
X4.4581Y-4.8481
X4.4581Y-4.9481
X4.4581Y-5.0481
X4.4581Y-5.1481
X4.5581Y-3.6481
X4.5581Y-3.7481
X4.5581Y-3.8481
X4.5581Y-3.9481
X4.5581Y-4.0481
X4.5581Y-4.1481
X4.5581Y-4.2481
X4.5581Y-4.3481
X4.5581Y-4.4481
X4.5581Y-4.5481
X4.5581Y-4.6481
X4.5581Y-4.7481
X4.5581Y-4.8481
X4.5581Y-4.9481
X4.5581Y-5.0481
X4.5581Y-5.1481
X4.6581Y-3.6481
X4.6581Y-3.7481
X4.6581Y-3.8481
X4.6581Y-3.9481
X4.6581Y-4.0481
X4.6581Y-4.1481
X4.6581Y-4.2481
X4.6581Y-4.3481
X4.6581Y-4.4481
X4.6581Y-4.5481
X4.6581Y-4.6481
X4.6581Y-4.7481
X4.6581Y-4.8481
X4.6581Y-4.9481
X4.6581Y-5.0481
X4.6581Y-5.1481
X4.7581Y-3.6481
X4.7581Y-3.7481
X4.7581Y-3.8481
X4.7581Y-3.9481
X4.7581Y-4.0481
X4.7581Y-4.1481
X4.7581Y-4.2481
X4.7581Y-4.3481
X4.7581Y-4.4481
X4.7581Y-4.5481
X4.7581Y-4.6481
X4.7581Y-4.7481
X4.7581Y-4.8481
X4.7581Y-4.9481
X4.7581Y-5.0481
X4.7581Y-5.1481
X4.8581Y-3.6481
X4.8581Y-3.7481
X4.8581Y-3.8481
X4.8581Y-3.9481
X4.8581Y-4.0481
X4.8581Y-4.1481
X4.8581Y-4.2481
X4.8581Y-4.3481
X4.8581Y-4.4481
X4.8581Y-4.5481
X4.8581Y-4.6481
X4.8581Y-4.7481
X4.8581Y-4.8481
X4.8581Y-4.9481
X4.8581Y-5.0481
X4.8581Y-5.1481
X4.9581Y-3.6481
X4.9581Y-3.7481
X4.9581Y-3.8481
X4.9581Y-3.9481
X4.9581Y-4.0481
X4.9581Y-4.1481
X4.9581Y-4.2481
X4.9581Y-4.3481
X4.9581Y-4.4481
X4.9581Y-4.5481
X4.9581Y-4.6481
X4.9581Y-4.7481
X4.9581Y-4.8481
X4.9581Y-4.9481
X4.9581Y-5.0481
X4.9581Y-5.1481
X5.0581Y-3.6481
X5.0581Y-3.7481
X5.0581Y-3.8481
X5.0581Y-3.9481
X5.0581Y-4.0481
X5.0581Y-4.1481
X5.0581Y-4.2481
X5.0581Y-4.3481
X5.0581Y-4.4481
X5.0581Y-4.5481
X5.0581Y-4.6481
X5.0581Y-4.7481
X5.0581Y-4.8481
X5.0581Y-4.9481
X5.0581Y-5.0481
X5.0581Y-5.1481
X5.4031Y-3.0431
X5.4031Y-3.1431
X5.4031Y-3.2431
X5.4031Y-3.3431
X5.4031Y-3.4431
X5.4031Y-3.5431
X5.4031Y-3.6431
X5.5031Y-3.0431
X5.5031Y-3.1431
X5.5031Y-3.2431
X5.5031Y-3.3431
X5.5031Y-3.4431
X5.5031Y-3.5431
X5.5031Y-3.6431
X5.6031Y-3.0431
X5.6031Y-3.1431
X5.6031Y-3.2431
X5.6031Y-3.3431
X5.6031Y-3.4431
X5.6031Y-3.5431
X5.6031Y-3.6431
X5.7031Y-3.0431
X5.7031Y-3.1431
X5.7031Y-3.2431
X5.7031Y-3.3431
X5.7031Y-3.4431
X5.7031Y-3.5431
X5.7031Y-3.6431
X5.8031Y-3.0431
X5.8031Y-3.1431
X5.8031Y-3.2431
X5.8031Y-3.3431
X5.8031Y-3.4431
X5.8031Y-3.5431
X5.8031Y-3.6431
X5.9031Y-3.0431
X5.9031Y-3.1431
X5.9031Y-3.2431
X5.9031Y-3.3431
X5.9031Y-3.4431
X5.9031Y-3.5431
X5.9031Y-3.6431
X6.0031Y-3.0431
X6.0031Y-3.1431
X6.0031Y-3.2431
X6.0031Y-3.3431
X6.0031Y-3.4431
X6.0031Y-3.5431
X6.0031Y-3.6431
X6.1031Y-3.0431
X6.1031Y-3.1431
X6.1031Y-3.2431
X6.1031Y-3.3431
X6.1031Y-3.4431
X6.1031Y-3.5431
X6.1031Y-3.6431
X6.2031Y-3.0431
X6.2031Y-3.1431
X6.2031Y-3.2431
X6.2031Y-3.3431
X6.2031Y-3.4431
X6.2031Y-3.5431
X6.2031Y-3.6431
X6.3031Y-3.0431
X6.3031Y-3.1431
X6.3031Y-3.2431
X6.3031Y-3.3431
X6.3031Y-3.4431
X6.3031Y-3.5431
X6.3031Y-3.6431
T5
X5.9624Y-4.0708
X5.9624Y-4.1708
X6.0624Y-4.0708
X6.0624Y-4.1708
X6.1624Y-4.0708
X6.1624Y-4.1708
T2
G00X6.1722Y-5.5635
M15
G01X6.1722Y-5.5891
M16
G05
G00X6.4478Y-5.5635
M15
G01X6.4478Y-5.5891
M16
G05
T3
G00X6.2057Y-5.47
M15
G01X6.2175Y-5.47
M16
G05
G00X6.4025Y-5.47
M15
G01X6.4143Y-5.47
M16
G05
T0
M30
