G04 #@! TF.GenerationSoftware,KiCad,Pcbnew,(5.1.4)-1*
G04 #@! TF.CreationDate,2019-12-01T11:28:44-05:00*
G04 #@! TF.ProjectId,bob_ws2811_driver,626f625f-7773-4323-9831-315f64726976,rev?*
G04 #@! TF.SameCoordinates,Original*
G04 #@! TF.FileFunction,Legend,Bot*
G04 #@! TF.FilePolarity,Positive*
%FSLAX46Y46*%
G04 Gerber Fmt 4.6, Leading zero omitted, Abs format (unit mm)*
G04 Created by KiCad (PCBNEW (5.1.4)-1) date 2019-12-01 11:28:44*
%MOMM*%
%LPD*%
G04 APERTURE LIST*
%ADD10C,0.127000*%
G04 APERTURE END LIST*
D10*
X110035340Y-53596540D02*
X113230660Y-53596540D01*
X113230660Y-50797460D02*
X110035340Y-50797460D01*
X110035340Y-52047140D02*
X110035340Y-52296060D01*
X113230660Y-52047140D02*
X113230660Y-52346860D01*
X113230660Y-50797460D02*
X113230660Y-50848260D01*
X113230660Y-53596540D02*
X113230660Y-53545740D01*
X110035340Y-50797460D02*
X110035340Y-50848260D01*
X110035340Y-53596540D02*
X110035340Y-53545740D01*
X113642140Y-54025800D02*
X113649760Y-53962300D01*
X113649760Y-53962300D02*
X113675160Y-53903880D01*
X113675160Y-53903880D02*
X113713260Y-53853080D01*
X113713260Y-53853080D02*
X113764060Y-53812440D01*
X113764060Y-53812440D02*
X113822480Y-53789580D01*
X113822480Y-53789580D02*
X113888520Y-53781960D01*
X113888520Y-53781960D02*
X113952020Y-53789580D01*
X113952020Y-53789580D02*
X114015520Y-53814980D01*
X114015520Y-53814980D02*
X114066320Y-53855620D01*
X114066320Y-53855620D02*
X114106960Y-53908960D01*
X114106960Y-53908960D02*
X114132360Y-53969920D01*
X114132360Y-53969920D02*
X114142520Y-54035960D01*
X114142520Y-54035960D02*
X114132360Y-54099460D01*
X114132360Y-54099460D02*
X114109500Y-54157880D01*
X114109500Y-54157880D02*
X114068860Y-54208680D01*
X114068860Y-54208680D02*
X114018060Y-54246780D01*
X114018060Y-54246780D02*
X113959640Y-54272180D01*
X113959640Y-54272180D02*
X113896140Y-54279800D01*
X113896140Y-54279800D02*
X113830100Y-54272180D01*
X113830100Y-54272180D02*
X113769140Y-54246780D01*
X113769140Y-54246780D02*
X113715800Y-54206140D01*
X113715800Y-54206140D02*
X113675160Y-54152800D01*
X113675160Y-54152800D02*
X113649760Y-54091840D01*
X113649760Y-54091840D02*
X113642140Y-54025800D01*
X136636760Y-54218840D02*
X136629140Y-54152800D01*
X136662160Y-54279800D02*
X136636760Y-54218840D01*
X136702800Y-54333140D02*
X136662160Y-54279800D01*
X136756140Y-54373780D02*
X136702800Y-54333140D01*
X136817100Y-54399180D02*
X136756140Y-54373780D01*
X136883140Y-54406800D02*
X136817100Y-54399180D01*
X136946640Y-54399180D02*
X136883140Y-54406800D01*
X137005060Y-54373780D02*
X136946640Y-54399180D01*
X137055860Y-54335680D02*
X137005060Y-54373780D01*
X137096500Y-54284880D02*
X137055860Y-54335680D01*
X137119360Y-54226460D02*
X137096500Y-54284880D01*
X137129520Y-54162960D02*
X137119360Y-54226460D01*
X137119360Y-54096920D02*
X137129520Y-54162960D01*
X137093960Y-54035960D02*
X137119360Y-54096920D01*
X137053320Y-53982620D02*
X137093960Y-54035960D01*
X137002520Y-53941980D02*
X137053320Y-53982620D01*
X136939020Y-53916580D02*
X137002520Y-53941980D01*
X136875520Y-53908960D02*
X136939020Y-53916580D01*
X136809480Y-53916580D02*
X136875520Y-53908960D01*
X136751060Y-53939440D02*
X136809480Y-53916580D01*
X136700260Y-53980080D02*
X136751060Y-53939440D01*
X136662160Y-54030880D02*
X136700260Y-53980080D01*
X136636760Y-54089300D02*
X136662160Y-54030880D01*
X136629140Y-54152800D02*
X136636760Y-54089300D01*
X133022340Y-53723540D02*
X133022340Y-53672740D01*
X133022340Y-50924460D02*
X133022340Y-50975260D01*
X136217660Y-53723540D02*
X136217660Y-53672740D01*
X136217660Y-50924460D02*
X136217660Y-50975260D01*
X136217660Y-52174140D02*
X136217660Y-52473860D01*
X133022340Y-52174140D02*
X133022340Y-52423060D01*
X136217660Y-50924460D02*
X133022340Y-50924460D01*
X133022340Y-53723540D02*
X136217660Y-53723540D01*
X155882340Y-53850540D02*
X159077660Y-53850540D01*
X159077660Y-51051460D02*
X155882340Y-51051460D01*
X155882340Y-52301140D02*
X155882340Y-52550060D01*
X159077660Y-52301140D02*
X159077660Y-52600860D01*
X159077660Y-51051460D02*
X159077660Y-51102260D01*
X159077660Y-53850540D02*
X159077660Y-53799740D01*
X155882340Y-51051460D02*
X155882340Y-51102260D01*
X155882340Y-53850540D02*
X155882340Y-53799740D01*
X159489140Y-54279800D02*
X159496760Y-54216300D01*
X159496760Y-54216300D02*
X159522160Y-54157880D01*
X159522160Y-54157880D02*
X159560260Y-54107080D01*
X159560260Y-54107080D02*
X159611060Y-54066440D01*
X159611060Y-54066440D02*
X159669480Y-54043580D01*
X159669480Y-54043580D02*
X159735520Y-54035960D01*
X159735520Y-54035960D02*
X159799020Y-54043580D01*
X159799020Y-54043580D02*
X159862520Y-54068980D01*
X159862520Y-54068980D02*
X159913320Y-54109620D01*
X159913320Y-54109620D02*
X159953960Y-54162960D01*
X159953960Y-54162960D02*
X159979360Y-54223920D01*
X159979360Y-54223920D02*
X159989520Y-54289960D01*
X159989520Y-54289960D02*
X159979360Y-54353460D01*
X159979360Y-54353460D02*
X159956500Y-54411880D01*
X159956500Y-54411880D02*
X159915860Y-54462680D01*
X159915860Y-54462680D02*
X159865060Y-54500780D01*
X159865060Y-54500780D02*
X159806640Y-54526180D01*
X159806640Y-54526180D02*
X159743140Y-54533800D01*
X159743140Y-54533800D02*
X159677100Y-54526180D01*
X159677100Y-54526180D02*
X159616140Y-54500780D01*
X159616140Y-54500780D02*
X159562800Y-54460140D01*
X159562800Y-54460140D02*
X159522160Y-54406800D01*
X159522160Y-54406800D02*
X159496760Y-54345840D01*
X159496760Y-54345840D02*
X159489140Y-54279800D01*
X182356760Y-54472840D02*
X182349140Y-54406800D01*
X182382160Y-54533800D02*
X182356760Y-54472840D01*
X182422800Y-54587140D02*
X182382160Y-54533800D01*
X182476140Y-54627780D02*
X182422800Y-54587140D01*
X182537100Y-54653180D02*
X182476140Y-54627780D01*
X182603140Y-54660800D02*
X182537100Y-54653180D01*
X182666640Y-54653180D02*
X182603140Y-54660800D01*
X182725060Y-54627780D02*
X182666640Y-54653180D01*
X182775860Y-54589680D02*
X182725060Y-54627780D01*
X182816500Y-54538880D02*
X182775860Y-54589680D01*
X182839360Y-54480460D02*
X182816500Y-54538880D01*
X182849520Y-54416960D02*
X182839360Y-54480460D01*
X182839360Y-54350920D02*
X182849520Y-54416960D01*
X182813960Y-54289960D02*
X182839360Y-54350920D01*
X182773320Y-54236620D02*
X182813960Y-54289960D01*
X182722520Y-54195980D02*
X182773320Y-54236620D01*
X182659020Y-54170580D02*
X182722520Y-54195980D01*
X182595520Y-54162960D02*
X182659020Y-54170580D01*
X182529480Y-54170580D02*
X182595520Y-54162960D01*
X182471060Y-54193440D02*
X182529480Y-54170580D01*
X182420260Y-54234080D02*
X182471060Y-54193440D01*
X182382160Y-54284880D02*
X182420260Y-54234080D01*
X182356760Y-54343300D02*
X182382160Y-54284880D01*
X182349140Y-54406800D02*
X182356760Y-54343300D01*
X178742340Y-53977540D02*
X178742340Y-53926740D01*
X178742340Y-51178460D02*
X178742340Y-51229260D01*
X181937660Y-53977540D02*
X181937660Y-53926740D01*
X181937660Y-51178460D02*
X181937660Y-51229260D01*
X181937660Y-52428140D02*
X181937660Y-52727860D01*
X178742340Y-52428140D02*
X178742340Y-52677060D01*
X181937660Y-51178460D02*
X178742340Y-51178460D01*
X178742340Y-53977540D02*
X181937660Y-53977540D01*
X178869340Y-29974540D02*
X182064660Y-29974540D01*
X182064660Y-27175460D02*
X178869340Y-27175460D01*
X178869340Y-28425140D02*
X178869340Y-28674060D01*
X182064660Y-28425140D02*
X182064660Y-28724860D01*
X182064660Y-27175460D02*
X182064660Y-27226260D01*
X182064660Y-29974540D02*
X182064660Y-29923740D01*
X178869340Y-27175460D02*
X178869340Y-27226260D01*
X178869340Y-29974540D02*
X178869340Y-29923740D01*
X182476140Y-30403800D02*
X182483760Y-30340300D01*
X182483760Y-30340300D02*
X182509160Y-30281880D01*
X182509160Y-30281880D02*
X182547260Y-30231080D01*
X182547260Y-30231080D02*
X182598060Y-30190440D01*
X182598060Y-30190440D02*
X182656480Y-30167580D01*
X182656480Y-30167580D02*
X182722520Y-30159960D01*
X182722520Y-30159960D02*
X182786020Y-30167580D01*
X182786020Y-30167580D02*
X182849520Y-30192980D01*
X182849520Y-30192980D02*
X182900320Y-30233620D01*
X182900320Y-30233620D02*
X182940960Y-30286960D01*
X182940960Y-30286960D02*
X182966360Y-30347920D01*
X182966360Y-30347920D02*
X182976520Y-30413960D01*
X182976520Y-30413960D02*
X182966360Y-30477460D01*
X182966360Y-30477460D02*
X182943500Y-30535880D01*
X182943500Y-30535880D02*
X182902860Y-30586680D01*
X182902860Y-30586680D02*
X182852060Y-30624780D01*
X182852060Y-30624780D02*
X182793640Y-30650180D01*
X182793640Y-30650180D02*
X182730140Y-30657800D01*
X182730140Y-30657800D02*
X182664100Y-30650180D01*
X182664100Y-30650180D02*
X182603140Y-30624780D01*
X182603140Y-30624780D02*
X182549800Y-30584140D01*
X182549800Y-30584140D02*
X182509160Y-30530800D01*
X182509160Y-30530800D02*
X182483760Y-30469840D01*
X182483760Y-30469840D02*
X182476140Y-30403800D01*
X159750760Y-30469840D02*
X159743140Y-30403800D01*
X159776160Y-30530800D02*
X159750760Y-30469840D01*
X159816800Y-30584140D02*
X159776160Y-30530800D01*
X159870140Y-30624780D02*
X159816800Y-30584140D01*
X159931100Y-30650180D02*
X159870140Y-30624780D01*
X159997140Y-30657800D02*
X159931100Y-30650180D01*
X160060640Y-30650180D02*
X159997140Y-30657800D01*
X160119060Y-30624780D02*
X160060640Y-30650180D01*
X160169860Y-30586680D02*
X160119060Y-30624780D01*
X160210500Y-30535880D02*
X160169860Y-30586680D01*
X160233360Y-30477460D02*
X160210500Y-30535880D01*
X160243520Y-30413960D02*
X160233360Y-30477460D01*
X160233360Y-30347920D02*
X160243520Y-30413960D01*
X160207960Y-30286960D02*
X160233360Y-30347920D01*
X160167320Y-30233620D02*
X160207960Y-30286960D01*
X160116520Y-30192980D02*
X160167320Y-30233620D01*
X160053020Y-30167580D02*
X160116520Y-30192980D01*
X159989520Y-30159960D02*
X160053020Y-30167580D01*
X159923480Y-30167580D02*
X159989520Y-30159960D01*
X159865060Y-30190440D02*
X159923480Y-30167580D01*
X159814260Y-30231080D02*
X159865060Y-30190440D01*
X159776160Y-30281880D02*
X159814260Y-30231080D01*
X159750760Y-30340300D02*
X159776160Y-30281880D01*
X159743140Y-30403800D02*
X159750760Y-30340300D01*
X156136340Y-29974540D02*
X156136340Y-29923740D01*
X156136340Y-27175460D02*
X156136340Y-27226260D01*
X159331660Y-29974540D02*
X159331660Y-29923740D01*
X159331660Y-27175460D02*
X159331660Y-27226260D01*
X159331660Y-28425140D02*
X159331660Y-28724860D01*
X156136340Y-28425140D02*
X156136340Y-28674060D01*
X159331660Y-27175460D02*
X156136340Y-27175460D01*
X156136340Y-29974540D02*
X159331660Y-29974540D01*
X133276340Y-29974540D02*
X136471660Y-29974540D01*
X136471660Y-27175460D02*
X133276340Y-27175460D01*
X133276340Y-28425140D02*
X133276340Y-28674060D01*
X136471660Y-28425140D02*
X136471660Y-28724860D01*
X136471660Y-27175460D02*
X136471660Y-27226260D01*
X136471660Y-29974540D02*
X136471660Y-29923740D01*
X133276340Y-27175460D02*
X133276340Y-27226260D01*
X133276340Y-29974540D02*
X133276340Y-29923740D01*
X136883140Y-30403800D02*
X136890760Y-30340300D01*
X136890760Y-30340300D02*
X136916160Y-30281880D01*
X136916160Y-30281880D02*
X136954260Y-30231080D01*
X136954260Y-30231080D02*
X137005060Y-30190440D01*
X137005060Y-30190440D02*
X137063480Y-30167580D01*
X137063480Y-30167580D02*
X137129520Y-30159960D01*
X137129520Y-30159960D02*
X137193020Y-30167580D01*
X137193020Y-30167580D02*
X137256520Y-30192980D01*
X137256520Y-30192980D02*
X137307320Y-30233620D01*
X137307320Y-30233620D02*
X137347960Y-30286960D01*
X137347960Y-30286960D02*
X137373360Y-30347920D01*
X137373360Y-30347920D02*
X137383520Y-30413960D01*
X137383520Y-30413960D02*
X137373360Y-30477460D01*
X137373360Y-30477460D02*
X137350500Y-30535880D01*
X137350500Y-30535880D02*
X137309860Y-30586680D01*
X137309860Y-30586680D02*
X137259060Y-30624780D01*
X137259060Y-30624780D02*
X137200640Y-30650180D01*
X137200640Y-30650180D02*
X137137140Y-30657800D01*
X137137140Y-30657800D02*
X137071100Y-30650180D01*
X137071100Y-30650180D02*
X137010140Y-30624780D01*
X137010140Y-30624780D02*
X136956800Y-30584140D01*
X136956800Y-30584140D02*
X136916160Y-30530800D01*
X136916160Y-30530800D02*
X136890760Y-30469840D01*
X136890760Y-30469840D02*
X136883140Y-30403800D01*
X113903760Y-30469840D02*
X113896140Y-30403800D01*
X113929160Y-30530800D02*
X113903760Y-30469840D01*
X113969800Y-30584140D02*
X113929160Y-30530800D01*
X114023140Y-30624780D02*
X113969800Y-30584140D01*
X114084100Y-30650180D02*
X114023140Y-30624780D01*
X114150140Y-30657800D02*
X114084100Y-30650180D01*
X114213640Y-30650180D02*
X114150140Y-30657800D01*
X114272060Y-30624780D02*
X114213640Y-30650180D01*
X114322860Y-30586680D02*
X114272060Y-30624780D01*
X114363500Y-30535880D02*
X114322860Y-30586680D01*
X114386360Y-30477460D02*
X114363500Y-30535880D01*
X114396520Y-30413960D02*
X114386360Y-30477460D01*
X114386360Y-30347920D02*
X114396520Y-30413960D01*
X114360960Y-30286960D02*
X114386360Y-30347920D01*
X114320320Y-30233620D02*
X114360960Y-30286960D01*
X114269520Y-30192980D02*
X114320320Y-30233620D01*
X114206020Y-30167580D02*
X114269520Y-30192980D01*
X114142520Y-30159960D02*
X114206020Y-30167580D01*
X114076480Y-30167580D02*
X114142520Y-30159960D01*
X114018060Y-30190440D02*
X114076480Y-30167580D01*
X113967260Y-30231080D02*
X114018060Y-30190440D01*
X113929160Y-30281880D02*
X113967260Y-30231080D01*
X113903760Y-30340300D02*
X113929160Y-30281880D01*
X113896140Y-30403800D02*
X113903760Y-30340300D01*
X110289340Y-29974540D02*
X110289340Y-29923740D01*
X110289340Y-27175460D02*
X110289340Y-27226260D01*
X113484660Y-29974540D02*
X113484660Y-29923740D01*
X113484660Y-27175460D02*
X113484660Y-27226260D01*
X113484660Y-28425140D02*
X113484660Y-28724860D01*
X110289340Y-28425140D02*
X110289340Y-28674060D01*
X113484660Y-27175460D02*
X110289340Y-27175460D01*
X110289340Y-29974540D02*
X113484660Y-29974540D01*
M02*
