G04 #@! TF.GenerationSoftware,KiCad,Pcbnew,(5.1.4)-1*
G04 #@! TF.CreationDate,2019-12-01T11:28:44-05:00*
G04 #@! TF.ProjectId,bob_ws2811_driver,626f625f-7773-4323-9831-315f64726976,rev?*
G04 #@! TF.SameCoordinates,Original*
G04 #@! TF.FileFunction,Soldermask,Top*
G04 #@! TF.FilePolarity,Negative*
%FSLAX46Y46*%
G04 Gerber Fmt 4.6, Leading zero omitted, Abs format (unit mm)*
G04 Created by KiCad (PCBNEW (5.1.4)-1) date 2019-12-01 11:28:44*
%MOMM*%
%LPD*%
G04 APERTURE LIST*
%ADD10C,0.100000*%
G04 APERTURE END LIST*
D10*
G36*
X114808000Y-53721000D02*
G01*
X108585000Y-53721000D01*
X108585000Y-49911000D01*
X114808000Y-49911000D01*
X114808000Y-53721000D01*
G37*
X114808000Y-53721000D02*
X108585000Y-53721000D01*
X108585000Y-49911000D01*
X114808000Y-49911000D01*
X114808000Y-53721000D01*
G36*
X137795000Y-53848000D02*
G01*
X131572000Y-53848000D01*
X131572000Y-50038000D01*
X137795000Y-50038000D01*
X137795000Y-53848000D01*
G37*
X137795000Y-53848000D02*
X131572000Y-53848000D01*
X131572000Y-50038000D01*
X137795000Y-50038000D01*
X137795000Y-53848000D01*
G36*
X160655000Y-53975000D02*
G01*
X154432000Y-53975000D01*
X154432000Y-50165000D01*
X160655000Y-50165000D01*
X160655000Y-53975000D01*
G37*
X160655000Y-53975000D02*
X154432000Y-53975000D01*
X154432000Y-50165000D01*
X160655000Y-50165000D01*
X160655000Y-53975000D01*
G36*
X183515000Y-54102000D02*
G01*
X177292000Y-54102000D01*
X177292000Y-50292000D01*
X183515000Y-50292000D01*
X183515000Y-54102000D01*
G37*
X183515000Y-54102000D02*
X177292000Y-54102000D01*
X177292000Y-50292000D01*
X183515000Y-50292000D01*
X183515000Y-54102000D01*
G36*
X183642000Y-30099000D02*
G01*
X177419000Y-30099000D01*
X177419000Y-26289000D01*
X183642000Y-26289000D01*
X183642000Y-30099000D01*
G37*
X183642000Y-30099000D02*
X177419000Y-30099000D01*
X177419000Y-26289000D01*
X183642000Y-26289000D01*
X183642000Y-30099000D01*
G36*
X160909000Y-30099000D02*
G01*
X154686000Y-30099000D01*
X154686000Y-26289000D01*
X160909000Y-26289000D01*
X160909000Y-30099000D01*
G37*
X160909000Y-30099000D02*
X154686000Y-30099000D01*
X154686000Y-26289000D01*
X160909000Y-26289000D01*
X160909000Y-30099000D01*
G36*
X138049000Y-30099000D02*
G01*
X131826000Y-30099000D01*
X131826000Y-26289000D01*
X138049000Y-26289000D01*
X138049000Y-30099000D01*
G37*
X138049000Y-30099000D02*
X131826000Y-30099000D01*
X131826000Y-26289000D01*
X138049000Y-26289000D01*
X138049000Y-30099000D01*
G36*
X115062000Y-30099000D02*
G01*
X108839000Y-30099000D01*
X108839000Y-26289000D01*
X115062000Y-26289000D01*
X115062000Y-30099000D01*
G37*
X115062000Y-30099000D02*
X108839000Y-30099000D01*
X108839000Y-26289000D01*
X115062000Y-26289000D01*
X115062000Y-30099000D01*
G36*
X186113642Y-69539781D02*
G01*
X186259414Y-69600162D01*
X186259416Y-69600163D01*
X186390608Y-69687822D01*
X186502178Y-69799392D01*
X186517523Y-69822358D01*
X186589838Y-69930586D01*
X186650219Y-70076358D01*
X186681000Y-70231107D01*
X186681000Y-70388893D01*
X186650219Y-70543642D01*
X186610787Y-70638838D01*
X186589837Y-70689416D01*
X186502178Y-70820608D01*
X186390608Y-70932178D01*
X186259416Y-71019837D01*
X186259415Y-71019838D01*
X186259414Y-71019838D01*
X186113642Y-71080219D01*
X185958893Y-71111000D01*
X185801107Y-71111000D01*
X185646358Y-71080219D01*
X185500586Y-71019838D01*
X185500585Y-71019838D01*
X185500584Y-71019837D01*
X185369392Y-70932178D01*
X185257822Y-70820608D01*
X185170163Y-70689416D01*
X185149213Y-70638838D01*
X185109781Y-70543642D01*
X185079000Y-70388893D01*
X185079000Y-70231107D01*
X185109781Y-70076358D01*
X185170162Y-69930586D01*
X185242477Y-69822358D01*
X185257822Y-69799392D01*
X185369392Y-69687822D01*
X185500584Y-69600163D01*
X185500586Y-69600162D01*
X185646358Y-69539781D01*
X185801107Y-69509000D01*
X185958893Y-69509000D01*
X186113642Y-69539781D01*
X186113642Y-69539781D01*
G37*
G36*
X174683642Y-69539781D02*
G01*
X174829414Y-69600162D01*
X174829416Y-69600163D01*
X174960608Y-69687822D01*
X175072178Y-69799392D01*
X175087523Y-69822358D01*
X175159838Y-69930586D01*
X175220219Y-70076358D01*
X175251000Y-70231107D01*
X175251000Y-70388893D01*
X175220219Y-70543642D01*
X175180787Y-70638838D01*
X175159837Y-70689416D01*
X175072178Y-70820608D01*
X174960608Y-70932178D01*
X174829416Y-71019837D01*
X174829415Y-71019838D01*
X174829414Y-71019838D01*
X174683642Y-71080219D01*
X174528893Y-71111000D01*
X174371107Y-71111000D01*
X174216358Y-71080219D01*
X174070586Y-71019838D01*
X174070585Y-71019838D01*
X174070584Y-71019837D01*
X173939392Y-70932178D01*
X173827822Y-70820608D01*
X173740163Y-70689416D01*
X173719213Y-70638838D01*
X173679781Y-70543642D01*
X173649000Y-70388893D01*
X173649000Y-70231107D01*
X173679781Y-70076358D01*
X173740162Y-69930586D01*
X173812477Y-69822358D01*
X173827822Y-69799392D01*
X173939392Y-69687822D01*
X174070584Y-69600163D01*
X174070586Y-69600162D01*
X174216358Y-69539781D01*
X174371107Y-69509000D01*
X174528893Y-69509000D01*
X174683642Y-69539781D01*
X174683642Y-69539781D01*
G37*
G36*
X163253642Y-69412781D02*
G01*
X163399414Y-69473162D01*
X163399416Y-69473163D01*
X163530608Y-69560822D01*
X163642178Y-69672392D01*
X163729837Y-69803584D01*
X163729838Y-69803586D01*
X163790219Y-69949358D01*
X163821000Y-70104107D01*
X163821000Y-70261893D01*
X163790219Y-70416642D01*
X163737613Y-70543643D01*
X163729837Y-70562416D01*
X163642178Y-70693608D01*
X163530608Y-70805178D01*
X163399416Y-70892837D01*
X163399415Y-70892838D01*
X163399414Y-70892838D01*
X163253642Y-70953219D01*
X163098893Y-70984000D01*
X162941107Y-70984000D01*
X162786358Y-70953219D01*
X162640586Y-70892838D01*
X162640585Y-70892838D01*
X162640584Y-70892837D01*
X162509392Y-70805178D01*
X162397822Y-70693608D01*
X162310163Y-70562416D01*
X162302387Y-70543643D01*
X162249781Y-70416642D01*
X162219000Y-70261893D01*
X162219000Y-70104107D01*
X162249781Y-69949358D01*
X162310162Y-69803586D01*
X162310163Y-69803584D01*
X162397822Y-69672392D01*
X162509392Y-69560822D01*
X162640584Y-69473163D01*
X162640586Y-69473162D01*
X162786358Y-69412781D01*
X162941107Y-69382000D01*
X163098893Y-69382000D01*
X163253642Y-69412781D01*
X163253642Y-69412781D01*
G37*
G36*
X151823642Y-69412781D02*
G01*
X151969414Y-69473162D01*
X151969416Y-69473163D01*
X152100608Y-69560822D01*
X152212178Y-69672392D01*
X152299837Y-69803584D01*
X152299838Y-69803586D01*
X152360219Y-69949358D01*
X152391000Y-70104107D01*
X152391000Y-70261893D01*
X152360219Y-70416642D01*
X152307613Y-70543643D01*
X152299837Y-70562416D01*
X152212178Y-70693608D01*
X152100608Y-70805178D01*
X151969416Y-70892837D01*
X151969415Y-70892838D01*
X151969414Y-70892838D01*
X151823642Y-70953219D01*
X151668893Y-70984000D01*
X151511107Y-70984000D01*
X151356358Y-70953219D01*
X151210586Y-70892838D01*
X151210585Y-70892838D01*
X151210584Y-70892837D01*
X151079392Y-70805178D01*
X150967822Y-70693608D01*
X150880163Y-70562416D01*
X150872387Y-70543643D01*
X150819781Y-70416642D01*
X150789000Y-70261893D01*
X150789000Y-70104107D01*
X150819781Y-69949358D01*
X150880162Y-69803586D01*
X150880163Y-69803584D01*
X150967822Y-69672392D01*
X151079392Y-69560822D01*
X151210584Y-69473163D01*
X151210586Y-69473162D01*
X151356358Y-69412781D01*
X151511107Y-69382000D01*
X151668893Y-69382000D01*
X151823642Y-69412781D01*
X151823642Y-69412781D01*
G37*
G36*
X128963642Y-69285781D02*
G01*
X129109414Y-69346162D01*
X129109416Y-69346163D01*
X129240608Y-69433822D01*
X129352178Y-69545392D01*
X129439837Y-69676584D01*
X129439838Y-69676586D01*
X129500219Y-69822358D01*
X129531000Y-69977107D01*
X129531000Y-70134893D01*
X129500219Y-70289642D01*
X129447613Y-70416643D01*
X129439837Y-70435416D01*
X129352178Y-70566608D01*
X129240608Y-70678178D01*
X129109416Y-70765837D01*
X129109415Y-70765838D01*
X129109414Y-70765838D01*
X128963642Y-70826219D01*
X128808893Y-70857000D01*
X128651107Y-70857000D01*
X128496358Y-70826219D01*
X128350586Y-70765838D01*
X128350585Y-70765838D01*
X128350584Y-70765837D01*
X128219392Y-70678178D01*
X128107822Y-70566608D01*
X128020163Y-70435416D01*
X128012387Y-70416643D01*
X127959781Y-70289642D01*
X127929000Y-70134893D01*
X127929000Y-69977107D01*
X127959781Y-69822358D01*
X128020162Y-69676586D01*
X128020163Y-69676584D01*
X128107822Y-69545392D01*
X128219392Y-69433822D01*
X128350584Y-69346163D01*
X128350586Y-69346162D01*
X128496358Y-69285781D01*
X128651107Y-69255000D01*
X128808893Y-69255000D01*
X128963642Y-69285781D01*
X128963642Y-69285781D01*
G37*
G36*
X140393642Y-69285781D02*
G01*
X140539414Y-69346162D01*
X140539416Y-69346163D01*
X140670608Y-69433822D01*
X140782178Y-69545392D01*
X140869837Y-69676584D01*
X140869838Y-69676586D01*
X140930219Y-69822358D01*
X140961000Y-69977107D01*
X140961000Y-70134893D01*
X140930219Y-70289642D01*
X140877613Y-70416643D01*
X140869837Y-70435416D01*
X140782178Y-70566608D01*
X140670608Y-70678178D01*
X140539416Y-70765837D01*
X140539415Y-70765838D01*
X140539414Y-70765838D01*
X140393642Y-70826219D01*
X140238893Y-70857000D01*
X140081107Y-70857000D01*
X139926358Y-70826219D01*
X139780586Y-70765838D01*
X139780585Y-70765838D01*
X139780584Y-70765837D01*
X139649392Y-70678178D01*
X139537822Y-70566608D01*
X139450163Y-70435416D01*
X139442387Y-70416643D01*
X139389781Y-70289642D01*
X139359000Y-70134893D01*
X139359000Y-69977107D01*
X139389781Y-69822358D01*
X139450162Y-69676586D01*
X139450163Y-69676584D01*
X139537822Y-69545392D01*
X139649392Y-69433822D01*
X139780584Y-69346163D01*
X139780586Y-69346162D01*
X139926358Y-69285781D01*
X140081107Y-69255000D01*
X140238893Y-69255000D01*
X140393642Y-69285781D01*
X140393642Y-69285781D01*
G37*
G36*
X105976642Y-69158781D02*
G01*
X106122414Y-69219162D01*
X106122416Y-69219163D01*
X106253608Y-69306822D01*
X106365178Y-69418392D01*
X106452837Y-69549584D01*
X106452838Y-69549586D01*
X106513219Y-69695358D01*
X106544000Y-69850107D01*
X106544000Y-70007893D01*
X106513219Y-70162642D01*
X106460613Y-70289643D01*
X106452837Y-70308416D01*
X106365178Y-70439608D01*
X106253608Y-70551178D01*
X106122416Y-70638837D01*
X106122415Y-70638838D01*
X106122414Y-70638838D01*
X105976642Y-70699219D01*
X105821893Y-70730000D01*
X105664107Y-70730000D01*
X105509358Y-70699219D01*
X105363586Y-70638838D01*
X105363585Y-70638838D01*
X105363584Y-70638837D01*
X105232392Y-70551178D01*
X105120822Y-70439608D01*
X105033163Y-70308416D01*
X105025387Y-70289643D01*
X104972781Y-70162642D01*
X104942000Y-70007893D01*
X104942000Y-69850107D01*
X104972781Y-69695358D01*
X105033162Y-69549586D01*
X105033163Y-69549584D01*
X105120822Y-69418392D01*
X105232392Y-69306822D01*
X105363584Y-69219163D01*
X105363586Y-69219162D01*
X105509358Y-69158781D01*
X105664107Y-69128000D01*
X105821893Y-69128000D01*
X105976642Y-69158781D01*
X105976642Y-69158781D01*
G37*
G36*
X117406642Y-69158781D02*
G01*
X117552414Y-69219162D01*
X117552416Y-69219163D01*
X117683608Y-69306822D01*
X117795178Y-69418392D01*
X117882837Y-69549584D01*
X117882838Y-69549586D01*
X117943219Y-69695358D01*
X117974000Y-69850107D01*
X117974000Y-70007893D01*
X117943219Y-70162642D01*
X117890613Y-70289643D01*
X117882837Y-70308416D01*
X117795178Y-70439608D01*
X117683608Y-70551178D01*
X117552416Y-70638837D01*
X117552415Y-70638838D01*
X117552414Y-70638838D01*
X117406642Y-70699219D01*
X117251893Y-70730000D01*
X117094107Y-70730000D01*
X116939358Y-70699219D01*
X116793586Y-70638838D01*
X116793585Y-70638838D01*
X116793584Y-70638837D01*
X116662392Y-70551178D01*
X116550822Y-70439608D01*
X116463163Y-70308416D01*
X116455387Y-70289643D01*
X116402781Y-70162642D01*
X116372000Y-70007893D01*
X116372000Y-69850107D01*
X116402781Y-69695358D01*
X116463162Y-69549586D01*
X116463163Y-69549584D01*
X116550822Y-69418392D01*
X116662392Y-69306822D01*
X116793584Y-69219163D01*
X116793586Y-69219162D01*
X116939358Y-69158781D01*
X117094107Y-69128000D01*
X117251893Y-69128000D01*
X117406642Y-69158781D01*
X117406642Y-69158781D01*
G37*
G36*
X174683642Y-66999781D02*
G01*
X174829414Y-67060162D01*
X174829416Y-67060163D01*
X174960608Y-67147822D01*
X175072178Y-67259392D01*
X175106064Y-67310107D01*
X175159838Y-67390586D01*
X175220219Y-67536358D01*
X175251000Y-67691107D01*
X175251000Y-67848893D01*
X175220219Y-68003642D01*
X175159838Y-68149414D01*
X175159837Y-68149416D01*
X175072178Y-68280608D01*
X174960608Y-68392178D01*
X174829416Y-68479837D01*
X174829415Y-68479838D01*
X174829414Y-68479838D01*
X174683642Y-68540219D01*
X174528893Y-68571000D01*
X174371107Y-68571000D01*
X174216358Y-68540219D01*
X174070586Y-68479838D01*
X174070585Y-68479838D01*
X174070584Y-68479837D01*
X173939392Y-68392178D01*
X173827822Y-68280608D01*
X173740163Y-68149416D01*
X173740162Y-68149414D01*
X173679781Y-68003642D01*
X173649000Y-67848893D01*
X173649000Y-67691107D01*
X173679781Y-67536358D01*
X173740162Y-67390586D01*
X173793936Y-67310107D01*
X173827822Y-67259392D01*
X173939392Y-67147822D01*
X174070584Y-67060163D01*
X174070586Y-67060162D01*
X174216358Y-66999781D01*
X174371107Y-66969000D01*
X174528893Y-66969000D01*
X174683642Y-66999781D01*
X174683642Y-66999781D01*
G37*
G36*
X186113642Y-66999781D02*
G01*
X186259414Y-67060162D01*
X186259416Y-67060163D01*
X186390608Y-67147822D01*
X186502178Y-67259392D01*
X186536064Y-67310107D01*
X186589838Y-67390586D01*
X186650219Y-67536358D01*
X186681000Y-67691107D01*
X186681000Y-67848893D01*
X186650219Y-68003642D01*
X186589838Y-68149414D01*
X186589837Y-68149416D01*
X186502178Y-68280608D01*
X186390608Y-68392178D01*
X186259416Y-68479837D01*
X186259415Y-68479838D01*
X186259414Y-68479838D01*
X186113642Y-68540219D01*
X185958893Y-68571000D01*
X185801107Y-68571000D01*
X185646358Y-68540219D01*
X185500586Y-68479838D01*
X185500585Y-68479838D01*
X185500584Y-68479837D01*
X185369392Y-68392178D01*
X185257822Y-68280608D01*
X185170163Y-68149416D01*
X185170162Y-68149414D01*
X185109781Y-68003642D01*
X185079000Y-67848893D01*
X185079000Y-67691107D01*
X185109781Y-67536358D01*
X185170162Y-67390586D01*
X185223936Y-67310107D01*
X185257822Y-67259392D01*
X185369392Y-67147822D01*
X185500584Y-67060163D01*
X185500586Y-67060162D01*
X185646358Y-66999781D01*
X185801107Y-66969000D01*
X185958893Y-66969000D01*
X186113642Y-66999781D01*
X186113642Y-66999781D01*
G37*
G36*
X151823642Y-66872781D02*
G01*
X151969414Y-66933162D01*
X151969416Y-66933163D01*
X152100608Y-67020822D01*
X152212178Y-67132392D01*
X152299837Y-67263584D01*
X152299838Y-67263586D01*
X152360219Y-67409358D01*
X152391000Y-67564107D01*
X152391000Y-67721893D01*
X152360219Y-67876642D01*
X152299838Y-68022414D01*
X152299837Y-68022416D01*
X152212178Y-68153608D01*
X152100608Y-68265178D01*
X151969416Y-68352837D01*
X151969415Y-68352838D01*
X151969414Y-68352838D01*
X151823642Y-68413219D01*
X151668893Y-68444000D01*
X151511107Y-68444000D01*
X151356358Y-68413219D01*
X151210586Y-68352838D01*
X151210585Y-68352838D01*
X151210584Y-68352837D01*
X151079392Y-68265178D01*
X150967822Y-68153608D01*
X150880163Y-68022416D01*
X150880162Y-68022414D01*
X150819781Y-67876642D01*
X150789000Y-67721893D01*
X150789000Y-67564107D01*
X150819781Y-67409358D01*
X150880162Y-67263586D01*
X150880163Y-67263584D01*
X150967822Y-67132392D01*
X151079392Y-67020822D01*
X151210584Y-66933163D01*
X151210586Y-66933162D01*
X151356358Y-66872781D01*
X151511107Y-66842000D01*
X151668893Y-66842000D01*
X151823642Y-66872781D01*
X151823642Y-66872781D01*
G37*
G36*
X163253642Y-66872781D02*
G01*
X163399414Y-66933162D01*
X163399416Y-66933163D01*
X163530608Y-67020822D01*
X163642178Y-67132392D01*
X163729837Y-67263584D01*
X163729838Y-67263586D01*
X163790219Y-67409358D01*
X163821000Y-67564107D01*
X163821000Y-67721893D01*
X163790219Y-67876642D01*
X163729838Y-68022414D01*
X163729837Y-68022416D01*
X163642178Y-68153608D01*
X163530608Y-68265178D01*
X163399416Y-68352837D01*
X163399415Y-68352838D01*
X163399414Y-68352838D01*
X163253642Y-68413219D01*
X163098893Y-68444000D01*
X162941107Y-68444000D01*
X162786358Y-68413219D01*
X162640586Y-68352838D01*
X162640585Y-68352838D01*
X162640584Y-68352837D01*
X162509392Y-68265178D01*
X162397822Y-68153608D01*
X162310163Y-68022416D01*
X162310162Y-68022414D01*
X162249781Y-67876642D01*
X162219000Y-67721893D01*
X162219000Y-67564107D01*
X162249781Y-67409358D01*
X162310162Y-67263586D01*
X162310163Y-67263584D01*
X162397822Y-67132392D01*
X162509392Y-67020822D01*
X162640584Y-66933163D01*
X162640586Y-66933162D01*
X162786358Y-66872781D01*
X162941107Y-66842000D01*
X163098893Y-66842000D01*
X163253642Y-66872781D01*
X163253642Y-66872781D01*
G37*
G36*
X183591000Y-68393000D02*
G01*
X182089000Y-68393000D01*
X182089000Y-67691000D01*
X183591000Y-67691000D01*
X183591000Y-68393000D01*
X183591000Y-68393000D01*
G37*
G36*
X178591000Y-68393000D02*
G01*
X177089000Y-68393000D01*
X177089000Y-67691000D01*
X178591000Y-67691000D01*
X178591000Y-68393000D01*
X178591000Y-68393000D01*
G37*
G36*
X128963642Y-66745781D02*
G01*
X129109414Y-66806162D01*
X129109416Y-66806163D01*
X129240608Y-66893822D01*
X129352178Y-67005392D01*
X129439837Y-67136584D01*
X129439838Y-67136586D01*
X129500219Y-67282358D01*
X129531000Y-67437107D01*
X129531000Y-67594893D01*
X129500219Y-67749642D01*
X129447613Y-67876643D01*
X129439837Y-67895416D01*
X129352178Y-68026608D01*
X129240608Y-68138178D01*
X129109416Y-68225837D01*
X129109415Y-68225838D01*
X129109414Y-68225838D01*
X128963642Y-68286219D01*
X128808893Y-68317000D01*
X128651107Y-68317000D01*
X128496358Y-68286219D01*
X128350586Y-68225838D01*
X128350585Y-68225838D01*
X128350584Y-68225837D01*
X128219392Y-68138178D01*
X128107822Y-68026608D01*
X128020163Y-67895416D01*
X128012387Y-67876643D01*
X127959781Y-67749642D01*
X127929000Y-67594893D01*
X127929000Y-67437107D01*
X127959781Y-67282358D01*
X128020162Y-67136586D01*
X128020163Y-67136584D01*
X128107822Y-67005392D01*
X128219392Y-66893822D01*
X128350584Y-66806163D01*
X128350586Y-66806162D01*
X128496358Y-66745781D01*
X128651107Y-66715000D01*
X128808893Y-66715000D01*
X128963642Y-66745781D01*
X128963642Y-66745781D01*
G37*
G36*
X140393642Y-66745781D02*
G01*
X140539414Y-66806162D01*
X140539416Y-66806163D01*
X140670608Y-66893822D01*
X140782178Y-67005392D01*
X140869837Y-67136584D01*
X140869838Y-67136586D01*
X140930219Y-67282358D01*
X140961000Y-67437107D01*
X140961000Y-67594893D01*
X140930219Y-67749642D01*
X140877613Y-67876643D01*
X140869837Y-67895416D01*
X140782178Y-68026608D01*
X140670608Y-68138178D01*
X140539416Y-68225837D01*
X140539415Y-68225838D01*
X140539414Y-68225838D01*
X140393642Y-68286219D01*
X140238893Y-68317000D01*
X140081107Y-68317000D01*
X139926358Y-68286219D01*
X139780586Y-68225838D01*
X139780585Y-68225838D01*
X139780584Y-68225837D01*
X139649392Y-68138178D01*
X139537822Y-68026608D01*
X139450163Y-67895416D01*
X139442387Y-67876643D01*
X139389781Y-67749642D01*
X139359000Y-67594893D01*
X139359000Y-67437107D01*
X139389781Y-67282358D01*
X139450162Y-67136586D01*
X139450163Y-67136584D01*
X139537822Y-67005392D01*
X139649392Y-66893822D01*
X139780584Y-66806163D01*
X139780586Y-66806162D01*
X139926358Y-66745781D01*
X140081107Y-66715000D01*
X140238893Y-66715000D01*
X140393642Y-66745781D01*
X140393642Y-66745781D01*
G37*
G36*
X160731000Y-68266000D02*
G01*
X159229000Y-68266000D01*
X159229000Y-67564000D01*
X160731000Y-67564000D01*
X160731000Y-68266000D01*
X160731000Y-68266000D01*
G37*
G36*
X155731000Y-68266000D02*
G01*
X154229000Y-68266000D01*
X154229000Y-67564000D01*
X155731000Y-67564000D01*
X155731000Y-68266000D01*
X155731000Y-68266000D01*
G37*
G36*
X105976642Y-66618781D02*
G01*
X106122414Y-66679162D01*
X106122416Y-66679163D01*
X106253608Y-66766822D01*
X106365178Y-66878392D01*
X106452837Y-67009584D01*
X106452838Y-67009586D01*
X106513219Y-67155358D01*
X106544000Y-67310107D01*
X106544000Y-67467893D01*
X106513219Y-67622642D01*
X106460613Y-67749643D01*
X106452837Y-67768416D01*
X106365178Y-67899608D01*
X106253608Y-68011178D01*
X106122416Y-68098837D01*
X106122415Y-68098838D01*
X106122414Y-68098838D01*
X105976642Y-68159219D01*
X105821893Y-68190000D01*
X105664107Y-68190000D01*
X105509358Y-68159219D01*
X105363586Y-68098838D01*
X105363585Y-68098838D01*
X105363584Y-68098837D01*
X105232392Y-68011178D01*
X105120822Y-67899608D01*
X105033163Y-67768416D01*
X105025387Y-67749643D01*
X104972781Y-67622642D01*
X104942000Y-67467893D01*
X104942000Y-67310107D01*
X104972781Y-67155358D01*
X105033162Y-67009586D01*
X105033163Y-67009584D01*
X105120822Y-66878392D01*
X105232392Y-66766822D01*
X105363584Y-66679163D01*
X105363586Y-66679162D01*
X105509358Y-66618781D01*
X105664107Y-66588000D01*
X105821893Y-66588000D01*
X105976642Y-66618781D01*
X105976642Y-66618781D01*
G37*
G36*
X117406642Y-66618781D02*
G01*
X117552414Y-66679162D01*
X117552416Y-66679163D01*
X117683608Y-66766822D01*
X117795178Y-66878392D01*
X117882837Y-67009584D01*
X117882838Y-67009586D01*
X117943219Y-67155358D01*
X117974000Y-67310107D01*
X117974000Y-67467893D01*
X117943219Y-67622642D01*
X117890613Y-67749643D01*
X117882837Y-67768416D01*
X117795178Y-67899608D01*
X117683608Y-68011178D01*
X117552416Y-68098837D01*
X117552415Y-68098838D01*
X117552414Y-68098838D01*
X117406642Y-68159219D01*
X117251893Y-68190000D01*
X117094107Y-68190000D01*
X116939358Y-68159219D01*
X116793586Y-68098838D01*
X116793585Y-68098838D01*
X116793584Y-68098837D01*
X116662392Y-68011178D01*
X116550822Y-67899608D01*
X116463163Y-67768416D01*
X116455387Y-67749643D01*
X116402781Y-67622642D01*
X116372000Y-67467893D01*
X116372000Y-67310107D01*
X116402781Y-67155358D01*
X116463162Y-67009586D01*
X116463163Y-67009584D01*
X116550822Y-66878392D01*
X116662392Y-66766822D01*
X116793584Y-66679163D01*
X116793586Y-66679162D01*
X116939358Y-66618781D01*
X117094107Y-66588000D01*
X117251893Y-66588000D01*
X117406642Y-66618781D01*
X117406642Y-66618781D01*
G37*
G36*
X132871000Y-68139000D02*
G01*
X131369000Y-68139000D01*
X131369000Y-67437000D01*
X132871000Y-67437000D01*
X132871000Y-68139000D01*
X132871000Y-68139000D01*
G37*
G36*
X137871000Y-68139000D02*
G01*
X136369000Y-68139000D01*
X136369000Y-67437000D01*
X137871000Y-67437000D01*
X137871000Y-68139000D01*
X137871000Y-68139000D01*
G37*
G36*
X114884000Y-68012000D02*
G01*
X113382000Y-68012000D01*
X113382000Y-67310000D01*
X114884000Y-67310000D01*
X114884000Y-68012000D01*
X114884000Y-68012000D01*
G37*
G36*
X109884000Y-68012000D02*
G01*
X108382000Y-68012000D01*
X108382000Y-67310000D01*
X109884000Y-67310000D01*
X109884000Y-68012000D01*
X109884000Y-68012000D01*
G37*
G36*
X183591000Y-67143000D02*
G01*
X182089000Y-67143000D01*
X182089000Y-66441000D01*
X183591000Y-66441000D01*
X183591000Y-67143000D01*
X183591000Y-67143000D01*
G37*
G36*
X178591000Y-67143000D02*
G01*
X177089000Y-67143000D01*
X177089000Y-66441000D01*
X178591000Y-66441000D01*
X178591000Y-67143000D01*
X178591000Y-67143000D01*
G37*
G36*
X155731000Y-67016000D02*
G01*
X154229000Y-67016000D01*
X154229000Y-66314000D01*
X155731000Y-66314000D01*
X155731000Y-67016000D01*
X155731000Y-67016000D01*
G37*
G36*
X160731000Y-67016000D02*
G01*
X159229000Y-67016000D01*
X159229000Y-66314000D01*
X160731000Y-66314000D01*
X160731000Y-67016000D01*
X160731000Y-67016000D01*
G37*
G36*
X137871000Y-66889000D02*
G01*
X136369000Y-66889000D01*
X136369000Y-66187000D01*
X137871000Y-66187000D01*
X137871000Y-66889000D01*
X137871000Y-66889000D01*
G37*
G36*
X132871000Y-66889000D02*
G01*
X131369000Y-66889000D01*
X131369000Y-66187000D01*
X132871000Y-66187000D01*
X132871000Y-66889000D01*
X132871000Y-66889000D01*
G37*
G36*
X114884000Y-66762000D02*
G01*
X113382000Y-66762000D01*
X113382000Y-66060000D01*
X114884000Y-66060000D01*
X114884000Y-66762000D01*
X114884000Y-66762000D01*
G37*
G36*
X109884000Y-66762000D02*
G01*
X108382000Y-66762000D01*
X108382000Y-66060000D01*
X109884000Y-66060000D01*
X109884000Y-66762000D01*
X109884000Y-66762000D01*
G37*
G36*
X186113642Y-64459781D02*
G01*
X186249366Y-64516000D01*
X186259416Y-64520163D01*
X186390608Y-64607822D01*
X186502178Y-64719392D01*
X186589837Y-64850584D01*
X186589838Y-64850586D01*
X186650219Y-64996358D01*
X186681000Y-65151107D01*
X186681000Y-65308893D01*
X186650219Y-65463642D01*
X186610787Y-65558838D01*
X186589837Y-65609416D01*
X186502178Y-65740608D01*
X186390608Y-65852178D01*
X186259416Y-65939837D01*
X186259415Y-65939838D01*
X186259414Y-65939838D01*
X186113642Y-66000219D01*
X185958893Y-66031000D01*
X185801107Y-66031000D01*
X185646358Y-66000219D01*
X185500586Y-65939838D01*
X185500585Y-65939838D01*
X185500584Y-65939837D01*
X185369392Y-65852178D01*
X185257822Y-65740608D01*
X185170163Y-65609416D01*
X185149213Y-65558838D01*
X185109781Y-65463642D01*
X185079000Y-65308893D01*
X185079000Y-65151107D01*
X185109781Y-64996358D01*
X185170162Y-64850586D01*
X185170163Y-64850584D01*
X185257822Y-64719392D01*
X185369392Y-64607822D01*
X185500584Y-64520163D01*
X185510634Y-64516000D01*
X185646358Y-64459781D01*
X185801107Y-64429000D01*
X185958893Y-64429000D01*
X186113642Y-64459781D01*
X186113642Y-64459781D01*
G37*
G36*
X174683642Y-64459781D02*
G01*
X174819366Y-64516000D01*
X174829416Y-64520163D01*
X174960608Y-64607822D01*
X175072178Y-64719392D01*
X175159837Y-64850584D01*
X175159838Y-64850586D01*
X175220219Y-64996358D01*
X175251000Y-65151107D01*
X175251000Y-65308893D01*
X175220219Y-65463642D01*
X175180787Y-65558838D01*
X175159837Y-65609416D01*
X175072178Y-65740608D01*
X174960608Y-65852178D01*
X174829416Y-65939837D01*
X174829415Y-65939838D01*
X174829414Y-65939838D01*
X174683642Y-66000219D01*
X174528893Y-66031000D01*
X174371107Y-66031000D01*
X174216358Y-66000219D01*
X174070586Y-65939838D01*
X174070585Y-65939838D01*
X174070584Y-65939837D01*
X173939392Y-65852178D01*
X173827822Y-65740608D01*
X173740163Y-65609416D01*
X173719213Y-65558838D01*
X173679781Y-65463642D01*
X173649000Y-65308893D01*
X173649000Y-65151107D01*
X173679781Y-64996358D01*
X173740162Y-64850586D01*
X173740163Y-64850584D01*
X173827822Y-64719392D01*
X173939392Y-64607822D01*
X174070584Y-64520163D01*
X174080634Y-64516000D01*
X174216358Y-64459781D01*
X174371107Y-64429000D01*
X174528893Y-64429000D01*
X174683642Y-64459781D01*
X174683642Y-64459781D01*
G37*
G36*
X163253642Y-64332781D02*
G01*
X163389366Y-64389000D01*
X163399416Y-64393163D01*
X163530608Y-64480822D01*
X163642178Y-64592392D01*
X163729837Y-64723584D01*
X163729838Y-64723586D01*
X163790219Y-64869358D01*
X163821000Y-65024107D01*
X163821000Y-65181893D01*
X163790219Y-65336642D01*
X163737613Y-65463643D01*
X163729837Y-65482416D01*
X163642178Y-65613608D01*
X163530608Y-65725178D01*
X163399416Y-65812837D01*
X163399415Y-65812838D01*
X163399414Y-65812838D01*
X163253642Y-65873219D01*
X163098893Y-65904000D01*
X162941107Y-65904000D01*
X162786358Y-65873219D01*
X162640586Y-65812838D01*
X162640585Y-65812838D01*
X162640584Y-65812837D01*
X162509392Y-65725178D01*
X162397822Y-65613608D01*
X162310163Y-65482416D01*
X162302387Y-65463643D01*
X162249781Y-65336642D01*
X162219000Y-65181893D01*
X162219000Y-65024107D01*
X162249781Y-64869358D01*
X162310162Y-64723586D01*
X162310163Y-64723584D01*
X162397822Y-64592392D01*
X162509392Y-64480822D01*
X162640584Y-64393163D01*
X162650634Y-64389000D01*
X162786358Y-64332781D01*
X162941107Y-64302000D01*
X163098893Y-64302000D01*
X163253642Y-64332781D01*
X163253642Y-64332781D01*
G37*
G36*
X151823642Y-64332781D02*
G01*
X151959366Y-64389000D01*
X151969416Y-64393163D01*
X152100608Y-64480822D01*
X152212178Y-64592392D01*
X152299837Y-64723584D01*
X152299838Y-64723586D01*
X152360219Y-64869358D01*
X152391000Y-65024107D01*
X152391000Y-65181893D01*
X152360219Y-65336642D01*
X152307613Y-65463643D01*
X152299837Y-65482416D01*
X152212178Y-65613608D01*
X152100608Y-65725178D01*
X151969416Y-65812837D01*
X151969415Y-65812838D01*
X151969414Y-65812838D01*
X151823642Y-65873219D01*
X151668893Y-65904000D01*
X151511107Y-65904000D01*
X151356358Y-65873219D01*
X151210586Y-65812838D01*
X151210585Y-65812838D01*
X151210584Y-65812837D01*
X151079392Y-65725178D01*
X150967822Y-65613608D01*
X150880163Y-65482416D01*
X150872387Y-65463643D01*
X150819781Y-65336642D01*
X150789000Y-65181893D01*
X150789000Y-65024107D01*
X150819781Y-64869358D01*
X150880162Y-64723586D01*
X150880163Y-64723584D01*
X150967822Y-64592392D01*
X151079392Y-64480822D01*
X151210584Y-64393163D01*
X151220634Y-64389000D01*
X151356358Y-64332781D01*
X151511107Y-64302000D01*
X151668893Y-64302000D01*
X151823642Y-64332781D01*
X151823642Y-64332781D01*
G37*
G36*
X183591000Y-65893000D02*
G01*
X182089000Y-65893000D01*
X182089000Y-65191000D01*
X183591000Y-65191000D01*
X183591000Y-65893000D01*
X183591000Y-65893000D01*
G37*
G36*
X178591000Y-65893000D02*
G01*
X177089000Y-65893000D01*
X177089000Y-65191000D01*
X178591000Y-65191000D01*
X178591000Y-65893000D01*
X178591000Y-65893000D01*
G37*
G36*
X128963642Y-64205781D02*
G01*
X129099366Y-64262000D01*
X129109416Y-64266163D01*
X129240608Y-64353822D01*
X129352178Y-64465392D01*
X129439837Y-64596584D01*
X129439838Y-64596586D01*
X129500219Y-64742358D01*
X129531000Y-64897107D01*
X129531000Y-65054893D01*
X129500219Y-65209642D01*
X129447613Y-65336643D01*
X129439837Y-65355416D01*
X129352178Y-65486608D01*
X129240608Y-65598178D01*
X129109416Y-65685837D01*
X129109415Y-65685838D01*
X129109414Y-65685838D01*
X128963642Y-65746219D01*
X128808893Y-65777000D01*
X128651107Y-65777000D01*
X128496358Y-65746219D01*
X128350586Y-65685838D01*
X128350585Y-65685838D01*
X128350584Y-65685837D01*
X128219392Y-65598178D01*
X128107822Y-65486608D01*
X128020163Y-65355416D01*
X128012387Y-65336643D01*
X127959781Y-65209642D01*
X127929000Y-65054893D01*
X127929000Y-64897107D01*
X127959781Y-64742358D01*
X128020162Y-64596586D01*
X128020163Y-64596584D01*
X128107822Y-64465392D01*
X128219392Y-64353822D01*
X128350584Y-64266163D01*
X128360634Y-64262000D01*
X128496358Y-64205781D01*
X128651107Y-64175000D01*
X128808893Y-64175000D01*
X128963642Y-64205781D01*
X128963642Y-64205781D01*
G37*
G36*
X140393642Y-64205781D02*
G01*
X140529366Y-64262000D01*
X140539416Y-64266163D01*
X140670608Y-64353822D01*
X140782178Y-64465392D01*
X140869837Y-64596584D01*
X140869838Y-64596586D01*
X140930219Y-64742358D01*
X140961000Y-64897107D01*
X140961000Y-65054893D01*
X140930219Y-65209642D01*
X140877613Y-65336643D01*
X140869837Y-65355416D01*
X140782178Y-65486608D01*
X140670608Y-65598178D01*
X140539416Y-65685837D01*
X140539415Y-65685838D01*
X140539414Y-65685838D01*
X140393642Y-65746219D01*
X140238893Y-65777000D01*
X140081107Y-65777000D01*
X139926358Y-65746219D01*
X139780586Y-65685838D01*
X139780585Y-65685838D01*
X139780584Y-65685837D01*
X139649392Y-65598178D01*
X139537822Y-65486608D01*
X139450163Y-65355416D01*
X139442387Y-65336643D01*
X139389781Y-65209642D01*
X139359000Y-65054893D01*
X139359000Y-64897107D01*
X139389781Y-64742358D01*
X139450162Y-64596586D01*
X139450163Y-64596584D01*
X139537822Y-64465392D01*
X139649392Y-64353822D01*
X139780584Y-64266163D01*
X139790634Y-64262000D01*
X139926358Y-64205781D01*
X140081107Y-64175000D01*
X140238893Y-64175000D01*
X140393642Y-64205781D01*
X140393642Y-64205781D01*
G37*
G36*
X155731000Y-65766000D02*
G01*
X154229000Y-65766000D01*
X154229000Y-65064000D01*
X155731000Y-65064000D01*
X155731000Y-65766000D01*
X155731000Y-65766000D01*
G37*
G36*
X160731000Y-65766000D02*
G01*
X159229000Y-65766000D01*
X159229000Y-65064000D01*
X160731000Y-65064000D01*
X160731000Y-65766000D01*
X160731000Y-65766000D01*
G37*
G36*
X117406642Y-64078781D02*
G01*
X117552414Y-64139162D01*
X117552416Y-64139163D01*
X117683608Y-64226822D01*
X117795178Y-64338392D01*
X117882837Y-64469584D01*
X117882838Y-64469586D01*
X117943219Y-64615358D01*
X117974000Y-64770107D01*
X117974000Y-64927893D01*
X117943219Y-65082642D01*
X117890613Y-65209643D01*
X117882837Y-65228416D01*
X117795178Y-65359608D01*
X117683608Y-65471178D01*
X117552416Y-65558837D01*
X117552415Y-65558838D01*
X117552414Y-65558838D01*
X117406642Y-65619219D01*
X117251893Y-65650000D01*
X117094107Y-65650000D01*
X116939358Y-65619219D01*
X116793586Y-65558838D01*
X116793585Y-65558838D01*
X116793584Y-65558837D01*
X116662392Y-65471178D01*
X116550822Y-65359608D01*
X116463163Y-65228416D01*
X116455387Y-65209643D01*
X116402781Y-65082642D01*
X116372000Y-64927893D01*
X116372000Y-64770107D01*
X116402781Y-64615358D01*
X116463162Y-64469586D01*
X116463163Y-64469584D01*
X116550822Y-64338392D01*
X116662392Y-64226822D01*
X116793584Y-64139163D01*
X116793586Y-64139162D01*
X116939358Y-64078781D01*
X117094107Y-64048000D01*
X117251893Y-64048000D01*
X117406642Y-64078781D01*
X117406642Y-64078781D01*
G37*
G36*
X105976642Y-64078781D02*
G01*
X106122414Y-64139162D01*
X106122416Y-64139163D01*
X106253608Y-64226822D01*
X106365178Y-64338392D01*
X106452837Y-64469584D01*
X106452838Y-64469586D01*
X106513219Y-64615358D01*
X106544000Y-64770107D01*
X106544000Y-64927893D01*
X106513219Y-65082642D01*
X106460613Y-65209643D01*
X106452837Y-65228416D01*
X106365178Y-65359608D01*
X106253608Y-65471178D01*
X106122416Y-65558837D01*
X106122415Y-65558838D01*
X106122414Y-65558838D01*
X105976642Y-65619219D01*
X105821893Y-65650000D01*
X105664107Y-65650000D01*
X105509358Y-65619219D01*
X105363586Y-65558838D01*
X105363585Y-65558838D01*
X105363584Y-65558837D01*
X105232392Y-65471178D01*
X105120822Y-65359608D01*
X105033163Y-65228416D01*
X105025387Y-65209643D01*
X104972781Y-65082642D01*
X104942000Y-64927893D01*
X104942000Y-64770107D01*
X104972781Y-64615358D01*
X105033162Y-64469586D01*
X105033163Y-64469584D01*
X105120822Y-64338392D01*
X105232392Y-64226822D01*
X105363584Y-64139163D01*
X105363586Y-64139162D01*
X105509358Y-64078781D01*
X105664107Y-64048000D01*
X105821893Y-64048000D01*
X105976642Y-64078781D01*
X105976642Y-64078781D01*
G37*
G36*
X137871000Y-65639000D02*
G01*
X136369000Y-65639000D01*
X136369000Y-64937000D01*
X137871000Y-64937000D01*
X137871000Y-65639000D01*
X137871000Y-65639000D01*
G37*
G36*
X132871000Y-65639000D02*
G01*
X131369000Y-65639000D01*
X131369000Y-64937000D01*
X132871000Y-64937000D01*
X132871000Y-65639000D01*
X132871000Y-65639000D01*
G37*
G36*
X114884000Y-65512000D02*
G01*
X113382000Y-65512000D01*
X113382000Y-64810000D01*
X114884000Y-64810000D01*
X114884000Y-65512000D01*
X114884000Y-65512000D01*
G37*
G36*
X109884000Y-65512000D02*
G01*
X108382000Y-65512000D01*
X108382000Y-64810000D01*
X109884000Y-64810000D01*
X109884000Y-65512000D01*
X109884000Y-65512000D01*
G37*
G36*
X178591000Y-64643000D02*
G01*
X177089000Y-64643000D01*
X177089000Y-63941000D01*
X178591000Y-63941000D01*
X178591000Y-64643000D01*
X178591000Y-64643000D01*
G37*
G36*
X183591000Y-64643000D02*
G01*
X182089000Y-64643000D01*
X182089000Y-63941000D01*
X183591000Y-63941000D01*
X183591000Y-64643000D01*
X183591000Y-64643000D01*
G37*
G36*
X160731000Y-64516000D02*
G01*
X159229000Y-64516000D01*
X159229000Y-63814000D01*
X160731000Y-63814000D01*
X160731000Y-64516000D01*
X160731000Y-64516000D01*
G37*
G36*
X155731000Y-64516000D02*
G01*
X154229000Y-64516000D01*
X154229000Y-63814000D01*
X155731000Y-63814000D01*
X155731000Y-64516000D01*
X155731000Y-64516000D01*
G37*
G36*
X137871000Y-64389000D02*
G01*
X136369000Y-64389000D01*
X136369000Y-63687000D01*
X137871000Y-63687000D01*
X137871000Y-64389000D01*
X137871000Y-64389000D01*
G37*
G36*
X132871000Y-64389000D02*
G01*
X131369000Y-64389000D01*
X131369000Y-63687000D01*
X132871000Y-63687000D01*
X132871000Y-64389000D01*
X132871000Y-64389000D01*
G37*
G36*
X114884000Y-64262000D02*
G01*
X113382000Y-64262000D01*
X113382000Y-63560000D01*
X114884000Y-63560000D01*
X114884000Y-64262000D01*
X114884000Y-64262000D01*
G37*
G36*
X109884000Y-64262000D02*
G01*
X108382000Y-64262000D01*
X108382000Y-63560000D01*
X109884000Y-63560000D01*
X109884000Y-64262000D01*
X109884000Y-64262000D01*
G37*
G36*
X186113642Y-61919781D02*
G01*
X186259414Y-61980162D01*
X186259416Y-61980163D01*
X186390608Y-62067822D01*
X186502178Y-62179392D01*
X186517523Y-62202358D01*
X186589838Y-62310586D01*
X186650219Y-62456358D01*
X186681000Y-62611107D01*
X186681000Y-62768893D01*
X186650219Y-62923642D01*
X186610787Y-63018838D01*
X186589837Y-63069416D01*
X186502178Y-63200608D01*
X186390608Y-63312178D01*
X186259416Y-63399837D01*
X186259415Y-63399838D01*
X186259414Y-63399838D01*
X186113642Y-63460219D01*
X185958893Y-63491000D01*
X185801107Y-63491000D01*
X185646358Y-63460219D01*
X185500586Y-63399838D01*
X185500585Y-63399838D01*
X185500584Y-63399837D01*
X185369392Y-63312178D01*
X185257822Y-63200608D01*
X185170163Y-63069416D01*
X185149213Y-63018838D01*
X185109781Y-62923642D01*
X185079000Y-62768893D01*
X185079000Y-62611107D01*
X185109781Y-62456358D01*
X185170162Y-62310586D01*
X185242477Y-62202358D01*
X185257822Y-62179392D01*
X185369392Y-62067822D01*
X185500584Y-61980163D01*
X185500586Y-61980162D01*
X185646358Y-61919781D01*
X185801107Y-61889000D01*
X185958893Y-61889000D01*
X186113642Y-61919781D01*
X186113642Y-61919781D01*
G37*
G36*
X174683642Y-61919781D02*
G01*
X174829414Y-61980162D01*
X174829416Y-61980163D01*
X174960608Y-62067822D01*
X175072178Y-62179392D01*
X175087523Y-62202358D01*
X175159838Y-62310586D01*
X175220219Y-62456358D01*
X175251000Y-62611107D01*
X175251000Y-62768893D01*
X175220219Y-62923642D01*
X175180787Y-63018838D01*
X175159837Y-63069416D01*
X175072178Y-63200608D01*
X174960608Y-63312178D01*
X174829416Y-63399837D01*
X174829415Y-63399838D01*
X174829414Y-63399838D01*
X174683642Y-63460219D01*
X174528893Y-63491000D01*
X174371107Y-63491000D01*
X174216358Y-63460219D01*
X174070586Y-63399838D01*
X174070585Y-63399838D01*
X174070584Y-63399837D01*
X173939392Y-63312178D01*
X173827822Y-63200608D01*
X173740163Y-63069416D01*
X173719213Y-63018838D01*
X173679781Y-62923642D01*
X173649000Y-62768893D01*
X173649000Y-62611107D01*
X173679781Y-62456358D01*
X173740162Y-62310586D01*
X173812477Y-62202358D01*
X173827822Y-62179392D01*
X173939392Y-62067822D01*
X174070584Y-61980163D01*
X174070586Y-61980162D01*
X174216358Y-61919781D01*
X174371107Y-61889000D01*
X174528893Y-61889000D01*
X174683642Y-61919781D01*
X174683642Y-61919781D01*
G37*
G36*
X151823642Y-61792781D02*
G01*
X151969414Y-61853162D01*
X151969416Y-61853163D01*
X152100608Y-61940822D01*
X152212178Y-62052392D01*
X152299837Y-62183584D01*
X152299838Y-62183586D01*
X152360219Y-62329358D01*
X152391000Y-62484107D01*
X152391000Y-62641893D01*
X152360219Y-62796642D01*
X152307613Y-62923643D01*
X152299837Y-62942416D01*
X152212178Y-63073608D01*
X152100608Y-63185178D01*
X151969416Y-63272837D01*
X151969415Y-63272838D01*
X151969414Y-63272838D01*
X151823642Y-63333219D01*
X151668893Y-63364000D01*
X151511107Y-63364000D01*
X151356358Y-63333219D01*
X151210586Y-63272838D01*
X151210585Y-63272838D01*
X151210584Y-63272837D01*
X151079392Y-63185178D01*
X150967822Y-63073608D01*
X150880163Y-62942416D01*
X150872387Y-62923643D01*
X150819781Y-62796642D01*
X150789000Y-62641893D01*
X150789000Y-62484107D01*
X150819781Y-62329358D01*
X150880162Y-62183586D01*
X150880163Y-62183584D01*
X150967822Y-62052392D01*
X151079392Y-61940822D01*
X151210584Y-61853163D01*
X151210586Y-61853162D01*
X151356358Y-61792781D01*
X151511107Y-61762000D01*
X151668893Y-61762000D01*
X151823642Y-61792781D01*
X151823642Y-61792781D01*
G37*
G36*
X163253642Y-61792781D02*
G01*
X163399414Y-61853162D01*
X163399416Y-61853163D01*
X163530608Y-61940822D01*
X163642178Y-62052392D01*
X163729837Y-62183584D01*
X163729838Y-62183586D01*
X163790219Y-62329358D01*
X163821000Y-62484107D01*
X163821000Y-62641893D01*
X163790219Y-62796642D01*
X163737613Y-62923643D01*
X163729837Y-62942416D01*
X163642178Y-63073608D01*
X163530608Y-63185178D01*
X163399416Y-63272837D01*
X163399415Y-63272838D01*
X163399414Y-63272838D01*
X163253642Y-63333219D01*
X163098893Y-63364000D01*
X162941107Y-63364000D01*
X162786358Y-63333219D01*
X162640586Y-63272838D01*
X162640585Y-63272838D01*
X162640584Y-63272837D01*
X162509392Y-63185178D01*
X162397822Y-63073608D01*
X162310163Y-62942416D01*
X162302387Y-62923643D01*
X162249781Y-62796642D01*
X162219000Y-62641893D01*
X162219000Y-62484107D01*
X162249781Y-62329358D01*
X162310162Y-62183586D01*
X162310163Y-62183584D01*
X162397822Y-62052392D01*
X162509392Y-61940822D01*
X162640584Y-61853163D01*
X162640586Y-61853162D01*
X162786358Y-61792781D01*
X162941107Y-61762000D01*
X163098893Y-61762000D01*
X163253642Y-61792781D01*
X163253642Y-61792781D01*
G37*
G36*
X128963642Y-61665781D02*
G01*
X129109414Y-61726162D01*
X129109416Y-61726163D01*
X129240608Y-61813822D01*
X129352178Y-61925392D01*
X129439837Y-62056584D01*
X129439838Y-62056586D01*
X129500219Y-62202358D01*
X129531000Y-62357107D01*
X129531000Y-62514893D01*
X129500219Y-62669642D01*
X129447613Y-62796643D01*
X129439837Y-62815416D01*
X129352178Y-62946608D01*
X129240608Y-63058178D01*
X129109416Y-63145837D01*
X129109415Y-63145838D01*
X129109414Y-63145838D01*
X128963642Y-63206219D01*
X128808893Y-63237000D01*
X128651107Y-63237000D01*
X128496358Y-63206219D01*
X128350586Y-63145838D01*
X128350585Y-63145838D01*
X128350584Y-63145837D01*
X128219392Y-63058178D01*
X128107822Y-62946608D01*
X128020163Y-62815416D01*
X128012387Y-62796643D01*
X127959781Y-62669642D01*
X127929000Y-62514893D01*
X127929000Y-62357107D01*
X127959781Y-62202358D01*
X128020162Y-62056586D01*
X128020163Y-62056584D01*
X128107822Y-61925392D01*
X128219392Y-61813822D01*
X128350584Y-61726163D01*
X128350586Y-61726162D01*
X128496358Y-61665781D01*
X128651107Y-61635000D01*
X128808893Y-61635000D01*
X128963642Y-61665781D01*
X128963642Y-61665781D01*
G37*
G36*
X140393642Y-61665781D02*
G01*
X140539414Y-61726162D01*
X140539416Y-61726163D01*
X140670608Y-61813822D01*
X140782178Y-61925392D01*
X140869837Y-62056584D01*
X140869838Y-62056586D01*
X140930219Y-62202358D01*
X140961000Y-62357107D01*
X140961000Y-62514893D01*
X140930219Y-62669642D01*
X140877613Y-62796643D01*
X140869837Y-62815416D01*
X140782178Y-62946608D01*
X140670608Y-63058178D01*
X140539416Y-63145837D01*
X140539415Y-63145838D01*
X140539414Y-63145838D01*
X140393642Y-63206219D01*
X140238893Y-63237000D01*
X140081107Y-63237000D01*
X139926358Y-63206219D01*
X139780586Y-63145838D01*
X139780585Y-63145838D01*
X139780584Y-63145837D01*
X139649392Y-63058178D01*
X139537822Y-62946608D01*
X139450163Y-62815416D01*
X139442387Y-62796643D01*
X139389781Y-62669642D01*
X139359000Y-62514893D01*
X139359000Y-62357107D01*
X139389781Y-62202358D01*
X139450162Y-62056586D01*
X139450163Y-62056584D01*
X139537822Y-61925392D01*
X139649392Y-61813822D01*
X139780584Y-61726163D01*
X139780586Y-61726162D01*
X139926358Y-61665781D01*
X140081107Y-61635000D01*
X140238893Y-61635000D01*
X140393642Y-61665781D01*
X140393642Y-61665781D01*
G37*
G36*
X117406642Y-61538781D02*
G01*
X117552414Y-61599162D01*
X117552416Y-61599163D01*
X117683608Y-61686822D01*
X117795178Y-61798392D01*
X117882837Y-61929584D01*
X117882838Y-61929586D01*
X117943219Y-62075358D01*
X117974000Y-62230107D01*
X117974000Y-62387893D01*
X117943219Y-62542642D01*
X117890613Y-62669643D01*
X117882837Y-62688416D01*
X117795178Y-62819608D01*
X117683608Y-62931178D01*
X117552416Y-63018837D01*
X117552415Y-63018838D01*
X117552414Y-63018838D01*
X117406642Y-63079219D01*
X117251893Y-63110000D01*
X117094107Y-63110000D01*
X116939358Y-63079219D01*
X116793586Y-63018838D01*
X116793585Y-63018838D01*
X116793584Y-63018837D01*
X116662392Y-62931178D01*
X116550822Y-62819608D01*
X116463163Y-62688416D01*
X116455387Y-62669643D01*
X116402781Y-62542642D01*
X116372000Y-62387893D01*
X116372000Y-62230107D01*
X116402781Y-62075358D01*
X116463162Y-61929586D01*
X116463163Y-61929584D01*
X116550822Y-61798392D01*
X116662392Y-61686822D01*
X116793584Y-61599163D01*
X116793586Y-61599162D01*
X116939358Y-61538781D01*
X117094107Y-61508000D01*
X117251893Y-61508000D01*
X117406642Y-61538781D01*
X117406642Y-61538781D01*
G37*
G36*
X105976642Y-61538781D02*
G01*
X106122414Y-61599162D01*
X106122416Y-61599163D01*
X106253608Y-61686822D01*
X106365178Y-61798392D01*
X106452837Y-61929584D01*
X106452838Y-61929586D01*
X106513219Y-62075358D01*
X106544000Y-62230107D01*
X106544000Y-62387893D01*
X106513219Y-62542642D01*
X106460613Y-62669643D01*
X106452837Y-62688416D01*
X106365178Y-62819608D01*
X106253608Y-62931178D01*
X106122416Y-63018837D01*
X106122415Y-63018838D01*
X106122414Y-63018838D01*
X105976642Y-63079219D01*
X105821893Y-63110000D01*
X105664107Y-63110000D01*
X105509358Y-63079219D01*
X105363586Y-63018838D01*
X105363585Y-63018838D01*
X105363584Y-63018837D01*
X105232392Y-62931178D01*
X105120822Y-62819608D01*
X105033163Y-62688416D01*
X105025387Y-62669643D01*
X104972781Y-62542642D01*
X104942000Y-62387893D01*
X104942000Y-62230107D01*
X104972781Y-62075358D01*
X105033162Y-61929586D01*
X105033163Y-61929584D01*
X105120822Y-61798392D01*
X105232392Y-61686822D01*
X105363584Y-61599163D01*
X105363586Y-61599162D01*
X105509358Y-61538781D01*
X105664107Y-61508000D01*
X105821893Y-61508000D01*
X105976642Y-61538781D01*
X105976642Y-61538781D01*
G37*
G36*
X176842642Y-56300781D02*
G01*
X176988414Y-56361162D01*
X176988416Y-56361163D01*
X177119608Y-56448822D01*
X177231178Y-56560392D01*
X177246523Y-56583358D01*
X177318838Y-56691586D01*
X177379219Y-56837358D01*
X177410000Y-56992107D01*
X177410000Y-57149893D01*
X177379219Y-57304642D01*
X177339787Y-57399838D01*
X177318837Y-57450416D01*
X177231178Y-57581608D01*
X177119608Y-57693178D01*
X176988416Y-57780837D01*
X176988415Y-57780838D01*
X176988414Y-57780838D01*
X176842642Y-57841219D01*
X176687893Y-57872000D01*
X176530107Y-57872000D01*
X176375358Y-57841219D01*
X176229586Y-57780838D01*
X176229585Y-57780838D01*
X176229584Y-57780837D01*
X176098392Y-57693178D01*
X175986822Y-57581608D01*
X175899163Y-57450416D01*
X175878213Y-57399838D01*
X175838781Y-57304642D01*
X175808000Y-57149893D01*
X175808000Y-56992107D01*
X175838781Y-56837358D01*
X175899162Y-56691586D01*
X175971477Y-56583358D01*
X175986822Y-56560392D01*
X176098392Y-56448822D01*
X176229584Y-56361163D01*
X176229586Y-56361162D01*
X176375358Y-56300781D01*
X176530107Y-56270000D01*
X176687893Y-56270000D01*
X176842642Y-56300781D01*
X176842642Y-56300781D01*
G37*
G36*
X179382642Y-56300781D02*
G01*
X179528414Y-56361162D01*
X179528416Y-56361163D01*
X179659608Y-56448822D01*
X179771178Y-56560392D01*
X179786523Y-56583358D01*
X179858838Y-56691586D01*
X179919219Y-56837358D01*
X179950000Y-56992107D01*
X179950000Y-57149893D01*
X179919219Y-57304642D01*
X179879787Y-57399838D01*
X179858837Y-57450416D01*
X179771178Y-57581608D01*
X179659608Y-57693178D01*
X179528416Y-57780837D01*
X179528415Y-57780838D01*
X179528414Y-57780838D01*
X179382642Y-57841219D01*
X179227893Y-57872000D01*
X179070107Y-57872000D01*
X178915358Y-57841219D01*
X178769586Y-57780838D01*
X178769585Y-57780838D01*
X178769584Y-57780837D01*
X178638392Y-57693178D01*
X178526822Y-57581608D01*
X178439163Y-57450416D01*
X178418213Y-57399838D01*
X178378781Y-57304642D01*
X178348000Y-57149893D01*
X178348000Y-56992107D01*
X178378781Y-56837358D01*
X178439162Y-56691586D01*
X178511477Y-56583358D01*
X178526822Y-56560392D01*
X178638392Y-56448822D01*
X178769584Y-56361163D01*
X178769586Y-56361162D01*
X178915358Y-56300781D01*
X179070107Y-56270000D01*
X179227893Y-56270000D01*
X179382642Y-56300781D01*
X179382642Y-56300781D01*
G37*
G36*
X181922642Y-56300781D02*
G01*
X182068414Y-56361162D01*
X182068416Y-56361163D01*
X182199608Y-56448822D01*
X182311178Y-56560392D01*
X182326523Y-56583358D01*
X182398838Y-56691586D01*
X182459219Y-56837358D01*
X182490000Y-56992107D01*
X182490000Y-57149893D01*
X182459219Y-57304642D01*
X182419787Y-57399838D01*
X182398837Y-57450416D01*
X182311178Y-57581608D01*
X182199608Y-57693178D01*
X182068416Y-57780837D01*
X182068415Y-57780838D01*
X182068414Y-57780838D01*
X181922642Y-57841219D01*
X181767893Y-57872000D01*
X181610107Y-57872000D01*
X181455358Y-57841219D01*
X181309586Y-57780838D01*
X181309585Y-57780838D01*
X181309584Y-57780837D01*
X181178392Y-57693178D01*
X181066822Y-57581608D01*
X180979163Y-57450416D01*
X180958213Y-57399838D01*
X180918781Y-57304642D01*
X180888000Y-57149893D01*
X180888000Y-56992107D01*
X180918781Y-56837358D01*
X180979162Y-56691586D01*
X181051477Y-56583358D01*
X181066822Y-56560392D01*
X181178392Y-56448822D01*
X181309584Y-56361163D01*
X181309586Y-56361162D01*
X181455358Y-56300781D01*
X181610107Y-56270000D01*
X181767893Y-56270000D01*
X181922642Y-56300781D01*
X181922642Y-56300781D01*
G37*
G36*
X184462642Y-56300781D02*
G01*
X184608414Y-56361162D01*
X184608416Y-56361163D01*
X184739608Y-56448822D01*
X184851178Y-56560392D01*
X184866523Y-56583358D01*
X184938838Y-56691586D01*
X184999219Y-56837358D01*
X185030000Y-56992107D01*
X185030000Y-57149893D01*
X184999219Y-57304642D01*
X184959787Y-57399838D01*
X184938837Y-57450416D01*
X184851178Y-57581608D01*
X184739608Y-57693178D01*
X184608416Y-57780837D01*
X184608415Y-57780838D01*
X184608414Y-57780838D01*
X184462642Y-57841219D01*
X184307893Y-57872000D01*
X184150107Y-57872000D01*
X183995358Y-57841219D01*
X183849586Y-57780838D01*
X183849585Y-57780838D01*
X183849584Y-57780837D01*
X183718392Y-57693178D01*
X183606822Y-57581608D01*
X183519163Y-57450416D01*
X183498213Y-57399838D01*
X183458781Y-57304642D01*
X183428000Y-57149893D01*
X183428000Y-56992107D01*
X183458781Y-56837358D01*
X183519162Y-56691586D01*
X183591477Y-56583358D01*
X183606822Y-56560392D01*
X183718392Y-56448822D01*
X183849584Y-56361163D01*
X183849586Y-56361162D01*
X183995358Y-56300781D01*
X184150107Y-56270000D01*
X184307893Y-56270000D01*
X184462642Y-56300781D01*
X184462642Y-56300781D01*
G37*
G36*
X153982642Y-56173781D02*
G01*
X154128414Y-56234162D01*
X154128416Y-56234163D01*
X154259608Y-56321822D01*
X154371178Y-56433392D01*
X154458837Y-56564584D01*
X154458838Y-56564586D01*
X154519219Y-56710358D01*
X154550000Y-56865107D01*
X154550000Y-57022893D01*
X154519219Y-57177642D01*
X154466613Y-57304643D01*
X154458837Y-57323416D01*
X154371178Y-57454608D01*
X154259608Y-57566178D01*
X154128416Y-57653837D01*
X154128415Y-57653838D01*
X154128414Y-57653838D01*
X153982642Y-57714219D01*
X153827893Y-57745000D01*
X153670107Y-57745000D01*
X153515358Y-57714219D01*
X153369586Y-57653838D01*
X153369585Y-57653838D01*
X153369584Y-57653837D01*
X153238392Y-57566178D01*
X153126822Y-57454608D01*
X153039163Y-57323416D01*
X153031387Y-57304643D01*
X152978781Y-57177642D01*
X152948000Y-57022893D01*
X152948000Y-56865107D01*
X152978781Y-56710358D01*
X153039162Y-56564586D01*
X153039163Y-56564584D01*
X153126822Y-56433392D01*
X153238392Y-56321822D01*
X153369584Y-56234163D01*
X153369586Y-56234162D01*
X153515358Y-56173781D01*
X153670107Y-56143000D01*
X153827893Y-56143000D01*
X153982642Y-56173781D01*
X153982642Y-56173781D01*
G37*
G36*
X159062642Y-56173781D02*
G01*
X159208414Y-56234162D01*
X159208416Y-56234163D01*
X159339608Y-56321822D01*
X159451178Y-56433392D01*
X159538837Y-56564584D01*
X159538838Y-56564586D01*
X159599219Y-56710358D01*
X159630000Y-56865107D01*
X159630000Y-57022893D01*
X159599219Y-57177642D01*
X159546613Y-57304643D01*
X159538837Y-57323416D01*
X159451178Y-57454608D01*
X159339608Y-57566178D01*
X159208416Y-57653837D01*
X159208415Y-57653838D01*
X159208414Y-57653838D01*
X159062642Y-57714219D01*
X158907893Y-57745000D01*
X158750107Y-57745000D01*
X158595358Y-57714219D01*
X158449586Y-57653838D01*
X158449585Y-57653838D01*
X158449584Y-57653837D01*
X158318392Y-57566178D01*
X158206822Y-57454608D01*
X158119163Y-57323416D01*
X158111387Y-57304643D01*
X158058781Y-57177642D01*
X158028000Y-57022893D01*
X158028000Y-56865107D01*
X158058781Y-56710358D01*
X158119162Y-56564586D01*
X158119163Y-56564584D01*
X158206822Y-56433392D01*
X158318392Y-56321822D01*
X158449584Y-56234163D01*
X158449586Y-56234162D01*
X158595358Y-56173781D01*
X158750107Y-56143000D01*
X158907893Y-56143000D01*
X159062642Y-56173781D01*
X159062642Y-56173781D01*
G37*
G36*
X156522642Y-56173781D02*
G01*
X156668414Y-56234162D01*
X156668416Y-56234163D01*
X156799608Y-56321822D01*
X156911178Y-56433392D01*
X156998837Y-56564584D01*
X156998838Y-56564586D01*
X157059219Y-56710358D01*
X157090000Y-56865107D01*
X157090000Y-57022893D01*
X157059219Y-57177642D01*
X157006613Y-57304643D01*
X156998837Y-57323416D01*
X156911178Y-57454608D01*
X156799608Y-57566178D01*
X156668416Y-57653837D01*
X156668415Y-57653838D01*
X156668414Y-57653838D01*
X156522642Y-57714219D01*
X156367893Y-57745000D01*
X156210107Y-57745000D01*
X156055358Y-57714219D01*
X155909586Y-57653838D01*
X155909585Y-57653838D01*
X155909584Y-57653837D01*
X155778392Y-57566178D01*
X155666822Y-57454608D01*
X155579163Y-57323416D01*
X155571387Y-57304643D01*
X155518781Y-57177642D01*
X155488000Y-57022893D01*
X155488000Y-56865107D01*
X155518781Y-56710358D01*
X155579162Y-56564586D01*
X155579163Y-56564584D01*
X155666822Y-56433392D01*
X155778392Y-56321822D01*
X155909584Y-56234163D01*
X155909586Y-56234162D01*
X156055358Y-56173781D01*
X156210107Y-56143000D01*
X156367893Y-56143000D01*
X156522642Y-56173781D01*
X156522642Y-56173781D01*
G37*
G36*
X161602642Y-56173781D02*
G01*
X161748414Y-56234162D01*
X161748416Y-56234163D01*
X161879608Y-56321822D01*
X161991178Y-56433392D01*
X162078837Y-56564584D01*
X162078838Y-56564586D01*
X162139219Y-56710358D01*
X162170000Y-56865107D01*
X162170000Y-57022893D01*
X162139219Y-57177642D01*
X162086613Y-57304643D01*
X162078837Y-57323416D01*
X161991178Y-57454608D01*
X161879608Y-57566178D01*
X161748416Y-57653837D01*
X161748415Y-57653838D01*
X161748414Y-57653838D01*
X161602642Y-57714219D01*
X161447893Y-57745000D01*
X161290107Y-57745000D01*
X161135358Y-57714219D01*
X160989586Y-57653838D01*
X160989585Y-57653838D01*
X160989584Y-57653837D01*
X160858392Y-57566178D01*
X160746822Y-57454608D01*
X160659163Y-57323416D01*
X160651387Y-57304643D01*
X160598781Y-57177642D01*
X160568000Y-57022893D01*
X160568000Y-56865107D01*
X160598781Y-56710358D01*
X160659162Y-56564586D01*
X160659163Y-56564584D01*
X160746822Y-56433392D01*
X160858392Y-56321822D01*
X160989584Y-56234163D01*
X160989586Y-56234162D01*
X161135358Y-56173781D01*
X161290107Y-56143000D01*
X161447893Y-56143000D01*
X161602642Y-56173781D01*
X161602642Y-56173781D01*
G37*
G36*
X138742642Y-56046781D02*
G01*
X138888414Y-56107162D01*
X138888416Y-56107163D01*
X139019608Y-56194822D01*
X139131178Y-56306392D01*
X139218837Y-56437584D01*
X139218838Y-56437586D01*
X139279219Y-56583358D01*
X139310000Y-56738107D01*
X139310000Y-56895893D01*
X139279219Y-57050642D01*
X139226613Y-57177643D01*
X139218837Y-57196416D01*
X139131178Y-57327608D01*
X139019608Y-57439178D01*
X138888416Y-57526837D01*
X138888415Y-57526838D01*
X138888414Y-57526838D01*
X138742642Y-57587219D01*
X138587893Y-57618000D01*
X138430107Y-57618000D01*
X138275358Y-57587219D01*
X138129586Y-57526838D01*
X138129585Y-57526838D01*
X138129584Y-57526837D01*
X137998392Y-57439178D01*
X137886822Y-57327608D01*
X137799163Y-57196416D01*
X137791387Y-57177643D01*
X137738781Y-57050642D01*
X137708000Y-56895893D01*
X137708000Y-56738107D01*
X137738781Y-56583358D01*
X137799162Y-56437586D01*
X137799163Y-56437584D01*
X137886822Y-56306392D01*
X137998392Y-56194822D01*
X138129584Y-56107163D01*
X138129586Y-56107162D01*
X138275358Y-56046781D01*
X138430107Y-56016000D01*
X138587893Y-56016000D01*
X138742642Y-56046781D01*
X138742642Y-56046781D01*
G37*
G36*
X133662642Y-56046781D02*
G01*
X133808414Y-56107162D01*
X133808416Y-56107163D01*
X133939608Y-56194822D01*
X134051178Y-56306392D01*
X134138837Y-56437584D01*
X134138838Y-56437586D01*
X134199219Y-56583358D01*
X134230000Y-56738107D01*
X134230000Y-56895893D01*
X134199219Y-57050642D01*
X134146613Y-57177643D01*
X134138837Y-57196416D01*
X134051178Y-57327608D01*
X133939608Y-57439178D01*
X133808416Y-57526837D01*
X133808415Y-57526838D01*
X133808414Y-57526838D01*
X133662642Y-57587219D01*
X133507893Y-57618000D01*
X133350107Y-57618000D01*
X133195358Y-57587219D01*
X133049586Y-57526838D01*
X133049585Y-57526838D01*
X133049584Y-57526837D01*
X132918392Y-57439178D01*
X132806822Y-57327608D01*
X132719163Y-57196416D01*
X132711387Y-57177643D01*
X132658781Y-57050642D01*
X132628000Y-56895893D01*
X132628000Y-56738107D01*
X132658781Y-56583358D01*
X132719162Y-56437586D01*
X132719163Y-56437584D01*
X132806822Y-56306392D01*
X132918392Y-56194822D01*
X133049584Y-56107163D01*
X133049586Y-56107162D01*
X133195358Y-56046781D01*
X133350107Y-56016000D01*
X133507893Y-56016000D01*
X133662642Y-56046781D01*
X133662642Y-56046781D01*
G37*
G36*
X136202642Y-56046781D02*
G01*
X136348414Y-56107162D01*
X136348416Y-56107163D01*
X136479608Y-56194822D01*
X136591178Y-56306392D01*
X136678837Y-56437584D01*
X136678838Y-56437586D01*
X136739219Y-56583358D01*
X136770000Y-56738107D01*
X136770000Y-56895893D01*
X136739219Y-57050642D01*
X136686613Y-57177643D01*
X136678837Y-57196416D01*
X136591178Y-57327608D01*
X136479608Y-57439178D01*
X136348416Y-57526837D01*
X136348415Y-57526838D01*
X136348414Y-57526838D01*
X136202642Y-57587219D01*
X136047893Y-57618000D01*
X135890107Y-57618000D01*
X135735358Y-57587219D01*
X135589586Y-57526838D01*
X135589585Y-57526838D01*
X135589584Y-57526837D01*
X135458392Y-57439178D01*
X135346822Y-57327608D01*
X135259163Y-57196416D01*
X135251387Y-57177643D01*
X135198781Y-57050642D01*
X135168000Y-56895893D01*
X135168000Y-56738107D01*
X135198781Y-56583358D01*
X135259162Y-56437586D01*
X135259163Y-56437584D01*
X135346822Y-56306392D01*
X135458392Y-56194822D01*
X135589584Y-56107163D01*
X135589586Y-56107162D01*
X135735358Y-56046781D01*
X135890107Y-56016000D01*
X136047893Y-56016000D01*
X136202642Y-56046781D01*
X136202642Y-56046781D01*
G37*
G36*
X131122642Y-56046781D02*
G01*
X131268414Y-56107162D01*
X131268416Y-56107163D01*
X131399608Y-56194822D01*
X131511178Y-56306392D01*
X131598837Y-56437584D01*
X131598838Y-56437586D01*
X131659219Y-56583358D01*
X131690000Y-56738107D01*
X131690000Y-56895893D01*
X131659219Y-57050642D01*
X131606613Y-57177643D01*
X131598837Y-57196416D01*
X131511178Y-57327608D01*
X131399608Y-57439178D01*
X131268416Y-57526837D01*
X131268415Y-57526838D01*
X131268414Y-57526838D01*
X131122642Y-57587219D01*
X130967893Y-57618000D01*
X130810107Y-57618000D01*
X130655358Y-57587219D01*
X130509586Y-57526838D01*
X130509585Y-57526838D01*
X130509584Y-57526837D01*
X130378392Y-57439178D01*
X130266822Y-57327608D01*
X130179163Y-57196416D01*
X130171387Y-57177643D01*
X130118781Y-57050642D01*
X130088000Y-56895893D01*
X130088000Y-56738107D01*
X130118781Y-56583358D01*
X130179162Y-56437586D01*
X130179163Y-56437584D01*
X130266822Y-56306392D01*
X130378392Y-56194822D01*
X130509584Y-56107163D01*
X130509586Y-56107162D01*
X130655358Y-56046781D01*
X130810107Y-56016000D01*
X130967893Y-56016000D01*
X131122642Y-56046781D01*
X131122642Y-56046781D01*
G37*
G36*
X115755642Y-55919781D02*
G01*
X115901414Y-55980162D01*
X115901416Y-55980163D01*
X116032608Y-56067822D01*
X116144178Y-56179392D01*
X116231837Y-56310584D01*
X116231838Y-56310586D01*
X116292219Y-56456358D01*
X116323000Y-56611107D01*
X116323000Y-56768893D01*
X116292219Y-56923642D01*
X116239613Y-57050643D01*
X116231837Y-57069416D01*
X116144178Y-57200608D01*
X116032608Y-57312178D01*
X115901416Y-57399837D01*
X115901415Y-57399838D01*
X115901414Y-57399838D01*
X115755642Y-57460219D01*
X115600893Y-57491000D01*
X115443107Y-57491000D01*
X115288358Y-57460219D01*
X115142586Y-57399838D01*
X115142585Y-57399838D01*
X115142584Y-57399837D01*
X115011392Y-57312178D01*
X114899822Y-57200608D01*
X114812163Y-57069416D01*
X114804387Y-57050643D01*
X114751781Y-56923642D01*
X114721000Y-56768893D01*
X114721000Y-56611107D01*
X114751781Y-56456358D01*
X114812162Y-56310586D01*
X114812163Y-56310584D01*
X114899822Y-56179392D01*
X115011392Y-56067822D01*
X115142584Y-55980163D01*
X115142586Y-55980162D01*
X115288358Y-55919781D01*
X115443107Y-55889000D01*
X115600893Y-55889000D01*
X115755642Y-55919781D01*
X115755642Y-55919781D01*
G37*
G36*
X113215642Y-55919781D02*
G01*
X113361414Y-55980162D01*
X113361416Y-55980163D01*
X113492608Y-56067822D01*
X113604178Y-56179392D01*
X113691837Y-56310584D01*
X113691838Y-56310586D01*
X113752219Y-56456358D01*
X113783000Y-56611107D01*
X113783000Y-56768893D01*
X113752219Y-56923642D01*
X113699613Y-57050643D01*
X113691837Y-57069416D01*
X113604178Y-57200608D01*
X113492608Y-57312178D01*
X113361416Y-57399837D01*
X113361415Y-57399838D01*
X113361414Y-57399838D01*
X113215642Y-57460219D01*
X113060893Y-57491000D01*
X112903107Y-57491000D01*
X112748358Y-57460219D01*
X112602586Y-57399838D01*
X112602585Y-57399838D01*
X112602584Y-57399837D01*
X112471392Y-57312178D01*
X112359822Y-57200608D01*
X112272163Y-57069416D01*
X112264387Y-57050643D01*
X112211781Y-56923642D01*
X112181000Y-56768893D01*
X112181000Y-56611107D01*
X112211781Y-56456358D01*
X112272162Y-56310586D01*
X112272163Y-56310584D01*
X112359822Y-56179392D01*
X112471392Y-56067822D01*
X112602584Y-55980163D01*
X112602586Y-55980162D01*
X112748358Y-55919781D01*
X112903107Y-55889000D01*
X113060893Y-55889000D01*
X113215642Y-55919781D01*
X113215642Y-55919781D01*
G37*
G36*
X110675642Y-55919781D02*
G01*
X110821414Y-55980162D01*
X110821416Y-55980163D01*
X110952608Y-56067822D01*
X111064178Y-56179392D01*
X111151837Y-56310584D01*
X111151838Y-56310586D01*
X111212219Y-56456358D01*
X111243000Y-56611107D01*
X111243000Y-56768893D01*
X111212219Y-56923642D01*
X111159613Y-57050643D01*
X111151837Y-57069416D01*
X111064178Y-57200608D01*
X110952608Y-57312178D01*
X110821416Y-57399837D01*
X110821415Y-57399838D01*
X110821414Y-57399838D01*
X110675642Y-57460219D01*
X110520893Y-57491000D01*
X110363107Y-57491000D01*
X110208358Y-57460219D01*
X110062586Y-57399838D01*
X110062585Y-57399838D01*
X110062584Y-57399837D01*
X109931392Y-57312178D01*
X109819822Y-57200608D01*
X109732163Y-57069416D01*
X109724387Y-57050643D01*
X109671781Y-56923642D01*
X109641000Y-56768893D01*
X109641000Y-56611107D01*
X109671781Y-56456358D01*
X109732162Y-56310586D01*
X109732163Y-56310584D01*
X109819822Y-56179392D01*
X109931392Y-56067822D01*
X110062584Y-55980163D01*
X110062586Y-55980162D01*
X110208358Y-55919781D01*
X110363107Y-55889000D01*
X110520893Y-55889000D01*
X110675642Y-55919781D01*
X110675642Y-55919781D01*
G37*
G36*
X108135642Y-55919781D02*
G01*
X108281414Y-55980162D01*
X108281416Y-55980163D01*
X108412608Y-56067822D01*
X108524178Y-56179392D01*
X108611837Y-56310584D01*
X108611838Y-56310586D01*
X108672219Y-56456358D01*
X108703000Y-56611107D01*
X108703000Y-56768893D01*
X108672219Y-56923642D01*
X108619613Y-57050643D01*
X108611837Y-57069416D01*
X108524178Y-57200608D01*
X108412608Y-57312178D01*
X108281416Y-57399837D01*
X108281415Y-57399838D01*
X108281414Y-57399838D01*
X108135642Y-57460219D01*
X107980893Y-57491000D01*
X107823107Y-57491000D01*
X107668358Y-57460219D01*
X107522586Y-57399838D01*
X107522585Y-57399838D01*
X107522584Y-57399837D01*
X107391392Y-57312178D01*
X107279822Y-57200608D01*
X107192163Y-57069416D01*
X107184387Y-57050643D01*
X107131781Y-56923642D01*
X107101000Y-56768893D01*
X107101000Y-56611107D01*
X107131781Y-56456358D01*
X107192162Y-56310586D01*
X107192163Y-56310584D01*
X107279822Y-56179392D01*
X107391392Y-56067822D01*
X107522584Y-55980163D01*
X107522586Y-55980162D01*
X107668358Y-55919781D01*
X107823107Y-55889000D01*
X107980893Y-55889000D01*
X108135642Y-55919781D01*
X108135642Y-55919781D01*
G37*
G36*
X152077642Y-45536781D02*
G01*
X152223414Y-45597162D01*
X152223416Y-45597163D01*
X152354608Y-45684822D01*
X152466178Y-45796392D01*
X152553837Y-45927584D01*
X152553838Y-45927586D01*
X152614219Y-46073358D01*
X152645000Y-46228107D01*
X152645000Y-46385893D01*
X152614219Y-46540642D01*
X152553838Y-46686414D01*
X152553837Y-46686416D01*
X152466178Y-46817608D01*
X152354608Y-46929178D01*
X152223416Y-47016837D01*
X152223415Y-47016838D01*
X152223414Y-47016838D01*
X152077642Y-47077219D01*
X151922893Y-47108000D01*
X151765107Y-47108000D01*
X151610358Y-47077219D01*
X151464586Y-47016838D01*
X151464585Y-47016838D01*
X151464584Y-47016837D01*
X151333392Y-46929178D01*
X151221822Y-46817608D01*
X151134163Y-46686416D01*
X151134162Y-46686414D01*
X151073781Y-46540642D01*
X151043000Y-46385893D01*
X151043000Y-46228107D01*
X151073781Y-46073358D01*
X151134162Y-45927586D01*
X151134163Y-45927584D01*
X151221822Y-45796392D01*
X151333392Y-45684822D01*
X151464584Y-45597163D01*
X151464586Y-45597162D01*
X151610358Y-45536781D01*
X151765107Y-45506000D01*
X151922893Y-45506000D01*
X152077642Y-45536781D01*
X152077642Y-45536781D01*
G37*
G36*
X163507642Y-45536781D02*
G01*
X163653414Y-45597162D01*
X163653416Y-45597163D01*
X163784608Y-45684822D01*
X163896178Y-45796392D01*
X163983837Y-45927584D01*
X163983838Y-45927586D01*
X164044219Y-46073358D01*
X164075000Y-46228107D01*
X164075000Y-46385893D01*
X164044219Y-46540642D01*
X163983838Y-46686414D01*
X163983837Y-46686416D01*
X163896178Y-46817608D01*
X163784608Y-46929178D01*
X163653416Y-47016837D01*
X163653415Y-47016838D01*
X163653414Y-47016838D01*
X163507642Y-47077219D01*
X163352893Y-47108000D01*
X163195107Y-47108000D01*
X163040358Y-47077219D01*
X162894586Y-47016838D01*
X162894585Y-47016838D01*
X162894584Y-47016837D01*
X162763392Y-46929178D01*
X162651822Y-46817608D01*
X162564163Y-46686416D01*
X162564162Y-46686414D01*
X162503781Y-46540642D01*
X162473000Y-46385893D01*
X162473000Y-46228107D01*
X162503781Y-46073358D01*
X162564162Y-45927586D01*
X162564163Y-45927584D01*
X162651822Y-45796392D01*
X162763392Y-45684822D01*
X162894584Y-45597163D01*
X162894586Y-45597162D01*
X163040358Y-45536781D01*
X163195107Y-45506000D01*
X163352893Y-45506000D01*
X163507642Y-45536781D01*
X163507642Y-45536781D01*
G37*
G36*
X174810642Y-45536781D02*
G01*
X174956414Y-45597162D01*
X174956416Y-45597163D01*
X175087608Y-45684822D01*
X175199178Y-45796392D01*
X175286837Y-45927584D01*
X175286838Y-45927586D01*
X175347219Y-46073358D01*
X175378000Y-46228107D01*
X175378000Y-46385893D01*
X175347219Y-46540642D01*
X175286838Y-46686414D01*
X175286837Y-46686416D01*
X175199178Y-46817608D01*
X175087608Y-46929178D01*
X174956416Y-47016837D01*
X174956415Y-47016838D01*
X174956414Y-47016838D01*
X174810642Y-47077219D01*
X174655893Y-47108000D01*
X174498107Y-47108000D01*
X174343358Y-47077219D01*
X174197586Y-47016838D01*
X174197585Y-47016838D01*
X174197584Y-47016837D01*
X174066392Y-46929178D01*
X173954822Y-46817608D01*
X173867163Y-46686416D01*
X173867162Y-46686414D01*
X173806781Y-46540642D01*
X173776000Y-46385893D01*
X173776000Y-46228107D01*
X173806781Y-46073358D01*
X173867162Y-45927586D01*
X173867163Y-45927584D01*
X173954822Y-45796392D01*
X174066392Y-45684822D01*
X174197584Y-45597163D01*
X174197586Y-45597162D01*
X174343358Y-45536781D01*
X174498107Y-45506000D01*
X174655893Y-45506000D01*
X174810642Y-45536781D01*
X174810642Y-45536781D01*
G37*
G36*
X186240642Y-45536781D02*
G01*
X186386414Y-45597162D01*
X186386416Y-45597163D01*
X186517608Y-45684822D01*
X186629178Y-45796392D01*
X186716837Y-45927584D01*
X186716838Y-45927586D01*
X186777219Y-46073358D01*
X186808000Y-46228107D01*
X186808000Y-46385893D01*
X186777219Y-46540642D01*
X186716838Y-46686414D01*
X186716837Y-46686416D01*
X186629178Y-46817608D01*
X186517608Y-46929178D01*
X186386416Y-47016837D01*
X186386415Y-47016838D01*
X186386414Y-47016838D01*
X186240642Y-47077219D01*
X186085893Y-47108000D01*
X185928107Y-47108000D01*
X185773358Y-47077219D01*
X185627586Y-47016838D01*
X185627585Y-47016838D01*
X185627584Y-47016837D01*
X185496392Y-46929178D01*
X185384822Y-46817608D01*
X185297163Y-46686416D01*
X185297162Y-46686414D01*
X185236781Y-46540642D01*
X185206000Y-46385893D01*
X185206000Y-46228107D01*
X185236781Y-46073358D01*
X185297162Y-45927586D01*
X185297163Y-45927584D01*
X185384822Y-45796392D01*
X185496392Y-45684822D01*
X185627584Y-45597163D01*
X185627586Y-45597162D01*
X185773358Y-45536781D01*
X185928107Y-45506000D01*
X186085893Y-45506000D01*
X186240642Y-45536781D01*
X186240642Y-45536781D01*
G37*
G36*
X117660642Y-45536781D02*
G01*
X117806414Y-45597162D01*
X117806416Y-45597163D01*
X117937608Y-45684822D01*
X118049178Y-45796392D01*
X118136837Y-45927584D01*
X118136838Y-45927586D01*
X118197219Y-46073358D01*
X118228000Y-46228107D01*
X118228000Y-46385893D01*
X118197219Y-46540642D01*
X118136838Y-46686414D01*
X118136837Y-46686416D01*
X118049178Y-46817608D01*
X117937608Y-46929178D01*
X117806416Y-47016837D01*
X117806415Y-47016838D01*
X117806414Y-47016838D01*
X117660642Y-47077219D01*
X117505893Y-47108000D01*
X117348107Y-47108000D01*
X117193358Y-47077219D01*
X117047586Y-47016838D01*
X117047585Y-47016838D01*
X117047584Y-47016837D01*
X116916392Y-46929178D01*
X116804822Y-46817608D01*
X116717163Y-46686416D01*
X116717162Y-46686414D01*
X116656781Y-46540642D01*
X116626000Y-46385893D01*
X116626000Y-46228107D01*
X116656781Y-46073358D01*
X116717162Y-45927586D01*
X116717163Y-45927584D01*
X116804822Y-45796392D01*
X116916392Y-45684822D01*
X117047584Y-45597163D01*
X117047586Y-45597162D01*
X117193358Y-45536781D01*
X117348107Y-45506000D01*
X117505893Y-45506000D01*
X117660642Y-45536781D01*
X117660642Y-45536781D01*
G37*
G36*
X129217642Y-45536781D02*
G01*
X129363414Y-45597162D01*
X129363416Y-45597163D01*
X129494608Y-45684822D01*
X129606178Y-45796392D01*
X129693837Y-45927584D01*
X129693838Y-45927586D01*
X129754219Y-46073358D01*
X129785000Y-46228107D01*
X129785000Y-46385893D01*
X129754219Y-46540642D01*
X129693838Y-46686414D01*
X129693837Y-46686416D01*
X129606178Y-46817608D01*
X129494608Y-46929178D01*
X129363416Y-47016837D01*
X129363415Y-47016838D01*
X129363414Y-47016838D01*
X129217642Y-47077219D01*
X129062893Y-47108000D01*
X128905107Y-47108000D01*
X128750358Y-47077219D01*
X128604586Y-47016838D01*
X128604585Y-47016838D01*
X128604584Y-47016837D01*
X128473392Y-46929178D01*
X128361822Y-46817608D01*
X128274163Y-46686416D01*
X128274162Y-46686414D01*
X128213781Y-46540642D01*
X128183000Y-46385893D01*
X128183000Y-46228107D01*
X128213781Y-46073358D01*
X128274162Y-45927586D01*
X128274163Y-45927584D01*
X128361822Y-45796392D01*
X128473392Y-45684822D01*
X128604584Y-45597163D01*
X128604586Y-45597162D01*
X128750358Y-45536781D01*
X128905107Y-45506000D01*
X129062893Y-45506000D01*
X129217642Y-45536781D01*
X129217642Y-45536781D01*
G37*
G36*
X140647642Y-45536781D02*
G01*
X140793414Y-45597162D01*
X140793416Y-45597163D01*
X140924608Y-45684822D01*
X141036178Y-45796392D01*
X141123837Y-45927584D01*
X141123838Y-45927586D01*
X141184219Y-46073358D01*
X141215000Y-46228107D01*
X141215000Y-46385893D01*
X141184219Y-46540642D01*
X141123838Y-46686414D01*
X141123837Y-46686416D01*
X141036178Y-46817608D01*
X140924608Y-46929178D01*
X140793416Y-47016837D01*
X140793415Y-47016838D01*
X140793414Y-47016838D01*
X140647642Y-47077219D01*
X140492893Y-47108000D01*
X140335107Y-47108000D01*
X140180358Y-47077219D01*
X140034586Y-47016838D01*
X140034585Y-47016838D01*
X140034584Y-47016837D01*
X139903392Y-46929178D01*
X139791822Y-46817608D01*
X139704163Y-46686416D01*
X139704162Y-46686414D01*
X139643781Y-46540642D01*
X139613000Y-46385893D01*
X139613000Y-46228107D01*
X139643781Y-46073358D01*
X139704162Y-45927586D01*
X139704163Y-45927584D01*
X139791822Y-45796392D01*
X139903392Y-45684822D01*
X140034584Y-45597163D01*
X140034586Y-45597162D01*
X140180358Y-45536781D01*
X140335107Y-45506000D01*
X140492893Y-45506000D01*
X140647642Y-45536781D01*
X140647642Y-45536781D01*
G37*
G36*
X106230642Y-45536781D02*
G01*
X106376414Y-45597162D01*
X106376416Y-45597163D01*
X106507608Y-45684822D01*
X106619178Y-45796392D01*
X106706837Y-45927584D01*
X106706838Y-45927586D01*
X106767219Y-46073358D01*
X106798000Y-46228107D01*
X106798000Y-46385893D01*
X106767219Y-46540642D01*
X106706838Y-46686414D01*
X106706837Y-46686416D01*
X106619178Y-46817608D01*
X106507608Y-46929178D01*
X106376416Y-47016837D01*
X106376415Y-47016838D01*
X106376414Y-47016838D01*
X106230642Y-47077219D01*
X106075893Y-47108000D01*
X105918107Y-47108000D01*
X105763358Y-47077219D01*
X105617586Y-47016838D01*
X105617585Y-47016838D01*
X105617584Y-47016837D01*
X105486392Y-46929178D01*
X105374822Y-46817608D01*
X105287163Y-46686416D01*
X105287162Y-46686414D01*
X105226781Y-46540642D01*
X105196000Y-46385893D01*
X105196000Y-46228107D01*
X105226781Y-46073358D01*
X105287162Y-45927586D01*
X105287163Y-45927584D01*
X105374822Y-45796392D01*
X105486392Y-45684822D01*
X105617584Y-45597163D01*
X105617586Y-45597162D01*
X105763358Y-45536781D01*
X105918107Y-45506000D01*
X106075893Y-45506000D01*
X106230642Y-45536781D01*
X106230642Y-45536781D01*
G37*
G36*
X106230642Y-42996781D02*
G01*
X106376414Y-43057162D01*
X106376416Y-43057163D01*
X106507608Y-43144822D01*
X106619178Y-43256392D01*
X106706837Y-43387584D01*
X106706838Y-43387586D01*
X106767219Y-43533358D01*
X106798000Y-43688107D01*
X106798000Y-43845893D01*
X106767219Y-44000642D01*
X106706838Y-44146414D01*
X106706837Y-44146416D01*
X106619178Y-44277608D01*
X106507608Y-44389178D01*
X106376416Y-44476837D01*
X106376415Y-44476838D01*
X106376414Y-44476838D01*
X106230642Y-44537219D01*
X106075893Y-44568000D01*
X105918107Y-44568000D01*
X105763358Y-44537219D01*
X105617586Y-44476838D01*
X105617585Y-44476838D01*
X105617584Y-44476837D01*
X105486392Y-44389178D01*
X105374822Y-44277608D01*
X105287163Y-44146416D01*
X105287162Y-44146414D01*
X105226781Y-44000642D01*
X105196000Y-43845893D01*
X105196000Y-43688107D01*
X105226781Y-43533358D01*
X105287162Y-43387586D01*
X105287163Y-43387584D01*
X105374822Y-43256392D01*
X105486392Y-43144822D01*
X105617584Y-43057163D01*
X105617586Y-43057162D01*
X105763358Y-42996781D01*
X105918107Y-42966000D01*
X106075893Y-42966000D01*
X106230642Y-42996781D01*
X106230642Y-42996781D01*
G37*
G36*
X117660642Y-42996781D02*
G01*
X117806414Y-43057162D01*
X117806416Y-43057163D01*
X117937608Y-43144822D01*
X118049178Y-43256392D01*
X118136837Y-43387584D01*
X118136838Y-43387586D01*
X118197219Y-43533358D01*
X118228000Y-43688107D01*
X118228000Y-43845893D01*
X118197219Y-44000642D01*
X118136838Y-44146414D01*
X118136837Y-44146416D01*
X118049178Y-44277608D01*
X117937608Y-44389178D01*
X117806416Y-44476837D01*
X117806415Y-44476838D01*
X117806414Y-44476838D01*
X117660642Y-44537219D01*
X117505893Y-44568000D01*
X117348107Y-44568000D01*
X117193358Y-44537219D01*
X117047586Y-44476838D01*
X117047585Y-44476838D01*
X117047584Y-44476837D01*
X116916392Y-44389178D01*
X116804822Y-44277608D01*
X116717163Y-44146416D01*
X116717162Y-44146414D01*
X116656781Y-44000642D01*
X116626000Y-43845893D01*
X116626000Y-43688107D01*
X116656781Y-43533358D01*
X116717162Y-43387586D01*
X116717163Y-43387584D01*
X116804822Y-43256392D01*
X116916392Y-43144822D01*
X117047584Y-43057163D01*
X117047586Y-43057162D01*
X117193358Y-42996781D01*
X117348107Y-42966000D01*
X117505893Y-42966000D01*
X117660642Y-42996781D01*
X117660642Y-42996781D01*
G37*
G36*
X186240642Y-42996781D02*
G01*
X186386414Y-43057162D01*
X186386416Y-43057163D01*
X186517608Y-43144822D01*
X186629178Y-43256392D01*
X186716837Y-43387584D01*
X186716838Y-43387586D01*
X186777219Y-43533358D01*
X186808000Y-43688107D01*
X186808000Y-43845893D01*
X186777219Y-44000642D01*
X186716838Y-44146414D01*
X186716837Y-44146416D01*
X186629178Y-44277608D01*
X186517608Y-44389178D01*
X186386416Y-44476837D01*
X186386415Y-44476838D01*
X186386414Y-44476838D01*
X186240642Y-44537219D01*
X186085893Y-44568000D01*
X185928107Y-44568000D01*
X185773358Y-44537219D01*
X185627586Y-44476838D01*
X185627585Y-44476838D01*
X185627584Y-44476837D01*
X185496392Y-44389178D01*
X185384822Y-44277608D01*
X185297163Y-44146416D01*
X185297162Y-44146414D01*
X185236781Y-44000642D01*
X185206000Y-43845893D01*
X185206000Y-43688107D01*
X185236781Y-43533358D01*
X185297162Y-43387586D01*
X185297163Y-43387584D01*
X185384822Y-43256392D01*
X185496392Y-43144822D01*
X185627584Y-43057163D01*
X185627586Y-43057162D01*
X185773358Y-42996781D01*
X185928107Y-42966000D01*
X186085893Y-42966000D01*
X186240642Y-42996781D01*
X186240642Y-42996781D01*
G37*
G36*
X174810642Y-42996781D02*
G01*
X174956414Y-43057162D01*
X174956416Y-43057163D01*
X175087608Y-43144822D01*
X175199178Y-43256392D01*
X175286837Y-43387584D01*
X175286838Y-43387586D01*
X175347219Y-43533358D01*
X175378000Y-43688107D01*
X175378000Y-43845893D01*
X175347219Y-44000642D01*
X175286838Y-44146414D01*
X175286837Y-44146416D01*
X175199178Y-44277608D01*
X175087608Y-44389178D01*
X174956416Y-44476837D01*
X174956415Y-44476838D01*
X174956414Y-44476838D01*
X174810642Y-44537219D01*
X174655893Y-44568000D01*
X174498107Y-44568000D01*
X174343358Y-44537219D01*
X174197586Y-44476838D01*
X174197585Y-44476838D01*
X174197584Y-44476837D01*
X174066392Y-44389178D01*
X173954822Y-44277608D01*
X173867163Y-44146416D01*
X173867162Y-44146414D01*
X173806781Y-44000642D01*
X173776000Y-43845893D01*
X173776000Y-43688107D01*
X173806781Y-43533358D01*
X173867162Y-43387586D01*
X173867163Y-43387584D01*
X173954822Y-43256392D01*
X174066392Y-43144822D01*
X174197584Y-43057163D01*
X174197586Y-43057162D01*
X174343358Y-42996781D01*
X174498107Y-42966000D01*
X174655893Y-42966000D01*
X174810642Y-42996781D01*
X174810642Y-42996781D01*
G37*
G36*
X163507642Y-42996781D02*
G01*
X163653414Y-43057162D01*
X163653416Y-43057163D01*
X163784608Y-43144822D01*
X163896178Y-43256392D01*
X163983837Y-43387584D01*
X163983838Y-43387586D01*
X164044219Y-43533358D01*
X164075000Y-43688107D01*
X164075000Y-43845893D01*
X164044219Y-44000642D01*
X163983838Y-44146414D01*
X163983837Y-44146416D01*
X163896178Y-44277608D01*
X163784608Y-44389178D01*
X163653416Y-44476837D01*
X163653415Y-44476838D01*
X163653414Y-44476838D01*
X163507642Y-44537219D01*
X163352893Y-44568000D01*
X163195107Y-44568000D01*
X163040358Y-44537219D01*
X162894586Y-44476838D01*
X162894585Y-44476838D01*
X162894584Y-44476837D01*
X162763392Y-44389178D01*
X162651822Y-44277608D01*
X162564163Y-44146416D01*
X162564162Y-44146414D01*
X162503781Y-44000642D01*
X162473000Y-43845893D01*
X162473000Y-43688107D01*
X162503781Y-43533358D01*
X162564162Y-43387586D01*
X162564163Y-43387584D01*
X162651822Y-43256392D01*
X162763392Y-43144822D01*
X162894584Y-43057163D01*
X162894586Y-43057162D01*
X163040358Y-42996781D01*
X163195107Y-42966000D01*
X163352893Y-42966000D01*
X163507642Y-42996781D01*
X163507642Y-42996781D01*
G37*
G36*
X152077642Y-42996781D02*
G01*
X152223414Y-43057162D01*
X152223416Y-43057163D01*
X152354608Y-43144822D01*
X152466178Y-43256392D01*
X152553837Y-43387584D01*
X152553838Y-43387586D01*
X152614219Y-43533358D01*
X152645000Y-43688107D01*
X152645000Y-43845893D01*
X152614219Y-44000642D01*
X152553838Y-44146414D01*
X152553837Y-44146416D01*
X152466178Y-44277608D01*
X152354608Y-44389178D01*
X152223416Y-44476837D01*
X152223415Y-44476838D01*
X152223414Y-44476838D01*
X152077642Y-44537219D01*
X151922893Y-44568000D01*
X151765107Y-44568000D01*
X151610358Y-44537219D01*
X151464586Y-44476838D01*
X151464585Y-44476838D01*
X151464584Y-44476837D01*
X151333392Y-44389178D01*
X151221822Y-44277608D01*
X151134163Y-44146416D01*
X151134162Y-44146414D01*
X151073781Y-44000642D01*
X151043000Y-43845893D01*
X151043000Y-43688107D01*
X151073781Y-43533358D01*
X151134162Y-43387586D01*
X151134163Y-43387584D01*
X151221822Y-43256392D01*
X151333392Y-43144822D01*
X151464584Y-43057163D01*
X151464586Y-43057162D01*
X151610358Y-42996781D01*
X151765107Y-42966000D01*
X151922893Y-42966000D01*
X152077642Y-42996781D01*
X152077642Y-42996781D01*
G37*
G36*
X129217642Y-42996781D02*
G01*
X129363414Y-43057162D01*
X129363416Y-43057163D01*
X129494608Y-43144822D01*
X129606178Y-43256392D01*
X129693837Y-43387584D01*
X129693838Y-43387586D01*
X129754219Y-43533358D01*
X129785000Y-43688107D01*
X129785000Y-43845893D01*
X129754219Y-44000642D01*
X129693838Y-44146414D01*
X129693837Y-44146416D01*
X129606178Y-44277608D01*
X129494608Y-44389178D01*
X129363416Y-44476837D01*
X129363415Y-44476838D01*
X129363414Y-44476838D01*
X129217642Y-44537219D01*
X129062893Y-44568000D01*
X128905107Y-44568000D01*
X128750358Y-44537219D01*
X128604586Y-44476838D01*
X128604585Y-44476838D01*
X128604584Y-44476837D01*
X128473392Y-44389178D01*
X128361822Y-44277608D01*
X128274163Y-44146416D01*
X128274162Y-44146414D01*
X128213781Y-44000642D01*
X128183000Y-43845893D01*
X128183000Y-43688107D01*
X128213781Y-43533358D01*
X128274162Y-43387586D01*
X128274163Y-43387584D01*
X128361822Y-43256392D01*
X128473392Y-43144822D01*
X128604584Y-43057163D01*
X128604586Y-43057162D01*
X128750358Y-42996781D01*
X128905107Y-42966000D01*
X129062893Y-42966000D01*
X129217642Y-42996781D01*
X129217642Y-42996781D01*
G37*
G36*
X140647642Y-42996781D02*
G01*
X140793414Y-43057162D01*
X140793416Y-43057163D01*
X140924608Y-43144822D01*
X141036178Y-43256392D01*
X141123837Y-43387584D01*
X141123838Y-43387586D01*
X141184219Y-43533358D01*
X141215000Y-43688107D01*
X141215000Y-43845893D01*
X141184219Y-44000642D01*
X141123838Y-44146414D01*
X141123837Y-44146416D01*
X141036178Y-44277608D01*
X140924608Y-44389178D01*
X140793416Y-44476837D01*
X140793415Y-44476838D01*
X140793414Y-44476838D01*
X140647642Y-44537219D01*
X140492893Y-44568000D01*
X140335107Y-44568000D01*
X140180358Y-44537219D01*
X140034586Y-44476838D01*
X140034585Y-44476838D01*
X140034584Y-44476837D01*
X139903392Y-44389178D01*
X139791822Y-44277608D01*
X139704163Y-44146416D01*
X139704162Y-44146414D01*
X139643781Y-44000642D01*
X139613000Y-43845893D01*
X139613000Y-43688107D01*
X139643781Y-43533358D01*
X139704162Y-43387586D01*
X139704163Y-43387584D01*
X139791822Y-43256392D01*
X139903392Y-43144822D01*
X140034584Y-43057163D01*
X140034586Y-43057162D01*
X140180358Y-42996781D01*
X140335107Y-42966000D01*
X140492893Y-42966000D01*
X140647642Y-42996781D01*
X140647642Y-42996781D01*
G37*
G36*
X138125000Y-44390000D02*
G01*
X136623000Y-44390000D01*
X136623000Y-43688000D01*
X138125000Y-43688000D01*
X138125000Y-44390000D01*
X138125000Y-44390000D01*
G37*
G36*
X133125000Y-44390000D02*
G01*
X131623000Y-44390000D01*
X131623000Y-43688000D01*
X133125000Y-43688000D01*
X133125000Y-44390000D01*
X133125000Y-44390000D01*
G37*
G36*
X178718000Y-44390000D02*
G01*
X177216000Y-44390000D01*
X177216000Y-43688000D01*
X178718000Y-43688000D01*
X178718000Y-44390000D01*
X178718000Y-44390000D01*
G37*
G36*
X183718000Y-44390000D02*
G01*
X182216000Y-44390000D01*
X182216000Y-43688000D01*
X183718000Y-43688000D01*
X183718000Y-44390000D01*
X183718000Y-44390000D01*
G37*
G36*
X155985000Y-44390000D02*
G01*
X154483000Y-44390000D01*
X154483000Y-43688000D01*
X155985000Y-43688000D01*
X155985000Y-44390000D01*
X155985000Y-44390000D01*
G37*
G36*
X115138000Y-44390000D02*
G01*
X113636000Y-44390000D01*
X113636000Y-43688000D01*
X115138000Y-43688000D01*
X115138000Y-44390000D01*
X115138000Y-44390000D01*
G37*
G36*
X110138000Y-44390000D02*
G01*
X108636000Y-44390000D01*
X108636000Y-43688000D01*
X110138000Y-43688000D01*
X110138000Y-44390000D01*
X110138000Y-44390000D01*
G37*
G36*
X160985000Y-44390000D02*
G01*
X159483000Y-44390000D01*
X159483000Y-43688000D01*
X160985000Y-43688000D01*
X160985000Y-44390000D01*
X160985000Y-44390000D01*
G37*
G36*
X178718000Y-43140000D02*
G01*
X177216000Y-43140000D01*
X177216000Y-42438000D01*
X178718000Y-42438000D01*
X178718000Y-43140000D01*
X178718000Y-43140000D01*
G37*
G36*
X138125000Y-43140000D02*
G01*
X136623000Y-43140000D01*
X136623000Y-42438000D01*
X138125000Y-42438000D01*
X138125000Y-43140000D01*
X138125000Y-43140000D01*
G37*
G36*
X133125000Y-43140000D02*
G01*
X131623000Y-43140000D01*
X131623000Y-42438000D01*
X133125000Y-42438000D01*
X133125000Y-43140000D01*
X133125000Y-43140000D01*
G37*
G36*
X115138000Y-43140000D02*
G01*
X113636000Y-43140000D01*
X113636000Y-42438000D01*
X115138000Y-42438000D01*
X115138000Y-43140000D01*
X115138000Y-43140000D01*
G37*
G36*
X155985000Y-43140000D02*
G01*
X154483000Y-43140000D01*
X154483000Y-42438000D01*
X155985000Y-42438000D01*
X155985000Y-43140000D01*
X155985000Y-43140000D01*
G37*
G36*
X160985000Y-43140000D02*
G01*
X159483000Y-43140000D01*
X159483000Y-42438000D01*
X160985000Y-42438000D01*
X160985000Y-43140000D01*
X160985000Y-43140000D01*
G37*
G36*
X183718000Y-43140000D02*
G01*
X182216000Y-43140000D01*
X182216000Y-42438000D01*
X183718000Y-42438000D01*
X183718000Y-43140000D01*
X183718000Y-43140000D01*
G37*
G36*
X110138000Y-43140000D02*
G01*
X108636000Y-43140000D01*
X108636000Y-42438000D01*
X110138000Y-42438000D01*
X110138000Y-43140000D01*
X110138000Y-43140000D01*
G37*
G36*
X140647642Y-40456781D02*
G01*
X140793414Y-40517162D01*
X140793416Y-40517163D01*
X140924608Y-40604822D01*
X141036178Y-40716392D01*
X141123837Y-40847584D01*
X141123838Y-40847586D01*
X141184219Y-40993358D01*
X141215000Y-41148107D01*
X141215000Y-41305893D01*
X141184219Y-41460642D01*
X141123838Y-41606414D01*
X141123837Y-41606416D01*
X141036178Y-41737608D01*
X140924608Y-41849178D01*
X140793416Y-41936837D01*
X140793415Y-41936838D01*
X140793414Y-41936838D01*
X140647642Y-41997219D01*
X140492893Y-42028000D01*
X140335107Y-42028000D01*
X140180358Y-41997219D01*
X140034586Y-41936838D01*
X140034585Y-41936838D01*
X140034584Y-41936837D01*
X139903392Y-41849178D01*
X139791822Y-41737608D01*
X139704163Y-41606416D01*
X139704162Y-41606414D01*
X139643781Y-41460642D01*
X139613000Y-41305893D01*
X139613000Y-41148107D01*
X139643781Y-40993358D01*
X139704162Y-40847586D01*
X139704163Y-40847584D01*
X139791822Y-40716392D01*
X139903392Y-40604822D01*
X140034584Y-40517163D01*
X140034586Y-40517162D01*
X140180358Y-40456781D01*
X140335107Y-40426000D01*
X140492893Y-40426000D01*
X140647642Y-40456781D01*
X140647642Y-40456781D01*
G37*
G36*
X129217642Y-40456781D02*
G01*
X129363414Y-40517162D01*
X129363416Y-40517163D01*
X129494608Y-40604822D01*
X129606178Y-40716392D01*
X129693837Y-40847584D01*
X129693838Y-40847586D01*
X129754219Y-40993358D01*
X129785000Y-41148107D01*
X129785000Y-41305893D01*
X129754219Y-41460642D01*
X129693838Y-41606414D01*
X129693837Y-41606416D01*
X129606178Y-41737608D01*
X129494608Y-41849178D01*
X129363416Y-41936837D01*
X129363415Y-41936838D01*
X129363414Y-41936838D01*
X129217642Y-41997219D01*
X129062893Y-42028000D01*
X128905107Y-42028000D01*
X128750358Y-41997219D01*
X128604586Y-41936838D01*
X128604585Y-41936838D01*
X128604584Y-41936837D01*
X128473392Y-41849178D01*
X128361822Y-41737608D01*
X128274163Y-41606416D01*
X128274162Y-41606414D01*
X128213781Y-41460642D01*
X128183000Y-41305893D01*
X128183000Y-41148107D01*
X128213781Y-40993358D01*
X128274162Y-40847586D01*
X128274163Y-40847584D01*
X128361822Y-40716392D01*
X128473392Y-40604822D01*
X128604584Y-40517163D01*
X128604586Y-40517162D01*
X128750358Y-40456781D01*
X128905107Y-40426000D01*
X129062893Y-40426000D01*
X129217642Y-40456781D01*
X129217642Y-40456781D01*
G37*
G36*
X174810642Y-40456781D02*
G01*
X174956414Y-40517162D01*
X174956416Y-40517163D01*
X175087608Y-40604822D01*
X175199178Y-40716392D01*
X175286837Y-40847584D01*
X175286838Y-40847586D01*
X175347219Y-40993358D01*
X175378000Y-41148107D01*
X175378000Y-41305893D01*
X175347219Y-41460642D01*
X175286838Y-41606414D01*
X175286837Y-41606416D01*
X175199178Y-41737608D01*
X175087608Y-41849178D01*
X174956416Y-41936837D01*
X174956415Y-41936838D01*
X174956414Y-41936838D01*
X174810642Y-41997219D01*
X174655893Y-42028000D01*
X174498107Y-42028000D01*
X174343358Y-41997219D01*
X174197586Y-41936838D01*
X174197585Y-41936838D01*
X174197584Y-41936837D01*
X174066392Y-41849178D01*
X173954822Y-41737608D01*
X173867163Y-41606416D01*
X173867162Y-41606414D01*
X173806781Y-41460642D01*
X173776000Y-41305893D01*
X173776000Y-41148107D01*
X173806781Y-40993358D01*
X173867162Y-40847586D01*
X173867163Y-40847584D01*
X173954822Y-40716392D01*
X174066392Y-40604822D01*
X174197584Y-40517163D01*
X174197586Y-40517162D01*
X174343358Y-40456781D01*
X174498107Y-40426000D01*
X174655893Y-40426000D01*
X174810642Y-40456781D01*
X174810642Y-40456781D01*
G37*
G36*
X186240642Y-40456781D02*
G01*
X186386414Y-40517162D01*
X186386416Y-40517163D01*
X186517608Y-40604822D01*
X186629178Y-40716392D01*
X186716837Y-40847584D01*
X186716838Y-40847586D01*
X186777219Y-40993358D01*
X186808000Y-41148107D01*
X186808000Y-41305893D01*
X186777219Y-41460642D01*
X186716838Y-41606414D01*
X186716837Y-41606416D01*
X186629178Y-41737608D01*
X186517608Y-41849178D01*
X186386416Y-41936837D01*
X186386415Y-41936838D01*
X186386414Y-41936838D01*
X186240642Y-41997219D01*
X186085893Y-42028000D01*
X185928107Y-42028000D01*
X185773358Y-41997219D01*
X185627586Y-41936838D01*
X185627585Y-41936838D01*
X185627584Y-41936837D01*
X185496392Y-41849178D01*
X185384822Y-41737608D01*
X185297163Y-41606416D01*
X185297162Y-41606414D01*
X185236781Y-41460642D01*
X185206000Y-41305893D01*
X185206000Y-41148107D01*
X185236781Y-40993358D01*
X185297162Y-40847586D01*
X185297163Y-40847584D01*
X185384822Y-40716392D01*
X185496392Y-40604822D01*
X185627584Y-40517163D01*
X185627586Y-40517162D01*
X185773358Y-40456781D01*
X185928107Y-40426000D01*
X186085893Y-40426000D01*
X186240642Y-40456781D01*
X186240642Y-40456781D01*
G37*
G36*
X163507642Y-40456781D02*
G01*
X163653414Y-40517162D01*
X163653416Y-40517163D01*
X163784608Y-40604822D01*
X163896178Y-40716392D01*
X163983837Y-40847584D01*
X163983838Y-40847586D01*
X164044219Y-40993358D01*
X164075000Y-41148107D01*
X164075000Y-41305893D01*
X164044219Y-41460642D01*
X163983838Y-41606414D01*
X163983837Y-41606416D01*
X163896178Y-41737608D01*
X163784608Y-41849178D01*
X163653416Y-41936837D01*
X163653415Y-41936838D01*
X163653414Y-41936838D01*
X163507642Y-41997219D01*
X163352893Y-42028000D01*
X163195107Y-42028000D01*
X163040358Y-41997219D01*
X162894586Y-41936838D01*
X162894585Y-41936838D01*
X162894584Y-41936837D01*
X162763392Y-41849178D01*
X162651822Y-41737608D01*
X162564163Y-41606416D01*
X162564162Y-41606414D01*
X162503781Y-41460642D01*
X162473000Y-41305893D01*
X162473000Y-41148107D01*
X162503781Y-40993358D01*
X162564162Y-40847586D01*
X162564163Y-40847584D01*
X162651822Y-40716392D01*
X162763392Y-40604822D01*
X162894584Y-40517163D01*
X162894586Y-40517162D01*
X163040358Y-40456781D01*
X163195107Y-40426000D01*
X163352893Y-40426000D01*
X163507642Y-40456781D01*
X163507642Y-40456781D01*
G37*
G36*
X106230642Y-40456781D02*
G01*
X106376414Y-40517162D01*
X106376416Y-40517163D01*
X106507608Y-40604822D01*
X106619178Y-40716392D01*
X106706837Y-40847584D01*
X106706838Y-40847586D01*
X106767219Y-40993358D01*
X106798000Y-41148107D01*
X106798000Y-41305893D01*
X106767219Y-41460642D01*
X106706838Y-41606414D01*
X106706837Y-41606416D01*
X106619178Y-41737608D01*
X106507608Y-41849178D01*
X106376416Y-41936837D01*
X106376415Y-41936838D01*
X106376414Y-41936838D01*
X106230642Y-41997219D01*
X106075893Y-42028000D01*
X105918107Y-42028000D01*
X105763358Y-41997219D01*
X105617586Y-41936838D01*
X105617585Y-41936838D01*
X105617584Y-41936837D01*
X105486392Y-41849178D01*
X105374822Y-41737608D01*
X105287163Y-41606416D01*
X105287162Y-41606414D01*
X105226781Y-41460642D01*
X105196000Y-41305893D01*
X105196000Y-41148107D01*
X105226781Y-40993358D01*
X105287162Y-40847586D01*
X105287163Y-40847584D01*
X105374822Y-40716392D01*
X105486392Y-40604822D01*
X105617584Y-40517163D01*
X105617586Y-40517162D01*
X105763358Y-40456781D01*
X105918107Y-40426000D01*
X106075893Y-40426000D01*
X106230642Y-40456781D01*
X106230642Y-40456781D01*
G37*
G36*
X117660642Y-40456781D02*
G01*
X117806414Y-40517162D01*
X117806416Y-40517163D01*
X117937608Y-40604822D01*
X118049178Y-40716392D01*
X118136837Y-40847584D01*
X118136838Y-40847586D01*
X118197219Y-40993358D01*
X118228000Y-41148107D01*
X118228000Y-41305893D01*
X118197219Y-41460642D01*
X118136838Y-41606414D01*
X118136837Y-41606416D01*
X118049178Y-41737608D01*
X117937608Y-41849178D01*
X117806416Y-41936837D01*
X117806415Y-41936838D01*
X117806414Y-41936838D01*
X117660642Y-41997219D01*
X117505893Y-42028000D01*
X117348107Y-42028000D01*
X117193358Y-41997219D01*
X117047586Y-41936838D01*
X117047585Y-41936838D01*
X117047584Y-41936837D01*
X116916392Y-41849178D01*
X116804822Y-41737608D01*
X116717163Y-41606416D01*
X116717162Y-41606414D01*
X116656781Y-41460642D01*
X116626000Y-41305893D01*
X116626000Y-41148107D01*
X116656781Y-40993358D01*
X116717162Y-40847586D01*
X116717163Y-40847584D01*
X116804822Y-40716392D01*
X116916392Y-40604822D01*
X117047584Y-40517163D01*
X117047586Y-40517162D01*
X117193358Y-40456781D01*
X117348107Y-40426000D01*
X117505893Y-40426000D01*
X117660642Y-40456781D01*
X117660642Y-40456781D01*
G37*
G36*
X152077642Y-40456781D02*
G01*
X152223414Y-40517162D01*
X152223416Y-40517163D01*
X152354608Y-40604822D01*
X152466178Y-40716392D01*
X152553837Y-40847584D01*
X152553838Y-40847586D01*
X152614219Y-40993358D01*
X152645000Y-41148107D01*
X152645000Y-41305893D01*
X152614219Y-41460642D01*
X152553838Y-41606414D01*
X152553837Y-41606416D01*
X152466178Y-41737608D01*
X152354608Y-41849178D01*
X152223416Y-41936837D01*
X152223415Y-41936838D01*
X152223414Y-41936838D01*
X152077642Y-41997219D01*
X151922893Y-42028000D01*
X151765107Y-42028000D01*
X151610358Y-41997219D01*
X151464586Y-41936838D01*
X151464585Y-41936838D01*
X151464584Y-41936837D01*
X151333392Y-41849178D01*
X151221822Y-41737608D01*
X151134163Y-41606416D01*
X151134162Y-41606414D01*
X151073781Y-41460642D01*
X151043000Y-41305893D01*
X151043000Y-41148107D01*
X151073781Y-40993358D01*
X151134162Y-40847586D01*
X151134163Y-40847584D01*
X151221822Y-40716392D01*
X151333392Y-40604822D01*
X151464584Y-40517163D01*
X151464586Y-40517162D01*
X151610358Y-40456781D01*
X151765107Y-40426000D01*
X151922893Y-40426000D01*
X152077642Y-40456781D01*
X152077642Y-40456781D01*
G37*
G36*
X138125000Y-41890000D02*
G01*
X136623000Y-41890000D01*
X136623000Y-41188000D01*
X138125000Y-41188000D01*
X138125000Y-41890000D01*
X138125000Y-41890000D01*
G37*
G36*
X160985000Y-41890000D02*
G01*
X159483000Y-41890000D01*
X159483000Y-41188000D01*
X160985000Y-41188000D01*
X160985000Y-41890000D01*
X160985000Y-41890000D01*
G37*
G36*
X155985000Y-41890000D02*
G01*
X154483000Y-41890000D01*
X154483000Y-41188000D01*
X155985000Y-41188000D01*
X155985000Y-41890000D01*
X155985000Y-41890000D01*
G37*
G36*
X133125000Y-41890000D02*
G01*
X131623000Y-41890000D01*
X131623000Y-41188000D01*
X133125000Y-41188000D01*
X133125000Y-41890000D01*
X133125000Y-41890000D01*
G37*
G36*
X178718000Y-41890000D02*
G01*
X177216000Y-41890000D01*
X177216000Y-41188000D01*
X178718000Y-41188000D01*
X178718000Y-41890000D01*
X178718000Y-41890000D01*
G37*
G36*
X110138000Y-41890000D02*
G01*
X108636000Y-41890000D01*
X108636000Y-41188000D01*
X110138000Y-41188000D01*
X110138000Y-41890000D01*
X110138000Y-41890000D01*
G37*
G36*
X183718000Y-41890000D02*
G01*
X182216000Y-41890000D01*
X182216000Y-41188000D01*
X183718000Y-41188000D01*
X183718000Y-41890000D01*
X183718000Y-41890000D01*
G37*
G36*
X115138000Y-41890000D02*
G01*
X113636000Y-41890000D01*
X113636000Y-41188000D01*
X115138000Y-41188000D01*
X115138000Y-41890000D01*
X115138000Y-41890000D01*
G37*
G36*
X133125000Y-40640000D02*
G01*
X131623000Y-40640000D01*
X131623000Y-39938000D01*
X133125000Y-39938000D01*
X133125000Y-40640000D01*
X133125000Y-40640000D01*
G37*
G36*
X110138000Y-40640000D02*
G01*
X108636000Y-40640000D01*
X108636000Y-39938000D01*
X110138000Y-39938000D01*
X110138000Y-40640000D01*
X110138000Y-40640000D01*
G37*
G36*
X155985000Y-40640000D02*
G01*
X154483000Y-40640000D01*
X154483000Y-39938000D01*
X155985000Y-39938000D01*
X155985000Y-40640000D01*
X155985000Y-40640000D01*
G37*
G36*
X115138000Y-40640000D02*
G01*
X113636000Y-40640000D01*
X113636000Y-39938000D01*
X115138000Y-39938000D01*
X115138000Y-40640000D01*
X115138000Y-40640000D01*
G37*
G36*
X160985000Y-40640000D02*
G01*
X159483000Y-40640000D01*
X159483000Y-39938000D01*
X160985000Y-39938000D01*
X160985000Y-40640000D01*
X160985000Y-40640000D01*
G37*
G36*
X138125000Y-40640000D02*
G01*
X136623000Y-40640000D01*
X136623000Y-39938000D01*
X138125000Y-39938000D01*
X138125000Y-40640000D01*
X138125000Y-40640000D01*
G37*
G36*
X178718000Y-40640000D02*
G01*
X177216000Y-40640000D01*
X177216000Y-39938000D01*
X178718000Y-39938000D01*
X178718000Y-40640000D01*
X178718000Y-40640000D01*
G37*
G36*
X183718000Y-40640000D02*
G01*
X182216000Y-40640000D01*
X182216000Y-39938000D01*
X183718000Y-39938000D01*
X183718000Y-40640000D01*
X183718000Y-40640000D01*
G37*
G36*
X163507642Y-37916781D02*
G01*
X163653414Y-37977162D01*
X163653416Y-37977163D01*
X163784608Y-38064822D01*
X163896178Y-38176392D01*
X163983837Y-38307584D01*
X163983838Y-38307586D01*
X164044219Y-38453358D01*
X164075000Y-38608107D01*
X164075000Y-38765893D01*
X164044219Y-38920642D01*
X163983838Y-39066414D01*
X163983837Y-39066416D01*
X163896178Y-39197608D01*
X163784608Y-39309178D01*
X163653416Y-39396837D01*
X163653415Y-39396838D01*
X163653414Y-39396838D01*
X163507642Y-39457219D01*
X163352893Y-39488000D01*
X163195107Y-39488000D01*
X163040358Y-39457219D01*
X162894586Y-39396838D01*
X162894585Y-39396838D01*
X162894584Y-39396837D01*
X162763392Y-39309178D01*
X162651822Y-39197608D01*
X162564163Y-39066416D01*
X162564162Y-39066414D01*
X162503781Y-38920642D01*
X162473000Y-38765893D01*
X162473000Y-38608107D01*
X162503781Y-38453358D01*
X162564162Y-38307586D01*
X162564163Y-38307584D01*
X162651822Y-38176392D01*
X162763392Y-38064822D01*
X162894584Y-37977163D01*
X162894586Y-37977162D01*
X163040358Y-37916781D01*
X163195107Y-37886000D01*
X163352893Y-37886000D01*
X163507642Y-37916781D01*
X163507642Y-37916781D01*
G37*
G36*
X174810642Y-37916781D02*
G01*
X174956414Y-37977162D01*
X174956416Y-37977163D01*
X175087608Y-38064822D01*
X175199178Y-38176392D01*
X175286837Y-38307584D01*
X175286838Y-38307586D01*
X175347219Y-38453358D01*
X175378000Y-38608107D01*
X175378000Y-38765893D01*
X175347219Y-38920642D01*
X175286838Y-39066414D01*
X175286837Y-39066416D01*
X175199178Y-39197608D01*
X175087608Y-39309178D01*
X174956416Y-39396837D01*
X174956415Y-39396838D01*
X174956414Y-39396838D01*
X174810642Y-39457219D01*
X174655893Y-39488000D01*
X174498107Y-39488000D01*
X174343358Y-39457219D01*
X174197586Y-39396838D01*
X174197585Y-39396838D01*
X174197584Y-39396837D01*
X174066392Y-39309178D01*
X173954822Y-39197608D01*
X173867163Y-39066416D01*
X173867162Y-39066414D01*
X173806781Y-38920642D01*
X173776000Y-38765893D01*
X173776000Y-38608107D01*
X173806781Y-38453358D01*
X173867162Y-38307586D01*
X173867163Y-38307584D01*
X173954822Y-38176392D01*
X174066392Y-38064822D01*
X174197584Y-37977163D01*
X174197586Y-37977162D01*
X174343358Y-37916781D01*
X174498107Y-37886000D01*
X174655893Y-37886000D01*
X174810642Y-37916781D01*
X174810642Y-37916781D01*
G37*
G36*
X152077642Y-37916781D02*
G01*
X152223414Y-37977162D01*
X152223416Y-37977163D01*
X152354608Y-38064822D01*
X152466178Y-38176392D01*
X152553837Y-38307584D01*
X152553838Y-38307586D01*
X152614219Y-38453358D01*
X152645000Y-38608107D01*
X152645000Y-38765893D01*
X152614219Y-38920642D01*
X152553838Y-39066414D01*
X152553837Y-39066416D01*
X152466178Y-39197608D01*
X152354608Y-39309178D01*
X152223416Y-39396837D01*
X152223415Y-39396838D01*
X152223414Y-39396838D01*
X152077642Y-39457219D01*
X151922893Y-39488000D01*
X151765107Y-39488000D01*
X151610358Y-39457219D01*
X151464586Y-39396838D01*
X151464585Y-39396838D01*
X151464584Y-39396837D01*
X151333392Y-39309178D01*
X151221822Y-39197608D01*
X151134163Y-39066416D01*
X151134162Y-39066414D01*
X151073781Y-38920642D01*
X151043000Y-38765893D01*
X151043000Y-38608107D01*
X151073781Y-38453358D01*
X151134162Y-38307586D01*
X151134163Y-38307584D01*
X151221822Y-38176392D01*
X151333392Y-38064822D01*
X151464584Y-37977163D01*
X151464586Y-37977162D01*
X151610358Y-37916781D01*
X151765107Y-37886000D01*
X151922893Y-37886000D01*
X152077642Y-37916781D01*
X152077642Y-37916781D01*
G37*
G36*
X140647642Y-37916781D02*
G01*
X140793414Y-37977162D01*
X140793416Y-37977163D01*
X140924608Y-38064822D01*
X141036178Y-38176392D01*
X141123837Y-38307584D01*
X141123838Y-38307586D01*
X141184219Y-38453358D01*
X141215000Y-38608107D01*
X141215000Y-38765893D01*
X141184219Y-38920642D01*
X141123838Y-39066414D01*
X141123837Y-39066416D01*
X141036178Y-39197608D01*
X140924608Y-39309178D01*
X140793416Y-39396837D01*
X140793415Y-39396838D01*
X140793414Y-39396838D01*
X140647642Y-39457219D01*
X140492893Y-39488000D01*
X140335107Y-39488000D01*
X140180358Y-39457219D01*
X140034586Y-39396838D01*
X140034585Y-39396838D01*
X140034584Y-39396837D01*
X139903392Y-39309178D01*
X139791822Y-39197608D01*
X139704163Y-39066416D01*
X139704162Y-39066414D01*
X139643781Y-38920642D01*
X139613000Y-38765893D01*
X139613000Y-38608107D01*
X139643781Y-38453358D01*
X139704162Y-38307586D01*
X139704163Y-38307584D01*
X139791822Y-38176392D01*
X139903392Y-38064822D01*
X140034584Y-37977163D01*
X140034586Y-37977162D01*
X140180358Y-37916781D01*
X140335107Y-37886000D01*
X140492893Y-37886000D01*
X140647642Y-37916781D01*
X140647642Y-37916781D01*
G37*
G36*
X186240642Y-37916781D02*
G01*
X186386414Y-37977162D01*
X186386416Y-37977163D01*
X186517608Y-38064822D01*
X186629178Y-38176392D01*
X186716837Y-38307584D01*
X186716838Y-38307586D01*
X186777219Y-38453358D01*
X186808000Y-38608107D01*
X186808000Y-38765893D01*
X186777219Y-38920642D01*
X186716838Y-39066414D01*
X186716837Y-39066416D01*
X186629178Y-39197608D01*
X186517608Y-39309178D01*
X186386416Y-39396837D01*
X186386415Y-39396838D01*
X186386414Y-39396838D01*
X186240642Y-39457219D01*
X186085893Y-39488000D01*
X185928107Y-39488000D01*
X185773358Y-39457219D01*
X185627586Y-39396838D01*
X185627585Y-39396838D01*
X185627584Y-39396837D01*
X185496392Y-39309178D01*
X185384822Y-39197608D01*
X185297163Y-39066416D01*
X185297162Y-39066414D01*
X185236781Y-38920642D01*
X185206000Y-38765893D01*
X185206000Y-38608107D01*
X185236781Y-38453358D01*
X185297162Y-38307586D01*
X185297163Y-38307584D01*
X185384822Y-38176392D01*
X185496392Y-38064822D01*
X185627584Y-37977163D01*
X185627586Y-37977162D01*
X185773358Y-37916781D01*
X185928107Y-37886000D01*
X186085893Y-37886000D01*
X186240642Y-37916781D01*
X186240642Y-37916781D01*
G37*
G36*
X117660642Y-37916781D02*
G01*
X117806414Y-37977162D01*
X117806416Y-37977163D01*
X117937608Y-38064822D01*
X118049178Y-38176392D01*
X118136837Y-38307584D01*
X118136838Y-38307586D01*
X118197219Y-38453358D01*
X118228000Y-38608107D01*
X118228000Y-38765893D01*
X118197219Y-38920642D01*
X118136838Y-39066414D01*
X118136837Y-39066416D01*
X118049178Y-39197608D01*
X117937608Y-39309178D01*
X117806416Y-39396837D01*
X117806415Y-39396838D01*
X117806414Y-39396838D01*
X117660642Y-39457219D01*
X117505893Y-39488000D01*
X117348107Y-39488000D01*
X117193358Y-39457219D01*
X117047586Y-39396838D01*
X117047585Y-39396838D01*
X117047584Y-39396837D01*
X116916392Y-39309178D01*
X116804822Y-39197608D01*
X116717163Y-39066416D01*
X116717162Y-39066414D01*
X116656781Y-38920642D01*
X116626000Y-38765893D01*
X116626000Y-38608107D01*
X116656781Y-38453358D01*
X116717162Y-38307586D01*
X116717163Y-38307584D01*
X116804822Y-38176392D01*
X116916392Y-38064822D01*
X117047584Y-37977163D01*
X117047586Y-37977162D01*
X117193358Y-37916781D01*
X117348107Y-37886000D01*
X117505893Y-37886000D01*
X117660642Y-37916781D01*
X117660642Y-37916781D01*
G37*
G36*
X106230642Y-37916781D02*
G01*
X106376414Y-37977162D01*
X106376416Y-37977163D01*
X106507608Y-38064822D01*
X106619178Y-38176392D01*
X106706837Y-38307584D01*
X106706838Y-38307586D01*
X106767219Y-38453358D01*
X106798000Y-38608107D01*
X106798000Y-38765893D01*
X106767219Y-38920642D01*
X106706838Y-39066414D01*
X106706837Y-39066416D01*
X106619178Y-39197608D01*
X106507608Y-39309178D01*
X106376416Y-39396837D01*
X106376415Y-39396838D01*
X106376414Y-39396838D01*
X106230642Y-39457219D01*
X106075893Y-39488000D01*
X105918107Y-39488000D01*
X105763358Y-39457219D01*
X105617586Y-39396838D01*
X105617585Y-39396838D01*
X105617584Y-39396837D01*
X105486392Y-39309178D01*
X105374822Y-39197608D01*
X105287163Y-39066416D01*
X105287162Y-39066414D01*
X105226781Y-38920642D01*
X105196000Y-38765893D01*
X105196000Y-38608107D01*
X105226781Y-38453358D01*
X105287162Y-38307586D01*
X105287163Y-38307584D01*
X105374822Y-38176392D01*
X105486392Y-38064822D01*
X105617584Y-37977163D01*
X105617586Y-37977162D01*
X105763358Y-37916781D01*
X105918107Y-37886000D01*
X106075893Y-37886000D01*
X106230642Y-37916781D01*
X106230642Y-37916781D01*
G37*
G36*
X129217642Y-37916781D02*
G01*
X129363414Y-37977162D01*
X129363416Y-37977163D01*
X129494608Y-38064822D01*
X129606178Y-38176392D01*
X129693837Y-38307584D01*
X129693838Y-38307586D01*
X129754219Y-38453358D01*
X129785000Y-38608107D01*
X129785000Y-38765893D01*
X129754219Y-38920642D01*
X129693838Y-39066414D01*
X129693837Y-39066416D01*
X129606178Y-39197608D01*
X129494608Y-39309178D01*
X129363416Y-39396837D01*
X129363415Y-39396838D01*
X129363414Y-39396838D01*
X129217642Y-39457219D01*
X129062893Y-39488000D01*
X128905107Y-39488000D01*
X128750358Y-39457219D01*
X128604586Y-39396838D01*
X128604585Y-39396838D01*
X128604584Y-39396837D01*
X128473392Y-39309178D01*
X128361822Y-39197608D01*
X128274163Y-39066416D01*
X128274162Y-39066414D01*
X128213781Y-38920642D01*
X128183000Y-38765893D01*
X128183000Y-38608107D01*
X128213781Y-38453358D01*
X128274162Y-38307586D01*
X128274163Y-38307584D01*
X128361822Y-38176392D01*
X128473392Y-38064822D01*
X128604584Y-37977163D01*
X128604586Y-37977162D01*
X128750358Y-37916781D01*
X128905107Y-37886000D01*
X129062893Y-37886000D01*
X129217642Y-37916781D01*
X129217642Y-37916781D01*
G37*
G36*
X184589642Y-32297781D02*
G01*
X184735414Y-32358162D01*
X184735416Y-32358163D01*
X184866608Y-32445822D01*
X184978178Y-32557392D01*
X185065837Y-32688584D01*
X185065838Y-32688586D01*
X185126219Y-32834358D01*
X185157000Y-32989107D01*
X185157000Y-33146893D01*
X185126219Y-33301642D01*
X185065838Y-33447414D01*
X185065837Y-33447416D01*
X184978178Y-33578608D01*
X184866608Y-33690178D01*
X184735416Y-33777837D01*
X184735415Y-33777838D01*
X184735414Y-33777838D01*
X184589642Y-33838219D01*
X184434893Y-33869000D01*
X184277107Y-33869000D01*
X184122358Y-33838219D01*
X183976586Y-33777838D01*
X183976585Y-33777838D01*
X183976584Y-33777837D01*
X183845392Y-33690178D01*
X183733822Y-33578608D01*
X183646163Y-33447416D01*
X183646162Y-33447414D01*
X183585781Y-33301642D01*
X183555000Y-33146893D01*
X183555000Y-32989107D01*
X183585781Y-32834358D01*
X183646162Y-32688586D01*
X183646163Y-32688584D01*
X183733822Y-32557392D01*
X183845392Y-32445822D01*
X183976584Y-32358163D01*
X183976586Y-32358162D01*
X184122358Y-32297781D01*
X184277107Y-32267000D01*
X184434893Y-32267000D01*
X184589642Y-32297781D01*
X184589642Y-32297781D01*
G37*
G36*
X182049642Y-32297781D02*
G01*
X182195414Y-32358162D01*
X182195416Y-32358163D01*
X182326608Y-32445822D01*
X182438178Y-32557392D01*
X182525837Y-32688584D01*
X182525838Y-32688586D01*
X182586219Y-32834358D01*
X182617000Y-32989107D01*
X182617000Y-33146893D01*
X182586219Y-33301642D01*
X182525838Y-33447414D01*
X182525837Y-33447416D01*
X182438178Y-33578608D01*
X182326608Y-33690178D01*
X182195416Y-33777837D01*
X182195415Y-33777838D01*
X182195414Y-33777838D01*
X182049642Y-33838219D01*
X181894893Y-33869000D01*
X181737107Y-33869000D01*
X181582358Y-33838219D01*
X181436586Y-33777838D01*
X181436585Y-33777838D01*
X181436584Y-33777837D01*
X181305392Y-33690178D01*
X181193822Y-33578608D01*
X181106163Y-33447416D01*
X181106162Y-33447414D01*
X181045781Y-33301642D01*
X181015000Y-33146893D01*
X181015000Y-32989107D01*
X181045781Y-32834358D01*
X181106162Y-32688586D01*
X181106163Y-32688584D01*
X181193822Y-32557392D01*
X181305392Y-32445822D01*
X181436584Y-32358163D01*
X181436586Y-32358162D01*
X181582358Y-32297781D01*
X181737107Y-32267000D01*
X181894893Y-32267000D01*
X182049642Y-32297781D01*
X182049642Y-32297781D01*
G37*
G36*
X179509642Y-32297781D02*
G01*
X179655414Y-32358162D01*
X179655416Y-32358163D01*
X179786608Y-32445822D01*
X179898178Y-32557392D01*
X179985837Y-32688584D01*
X179985838Y-32688586D01*
X180046219Y-32834358D01*
X180077000Y-32989107D01*
X180077000Y-33146893D01*
X180046219Y-33301642D01*
X179985838Y-33447414D01*
X179985837Y-33447416D01*
X179898178Y-33578608D01*
X179786608Y-33690178D01*
X179655416Y-33777837D01*
X179655415Y-33777838D01*
X179655414Y-33777838D01*
X179509642Y-33838219D01*
X179354893Y-33869000D01*
X179197107Y-33869000D01*
X179042358Y-33838219D01*
X178896586Y-33777838D01*
X178896585Y-33777838D01*
X178896584Y-33777837D01*
X178765392Y-33690178D01*
X178653822Y-33578608D01*
X178566163Y-33447416D01*
X178566162Y-33447414D01*
X178505781Y-33301642D01*
X178475000Y-33146893D01*
X178475000Y-32989107D01*
X178505781Y-32834358D01*
X178566162Y-32688586D01*
X178566163Y-32688584D01*
X178653822Y-32557392D01*
X178765392Y-32445822D01*
X178896584Y-32358163D01*
X178896586Y-32358162D01*
X179042358Y-32297781D01*
X179197107Y-32267000D01*
X179354893Y-32267000D01*
X179509642Y-32297781D01*
X179509642Y-32297781D01*
G37*
G36*
X176969642Y-32297781D02*
G01*
X177115414Y-32358162D01*
X177115416Y-32358163D01*
X177246608Y-32445822D01*
X177358178Y-32557392D01*
X177445837Y-32688584D01*
X177445838Y-32688586D01*
X177506219Y-32834358D01*
X177537000Y-32989107D01*
X177537000Y-33146893D01*
X177506219Y-33301642D01*
X177445838Y-33447414D01*
X177445837Y-33447416D01*
X177358178Y-33578608D01*
X177246608Y-33690178D01*
X177115416Y-33777837D01*
X177115415Y-33777838D01*
X177115414Y-33777838D01*
X176969642Y-33838219D01*
X176814893Y-33869000D01*
X176657107Y-33869000D01*
X176502358Y-33838219D01*
X176356586Y-33777838D01*
X176356585Y-33777838D01*
X176356584Y-33777837D01*
X176225392Y-33690178D01*
X176113822Y-33578608D01*
X176026163Y-33447416D01*
X176026162Y-33447414D01*
X175965781Y-33301642D01*
X175935000Y-33146893D01*
X175935000Y-32989107D01*
X175965781Y-32834358D01*
X176026162Y-32688586D01*
X176026163Y-32688584D01*
X176113822Y-32557392D01*
X176225392Y-32445822D01*
X176356584Y-32358163D01*
X176356586Y-32358162D01*
X176502358Y-32297781D01*
X176657107Y-32267000D01*
X176814893Y-32267000D01*
X176969642Y-32297781D01*
X176969642Y-32297781D01*
G37*
G36*
X108389642Y-32297781D02*
G01*
X108535414Y-32358162D01*
X108535416Y-32358163D01*
X108666608Y-32445822D01*
X108778178Y-32557392D01*
X108865837Y-32688584D01*
X108865838Y-32688586D01*
X108926219Y-32834358D01*
X108957000Y-32989107D01*
X108957000Y-33146893D01*
X108926219Y-33301642D01*
X108865838Y-33447414D01*
X108865837Y-33447416D01*
X108778178Y-33578608D01*
X108666608Y-33690178D01*
X108535416Y-33777837D01*
X108535415Y-33777838D01*
X108535414Y-33777838D01*
X108389642Y-33838219D01*
X108234893Y-33869000D01*
X108077107Y-33869000D01*
X107922358Y-33838219D01*
X107776586Y-33777838D01*
X107776585Y-33777838D01*
X107776584Y-33777837D01*
X107645392Y-33690178D01*
X107533822Y-33578608D01*
X107446163Y-33447416D01*
X107446162Y-33447414D01*
X107385781Y-33301642D01*
X107355000Y-33146893D01*
X107355000Y-32989107D01*
X107385781Y-32834358D01*
X107446162Y-32688586D01*
X107446163Y-32688584D01*
X107533822Y-32557392D01*
X107645392Y-32445822D01*
X107776584Y-32358163D01*
X107776586Y-32358162D01*
X107922358Y-32297781D01*
X108077107Y-32267000D01*
X108234893Y-32267000D01*
X108389642Y-32297781D01*
X108389642Y-32297781D01*
G37*
G36*
X110929642Y-32297781D02*
G01*
X111075414Y-32358162D01*
X111075416Y-32358163D01*
X111206608Y-32445822D01*
X111318178Y-32557392D01*
X111405837Y-32688584D01*
X111405838Y-32688586D01*
X111466219Y-32834358D01*
X111497000Y-32989107D01*
X111497000Y-33146893D01*
X111466219Y-33301642D01*
X111405838Y-33447414D01*
X111405837Y-33447416D01*
X111318178Y-33578608D01*
X111206608Y-33690178D01*
X111075416Y-33777837D01*
X111075415Y-33777838D01*
X111075414Y-33777838D01*
X110929642Y-33838219D01*
X110774893Y-33869000D01*
X110617107Y-33869000D01*
X110462358Y-33838219D01*
X110316586Y-33777838D01*
X110316585Y-33777838D01*
X110316584Y-33777837D01*
X110185392Y-33690178D01*
X110073822Y-33578608D01*
X109986163Y-33447416D01*
X109986162Y-33447414D01*
X109925781Y-33301642D01*
X109895000Y-33146893D01*
X109895000Y-32989107D01*
X109925781Y-32834358D01*
X109986162Y-32688586D01*
X109986163Y-32688584D01*
X110073822Y-32557392D01*
X110185392Y-32445822D01*
X110316584Y-32358163D01*
X110316586Y-32358162D01*
X110462358Y-32297781D01*
X110617107Y-32267000D01*
X110774893Y-32267000D01*
X110929642Y-32297781D01*
X110929642Y-32297781D01*
G37*
G36*
X113469642Y-32297781D02*
G01*
X113615414Y-32358162D01*
X113615416Y-32358163D01*
X113746608Y-32445822D01*
X113858178Y-32557392D01*
X113945837Y-32688584D01*
X113945838Y-32688586D01*
X114006219Y-32834358D01*
X114037000Y-32989107D01*
X114037000Y-33146893D01*
X114006219Y-33301642D01*
X113945838Y-33447414D01*
X113945837Y-33447416D01*
X113858178Y-33578608D01*
X113746608Y-33690178D01*
X113615416Y-33777837D01*
X113615415Y-33777838D01*
X113615414Y-33777838D01*
X113469642Y-33838219D01*
X113314893Y-33869000D01*
X113157107Y-33869000D01*
X113002358Y-33838219D01*
X112856586Y-33777838D01*
X112856585Y-33777838D01*
X112856584Y-33777837D01*
X112725392Y-33690178D01*
X112613822Y-33578608D01*
X112526163Y-33447416D01*
X112526162Y-33447414D01*
X112465781Y-33301642D01*
X112435000Y-33146893D01*
X112435000Y-32989107D01*
X112465781Y-32834358D01*
X112526162Y-32688586D01*
X112526163Y-32688584D01*
X112613822Y-32557392D01*
X112725392Y-32445822D01*
X112856584Y-32358163D01*
X112856586Y-32358162D01*
X113002358Y-32297781D01*
X113157107Y-32267000D01*
X113314893Y-32267000D01*
X113469642Y-32297781D01*
X113469642Y-32297781D01*
G37*
G36*
X131376642Y-32297781D02*
G01*
X131522414Y-32358162D01*
X131522416Y-32358163D01*
X131653608Y-32445822D01*
X131765178Y-32557392D01*
X131852837Y-32688584D01*
X131852838Y-32688586D01*
X131913219Y-32834358D01*
X131944000Y-32989107D01*
X131944000Y-33146893D01*
X131913219Y-33301642D01*
X131852838Y-33447414D01*
X131852837Y-33447416D01*
X131765178Y-33578608D01*
X131653608Y-33690178D01*
X131522416Y-33777837D01*
X131522415Y-33777838D01*
X131522414Y-33777838D01*
X131376642Y-33838219D01*
X131221893Y-33869000D01*
X131064107Y-33869000D01*
X130909358Y-33838219D01*
X130763586Y-33777838D01*
X130763585Y-33777838D01*
X130763584Y-33777837D01*
X130632392Y-33690178D01*
X130520822Y-33578608D01*
X130433163Y-33447416D01*
X130433162Y-33447414D01*
X130372781Y-33301642D01*
X130342000Y-33146893D01*
X130342000Y-32989107D01*
X130372781Y-32834358D01*
X130433162Y-32688586D01*
X130433163Y-32688584D01*
X130520822Y-32557392D01*
X130632392Y-32445822D01*
X130763584Y-32358163D01*
X130763586Y-32358162D01*
X130909358Y-32297781D01*
X131064107Y-32267000D01*
X131221893Y-32267000D01*
X131376642Y-32297781D01*
X131376642Y-32297781D01*
G37*
G36*
X133916642Y-32297781D02*
G01*
X134062414Y-32358162D01*
X134062416Y-32358163D01*
X134193608Y-32445822D01*
X134305178Y-32557392D01*
X134392837Y-32688584D01*
X134392838Y-32688586D01*
X134453219Y-32834358D01*
X134484000Y-32989107D01*
X134484000Y-33146893D01*
X134453219Y-33301642D01*
X134392838Y-33447414D01*
X134392837Y-33447416D01*
X134305178Y-33578608D01*
X134193608Y-33690178D01*
X134062416Y-33777837D01*
X134062415Y-33777838D01*
X134062414Y-33777838D01*
X133916642Y-33838219D01*
X133761893Y-33869000D01*
X133604107Y-33869000D01*
X133449358Y-33838219D01*
X133303586Y-33777838D01*
X133303585Y-33777838D01*
X133303584Y-33777837D01*
X133172392Y-33690178D01*
X133060822Y-33578608D01*
X132973163Y-33447416D01*
X132973162Y-33447414D01*
X132912781Y-33301642D01*
X132882000Y-33146893D01*
X132882000Y-32989107D01*
X132912781Y-32834358D01*
X132973162Y-32688586D01*
X132973163Y-32688584D01*
X133060822Y-32557392D01*
X133172392Y-32445822D01*
X133303584Y-32358163D01*
X133303586Y-32358162D01*
X133449358Y-32297781D01*
X133604107Y-32267000D01*
X133761893Y-32267000D01*
X133916642Y-32297781D01*
X133916642Y-32297781D01*
G37*
G36*
X136456642Y-32297781D02*
G01*
X136602414Y-32358162D01*
X136602416Y-32358163D01*
X136733608Y-32445822D01*
X136845178Y-32557392D01*
X136932837Y-32688584D01*
X136932838Y-32688586D01*
X136993219Y-32834358D01*
X137024000Y-32989107D01*
X137024000Y-33146893D01*
X136993219Y-33301642D01*
X136932838Y-33447414D01*
X136932837Y-33447416D01*
X136845178Y-33578608D01*
X136733608Y-33690178D01*
X136602416Y-33777837D01*
X136602415Y-33777838D01*
X136602414Y-33777838D01*
X136456642Y-33838219D01*
X136301893Y-33869000D01*
X136144107Y-33869000D01*
X135989358Y-33838219D01*
X135843586Y-33777838D01*
X135843585Y-33777838D01*
X135843584Y-33777837D01*
X135712392Y-33690178D01*
X135600822Y-33578608D01*
X135513163Y-33447416D01*
X135513162Y-33447414D01*
X135452781Y-33301642D01*
X135422000Y-33146893D01*
X135422000Y-32989107D01*
X135452781Y-32834358D01*
X135513162Y-32688586D01*
X135513163Y-32688584D01*
X135600822Y-32557392D01*
X135712392Y-32445822D01*
X135843584Y-32358163D01*
X135843586Y-32358162D01*
X135989358Y-32297781D01*
X136144107Y-32267000D01*
X136301893Y-32267000D01*
X136456642Y-32297781D01*
X136456642Y-32297781D01*
G37*
G36*
X138996642Y-32297781D02*
G01*
X139142414Y-32358162D01*
X139142416Y-32358163D01*
X139273608Y-32445822D01*
X139385178Y-32557392D01*
X139472837Y-32688584D01*
X139472838Y-32688586D01*
X139533219Y-32834358D01*
X139564000Y-32989107D01*
X139564000Y-33146893D01*
X139533219Y-33301642D01*
X139472838Y-33447414D01*
X139472837Y-33447416D01*
X139385178Y-33578608D01*
X139273608Y-33690178D01*
X139142416Y-33777837D01*
X139142415Y-33777838D01*
X139142414Y-33777838D01*
X138996642Y-33838219D01*
X138841893Y-33869000D01*
X138684107Y-33869000D01*
X138529358Y-33838219D01*
X138383586Y-33777838D01*
X138383585Y-33777838D01*
X138383584Y-33777837D01*
X138252392Y-33690178D01*
X138140822Y-33578608D01*
X138053163Y-33447416D01*
X138053162Y-33447414D01*
X137992781Y-33301642D01*
X137962000Y-33146893D01*
X137962000Y-32989107D01*
X137992781Y-32834358D01*
X138053162Y-32688586D01*
X138053163Y-32688584D01*
X138140822Y-32557392D01*
X138252392Y-32445822D01*
X138383584Y-32358163D01*
X138383586Y-32358162D01*
X138529358Y-32297781D01*
X138684107Y-32267000D01*
X138841893Y-32267000D01*
X138996642Y-32297781D01*
X138996642Y-32297781D01*
G37*
G36*
X154236642Y-32297781D02*
G01*
X154382414Y-32358162D01*
X154382416Y-32358163D01*
X154513608Y-32445822D01*
X154625178Y-32557392D01*
X154712837Y-32688584D01*
X154712838Y-32688586D01*
X154773219Y-32834358D01*
X154804000Y-32989107D01*
X154804000Y-33146893D01*
X154773219Y-33301642D01*
X154712838Y-33447414D01*
X154712837Y-33447416D01*
X154625178Y-33578608D01*
X154513608Y-33690178D01*
X154382416Y-33777837D01*
X154382415Y-33777838D01*
X154382414Y-33777838D01*
X154236642Y-33838219D01*
X154081893Y-33869000D01*
X153924107Y-33869000D01*
X153769358Y-33838219D01*
X153623586Y-33777838D01*
X153623585Y-33777838D01*
X153623584Y-33777837D01*
X153492392Y-33690178D01*
X153380822Y-33578608D01*
X153293163Y-33447416D01*
X153293162Y-33447414D01*
X153232781Y-33301642D01*
X153202000Y-33146893D01*
X153202000Y-32989107D01*
X153232781Y-32834358D01*
X153293162Y-32688586D01*
X153293163Y-32688584D01*
X153380822Y-32557392D01*
X153492392Y-32445822D01*
X153623584Y-32358163D01*
X153623586Y-32358162D01*
X153769358Y-32297781D01*
X153924107Y-32267000D01*
X154081893Y-32267000D01*
X154236642Y-32297781D01*
X154236642Y-32297781D01*
G37*
G36*
X156776642Y-32297781D02*
G01*
X156922414Y-32358162D01*
X156922416Y-32358163D01*
X157053608Y-32445822D01*
X157165178Y-32557392D01*
X157252837Y-32688584D01*
X157252838Y-32688586D01*
X157313219Y-32834358D01*
X157344000Y-32989107D01*
X157344000Y-33146893D01*
X157313219Y-33301642D01*
X157252838Y-33447414D01*
X157252837Y-33447416D01*
X157165178Y-33578608D01*
X157053608Y-33690178D01*
X156922416Y-33777837D01*
X156922415Y-33777838D01*
X156922414Y-33777838D01*
X156776642Y-33838219D01*
X156621893Y-33869000D01*
X156464107Y-33869000D01*
X156309358Y-33838219D01*
X156163586Y-33777838D01*
X156163585Y-33777838D01*
X156163584Y-33777837D01*
X156032392Y-33690178D01*
X155920822Y-33578608D01*
X155833163Y-33447416D01*
X155833162Y-33447414D01*
X155772781Y-33301642D01*
X155742000Y-33146893D01*
X155742000Y-32989107D01*
X155772781Y-32834358D01*
X155833162Y-32688586D01*
X155833163Y-32688584D01*
X155920822Y-32557392D01*
X156032392Y-32445822D01*
X156163584Y-32358163D01*
X156163586Y-32358162D01*
X156309358Y-32297781D01*
X156464107Y-32267000D01*
X156621893Y-32267000D01*
X156776642Y-32297781D01*
X156776642Y-32297781D01*
G37*
G36*
X159316642Y-32297781D02*
G01*
X159462414Y-32358162D01*
X159462416Y-32358163D01*
X159593608Y-32445822D01*
X159705178Y-32557392D01*
X159792837Y-32688584D01*
X159792838Y-32688586D01*
X159853219Y-32834358D01*
X159884000Y-32989107D01*
X159884000Y-33146893D01*
X159853219Y-33301642D01*
X159792838Y-33447414D01*
X159792837Y-33447416D01*
X159705178Y-33578608D01*
X159593608Y-33690178D01*
X159462416Y-33777837D01*
X159462415Y-33777838D01*
X159462414Y-33777838D01*
X159316642Y-33838219D01*
X159161893Y-33869000D01*
X159004107Y-33869000D01*
X158849358Y-33838219D01*
X158703586Y-33777838D01*
X158703585Y-33777838D01*
X158703584Y-33777837D01*
X158572392Y-33690178D01*
X158460822Y-33578608D01*
X158373163Y-33447416D01*
X158373162Y-33447414D01*
X158312781Y-33301642D01*
X158282000Y-33146893D01*
X158282000Y-32989107D01*
X158312781Y-32834358D01*
X158373162Y-32688586D01*
X158373163Y-32688584D01*
X158460822Y-32557392D01*
X158572392Y-32445822D01*
X158703584Y-32358163D01*
X158703586Y-32358162D01*
X158849358Y-32297781D01*
X159004107Y-32267000D01*
X159161893Y-32267000D01*
X159316642Y-32297781D01*
X159316642Y-32297781D01*
G37*
G36*
X116009642Y-32297781D02*
G01*
X116155414Y-32358162D01*
X116155416Y-32358163D01*
X116286608Y-32445822D01*
X116398178Y-32557392D01*
X116485837Y-32688584D01*
X116485838Y-32688586D01*
X116546219Y-32834358D01*
X116577000Y-32989107D01*
X116577000Y-33146893D01*
X116546219Y-33301642D01*
X116485838Y-33447414D01*
X116485837Y-33447416D01*
X116398178Y-33578608D01*
X116286608Y-33690178D01*
X116155416Y-33777837D01*
X116155415Y-33777838D01*
X116155414Y-33777838D01*
X116009642Y-33838219D01*
X115854893Y-33869000D01*
X115697107Y-33869000D01*
X115542358Y-33838219D01*
X115396586Y-33777838D01*
X115396585Y-33777838D01*
X115396584Y-33777837D01*
X115265392Y-33690178D01*
X115153822Y-33578608D01*
X115066163Y-33447416D01*
X115066162Y-33447414D01*
X115005781Y-33301642D01*
X114975000Y-33146893D01*
X114975000Y-32989107D01*
X115005781Y-32834358D01*
X115066162Y-32688586D01*
X115066163Y-32688584D01*
X115153822Y-32557392D01*
X115265392Y-32445822D01*
X115396584Y-32358163D01*
X115396586Y-32358162D01*
X115542358Y-32297781D01*
X115697107Y-32267000D01*
X115854893Y-32267000D01*
X116009642Y-32297781D01*
X116009642Y-32297781D01*
G37*
G36*
X161856642Y-32297781D02*
G01*
X162002414Y-32358162D01*
X162002416Y-32358163D01*
X162133608Y-32445822D01*
X162245178Y-32557392D01*
X162332837Y-32688584D01*
X162332838Y-32688586D01*
X162393219Y-32834358D01*
X162424000Y-32989107D01*
X162424000Y-33146893D01*
X162393219Y-33301642D01*
X162332838Y-33447414D01*
X162332837Y-33447416D01*
X162245178Y-33578608D01*
X162133608Y-33690178D01*
X162002416Y-33777837D01*
X162002415Y-33777838D01*
X162002414Y-33777838D01*
X161856642Y-33838219D01*
X161701893Y-33869000D01*
X161544107Y-33869000D01*
X161389358Y-33838219D01*
X161243586Y-33777838D01*
X161243585Y-33777838D01*
X161243584Y-33777837D01*
X161112392Y-33690178D01*
X161000822Y-33578608D01*
X160913163Y-33447416D01*
X160913162Y-33447414D01*
X160852781Y-33301642D01*
X160822000Y-33146893D01*
X160822000Y-32989107D01*
X160852781Y-32834358D01*
X160913162Y-32688586D01*
X160913163Y-32688584D01*
X161000822Y-32557392D01*
X161112392Y-32445822D01*
X161243584Y-32358163D01*
X161243586Y-32358162D01*
X161389358Y-32297781D01*
X161544107Y-32267000D01*
X161701893Y-32267000D01*
X161856642Y-32297781D01*
X161856642Y-32297781D01*
G37*
M02*
