G04 #@! TF.GenerationSoftware,KiCad,Pcbnew,(5.1.4)-1*
G04 #@! TF.CreationDate,2019-12-01T11:28:44-05:00*
G04 #@! TF.ProjectId,bob_ws2811_driver,626f625f-7773-4323-9831-315f64726976,rev?*
G04 #@! TF.SameCoordinates,Original*
G04 #@! TF.FileFunction,Copper,L2,Bot*
G04 #@! TF.FilePolarity,Positive*
%FSLAX46Y46*%
G04 Gerber Fmt 4.6, Leading zero omitted, Abs format (unit mm)*
G04 Created by KiCad (PCBNEW (5.1.4)-1) date 2019-12-01 11:28:44*
%MOMM*%
%LPD*%
G04 APERTURE LIST*
%ADD10R,2.000000X0.899160*%
%ADD11C,1.500000*%
%ADD12C,0.250000*%
G04 APERTURE END LIST*
D10*
X109633000Y-52946300D03*
X109633000Y-51447700D03*
X113633000Y-51447700D03*
X113633000Y-52946300D03*
D11*
X115522000Y-56690000D03*
X112982000Y-56690000D03*
X110442000Y-56690000D03*
X107902000Y-56690000D03*
X105743000Y-69929000D03*
X105743000Y-67389000D03*
X105743000Y-64849000D03*
X105743000Y-62309000D03*
X117173000Y-62309000D03*
X117173000Y-64849000D03*
X117173000Y-67389000D03*
X117173000Y-69929000D03*
D10*
X136620000Y-53073300D03*
X136620000Y-51574700D03*
X132620000Y-51574700D03*
X132620000Y-53073300D03*
D11*
X130889000Y-56817000D03*
X133429000Y-56817000D03*
X135969000Y-56817000D03*
X138509000Y-56817000D03*
X128730000Y-62436000D03*
X128730000Y-64976000D03*
X128730000Y-67516000D03*
X128730000Y-70056000D03*
X140160000Y-70056000D03*
X140160000Y-67516000D03*
X140160000Y-64976000D03*
X140160000Y-62436000D03*
X161369000Y-56944000D03*
X158829000Y-56944000D03*
X156289000Y-56944000D03*
X153749000Y-56944000D03*
X151590000Y-70183000D03*
X151590000Y-67643000D03*
X151590000Y-65103000D03*
X151590000Y-62563000D03*
X163020000Y-62563000D03*
X163020000Y-65103000D03*
X163020000Y-67643000D03*
X163020000Y-70183000D03*
D10*
X155480000Y-53200300D03*
X155480000Y-51701700D03*
X159480000Y-51701700D03*
X159480000Y-53200300D03*
D11*
X185880000Y-70310000D03*
X185880000Y-67770000D03*
X185880000Y-65230000D03*
X185880000Y-62690000D03*
D10*
X182340000Y-53327300D03*
X182340000Y-51828700D03*
X178340000Y-51828700D03*
X178340000Y-53327300D03*
D11*
X174450000Y-62690000D03*
X174450000Y-65230000D03*
X174450000Y-67770000D03*
X174450000Y-70310000D03*
X176609000Y-57071000D03*
X179149000Y-57071000D03*
X181689000Y-57071000D03*
X184229000Y-57071000D03*
X186007000Y-38687000D03*
X186007000Y-41227000D03*
X186007000Y-43767000D03*
X186007000Y-46307000D03*
D10*
X178467000Y-29324300D03*
X178467000Y-27825700D03*
X182467000Y-27825700D03*
X182467000Y-29324300D03*
D11*
X184356000Y-33068000D03*
X181816000Y-33068000D03*
X179276000Y-33068000D03*
X176736000Y-33068000D03*
X174577000Y-46307000D03*
X174577000Y-43767000D03*
X174577000Y-41227000D03*
X174577000Y-38687000D03*
X154003000Y-33068000D03*
X156543000Y-33068000D03*
X159083000Y-33068000D03*
X161623000Y-33068000D03*
D10*
X159734000Y-29324300D03*
X159734000Y-27825700D03*
X155734000Y-27825700D03*
X155734000Y-29324300D03*
D11*
X151844000Y-38687000D03*
X151844000Y-41227000D03*
X151844000Y-43767000D03*
X151844000Y-46307000D03*
X163274000Y-46307000D03*
X163274000Y-43767000D03*
X163274000Y-41227000D03*
X163274000Y-38687000D03*
D10*
X132874000Y-29324300D03*
X132874000Y-27825700D03*
X136874000Y-27825700D03*
X136874000Y-29324300D03*
D11*
X128984000Y-46307000D03*
X128984000Y-43767000D03*
X128984000Y-41227000D03*
X128984000Y-38687000D03*
X140414000Y-38687000D03*
X140414000Y-41227000D03*
X140414000Y-43767000D03*
X140414000Y-46307000D03*
X138763000Y-33068000D03*
X136223000Y-33068000D03*
X133683000Y-33068000D03*
X131143000Y-33068000D03*
X117427000Y-46307000D03*
X117427000Y-43767000D03*
X117427000Y-41227000D03*
X117427000Y-38687000D03*
X105997000Y-38687000D03*
X105997000Y-41227000D03*
X105997000Y-43767000D03*
X105997000Y-46307000D03*
D10*
X113887000Y-29324300D03*
X113887000Y-27825700D03*
X109887000Y-27825700D03*
X109887000Y-29324300D03*
D11*
X108156000Y-33068000D03*
X110696000Y-33068000D03*
X113236000Y-33068000D03*
X115776000Y-33068000D03*
D12*
X108156000Y-33068000D02*
X108156000Y-28242000D01*
X108572300Y-27825700D02*
X109626400Y-27825700D01*
X108156000Y-28242000D02*
X108572300Y-27825700D01*
X110696000Y-30393900D02*
X109626400Y-29324300D01*
X110696000Y-33068000D02*
X110696000Y-30393900D01*
X113236000Y-30235900D02*
X114147600Y-29324300D01*
X113236000Y-33068000D02*
X113236000Y-30235900D01*
X115776000Y-33068000D02*
X115776000Y-28273000D01*
X115328700Y-27825700D02*
X114147600Y-27825700D01*
X115776000Y-28273000D02*
X115328700Y-27825700D01*
X138315700Y-27825700D02*
X137134600Y-27825700D01*
X138763000Y-33068000D02*
X138763000Y-28273000D01*
X138763000Y-28273000D02*
X138315700Y-27825700D01*
X133683000Y-33068000D02*
X133683000Y-30393900D01*
X136223000Y-33068000D02*
X136223000Y-30235900D01*
X133683000Y-30393900D02*
X132613400Y-29324300D01*
X136223000Y-30235900D02*
X137134600Y-29324300D01*
X131559300Y-27825700D02*
X132613400Y-27825700D01*
X131143000Y-33068000D02*
X131143000Y-28242000D01*
X131143000Y-28242000D02*
X131559300Y-27825700D01*
X159083000Y-33068000D02*
X159083000Y-30235900D01*
X154419300Y-27825700D02*
X155473400Y-27825700D01*
X161623000Y-33068000D02*
X161623000Y-28273000D01*
X154003000Y-33068000D02*
X154003000Y-28242000D01*
X154003000Y-28242000D02*
X154419300Y-27825700D01*
X161175700Y-27825700D02*
X159994600Y-27825700D01*
X156543000Y-33068000D02*
X156543000Y-30393900D01*
X156543000Y-30393900D02*
X155473400Y-29324300D01*
X161623000Y-28273000D02*
X161175700Y-27825700D01*
X159083000Y-30235900D02*
X159994600Y-29324300D01*
X184356000Y-33068000D02*
X184356000Y-28273000D01*
X177152300Y-27825700D02*
X178206400Y-27825700D01*
X176736000Y-33068000D02*
X176736000Y-28242000D01*
X183908700Y-27825700D02*
X182727600Y-27825700D01*
X179276000Y-33068000D02*
X179276000Y-30393900D01*
X179276000Y-30393900D02*
X178206400Y-29324300D01*
X181816000Y-33068000D02*
X181816000Y-30235900D01*
X176736000Y-28242000D02*
X177152300Y-27825700D01*
X184356000Y-28273000D02*
X183908700Y-27825700D01*
X181816000Y-30235900D02*
X182727600Y-29324300D01*
X177025300Y-51828700D02*
X178079400Y-51828700D01*
X184229000Y-57071000D02*
X184229000Y-52276000D01*
X183781700Y-51828700D02*
X182600600Y-51828700D01*
X179149000Y-54396900D02*
X178079400Y-53327300D01*
X176609000Y-57071000D02*
X176609000Y-52245000D01*
X181689000Y-57071000D02*
X181689000Y-54238900D01*
X176609000Y-52245000D02*
X177025300Y-51828700D01*
X181689000Y-54238900D02*
X182600600Y-53327300D01*
X179149000Y-57071000D02*
X179149000Y-54396900D01*
X184229000Y-52276000D02*
X183781700Y-51828700D01*
X161369000Y-52149000D02*
X160921700Y-51701700D01*
X154165300Y-51701700D02*
X155219400Y-51701700D01*
X156289000Y-56944000D02*
X156289000Y-54269900D01*
X158829000Y-56944000D02*
X158829000Y-54111900D01*
X160921700Y-51701700D02*
X159740600Y-51701700D01*
X153749000Y-52118000D02*
X154165300Y-51701700D01*
X158829000Y-54111900D02*
X159740600Y-53200300D01*
X153749000Y-56944000D02*
X153749000Y-52118000D01*
X156289000Y-54269900D02*
X155219400Y-53200300D01*
X161369000Y-56944000D02*
X161369000Y-52149000D01*
X130889000Y-56817000D02*
X130889000Y-51991000D01*
X130889000Y-51991000D02*
X131305300Y-51574700D01*
X133429000Y-54142900D02*
X132359400Y-53073300D01*
X131305300Y-51574700D02*
X132359400Y-51574700D01*
X135969000Y-53984900D02*
X136880600Y-53073300D01*
X133429000Y-56817000D02*
X133429000Y-54142900D01*
X135969000Y-56817000D02*
X135969000Y-53984900D01*
X138061700Y-51574700D02*
X136880600Y-51574700D01*
X138509000Y-56817000D02*
X138509000Y-52022000D01*
X138509000Y-52022000D02*
X138061700Y-51574700D01*
X108318300Y-51447700D02*
X109372400Y-51447700D01*
X112982000Y-53857900D02*
X113893600Y-52946300D01*
X110442000Y-56690000D02*
X110442000Y-54015900D01*
X112982000Y-56690000D02*
X112982000Y-53857900D01*
X115074700Y-51447700D02*
X113893600Y-51447700D01*
X115522000Y-56690000D02*
X115522000Y-51895000D01*
X107902000Y-56690000D02*
X107902000Y-51864000D01*
X107902000Y-51864000D02*
X108318300Y-51447700D01*
X110442000Y-54015900D02*
X109372400Y-52946300D01*
X115522000Y-51895000D02*
X115074700Y-51447700D01*
M02*
