M48
; DRILL file {KiCad (5.1.4)-1} date 12/1/2019 11:28:50 AM
; FORMAT={-:-/ absolute / inch / decimal}
; #@! TF.CreationDate,2019-12-01T11:28:50-05:00
; #@! TF.GenerationSoftware,Kicad,Pcbnew,(5.1.4)-1
; #@! TF.FileFunction,Plated,1,2,PTH
FMAT,2
INCH
T1C0.0315
%
G90
G05
T1
X4.6231Y-1.5231
X4.6231Y-1.6231
X4.6231Y-1.7231
X4.6231Y-1.8231
X4.1631Y-2.4531
X4.1631Y-2.5531
X4.1631Y-2.6531
X4.1631Y-2.7531
X5.1531Y-2.2369
X5.2531Y-2.2369
X5.3531Y-2.2369
X5.4531Y-2.2369
X6.8681Y-2.4681
X6.8681Y-2.5681
X6.8681Y-2.6681
X6.8681Y-2.7681
X4.6131Y-2.4531
X4.6131Y-2.5531
X4.6131Y-2.6531
X4.6131Y-2.7531
X6.8731Y-1.5231
X6.8731Y-1.6231
X6.8731Y-1.7231
X6.8731Y-1.8231
X5.9681Y-2.4631
X5.9681Y-2.5631
X5.9681Y-2.6631
X5.9681Y-2.7631
X7.3231Y-1.5231
X7.3231Y-1.6231
X7.3231Y-1.7231
X7.3231Y-1.8231
X5.5181Y-2.4581
X5.5181Y-2.5581
X5.5181Y-2.6581
X5.5181Y-2.7581
X4.2481Y-2.2319
X4.3481Y-2.2319
X4.4481Y-2.2319
X4.5481Y-2.2319
X7.3181Y-2.4681
X7.3181Y-2.5681
X7.3181Y-2.6681
X7.3181Y-2.7681
X5.9781Y-1.5231
X5.9781Y-1.6231
X5.9781Y-1.7231
X5.9781Y-1.8231
X5.1631Y-1.3019
X5.2631Y-1.3019
X5.3631Y-1.3019
X5.4631Y-1.3019
X6.4181Y-2.4631
X6.4181Y-2.5631
X6.4181Y-2.6631
X6.4181Y-2.7631
X5.0781Y-1.5231
X5.0781Y-1.6231
X5.0781Y-1.7231
X5.0781Y-1.8231
X4.1731Y-1.5231
X4.1731Y-1.6231
X4.1731Y-1.7231
X4.1731Y-1.8231
X6.4281Y-1.5231
X6.4281Y-1.6231
X6.4281Y-1.7231
X6.4281Y-1.8231
X6.9581Y-1.3019
X7.0581Y-1.3019
X7.1581Y-1.3019
X7.2581Y-1.3019
X6.0531Y-2.2419
X6.1531Y-2.2419
X6.2531Y-2.2419
X6.3531Y-2.2419
X5.0681Y-2.4581
X5.0681Y-2.5581
X5.0681Y-2.6581
X5.0681Y-2.7581
X6.0631Y-1.3019
X6.1631Y-1.3019
X6.2631Y-1.3019
X6.3631Y-1.3019
X4.2581Y-1.3019
X4.3581Y-1.3019
X4.4581Y-1.3019
X4.5581Y-1.3019
X5.5281Y-1.5231
X5.5281Y-1.6231
X5.5281Y-1.7231
X5.5281Y-1.8231
X6.9531Y-2.2469
X7.0531Y-2.2469
X7.1531Y-2.2469
X7.2531Y-2.2469
T0
M30
