M48
; DRILL file {KiCad (5.1.4)-1} date 2/1/2020 11:21:36 AM
; FORMAT={-:-/ absolute / inch / decimal}
; #@! TF.CreationDate,2020-02-01T11:21:36-05:00
; #@! TF.GenerationSoftware,Kicad,Pcbnew,(5.1.4)-1
; #@! TF.FileFunction,Plated,1,2,PTH
FMAT,2
INCH
T1C0.0315
%
G90
G05
T1
X5.1581Y-2.2019
X5.2581Y-2.2019
X5.3581Y-2.2019
X5.4581Y-2.2019
X5.5231Y-1.5231
X5.5231Y-1.6231
X5.5231Y-1.7231
X5.5231Y-1.8231
X6.0581Y-2.2019
X6.1581Y-2.2019
X6.2581Y-2.2019
X6.3581Y-2.2019
X4.1731Y-1.5231
X4.1731Y-1.6231
X4.1731Y-1.7231
X4.1731Y-1.8231
X6.8731Y-2.4231
X6.8731Y-2.5231
X6.8731Y-2.6231
X6.8731Y-2.7231
X5.1581Y-1.3019
X5.2581Y-1.3019
X5.3581Y-1.3019
X5.4581Y-1.3019
X4.1731Y-2.4231
X4.1731Y-2.5231
X4.1731Y-2.6231
X4.1731Y-2.7231
X6.4231Y-2.4231
X6.4231Y-2.5231
X6.4231Y-2.6231
X6.4231Y-2.7231
X7.3231Y-2.4231
X7.3231Y-2.5231
X7.3231Y-2.6231
X7.3231Y-2.7231
X4.2581Y-1.3019
X4.3581Y-1.3019
X4.4581Y-1.3019
X4.5581Y-1.3019
X5.0731Y-2.4231
X5.0731Y-2.5231
X5.0731Y-2.6231
X5.0731Y-2.7231
X4.6231Y-1.5231
X4.6231Y-1.6231
X4.6231Y-1.7231
X4.6231Y-1.8231
X7.3231Y-1.5231
X7.3231Y-1.6231
X7.3231Y-1.7231
X7.3231Y-1.8231
X4.2581Y-2.2019
X4.3581Y-2.2019
X4.4581Y-2.2019
X4.5581Y-2.2019
X6.4231Y-1.5231
X6.4231Y-1.6231
X6.4231Y-1.7231
X6.4231Y-1.8231
X6.8731Y-1.5231
X6.8731Y-1.6231
X6.8731Y-1.7231
X6.8731Y-1.8231
X5.5231Y-2.4231
X5.5231Y-2.5231
X5.5231Y-2.6231
X5.5231Y-2.7231
X5.9731Y-1.5231
X5.9731Y-1.6231
X5.9731Y-1.7231
X5.9731Y-1.8231
X5.0731Y-1.5231
X5.0731Y-1.6231
X5.0731Y-1.7231
X5.0731Y-1.8231
X4.6231Y-2.4231
X4.6231Y-2.5231
X4.6231Y-2.6231
X4.6231Y-2.7231
X6.9581Y-1.3019
X7.0581Y-1.3019
X7.1581Y-1.3019
X7.2581Y-1.3019
X5.9731Y-2.4231
X5.9731Y-2.5231
X5.9731Y-2.6231
X5.9731Y-2.7231
X6.0581Y-1.3019
X6.1581Y-1.3019
X6.2581Y-1.3019
X6.3581Y-1.3019
X6.9581Y-2.2019
X7.0581Y-2.2019
X7.1581Y-2.2019
X7.2581Y-2.2019
T0
M30
