G04 #@! TF.GenerationSoftware,KiCad,Pcbnew,(5.1.4)-1*
G04 #@! TF.CreationDate,2020-02-01T11:21:23-05:00*
G04 #@! TF.ProjectId,bob_ws2811_driver,626f625f-7773-4323-9831-315f64726976,rev?*
G04 #@! TF.SameCoordinates,Original*
G04 #@! TF.FileFunction,Legend,Bot*
G04 #@! TF.FilePolarity,Positive*
%FSLAX46Y46*%
G04 Gerber Fmt 4.6, Leading zero omitted, Abs format (unit mm)*
G04 Created by KiCad (PCBNEW (5.1.4)-1) date 2020-02-01 11:21:23*
%MOMM*%
%LPD*%
G04 APERTURE LIST*
%ADD10C,0.127000*%
G04 APERTURE END LIST*
D10*
X110289340Y-52834540D02*
X113484660Y-52834540D01*
X113484660Y-50035460D02*
X110289340Y-50035460D01*
X110289340Y-51285140D02*
X110289340Y-51534060D01*
X113484660Y-51285140D02*
X113484660Y-51584860D01*
X113484660Y-50035460D02*
X113484660Y-50086260D01*
X113484660Y-52834540D02*
X113484660Y-52783740D01*
X110289340Y-50035460D02*
X110289340Y-50086260D01*
X110289340Y-52834540D02*
X110289340Y-52783740D01*
X113896140Y-53263800D02*
X113903760Y-53200300D01*
X113903760Y-53200300D02*
X113929160Y-53141880D01*
X113929160Y-53141880D02*
X113967260Y-53091080D01*
X113967260Y-53091080D02*
X114018060Y-53050440D01*
X114018060Y-53050440D02*
X114076480Y-53027580D01*
X114076480Y-53027580D02*
X114142520Y-53019960D01*
X114142520Y-53019960D02*
X114206020Y-53027580D01*
X114206020Y-53027580D02*
X114269520Y-53052980D01*
X114269520Y-53052980D02*
X114320320Y-53093620D01*
X114320320Y-53093620D02*
X114360960Y-53146960D01*
X114360960Y-53146960D02*
X114386360Y-53207920D01*
X114386360Y-53207920D02*
X114396520Y-53273960D01*
X114396520Y-53273960D02*
X114386360Y-53337460D01*
X114386360Y-53337460D02*
X114363500Y-53395880D01*
X114363500Y-53395880D02*
X114322860Y-53446680D01*
X114322860Y-53446680D02*
X114272060Y-53484780D01*
X114272060Y-53484780D02*
X114213640Y-53510180D01*
X114213640Y-53510180D02*
X114150140Y-53517800D01*
X114150140Y-53517800D02*
X114084100Y-53510180D01*
X114084100Y-53510180D02*
X114023140Y-53484780D01*
X114023140Y-53484780D02*
X113969800Y-53444140D01*
X113969800Y-53444140D02*
X113929160Y-53390800D01*
X113929160Y-53390800D02*
X113903760Y-53329840D01*
X113903760Y-53329840D02*
X113896140Y-53263800D01*
X136763760Y-53329840D02*
X136756140Y-53263800D01*
X136789160Y-53390800D02*
X136763760Y-53329840D01*
X136829800Y-53444140D02*
X136789160Y-53390800D01*
X136883140Y-53484780D02*
X136829800Y-53444140D01*
X136944100Y-53510180D02*
X136883140Y-53484780D01*
X137010140Y-53517800D02*
X136944100Y-53510180D01*
X137073640Y-53510180D02*
X137010140Y-53517800D01*
X137132060Y-53484780D02*
X137073640Y-53510180D01*
X137182860Y-53446680D02*
X137132060Y-53484780D01*
X137223500Y-53395880D02*
X137182860Y-53446680D01*
X137246360Y-53337460D02*
X137223500Y-53395880D01*
X137256520Y-53273960D02*
X137246360Y-53337460D01*
X137246360Y-53207920D02*
X137256520Y-53273960D01*
X137220960Y-53146960D02*
X137246360Y-53207920D01*
X137180320Y-53093620D02*
X137220960Y-53146960D01*
X137129520Y-53052980D02*
X137180320Y-53093620D01*
X137066020Y-53027580D02*
X137129520Y-53052980D01*
X137002520Y-53019960D02*
X137066020Y-53027580D01*
X136936480Y-53027580D02*
X137002520Y-53019960D01*
X136878060Y-53050440D02*
X136936480Y-53027580D01*
X136827260Y-53091080D02*
X136878060Y-53050440D01*
X136789160Y-53141880D02*
X136827260Y-53091080D01*
X136763760Y-53200300D02*
X136789160Y-53141880D01*
X136756140Y-53263800D02*
X136763760Y-53200300D01*
X133149340Y-52834540D02*
X133149340Y-52783740D01*
X133149340Y-50035460D02*
X133149340Y-50086260D01*
X136344660Y-52834540D02*
X136344660Y-52783740D01*
X136344660Y-50035460D02*
X136344660Y-50086260D01*
X136344660Y-51285140D02*
X136344660Y-51584860D01*
X133149340Y-51285140D02*
X133149340Y-51534060D01*
X136344660Y-50035460D02*
X133149340Y-50035460D01*
X133149340Y-52834540D02*
X136344660Y-52834540D01*
X156009340Y-52834540D02*
X159204660Y-52834540D01*
X159204660Y-50035460D02*
X156009340Y-50035460D01*
X156009340Y-51285140D02*
X156009340Y-51534060D01*
X159204660Y-51285140D02*
X159204660Y-51584860D01*
X159204660Y-50035460D02*
X159204660Y-50086260D01*
X159204660Y-52834540D02*
X159204660Y-52783740D01*
X156009340Y-50035460D02*
X156009340Y-50086260D01*
X156009340Y-52834540D02*
X156009340Y-52783740D01*
X159616140Y-53263800D02*
X159623760Y-53200300D01*
X159623760Y-53200300D02*
X159649160Y-53141880D01*
X159649160Y-53141880D02*
X159687260Y-53091080D01*
X159687260Y-53091080D02*
X159738060Y-53050440D01*
X159738060Y-53050440D02*
X159796480Y-53027580D01*
X159796480Y-53027580D02*
X159862520Y-53019960D01*
X159862520Y-53019960D02*
X159926020Y-53027580D01*
X159926020Y-53027580D02*
X159989520Y-53052980D01*
X159989520Y-53052980D02*
X160040320Y-53093620D01*
X160040320Y-53093620D02*
X160080960Y-53146960D01*
X160080960Y-53146960D02*
X160106360Y-53207920D01*
X160106360Y-53207920D02*
X160116520Y-53273960D01*
X160116520Y-53273960D02*
X160106360Y-53337460D01*
X160106360Y-53337460D02*
X160083500Y-53395880D01*
X160083500Y-53395880D02*
X160042860Y-53446680D01*
X160042860Y-53446680D02*
X159992060Y-53484780D01*
X159992060Y-53484780D02*
X159933640Y-53510180D01*
X159933640Y-53510180D02*
X159870140Y-53517800D01*
X159870140Y-53517800D02*
X159804100Y-53510180D01*
X159804100Y-53510180D02*
X159743140Y-53484780D01*
X159743140Y-53484780D02*
X159689800Y-53444140D01*
X159689800Y-53444140D02*
X159649160Y-53390800D01*
X159649160Y-53390800D02*
X159623760Y-53329840D01*
X159623760Y-53329840D02*
X159616140Y-53263800D01*
X182483760Y-53329840D02*
X182476140Y-53263800D01*
X182509160Y-53390800D02*
X182483760Y-53329840D01*
X182549800Y-53444140D02*
X182509160Y-53390800D01*
X182603140Y-53484780D02*
X182549800Y-53444140D01*
X182664100Y-53510180D02*
X182603140Y-53484780D01*
X182730140Y-53517800D02*
X182664100Y-53510180D01*
X182793640Y-53510180D02*
X182730140Y-53517800D01*
X182852060Y-53484780D02*
X182793640Y-53510180D01*
X182902860Y-53446680D02*
X182852060Y-53484780D01*
X182943500Y-53395880D02*
X182902860Y-53446680D01*
X182966360Y-53337460D02*
X182943500Y-53395880D01*
X182976520Y-53273960D02*
X182966360Y-53337460D01*
X182966360Y-53207920D02*
X182976520Y-53273960D01*
X182940960Y-53146960D02*
X182966360Y-53207920D01*
X182900320Y-53093620D02*
X182940960Y-53146960D01*
X182849520Y-53052980D02*
X182900320Y-53093620D01*
X182786020Y-53027580D02*
X182849520Y-53052980D01*
X182722520Y-53019960D02*
X182786020Y-53027580D01*
X182656480Y-53027580D02*
X182722520Y-53019960D01*
X182598060Y-53050440D02*
X182656480Y-53027580D01*
X182547260Y-53091080D02*
X182598060Y-53050440D01*
X182509160Y-53141880D02*
X182547260Y-53091080D01*
X182483760Y-53200300D02*
X182509160Y-53141880D01*
X182476140Y-53263800D02*
X182483760Y-53200300D01*
X178869340Y-52834540D02*
X178869340Y-52783740D01*
X178869340Y-50035460D02*
X178869340Y-50086260D01*
X182064660Y-52834540D02*
X182064660Y-52783740D01*
X182064660Y-50035460D02*
X182064660Y-50086260D01*
X182064660Y-51285140D02*
X182064660Y-51584860D01*
X178869340Y-51285140D02*
X178869340Y-51534060D01*
X182064660Y-50035460D02*
X178869340Y-50035460D01*
X178869340Y-52834540D02*
X182064660Y-52834540D01*
X178869340Y-29974540D02*
X182064660Y-29974540D01*
X182064660Y-27175460D02*
X178869340Y-27175460D01*
X178869340Y-28425140D02*
X178869340Y-28674060D01*
X182064660Y-28425140D02*
X182064660Y-28724860D01*
X182064660Y-27175460D02*
X182064660Y-27226260D01*
X182064660Y-29974540D02*
X182064660Y-29923740D01*
X178869340Y-27175460D02*
X178869340Y-27226260D01*
X178869340Y-29974540D02*
X178869340Y-29923740D01*
X182476140Y-30403800D02*
X182483760Y-30340300D01*
X182483760Y-30340300D02*
X182509160Y-30281880D01*
X182509160Y-30281880D02*
X182547260Y-30231080D01*
X182547260Y-30231080D02*
X182598060Y-30190440D01*
X182598060Y-30190440D02*
X182656480Y-30167580D01*
X182656480Y-30167580D02*
X182722520Y-30159960D01*
X182722520Y-30159960D02*
X182786020Y-30167580D01*
X182786020Y-30167580D02*
X182849520Y-30192980D01*
X182849520Y-30192980D02*
X182900320Y-30233620D01*
X182900320Y-30233620D02*
X182940960Y-30286960D01*
X182940960Y-30286960D02*
X182966360Y-30347920D01*
X182966360Y-30347920D02*
X182976520Y-30413960D01*
X182976520Y-30413960D02*
X182966360Y-30477460D01*
X182966360Y-30477460D02*
X182943500Y-30535880D01*
X182943500Y-30535880D02*
X182902860Y-30586680D01*
X182902860Y-30586680D02*
X182852060Y-30624780D01*
X182852060Y-30624780D02*
X182793640Y-30650180D01*
X182793640Y-30650180D02*
X182730140Y-30657800D01*
X182730140Y-30657800D02*
X182664100Y-30650180D01*
X182664100Y-30650180D02*
X182603140Y-30624780D01*
X182603140Y-30624780D02*
X182549800Y-30584140D01*
X182549800Y-30584140D02*
X182509160Y-30530800D01*
X182509160Y-30530800D02*
X182483760Y-30469840D01*
X182483760Y-30469840D02*
X182476140Y-30403800D01*
X159623760Y-30469840D02*
X159616140Y-30403800D01*
X159649160Y-30530800D02*
X159623760Y-30469840D01*
X159689800Y-30584140D02*
X159649160Y-30530800D01*
X159743140Y-30624780D02*
X159689800Y-30584140D01*
X159804100Y-30650180D02*
X159743140Y-30624780D01*
X159870140Y-30657800D02*
X159804100Y-30650180D01*
X159933640Y-30650180D02*
X159870140Y-30657800D01*
X159992060Y-30624780D02*
X159933640Y-30650180D01*
X160042860Y-30586680D02*
X159992060Y-30624780D01*
X160083500Y-30535880D02*
X160042860Y-30586680D01*
X160106360Y-30477460D02*
X160083500Y-30535880D01*
X160116520Y-30413960D02*
X160106360Y-30477460D01*
X160106360Y-30347920D02*
X160116520Y-30413960D01*
X160080960Y-30286960D02*
X160106360Y-30347920D01*
X160040320Y-30233620D02*
X160080960Y-30286960D01*
X159989520Y-30192980D02*
X160040320Y-30233620D01*
X159926020Y-30167580D02*
X159989520Y-30192980D01*
X159862520Y-30159960D02*
X159926020Y-30167580D01*
X159796480Y-30167580D02*
X159862520Y-30159960D01*
X159738060Y-30190440D02*
X159796480Y-30167580D01*
X159687260Y-30231080D02*
X159738060Y-30190440D01*
X159649160Y-30281880D02*
X159687260Y-30231080D01*
X159623760Y-30340300D02*
X159649160Y-30281880D01*
X159616140Y-30403800D02*
X159623760Y-30340300D01*
X156009340Y-29974540D02*
X156009340Y-29923740D01*
X156009340Y-27175460D02*
X156009340Y-27226260D01*
X159204660Y-29974540D02*
X159204660Y-29923740D01*
X159204660Y-27175460D02*
X159204660Y-27226260D01*
X159204660Y-28425140D02*
X159204660Y-28724860D01*
X156009340Y-28425140D02*
X156009340Y-28674060D01*
X159204660Y-27175460D02*
X156009340Y-27175460D01*
X156009340Y-29974540D02*
X159204660Y-29974540D01*
X133149340Y-29974540D02*
X136344660Y-29974540D01*
X136344660Y-27175460D02*
X133149340Y-27175460D01*
X133149340Y-28425140D02*
X133149340Y-28674060D01*
X136344660Y-28425140D02*
X136344660Y-28724860D01*
X136344660Y-27175460D02*
X136344660Y-27226260D01*
X136344660Y-29974540D02*
X136344660Y-29923740D01*
X133149340Y-27175460D02*
X133149340Y-27226260D01*
X133149340Y-29974540D02*
X133149340Y-29923740D01*
X136756140Y-30403800D02*
X136763760Y-30340300D01*
X136763760Y-30340300D02*
X136789160Y-30281880D01*
X136789160Y-30281880D02*
X136827260Y-30231080D01*
X136827260Y-30231080D02*
X136878060Y-30190440D01*
X136878060Y-30190440D02*
X136936480Y-30167580D01*
X136936480Y-30167580D02*
X137002520Y-30159960D01*
X137002520Y-30159960D02*
X137066020Y-30167580D01*
X137066020Y-30167580D02*
X137129520Y-30192980D01*
X137129520Y-30192980D02*
X137180320Y-30233620D01*
X137180320Y-30233620D02*
X137220960Y-30286960D01*
X137220960Y-30286960D02*
X137246360Y-30347920D01*
X137246360Y-30347920D02*
X137256520Y-30413960D01*
X137256520Y-30413960D02*
X137246360Y-30477460D01*
X137246360Y-30477460D02*
X137223500Y-30535880D01*
X137223500Y-30535880D02*
X137182860Y-30586680D01*
X137182860Y-30586680D02*
X137132060Y-30624780D01*
X137132060Y-30624780D02*
X137073640Y-30650180D01*
X137073640Y-30650180D02*
X137010140Y-30657800D01*
X137010140Y-30657800D02*
X136944100Y-30650180D01*
X136944100Y-30650180D02*
X136883140Y-30624780D01*
X136883140Y-30624780D02*
X136829800Y-30584140D01*
X136829800Y-30584140D02*
X136789160Y-30530800D01*
X136789160Y-30530800D02*
X136763760Y-30469840D01*
X136763760Y-30469840D02*
X136756140Y-30403800D01*
X113903760Y-30469840D02*
X113896140Y-30403800D01*
X113929160Y-30530800D02*
X113903760Y-30469840D01*
X113969800Y-30584140D02*
X113929160Y-30530800D01*
X114023140Y-30624780D02*
X113969800Y-30584140D01*
X114084100Y-30650180D02*
X114023140Y-30624780D01*
X114150140Y-30657800D02*
X114084100Y-30650180D01*
X114213640Y-30650180D02*
X114150140Y-30657800D01*
X114272060Y-30624780D02*
X114213640Y-30650180D01*
X114322860Y-30586680D02*
X114272060Y-30624780D01*
X114363500Y-30535880D02*
X114322860Y-30586680D01*
X114386360Y-30477460D02*
X114363500Y-30535880D01*
X114396520Y-30413960D02*
X114386360Y-30477460D01*
X114386360Y-30347920D02*
X114396520Y-30413960D01*
X114360960Y-30286960D02*
X114386360Y-30347920D01*
X114320320Y-30233620D02*
X114360960Y-30286960D01*
X114269520Y-30192980D02*
X114320320Y-30233620D01*
X114206020Y-30167580D02*
X114269520Y-30192980D01*
X114142520Y-30159960D02*
X114206020Y-30167580D01*
X114076480Y-30167580D02*
X114142520Y-30159960D01*
X114018060Y-30190440D02*
X114076480Y-30167580D01*
X113967260Y-30231080D02*
X114018060Y-30190440D01*
X113929160Y-30281880D02*
X113967260Y-30231080D01*
X113903760Y-30340300D02*
X113929160Y-30281880D01*
X113896140Y-30403800D02*
X113903760Y-30340300D01*
X110289340Y-29974540D02*
X110289340Y-29923740D01*
X110289340Y-27175460D02*
X110289340Y-27226260D01*
X113484660Y-29974540D02*
X113484660Y-29923740D01*
X113484660Y-27175460D02*
X113484660Y-27226260D01*
X113484660Y-28425140D02*
X113484660Y-28724860D01*
X110289340Y-28425140D02*
X110289340Y-28674060D01*
X113484660Y-27175460D02*
X110289340Y-27175460D01*
X110289340Y-29974540D02*
X113484660Y-29974540D01*
M02*
