G04 #@! TF.GenerationSoftware,KiCad,Pcbnew,(5.1.4)-1*
G04 #@! TF.CreationDate,2020-02-01T11:21:23-05:00*
G04 #@! TF.ProjectId,bob_ws2811_driver,626f625f-7773-4323-9831-315f64726976,rev?*
G04 #@! TF.SameCoordinates,Original*
G04 #@! TF.FileFunction,Legend,Top*
G04 #@! TF.FilePolarity,Positive*
%FSLAX46Y46*%
G04 Gerber Fmt 4.6, Leading zero omitted, Abs format (unit mm)*
G04 Created by KiCad (PCBNEW (5.1.4)-1) date 2020-02-01 11:21:23*
%MOMM*%
%LPD*%
G04 APERTURE LIST*
%ADD10C,0.150000*%
%ADD11C,0.250000*%
%ADD12C,0.100000*%
G04 APERTURE END LIST*
D10*
X103536714Y-61666380D02*
X102965285Y-61666380D01*
X103251000Y-61666380D02*
X103251000Y-60666380D01*
X103155761Y-60809238D01*
X103060523Y-60904476D01*
X102965285Y-60952095D01*
X120205476Y-66127380D02*
X120015000Y-66127380D01*
X119919761Y-66175000D01*
X119872142Y-66222619D01*
X119776904Y-66365476D01*
X119729285Y-66555952D01*
X119729285Y-66936904D01*
X119776904Y-67032142D01*
X119824523Y-67079761D01*
X119919761Y-67127380D01*
X120110238Y-67127380D01*
X120205476Y-67079761D01*
X120253095Y-67032142D01*
X120300714Y-66936904D01*
X120300714Y-66698809D01*
X120253095Y-66603571D01*
X120205476Y-66555952D01*
X120110238Y-66508333D01*
X119919761Y-66508333D01*
X119824523Y-66555952D01*
X119776904Y-66603571D01*
X119729285Y-66698809D01*
X103441476Y-68746714D02*
X103441476Y-69413380D01*
X103203380Y-68365761D02*
X102965285Y-69080047D01*
X103584333Y-69080047D01*
X119919761Y-61475952D02*
X119824523Y-61428333D01*
X119776904Y-61380714D01*
X119729285Y-61285476D01*
X119729285Y-61237857D01*
X119776904Y-61142619D01*
X119824523Y-61095000D01*
X119919761Y-61047380D01*
X120110238Y-61047380D01*
X120205476Y-61095000D01*
X120253095Y-61142619D01*
X120300714Y-61237857D01*
X120300714Y-61285476D01*
X120253095Y-61380714D01*
X120205476Y-61428333D01*
X120110238Y-61475952D01*
X119919761Y-61475952D01*
X119824523Y-61523571D01*
X119776904Y-61571190D01*
X119729285Y-61666428D01*
X119729285Y-61856904D01*
X119776904Y-61952142D01*
X119824523Y-61999761D01*
X119919761Y-62047380D01*
X120110238Y-62047380D01*
X120205476Y-61999761D01*
X120253095Y-61952142D01*
X120300714Y-61856904D01*
X120300714Y-61666428D01*
X120253095Y-61571190D01*
X120205476Y-61523571D01*
X120110238Y-61475952D01*
X102965285Y-63301619D02*
X103012904Y-63254000D01*
X103108142Y-63206380D01*
X103346238Y-63206380D01*
X103441476Y-63254000D01*
X103489095Y-63301619D01*
X103536714Y-63396857D01*
X103536714Y-63492095D01*
X103489095Y-63634952D01*
X102917666Y-64206380D01*
X103536714Y-64206380D01*
X110458285Y-57459619D02*
X110505904Y-57412000D01*
X110601142Y-57364380D01*
X110839238Y-57364380D01*
X110934476Y-57412000D01*
X110982095Y-57459619D01*
X111029714Y-57554857D01*
X111029714Y-57650095D01*
X110982095Y-57792952D01*
X110410666Y-58364380D01*
X111029714Y-58364380D01*
X107870666Y-57364380D02*
X108489714Y-57364380D01*
X108156380Y-57745333D01*
X108299238Y-57745333D01*
X108394476Y-57792952D01*
X108442095Y-57840571D01*
X108489714Y-57935809D01*
X108489714Y-58173904D01*
X108442095Y-58269142D01*
X108394476Y-58316761D01*
X108299238Y-58364380D01*
X108013523Y-58364380D01*
X107918285Y-58316761D01*
X107870666Y-58269142D01*
X116014476Y-57697714D02*
X116014476Y-58364380D01*
X115776380Y-57316761D02*
X115538285Y-58031047D01*
X116157333Y-58031047D01*
X120253095Y-68667380D02*
X119776904Y-68667380D01*
X119729285Y-69143571D01*
X119776904Y-69095952D01*
X119872142Y-69048333D01*
X120110238Y-69048333D01*
X120205476Y-69095952D01*
X120253095Y-69143571D01*
X120300714Y-69238809D01*
X120300714Y-69476904D01*
X120253095Y-69572142D01*
X120205476Y-69619761D01*
X120110238Y-69667380D01*
X119872142Y-69667380D01*
X119776904Y-69619761D01*
X119729285Y-69572142D01*
X102917666Y-65746380D02*
X103536714Y-65746380D01*
X103203380Y-66127333D01*
X103346238Y-66127333D01*
X103441476Y-66174952D01*
X103489095Y-66222571D01*
X103536714Y-66317809D01*
X103536714Y-66555904D01*
X103489095Y-66651142D01*
X103441476Y-66698761D01*
X103346238Y-66746380D01*
X103060523Y-66746380D01*
X102965285Y-66698761D01*
X102917666Y-66651142D01*
X119681666Y-63460380D02*
X120348333Y-63460380D01*
X119919761Y-64460380D01*
X113442714Y-58364380D02*
X112871285Y-58364380D01*
X113157000Y-58364380D02*
X113157000Y-57364380D01*
X113061761Y-57507238D01*
X112966523Y-57602476D01*
X112871285Y-57650095D01*
X142779761Y-61475952D02*
X142684523Y-61428333D01*
X142636904Y-61380714D01*
X142589285Y-61285476D01*
X142589285Y-61237857D01*
X142636904Y-61142619D01*
X142684523Y-61095000D01*
X142779761Y-61047380D01*
X142970238Y-61047380D01*
X143065476Y-61095000D01*
X143113095Y-61142619D01*
X143160714Y-61237857D01*
X143160714Y-61285476D01*
X143113095Y-61380714D01*
X143065476Y-61428333D01*
X142970238Y-61475952D01*
X142779761Y-61475952D01*
X142684523Y-61523571D01*
X142636904Y-61571190D01*
X142589285Y-61666428D01*
X142589285Y-61856904D01*
X142636904Y-61952142D01*
X142684523Y-61999761D01*
X142779761Y-62047380D01*
X142970238Y-62047380D01*
X143065476Y-61999761D01*
X143113095Y-61952142D01*
X143160714Y-61856904D01*
X143160714Y-61666428D01*
X143113095Y-61571190D01*
X143065476Y-61523571D01*
X142970238Y-61475952D01*
X130730666Y-57364380D02*
X131349714Y-57364380D01*
X131016380Y-57745333D01*
X131159238Y-57745333D01*
X131254476Y-57792952D01*
X131302095Y-57840571D01*
X131349714Y-57935809D01*
X131349714Y-58173904D01*
X131302095Y-58269142D01*
X131254476Y-58316761D01*
X131159238Y-58364380D01*
X130873523Y-58364380D01*
X130778285Y-58316761D01*
X130730666Y-58269142D01*
X126301476Y-68746714D02*
X126301476Y-69413380D01*
X126063380Y-68365761D02*
X125825285Y-69080047D01*
X126444333Y-69080047D01*
X138874476Y-57697714D02*
X138874476Y-58364380D01*
X138636380Y-57316761D02*
X138398285Y-58031047D01*
X139017333Y-58031047D01*
X126396714Y-61666380D02*
X125825285Y-61666380D01*
X126111000Y-61666380D02*
X126111000Y-60666380D01*
X126015761Y-60809238D01*
X125920523Y-60904476D01*
X125825285Y-60952095D01*
X136302714Y-58364380D02*
X135731285Y-58364380D01*
X136017000Y-58364380D02*
X136017000Y-57364380D01*
X135921761Y-57507238D01*
X135826523Y-57602476D01*
X135731285Y-57650095D01*
X133318285Y-57459619D02*
X133365904Y-57412000D01*
X133461142Y-57364380D01*
X133699238Y-57364380D01*
X133794476Y-57412000D01*
X133842095Y-57459619D01*
X133889714Y-57554857D01*
X133889714Y-57650095D01*
X133842095Y-57792952D01*
X133270666Y-58364380D01*
X133889714Y-58364380D01*
X143065476Y-66127380D02*
X142875000Y-66127380D01*
X142779761Y-66175000D01*
X142732142Y-66222619D01*
X142636904Y-66365476D01*
X142589285Y-66555952D01*
X142589285Y-66936904D01*
X142636904Y-67032142D01*
X142684523Y-67079761D01*
X142779761Y-67127380D01*
X142970238Y-67127380D01*
X143065476Y-67079761D01*
X143113095Y-67032142D01*
X143160714Y-66936904D01*
X143160714Y-66698809D01*
X143113095Y-66603571D01*
X143065476Y-66555952D01*
X142970238Y-66508333D01*
X142779761Y-66508333D01*
X142684523Y-66555952D01*
X142636904Y-66603571D01*
X142589285Y-66698809D01*
X142541666Y-63460380D02*
X143208333Y-63460380D01*
X142779761Y-64460380D01*
X143113095Y-68667380D02*
X142636904Y-68667380D01*
X142589285Y-69143571D01*
X142636904Y-69095952D01*
X142732142Y-69048333D01*
X142970238Y-69048333D01*
X143065476Y-69095952D01*
X143113095Y-69143571D01*
X143160714Y-69238809D01*
X143160714Y-69476904D01*
X143113095Y-69572142D01*
X143065476Y-69619761D01*
X142970238Y-69667380D01*
X142732142Y-69667380D01*
X142636904Y-69619761D01*
X142589285Y-69572142D01*
X125825285Y-63301619D02*
X125872904Y-63254000D01*
X125968142Y-63206380D01*
X126206238Y-63206380D01*
X126301476Y-63254000D01*
X126349095Y-63301619D01*
X126396714Y-63396857D01*
X126396714Y-63492095D01*
X126349095Y-63634952D01*
X125777666Y-64206380D01*
X126396714Y-64206380D01*
X125777666Y-65746380D02*
X126396714Y-65746380D01*
X126063380Y-66127333D01*
X126206238Y-66127333D01*
X126301476Y-66174952D01*
X126349095Y-66222571D01*
X126396714Y-66317809D01*
X126396714Y-66555904D01*
X126349095Y-66651142D01*
X126301476Y-66698761D01*
X126206238Y-66746380D01*
X125920523Y-66746380D01*
X125825285Y-66698761D01*
X125777666Y-66651142D01*
X161734476Y-57697714D02*
X161734476Y-58364380D01*
X161496380Y-57316761D02*
X161258285Y-58031047D01*
X161877333Y-58031047D01*
X149256714Y-61666380D02*
X148685285Y-61666380D01*
X148971000Y-61666380D02*
X148971000Y-60666380D01*
X148875761Y-60809238D01*
X148780523Y-60904476D01*
X148685285Y-60952095D01*
X156178285Y-57459619D02*
X156225904Y-57412000D01*
X156321142Y-57364380D01*
X156559238Y-57364380D01*
X156654476Y-57412000D01*
X156702095Y-57459619D01*
X156749714Y-57554857D01*
X156749714Y-57650095D01*
X156702095Y-57792952D01*
X156130666Y-58364380D01*
X156749714Y-58364380D01*
X153590666Y-57364380D02*
X154209714Y-57364380D01*
X153876380Y-57745333D01*
X154019238Y-57745333D01*
X154114476Y-57792952D01*
X154162095Y-57840571D01*
X154209714Y-57935809D01*
X154209714Y-58173904D01*
X154162095Y-58269142D01*
X154114476Y-58316761D01*
X154019238Y-58364380D01*
X153733523Y-58364380D01*
X153638285Y-58316761D01*
X153590666Y-58269142D01*
X149161476Y-68746714D02*
X149161476Y-69413380D01*
X148923380Y-68365761D02*
X148685285Y-69080047D01*
X149304333Y-69080047D01*
X165639761Y-61475952D02*
X165544523Y-61428333D01*
X165496904Y-61380714D01*
X165449285Y-61285476D01*
X165449285Y-61237857D01*
X165496904Y-61142619D01*
X165544523Y-61095000D01*
X165639761Y-61047380D01*
X165830238Y-61047380D01*
X165925476Y-61095000D01*
X165973095Y-61142619D01*
X166020714Y-61237857D01*
X166020714Y-61285476D01*
X165973095Y-61380714D01*
X165925476Y-61428333D01*
X165830238Y-61475952D01*
X165639761Y-61475952D01*
X165544523Y-61523571D01*
X165496904Y-61571190D01*
X165449285Y-61666428D01*
X165449285Y-61856904D01*
X165496904Y-61952142D01*
X165544523Y-61999761D01*
X165639761Y-62047380D01*
X165830238Y-62047380D01*
X165925476Y-61999761D01*
X165973095Y-61952142D01*
X166020714Y-61856904D01*
X166020714Y-61666428D01*
X165973095Y-61571190D01*
X165925476Y-61523571D01*
X165830238Y-61475952D01*
X159162714Y-58364380D02*
X158591285Y-58364380D01*
X158877000Y-58364380D02*
X158877000Y-57364380D01*
X158781761Y-57507238D01*
X158686523Y-57602476D01*
X158591285Y-57650095D01*
X165925476Y-66127380D02*
X165735000Y-66127380D01*
X165639761Y-66175000D01*
X165592142Y-66222619D01*
X165496904Y-66365476D01*
X165449285Y-66555952D01*
X165449285Y-66936904D01*
X165496904Y-67032142D01*
X165544523Y-67079761D01*
X165639761Y-67127380D01*
X165830238Y-67127380D01*
X165925476Y-67079761D01*
X165973095Y-67032142D01*
X166020714Y-66936904D01*
X166020714Y-66698809D01*
X165973095Y-66603571D01*
X165925476Y-66555952D01*
X165830238Y-66508333D01*
X165639761Y-66508333D01*
X165544523Y-66555952D01*
X165496904Y-66603571D01*
X165449285Y-66698809D01*
X165401666Y-63460380D02*
X166068333Y-63460380D01*
X165639761Y-64460380D01*
X165973095Y-68667380D02*
X165496904Y-68667380D01*
X165449285Y-69143571D01*
X165496904Y-69095952D01*
X165592142Y-69048333D01*
X165830238Y-69048333D01*
X165925476Y-69095952D01*
X165973095Y-69143571D01*
X166020714Y-69238809D01*
X166020714Y-69476904D01*
X165973095Y-69572142D01*
X165925476Y-69619761D01*
X165830238Y-69667380D01*
X165592142Y-69667380D01*
X165496904Y-69619761D01*
X165449285Y-69572142D01*
X148685285Y-63301619D02*
X148732904Y-63254000D01*
X148828142Y-63206380D01*
X149066238Y-63206380D01*
X149161476Y-63254000D01*
X149209095Y-63301619D01*
X149256714Y-63396857D01*
X149256714Y-63492095D01*
X149209095Y-63634952D01*
X148637666Y-64206380D01*
X149256714Y-64206380D01*
X148637666Y-65746380D02*
X149256714Y-65746380D01*
X148923380Y-66127333D01*
X149066238Y-66127333D01*
X149161476Y-66174952D01*
X149209095Y-66222571D01*
X149256714Y-66317809D01*
X149256714Y-66555904D01*
X149209095Y-66651142D01*
X149161476Y-66698761D01*
X149066238Y-66746380D01*
X148780523Y-66746380D01*
X148685285Y-66698761D01*
X148637666Y-66651142D01*
X188261666Y-63460380D02*
X188928333Y-63460380D01*
X188499761Y-64460380D01*
X172021476Y-68746714D02*
X172021476Y-69413380D01*
X171783380Y-68365761D02*
X171545285Y-69080047D01*
X172164333Y-69080047D01*
X172116714Y-61666380D02*
X171545285Y-61666380D01*
X171831000Y-61666380D02*
X171831000Y-60666380D01*
X171735761Y-60809238D01*
X171640523Y-60904476D01*
X171545285Y-60952095D01*
X188499761Y-61475952D02*
X188404523Y-61428333D01*
X188356904Y-61380714D01*
X188309285Y-61285476D01*
X188309285Y-61237857D01*
X188356904Y-61142619D01*
X188404523Y-61095000D01*
X188499761Y-61047380D01*
X188690238Y-61047380D01*
X188785476Y-61095000D01*
X188833095Y-61142619D01*
X188880714Y-61237857D01*
X188880714Y-61285476D01*
X188833095Y-61380714D01*
X188785476Y-61428333D01*
X188690238Y-61475952D01*
X188499761Y-61475952D01*
X188404523Y-61523571D01*
X188356904Y-61571190D01*
X188309285Y-61666428D01*
X188309285Y-61856904D01*
X188356904Y-61952142D01*
X188404523Y-61999761D01*
X188499761Y-62047380D01*
X188690238Y-62047380D01*
X188785476Y-61999761D01*
X188833095Y-61952142D01*
X188880714Y-61856904D01*
X188880714Y-61666428D01*
X188833095Y-61571190D01*
X188785476Y-61523571D01*
X188690238Y-61475952D01*
X179038285Y-57459619D02*
X179085904Y-57412000D01*
X179181142Y-57364380D01*
X179419238Y-57364380D01*
X179514476Y-57412000D01*
X179562095Y-57459619D01*
X179609714Y-57554857D01*
X179609714Y-57650095D01*
X179562095Y-57792952D01*
X178990666Y-58364380D01*
X179609714Y-58364380D01*
X188785476Y-66127380D02*
X188595000Y-66127380D01*
X188499761Y-66175000D01*
X188452142Y-66222619D01*
X188356904Y-66365476D01*
X188309285Y-66555952D01*
X188309285Y-66936904D01*
X188356904Y-67032142D01*
X188404523Y-67079761D01*
X188499761Y-67127380D01*
X188690238Y-67127380D01*
X188785476Y-67079761D01*
X188833095Y-67032142D01*
X188880714Y-66936904D01*
X188880714Y-66698809D01*
X188833095Y-66603571D01*
X188785476Y-66555952D01*
X188690238Y-66508333D01*
X188499761Y-66508333D01*
X188404523Y-66555952D01*
X188356904Y-66603571D01*
X188309285Y-66698809D01*
X176450666Y-57364380D02*
X177069714Y-57364380D01*
X176736380Y-57745333D01*
X176879238Y-57745333D01*
X176974476Y-57792952D01*
X177022095Y-57840571D01*
X177069714Y-57935809D01*
X177069714Y-58173904D01*
X177022095Y-58269142D01*
X176974476Y-58316761D01*
X176879238Y-58364380D01*
X176593523Y-58364380D01*
X176498285Y-58316761D01*
X176450666Y-58269142D01*
X188833095Y-68667380D02*
X188356904Y-68667380D01*
X188309285Y-69143571D01*
X188356904Y-69095952D01*
X188452142Y-69048333D01*
X188690238Y-69048333D01*
X188785476Y-69095952D01*
X188833095Y-69143571D01*
X188880714Y-69238809D01*
X188880714Y-69476904D01*
X188833095Y-69572142D01*
X188785476Y-69619761D01*
X188690238Y-69667380D01*
X188452142Y-69667380D01*
X188356904Y-69619761D01*
X188309285Y-69572142D01*
X171545285Y-63301619D02*
X171592904Y-63254000D01*
X171688142Y-63206380D01*
X171926238Y-63206380D01*
X172021476Y-63254000D01*
X172069095Y-63301619D01*
X172116714Y-63396857D01*
X172116714Y-63492095D01*
X172069095Y-63634952D01*
X171497666Y-64206380D01*
X172116714Y-64206380D01*
X182022714Y-58364380D02*
X181451285Y-58364380D01*
X181737000Y-58364380D02*
X181737000Y-57364380D01*
X181641761Y-57507238D01*
X181546523Y-57602476D01*
X181451285Y-57650095D01*
X171497666Y-65746380D02*
X172116714Y-65746380D01*
X171783380Y-66127333D01*
X171926238Y-66127333D01*
X172021476Y-66174952D01*
X172069095Y-66222571D01*
X172116714Y-66317809D01*
X172116714Y-66555904D01*
X172069095Y-66651142D01*
X172021476Y-66698761D01*
X171926238Y-66746380D01*
X171640523Y-66746380D01*
X171545285Y-66698761D01*
X171497666Y-66651142D01*
X184594476Y-57697714D02*
X184594476Y-58364380D01*
X184356380Y-57316761D02*
X184118285Y-58031047D01*
X184737333Y-58031047D01*
X188261666Y-40600380D02*
X188928333Y-40600380D01*
X188499761Y-41600380D01*
X172021476Y-45886714D02*
X172021476Y-46553380D01*
X171783380Y-45505761D02*
X171545285Y-46220047D01*
X172164333Y-46220047D01*
X188499761Y-38615952D02*
X188404523Y-38568333D01*
X188356904Y-38520714D01*
X188309285Y-38425476D01*
X188309285Y-38377857D01*
X188356904Y-38282619D01*
X188404523Y-38235000D01*
X188499761Y-38187380D01*
X188690238Y-38187380D01*
X188785476Y-38235000D01*
X188833095Y-38282619D01*
X188880714Y-38377857D01*
X188880714Y-38425476D01*
X188833095Y-38520714D01*
X188785476Y-38568333D01*
X188690238Y-38615952D01*
X188499761Y-38615952D01*
X188404523Y-38663571D01*
X188356904Y-38711190D01*
X188309285Y-38806428D01*
X188309285Y-38996904D01*
X188356904Y-39092142D01*
X188404523Y-39139761D01*
X188499761Y-39187380D01*
X188690238Y-39187380D01*
X188785476Y-39139761D01*
X188833095Y-39092142D01*
X188880714Y-38996904D01*
X188880714Y-38806428D01*
X188833095Y-38711190D01*
X188785476Y-38663571D01*
X188690238Y-38615952D01*
X172116714Y-38806380D02*
X171545285Y-38806380D01*
X171831000Y-38806380D02*
X171831000Y-37806380D01*
X171735761Y-37949238D01*
X171640523Y-38044476D01*
X171545285Y-38092095D01*
X179038285Y-34599619D02*
X179085904Y-34552000D01*
X179181142Y-34504380D01*
X179419238Y-34504380D01*
X179514476Y-34552000D01*
X179562095Y-34599619D01*
X179609714Y-34694857D01*
X179609714Y-34790095D01*
X179562095Y-34932952D01*
X178990666Y-35504380D01*
X179609714Y-35504380D01*
X188785476Y-43267380D02*
X188595000Y-43267380D01*
X188499761Y-43315000D01*
X188452142Y-43362619D01*
X188356904Y-43505476D01*
X188309285Y-43695952D01*
X188309285Y-44076904D01*
X188356904Y-44172142D01*
X188404523Y-44219761D01*
X188499761Y-44267380D01*
X188690238Y-44267380D01*
X188785476Y-44219761D01*
X188833095Y-44172142D01*
X188880714Y-44076904D01*
X188880714Y-43838809D01*
X188833095Y-43743571D01*
X188785476Y-43695952D01*
X188690238Y-43648333D01*
X188499761Y-43648333D01*
X188404523Y-43695952D01*
X188356904Y-43743571D01*
X188309285Y-43838809D01*
X176450666Y-34504380D02*
X177069714Y-34504380D01*
X176736380Y-34885333D01*
X176879238Y-34885333D01*
X176974476Y-34932952D01*
X177022095Y-34980571D01*
X177069714Y-35075809D01*
X177069714Y-35313904D01*
X177022095Y-35409142D01*
X176974476Y-35456761D01*
X176879238Y-35504380D01*
X176593523Y-35504380D01*
X176498285Y-35456761D01*
X176450666Y-35409142D01*
X188833095Y-45807380D02*
X188356904Y-45807380D01*
X188309285Y-46283571D01*
X188356904Y-46235952D01*
X188452142Y-46188333D01*
X188690238Y-46188333D01*
X188785476Y-46235952D01*
X188833095Y-46283571D01*
X188880714Y-46378809D01*
X188880714Y-46616904D01*
X188833095Y-46712142D01*
X188785476Y-46759761D01*
X188690238Y-46807380D01*
X188452142Y-46807380D01*
X188356904Y-46759761D01*
X188309285Y-46712142D01*
X171545285Y-40441619D02*
X171592904Y-40394000D01*
X171688142Y-40346380D01*
X171926238Y-40346380D01*
X172021476Y-40394000D01*
X172069095Y-40441619D01*
X172116714Y-40536857D01*
X172116714Y-40632095D01*
X172069095Y-40774952D01*
X171497666Y-41346380D01*
X172116714Y-41346380D01*
X182022714Y-35504380D02*
X181451285Y-35504380D01*
X181737000Y-35504380D02*
X181737000Y-34504380D01*
X181641761Y-34647238D01*
X181546523Y-34742476D01*
X181451285Y-34790095D01*
X171497666Y-42886380D02*
X172116714Y-42886380D01*
X171783380Y-43267333D01*
X171926238Y-43267333D01*
X172021476Y-43314952D01*
X172069095Y-43362571D01*
X172116714Y-43457809D01*
X172116714Y-43695904D01*
X172069095Y-43791142D01*
X172021476Y-43838761D01*
X171926238Y-43886380D01*
X171640523Y-43886380D01*
X171545285Y-43838761D01*
X171497666Y-43791142D01*
X184594476Y-34837714D02*
X184594476Y-35504380D01*
X184356380Y-34456761D02*
X184118285Y-35171047D01*
X184737333Y-35171047D01*
X165925476Y-43267380D02*
X165735000Y-43267380D01*
X165639761Y-43315000D01*
X165592142Y-43362619D01*
X165496904Y-43505476D01*
X165449285Y-43695952D01*
X165449285Y-44076904D01*
X165496904Y-44172142D01*
X165544523Y-44219761D01*
X165639761Y-44267380D01*
X165830238Y-44267380D01*
X165925476Y-44219761D01*
X165973095Y-44172142D01*
X166020714Y-44076904D01*
X166020714Y-43838809D01*
X165973095Y-43743571D01*
X165925476Y-43695952D01*
X165830238Y-43648333D01*
X165639761Y-43648333D01*
X165544523Y-43695952D01*
X165496904Y-43743571D01*
X165449285Y-43838809D01*
X165973095Y-45807380D02*
X165496904Y-45807380D01*
X165449285Y-46283571D01*
X165496904Y-46235952D01*
X165592142Y-46188333D01*
X165830238Y-46188333D01*
X165925476Y-46235952D01*
X165973095Y-46283571D01*
X166020714Y-46378809D01*
X166020714Y-46616904D01*
X165973095Y-46712142D01*
X165925476Y-46759761D01*
X165830238Y-46807380D01*
X165592142Y-46807380D01*
X165496904Y-46759761D01*
X165449285Y-46712142D01*
X149161476Y-45886714D02*
X149161476Y-46553380D01*
X148923380Y-45505761D02*
X148685285Y-46220047D01*
X149304333Y-46220047D01*
X165639761Y-38615952D02*
X165544523Y-38568333D01*
X165496904Y-38520714D01*
X165449285Y-38425476D01*
X165449285Y-38377857D01*
X165496904Y-38282619D01*
X165544523Y-38235000D01*
X165639761Y-38187380D01*
X165830238Y-38187380D01*
X165925476Y-38235000D01*
X165973095Y-38282619D01*
X166020714Y-38377857D01*
X166020714Y-38425476D01*
X165973095Y-38520714D01*
X165925476Y-38568333D01*
X165830238Y-38615952D01*
X165639761Y-38615952D01*
X165544523Y-38663571D01*
X165496904Y-38711190D01*
X165449285Y-38806428D01*
X165449285Y-38996904D01*
X165496904Y-39092142D01*
X165544523Y-39139761D01*
X165639761Y-39187380D01*
X165830238Y-39187380D01*
X165925476Y-39139761D01*
X165973095Y-39092142D01*
X166020714Y-38996904D01*
X166020714Y-38806428D01*
X165973095Y-38711190D01*
X165925476Y-38663571D01*
X165830238Y-38615952D01*
X159162714Y-35504380D02*
X158591285Y-35504380D01*
X158877000Y-35504380D02*
X158877000Y-34504380D01*
X158781761Y-34647238D01*
X158686523Y-34742476D01*
X158591285Y-34790095D01*
X148685285Y-40441619D02*
X148732904Y-40394000D01*
X148828142Y-40346380D01*
X149066238Y-40346380D01*
X149161476Y-40394000D01*
X149209095Y-40441619D01*
X149256714Y-40536857D01*
X149256714Y-40632095D01*
X149209095Y-40774952D01*
X148637666Y-41346380D01*
X149256714Y-41346380D01*
X148637666Y-42886380D02*
X149256714Y-42886380D01*
X148923380Y-43267333D01*
X149066238Y-43267333D01*
X149161476Y-43314952D01*
X149209095Y-43362571D01*
X149256714Y-43457809D01*
X149256714Y-43695904D01*
X149209095Y-43791142D01*
X149161476Y-43838761D01*
X149066238Y-43886380D01*
X148780523Y-43886380D01*
X148685285Y-43838761D01*
X148637666Y-43791142D01*
X165401666Y-40600380D02*
X166068333Y-40600380D01*
X165639761Y-41600380D01*
X149256714Y-38806380D02*
X148685285Y-38806380D01*
X148971000Y-38806380D02*
X148971000Y-37806380D01*
X148875761Y-37949238D01*
X148780523Y-38044476D01*
X148685285Y-38092095D01*
X153590666Y-34504380D02*
X154209714Y-34504380D01*
X153876380Y-34885333D01*
X154019238Y-34885333D01*
X154114476Y-34932952D01*
X154162095Y-34980571D01*
X154209714Y-35075809D01*
X154209714Y-35313904D01*
X154162095Y-35409142D01*
X154114476Y-35456761D01*
X154019238Y-35504380D01*
X153733523Y-35504380D01*
X153638285Y-35456761D01*
X153590666Y-35409142D01*
X156178285Y-34599619D02*
X156225904Y-34552000D01*
X156321142Y-34504380D01*
X156559238Y-34504380D01*
X156654476Y-34552000D01*
X156702095Y-34599619D01*
X156749714Y-34694857D01*
X156749714Y-34790095D01*
X156702095Y-34932952D01*
X156130666Y-35504380D01*
X156749714Y-35504380D01*
X161734476Y-34837714D02*
X161734476Y-35504380D01*
X161496380Y-34456761D02*
X161258285Y-35171047D01*
X161877333Y-35171047D01*
X143113095Y-45807380D02*
X142636904Y-45807380D01*
X142589285Y-46283571D01*
X142636904Y-46235952D01*
X142732142Y-46188333D01*
X142970238Y-46188333D01*
X143065476Y-46235952D01*
X143113095Y-46283571D01*
X143160714Y-46378809D01*
X143160714Y-46616904D01*
X143113095Y-46712142D01*
X143065476Y-46759761D01*
X142970238Y-46807380D01*
X142732142Y-46807380D01*
X142636904Y-46759761D01*
X142589285Y-46712142D01*
X142779761Y-38615952D02*
X142684523Y-38568333D01*
X142636904Y-38520714D01*
X142589285Y-38425476D01*
X142589285Y-38377857D01*
X142636904Y-38282619D01*
X142684523Y-38235000D01*
X142779761Y-38187380D01*
X142970238Y-38187380D01*
X143065476Y-38235000D01*
X143113095Y-38282619D01*
X143160714Y-38377857D01*
X143160714Y-38425476D01*
X143113095Y-38520714D01*
X143065476Y-38568333D01*
X142970238Y-38615952D01*
X142779761Y-38615952D01*
X142684523Y-38663571D01*
X142636904Y-38711190D01*
X142589285Y-38806428D01*
X142589285Y-38996904D01*
X142636904Y-39092142D01*
X142684523Y-39139761D01*
X142779761Y-39187380D01*
X142970238Y-39187380D01*
X143065476Y-39139761D01*
X143113095Y-39092142D01*
X143160714Y-38996904D01*
X143160714Y-38806428D01*
X143113095Y-38711190D01*
X143065476Y-38663571D01*
X142970238Y-38615952D01*
X126301476Y-45886714D02*
X126301476Y-46553380D01*
X126063380Y-45505761D02*
X125825285Y-46220047D01*
X126444333Y-46220047D01*
X143065476Y-43267380D02*
X142875000Y-43267380D01*
X142779761Y-43315000D01*
X142732142Y-43362619D01*
X142636904Y-43505476D01*
X142589285Y-43695952D01*
X142589285Y-44076904D01*
X142636904Y-44172142D01*
X142684523Y-44219761D01*
X142779761Y-44267380D01*
X142970238Y-44267380D01*
X143065476Y-44219761D01*
X143113095Y-44172142D01*
X143160714Y-44076904D01*
X143160714Y-43838809D01*
X143113095Y-43743571D01*
X143065476Y-43695952D01*
X142970238Y-43648333D01*
X142779761Y-43648333D01*
X142684523Y-43695952D01*
X142636904Y-43743571D01*
X142589285Y-43838809D01*
X125825285Y-40441619D02*
X125872904Y-40394000D01*
X125968142Y-40346380D01*
X126206238Y-40346380D01*
X126301476Y-40394000D01*
X126349095Y-40441619D01*
X126396714Y-40536857D01*
X126396714Y-40632095D01*
X126349095Y-40774952D01*
X125777666Y-41346380D01*
X126396714Y-41346380D01*
X125777666Y-42886380D02*
X126396714Y-42886380D01*
X126063380Y-43267333D01*
X126206238Y-43267333D01*
X126301476Y-43314952D01*
X126349095Y-43362571D01*
X126396714Y-43457809D01*
X126396714Y-43695904D01*
X126349095Y-43791142D01*
X126301476Y-43838761D01*
X126206238Y-43886380D01*
X125920523Y-43886380D01*
X125825285Y-43838761D01*
X125777666Y-43791142D01*
X142541666Y-40600380D02*
X143208333Y-40600380D01*
X142779761Y-41600380D01*
X126396714Y-38806380D02*
X125825285Y-38806380D01*
X126111000Y-38806380D02*
X126111000Y-37806380D01*
X126015761Y-37949238D01*
X125920523Y-38044476D01*
X125825285Y-38092095D01*
X138874476Y-34837714D02*
X138874476Y-35504380D01*
X138636380Y-34456761D02*
X138398285Y-35171047D01*
X139017333Y-35171047D01*
X130730666Y-34504380D02*
X131349714Y-34504380D01*
X131016380Y-34885333D01*
X131159238Y-34885333D01*
X131254476Y-34932952D01*
X131302095Y-34980571D01*
X131349714Y-35075809D01*
X131349714Y-35313904D01*
X131302095Y-35409142D01*
X131254476Y-35456761D01*
X131159238Y-35504380D01*
X130873523Y-35504380D01*
X130778285Y-35456761D01*
X130730666Y-35409142D01*
X136302714Y-35504380D02*
X135731285Y-35504380D01*
X136017000Y-35504380D02*
X136017000Y-34504380D01*
X135921761Y-34647238D01*
X135826523Y-34742476D01*
X135731285Y-34790095D01*
X133318285Y-34599619D02*
X133365904Y-34552000D01*
X133461142Y-34504380D01*
X133699238Y-34504380D01*
X133794476Y-34552000D01*
X133842095Y-34599619D01*
X133889714Y-34694857D01*
X133889714Y-34790095D01*
X133842095Y-34932952D01*
X133270666Y-35504380D01*
X133889714Y-35504380D01*
X119681666Y-40600380D02*
X120348333Y-40600380D01*
X119919761Y-41600380D01*
X119919761Y-38615952D02*
X119824523Y-38568333D01*
X119776904Y-38520714D01*
X119729285Y-38425476D01*
X119729285Y-38377857D01*
X119776904Y-38282619D01*
X119824523Y-38235000D01*
X119919761Y-38187380D01*
X120110238Y-38187380D01*
X120205476Y-38235000D01*
X120253095Y-38282619D01*
X120300714Y-38377857D01*
X120300714Y-38425476D01*
X120253095Y-38520714D01*
X120205476Y-38568333D01*
X120110238Y-38615952D01*
X119919761Y-38615952D01*
X119824523Y-38663571D01*
X119776904Y-38711190D01*
X119729285Y-38806428D01*
X119729285Y-38996904D01*
X119776904Y-39092142D01*
X119824523Y-39139761D01*
X119919761Y-39187380D01*
X120110238Y-39187380D01*
X120205476Y-39139761D01*
X120253095Y-39092142D01*
X120300714Y-38996904D01*
X120300714Y-38806428D01*
X120253095Y-38711190D01*
X120205476Y-38663571D01*
X120110238Y-38615952D01*
X120253095Y-45807380D02*
X119776904Y-45807380D01*
X119729285Y-46283571D01*
X119776904Y-46235952D01*
X119872142Y-46188333D01*
X120110238Y-46188333D01*
X120205476Y-46235952D01*
X120253095Y-46283571D01*
X120300714Y-46378809D01*
X120300714Y-46616904D01*
X120253095Y-46712142D01*
X120205476Y-46759761D01*
X120110238Y-46807380D01*
X119872142Y-46807380D01*
X119776904Y-46759761D01*
X119729285Y-46712142D01*
X120205476Y-43267380D02*
X120015000Y-43267380D01*
X119919761Y-43315000D01*
X119872142Y-43362619D01*
X119776904Y-43505476D01*
X119729285Y-43695952D01*
X119729285Y-44076904D01*
X119776904Y-44172142D01*
X119824523Y-44219761D01*
X119919761Y-44267380D01*
X120110238Y-44267380D01*
X120205476Y-44219761D01*
X120253095Y-44172142D01*
X120300714Y-44076904D01*
X120300714Y-43838809D01*
X120253095Y-43743571D01*
X120205476Y-43695952D01*
X120110238Y-43648333D01*
X119919761Y-43648333D01*
X119824523Y-43695952D01*
X119776904Y-43743571D01*
X119729285Y-43838809D01*
X103441476Y-45886714D02*
X103441476Y-46553380D01*
X103203380Y-45505761D02*
X102965285Y-46220047D01*
X103584333Y-46220047D01*
X103536714Y-38806380D02*
X102965285Y-38806380D01*
X103251000Y-38806380D02*
X103251000Y-37806380D01*
X103155761Y-37949238D01*
X103060523Y-38044476D01*
X102965285Y-38092095D01*
X102917666Y-42886380D02*
X103536714Y-42886380D01*
X103203380Y-43267333D01*
X103346238Y-43267333D01*
X103441476Y-43314952D01*
X103489095Y-43362571D01*
X103536714Y-43457809D01*
X103536714Y-43695904D01*
X103489095Y-43791142D01*
X103441476Y-43838761D01*
X103346238Y-43886380D01*
X103060523Y-43886380D01*
X102965285Y-43838761D01*
X102917666Y-43791142D01*
X102965285Y-40441619D02*
X103012904Y-40394000D01*
X103108142Y-40346380D01*
X103346238Y-40346380D01*
X103441476Y-40394000D01*
X103489095Y-40441619D01*
X103536714Y-40536857D01*
X103536714Y-40632095D01*
X103489095Y-40774952D01*
X102917666Y-41346380D01*
X103536714Y-41346380D01*
X195556238Y-45674062D02*
X195508619Y-45763348D01*
X195508619Y-45953824D01*
X195556238Y-46055014D01*
X195651476Y-46114538D01*
X195699095Y-46120491D01*
X195794333Y-46084776D01*
X195841952Y-45995491D01*
X195841952Y-45852633D01*
X195889571Y-45763348D01*
X195984809Y-45727633D01*
X196032428Y-45733586D01*
X196127666Y-45793110D01*
X196175285Y-45894300D01*
X196175285Y-46037157D01*
X196127666Y-46126443D01*
X195508619Y-46525252D02*
X196508619Y-46650252D01*
X195508619Y-46953824D02*
X196032428Y-47019300D01*
X196127666Y-46983586D01*
X196175285Y-46894300D01*
X196175285Y-46751443D01*
X196127666Y-46650252D01*
X196080047Y-46596681D01*
X195508619Y-47430014D02*
X196175285Y-47513348D01*
X196508619Y-47555014D02*
X196461000Y-47501443D01*
X196413380Y-47543110D01*
X196461000Y-47596681D01*
X196508619Y-47555014D01*
X196413380Y-47543110D01*
X196175285Y-47846681D02*
X196175285Y-48227633D01*
X195508619Y-47906205D02*
X196365761Y-48013348D01*
X196461000Y-48072872D01*
X196508619Y-48174062D01*
X196508619Y-48269300D01*
X196175285Y-48418110D02*
X196175285Y-48799062D01*
X196508619Y-48602633D02*
X195651476Y-48495491D01*
X195556238Y-48531205D01*
X195508619Y-48620491D01*
X195508619Y-48715729D01*
X196175285Y-49037157D02*
X195508619Y-49191919D01*
X196175285Y-49513348D02*
X195508619Y-49191919D01*
X195270523Y-49066919D01*
X195222904Y-49013348D01*
X195175285Y-48912157D01*
X195508619Y-49810967D02*
X196508619Y-49935967D01*
X196127666Y-49888348D02*
X196175285Y-49989538D01*
X196175285Y-50180014D01*
X196127666Y-50269300D01*
X196080047Y-50310967D01*
X195984809Y-50346681D01*
X195699095Y-50310967D01*
X195603857Y-50251443D01*
X195556238Y-50197872D01*
X195508619Y-50096681D01*
X195508619Y-49906205D01*
X195556238Y-49816919D01*
X195508619Y-50715729D02*
X196175285Y-50799062D01*
X196508619Y-50840729D02*
X196461000Y-50787157D01*
X196413380Y-50828824D01*
X196461000Y-50882395D01*
X196508619Y-50840729D01*
X196413380Y-50828824D01*
X196175285Y-51132395D02*
X196175285Y-51513348D01*
X196508619Y-51316919D02*
X195651476Y-51209776D01*
X195556238Y-51245491D01*
X195508619Y-51334776D01*
X195508619Y-51430014D01*
X195603857Y-51775252D02*
X195556238Y-51816919D01*
X195508619Y-51763348D01*
X195556238Y-51721681D01*
X195603857Y-51775252D01*
X195508619Y-51763348D01*
X195508619Y-52239538D02*
X196175285Y-52322872D01*
X196508619Y-52364538D02*
X196461000Y-52310967D01*
X196413380Y-52352633D01*
X196461000Y-52406205D01*
X196508619Y-52364538D01*
X196413380Y-52352633D01*
X195508619Y-52858586D02*
X195556238Y-52769300D01*
X195603857Y-52727633D01*
X195699095Y-52691919D01*
X195984809Y-52727633D01*
X196080047Y-52787157D01*
X196127666Y-52840729D01*
X196175285Y-52941919D01*
X196175285Y-53084776D01*
X196127666Y-53174062D01*
X196080047Y-53215729D01*
X195984809Y-53251443D01*
X195699095Y-53215729D01*
X195603857Y-53156205D01*
X195556238Y-53102633D01*
X195508619Y-53001443D01*
X195508619Y-52858586D01*
D11*
X197921619Y-45403000D02*
X198921619Y-45403000D01*
X197969238Y-46307761D02*
X197921619Y-46212523D01*
X197921619Y-46022047D01*
X197969238Y-45926809D01*
X198016857Y-45879190D01*
X198112095Y-45831571D01*
X198397809Y-45831571D01*
X198493047Y-45879190D01*
X198540666Y-45926809D01*
X198588285Y-46022047D01*
X198588285Y-46212523D01*
X198540666Y-46307761D01*
X197921619Y-47164904D02*
X198445428Y-47164904D01*
X198540666Y-47117285D01*
X198588285Y-47022047D01*
X198588285Y-46831571D01*
X198540666Y-46736333D01*
X197969238Y-47164904D02*
X197921619Y-47069666D01*
X197921619Y-46831571D01*
X197969238Y-46736333D01*
X198064476Y-46688714D01*
X198159714Y-46688714D01*
X198254952Y-46736333D01*
X198302571Y-46831571D01*
X198302571Y-47069666D01*
X198350190Y-47164904D01*
X197921619Y-47641095D02*
X198588285Y-47641095D01*
X198397809Y-47641095D02*
X198493047Y-47688714D01*
X198540666Y-47736333D01*
X198588285Y-47831571D01*
X198588285Y-47926809D01*
X198588285Y-48688714D02*
X197921619Y-48688714D01*
X198588285Y-48260142D02*
X198064476Y-48260142D01*
X197969238Y-48307761D01*
X197921619Y-48403000D01*
X197921619Y-48545857D01*
X197969238Y-48641095D01*
X198016857Y-48688714D01*
X197969238Y-49117285D02*
X197921619Y-49212523D01*
X197921619Y-49403000D01*
X197969238Y-49498238D01*
X198064476Y-49545857D01*
X198112095Y-49545857D01*
X198207333Y-49498238D01*
X198254952Y-49403000D01*
X198254952Y-49260142D01*
X198302571Y-49164904D01*
X198397809Y-49117285D01*
X198445428Y-49117285D01*
X198540666Y-49164904D01*
X198588285Y-49260142D01*
X198588285Y-49403000D01*
X198540666Y-49498238D01*
X198588285Y-50641095D02*
X197921619Y-50879190D01*
X198588285Y-51117285D01*
X198826380Y-51450619D02*
X198874000Y-51498238D01*
X198921619Y-51593476D01*
X198921619Y-51831571D01*
X198874000Y-51926809D01*
X198826380Y-51974428D01*
X198731142Y-52022047D01*
X198635904Y-52022047D01*
X198493047Y-51974428D01*
X197921619Y-51403000D01*
X197921619Y-52022047D01*
X198016857Y-52450619D02*
X197969238Y-52498238D01*
X197921619Y-52450619D01*
X197969238Y-52403000D01*
X198016857Y-52450619D01*
X197921619Y-52450619D01*
X198826380Y-52879190D02*
X198874000Y-52926809D01*
X198921619Y-53022047D01*
X198921619Y-53260142D01*
X198874000Y-53355380D01*
X198826380Y-53403000D01*
X198731142Y-53450619D01*
X198635904Y-53450619D01*
X198493047Y-53403000D01*
X197921619Y-52831571D01*
X197921619Y-53450619D01*
D10*
X116014476Y-34837714D02*
X116014476Y-35504380D01*
X115776380Y-34456761D02*
X115538285Y-35171047D01*
X116157333Y-35171047D01*
X107870666Y-34504380D02*
X108489714Y-34504380D01*
X108156380Y-34885333D01*
X108299238Y-34885333D01*
X108394476Y-34932952D01*
X108442095Y-34980571D01*
X108489714Y-35075809D01*
X108489714Y-35313904D01*
X108442095Y-35409142D01*
X108394476Y-35456761D01*
X108299238Y-35504380D01*
X108013523Y-35504380D01*
X107918285Y-35456761D01*
X107870666Y-35409142D01*
X110458285Y-34599619D02*
X110505904Y-34552000D01*
X110601142Y-34504380D01*
X110839238Y-34504380D01*
X110934476Y-34552000D01*
X110982095Y-34599619D01*
X111029714Y-34694857D01*
X111029714Y-34790095D01*
X110982095Y-34932952D01*
X110410666Y-35504380D01*
X111029714Y-35504380D01*
X113442714Y-35504380D02*
X112871285Y-35504380D01*
X113157000Y-35504380D02*
X113157000Y-34504380D01*
X113061761Y-34647238D01*
X112966523Y-34742476D01*
X112871285Y-34790095D01*
D12*
X110287000Y-62774000D02*
X110637000Y-62424000D01*
X113487000Y-62424000D02*
X113487000Y-62674000D01*
X113487000Y-62424000D02*
X113237000Y-62424000D01*
X110137000Y-62774000D02*
X110287000Y-62774000D01*
X110637000Y-62424000D02*
X110887000Y-62424000D01*
X110287000Y-67624000D02*
X110537000Y-67624000D01*
X110287000Y-67624000D02*
X110287000Y-67374000D01*
X113487000Y-67624000D02*
X113487000Y-67374000D01*
X113487000Y-67624000D02*
X113237000Y-67624000D01*
X136347000Y-67624000D02*
X136097000Y-67624000D01*
X136347000Y-67624000D02*
X136347000Y-67374000D01*
X133147000Y-67624000D02*
X133147000Y-67374000D01*
X133147000Y-67624000D02*
X133397000Y-67624000D01*
X133497000Y-62424000D02*
X133747000Y-62424000D01*
X132997000Y-62774000D02*
X133147000Y-62774000D01*
X136347000Y-62424000D02*
X136097000Y-62424000D01*
X136347000Y-62424000D02*
X136347000Y-62674000D01*
X133147000Y-62774000D02*
X133497000Y-62424000D01*
X156007000Y-62774000D02*
X156357000Y-62424000D01*
X159207000Y-62424000D02*
X159207000Y-62674000D01*
X159207000Y-62424000D02*
X158957000Y-62424000D01*
X155857000Y-62774000D02*
X156007000Y-62774000D01*
X156357000Y-62424000D02*
X156607000Y-62424000D01*
X156007000Y-67624000D02*
X156257000Y-67624000D01*
X156007000Y-67624000D02*
X156007000Y-67374000D01*
X159207000Y-67624000D02*
X159207000Y-67374000D01*
X159207000Y-67624000D02*
X158957000Y-67624000D01*
X182067000Y-67624000D02*
X181817000Y-67624000D01*
X182067000Y-67624000D02*
X182067000Y-67374000D01*
X178867000Y-67624000D02*
X178867000Y-67374000D01*
X178867000Y-67624000D02*
X179117000Y-67624000D01*
X179217000Y-62424000D02*
X179467000Y-62424000D01*
X178717000Y-62774000D02*
X178867000Y-62774000D01*
X182067000Y-62424000D02*
X181817000Y-62424000D01*
X182067000Y-62424000D02*
X182067000Y-62674000D01*
X178867000Y-62774000D02*
X179217000Y-62424000D01*
X178867000Y-39914000D02*
X179217000Y-39564000D01*
X182067000Y-39564000D02*
X182067000Y-39814000D01*
X182067000Y-39564000D02*
X181817000Y-39564000D01*
X178717000Y-39914000D02*
X178867000Y-39914000D01*
X179217000Y-39564000D02*
X179467000Y-39564000D01*
X178867000Y-44764000D02*
X179117000Y-44764000D01*
X178867000Y-44764000D02*
X178867000Y-44514000D01*
X182067000Y-44764000D02*
X182067000Y-44514000D01*
X182067000Y-44764000D02*
X181817000Y-44764000D01*
X159207000Y-44764000D02*
X158957000Y-44764000D01*
X159207000Y-44764000D02*
X159207000Y-44514000D01*
X156007000Y-44764000D02*
X156007000Y-44514000D01*
X156007000Y-44764000D02*
X156257000Y-44764000D01*
X156357000Y-39564000D02*
X156607000Y-39564000D01*
X155857000Y-39914000D02*
X156007000Y-39914000D01*
X159207000Y-39564000D02*
X158957000Y-39564000D01*
X159207000Y-39564000D02*
X159207000Y-39814000D01*
X156007000Y-39914000D02*
X156357000Y-39564000D01*
X133147000Y-39914000D02*
X133497000Y-39564000D01*
X136347000Y-39564000D02*
X136347000Y-39814000D01*
X136347000Y-39564000D02*
X136097000Y-39564000D01*
X132997000Y-39914000D02*
X133147000Y-39914000D01*
X133497000Y-39564000D02*
X133747000Y-39564000D01*
X133147000Y-44764000D02*
X133397000Y-44764000D01*
X133147000Y-44764000D02*
X133147000Y-44514000D01*
X136347000Y-44764000D02*
X136347000Y-44514000D01*
X136347000Y-44764000D02*
X136097000Y-44764000D01*
X113487000Y-44764000D02*
X113237000Y-44764000D01*
X113487000Y-44764000D02*
X113487000Y-44514000D01*
X110287000Y-44764000D02*
X110287000Y-44514000D01*
X110287000Y-44764000D02*
X110537000Y-44764000D01*
X110637000Y-39564000D02*
X110887000Y-39564000D01*
X110137000Y-39914000D02*
X110287000Y-39914000D01*
X113487000Y-39564000D02*
X113237000Y-39564000D01*
X113487000Y-39564000D02*
X113487000Y-39814000D01*
X110287000Y-39914000D02*
X110637000Y-39564000D01*
M02*
