G04 #@! TF.GenerationSoftware,KiCad,Pcbnew,(5.1.4)-1*
G04 #@! TF.CreationDate,2020-02-01T11:21:23-05:00*
G04 #@! TF.ProjectId,bob_ws2811_driver,626f625f-7773-4323-9831-315f64726976,rev?*
G04 #@! TF.SameCoordinates,Original*
G04 #@! TF.FileFunction,Copper,L2,Bot*
G04 #@! TF.FilePolarity,Positive*
%FSLAX46Y46*%
G04 Gerber Fmt 4.6, Leading zero omitted, Abs format (unit mm)*
G04 Created by KiCad (PCBNEW (5.1.4)-1) date 2020-02-01 11:21:23*
%MOMM*%
%LPD*%
G04 APERTURE LIST*
%ADD10R,2.000000X0.899160*%
%ADD11C,1.500000*%
%ADD12C,0.250000*%
G04 APERTURE END LIST*
D10*
X109887000Y-52184300D03*
X109887000Y-50685700D03*
X113887000Y-50685700D03*
X113887000Y-52184300D03*
D11*
X108156000Y-55928000D03*
X110696000Y-55928000D03*
X113236000Y-55928000D03*
X115776000Y-55928000D03*
X117427000Y-61547000D03*
X117427000Y-64087000D03*
X117427000Y-66627000D03*
X117427000Y-69167000D03*
X105997000Y-61547000D03*
X105997000Y-64087000D03*
X105997000Y-66627000D03*
X105997000Y-69167000D03*
X138636000Y-55928000D03*
X136096000Y-55928000D03*
X133556000Y-55928000D03*
X131016000Y-55928000D03*
D10*
X136747000Y-52184300D03*
X136747000Y-50685700D03*
X132747000Y-50685700D03*
X132747000Y-52184300D03*
D11*
X140287000Y-69167000D03*
X140287000Y-66627000D03*
X140287000Y-64087000D03*
X140287000Y-61547000D03*
X128857000Y-69167000D03*
X128857000Y-66627000D03*
X128857000Y-64087000D03*
X128857000Y-61547000D03*
X153876000Y-55928000D03*
X156416000Y-55928000D03*
X158956000Y-55928000D03*
X161496000Y-55928000D03*
D10*
X155607000Y-52184300D03*
X155607000Y-50685700D03*
X159607000Y-50685700D03*
X159607000Y-52184300D03*
D11*
X163147000Y-61547000D03*
X163147000Y-64087000D03*
X163147000Y-66627000D03*
X163147000Y-69167000D03*
X151717000Y-61547000D03*
X151717000Y-64087000D03*
X151717000Y-66627000D03*
X151717000Y-69167000D03*
X186007000Y-69167000D03*
X186007000Y-66627000D03*
X186007000Y-64087000D03*
X186007000Y-61547000D03*
X174577000Y-69167000D03*
X174577000Y-66627000D03*
X174577000Y-64087000D03*
X174577000Y-61547000D03*
X184356000Y-55928000D03*
X181816000Y-55928000D03*
X179276000Y-55928000D03*
X176736000Y-55928000D03*
D10*
X182467000Y-52184300D03*
X182467000Y-50685700D03*
X178467000Y-50685700D03*
X178467000Y-52184300D03*
D11*
X186007000Y-38687000D03*
X186007000Y-41227000D03*
X186007000Y-43767000D03*
X186007000Y-46307000D03*
X174577000Y-38687000D03*
X174577000Y-41227000D03*
X174577000Y-43767000D03*
X174577000Y-46307000D03*
X176736000Y-33068000D03*
X179276000Y-33068000D03*
X181816000Y-33068000D03*
X184356000Y-33068000D03*
D10*
X178467000Y-29324300D03*
X178467000Y-27825700D03*
X182467000Y-27825700D03*
X182467000Y-29324300D03*
D11*
X151717000Y-46307000D03*
X151717000Y-43767000D03*
X151717000Y-41227000D03*
X151717000Y-38687000D03*
X163147000Y-46307000D03*
X163147000Y-43767000D03*
X163147000Y-41227000D03*
X163147000Y-38687000D03*
X161496000Y-33068000D03*
X158956000Y-33068000D03*
X156416000Y-33068000D03*
X153876000Y-33068000D03*
D10*
X159607000Y-29324300D03*
X159607000Y-27825700D03*
X155607000Y-27825700D03*
X155607000Y-29324300D03*
X132747000Y-29324300D03*
X132747000Y-27825700D03*
X136747000Y-27825700D03*
X136747000Y-29324300D03*
D11*
X128857000Y-38687000D03*
X128857000Y-41227000D03*
X128857000Y-43767000D03*
X128857000Y-46307000D03*
X131016000Y-33068000D03*
X133556000Y-33068000D03*
X136096000Y-33068000D03*
X138636000Y-33068000D03*
X140287000Y-38687000D03*
X140287000Y-41227000D03*
X140287000Y-43767000D03*
X140287000Y-46307000D03*
X115776000Y-33068000D03*
X113236000Y-33068000D03*
X110696000Y-33068000D03*
X108156000Y-33068000D03*
D10*
X113887000Y-29324300D03*
X113887000Y-27825700D03*
X109887000Y-27825700D03*
X109887000Y-29324300D03*
D11*
X105997000Y-46307000D03*
X105997000Y-43767000D03*
X105997000Y-41227000D03*
X105997000Y-38687000D03*
X117427000Y-46307000D03*
X117427000Y-43767000D03*
X117427000Y-41227000D03*
X117427000Y-38687000D03*
D12*
X108156000Y-33068000D02*
X108156000Y-28242000D01*
X108572300Y-27825700D02*
X109626400Y-27825700D01*
X108156000Y-28242000D02*
X108572300Y-27825700D01*
X110696000Y-30393900D02*
X109626400Y-29324300D01*
X110696000Y-33068000D02*
X110696000Y-30393900D01*
X113236000Y-30235900D02*
X114147600Y-29324300D01*
X113236000Y-33068000D02*
X113236000Y-30235900D01*
X115776000Y-33068000D02*
X115776000Y-28273000D01*
X115328700Y-27825700D02*
X114147600Y-27825700D01*
X115776000Y-28273000D02*
X115328700Y-27825700D01*
X136096000Y-33068000D02*
X136096000Y-30235900D01*
X138636000Y-28273000D02*
X138188700Y-27825700D01*
X138636000Y-33068000D02*
X138636000Y-28273000D01*
X131432300Y-27825700D02*
X132486400Y-27825700D01*
X131016000Y-28242000D02*
X131432300Y-27825700D01*
X131016000Y-33068000D02*
X131016000Y-28242000D01*
X133556000Y-33068000D02*
X133556000Y-30393900D01*
X133556000Y-30393900D02*
X132486400Y-29324300D01*
X136096000Y-30235900D02*
X137007600Y-29324300D01*
X138188700Y-27825700D02*
X137007600Y-27825700D01*
X158956000Y-30235900D02*
X159867600Y-29324300D01*
X161048700Y-27825700D02*
X159867600Y-27825700D01*
X156416000Y-30393900D02*
X155346400Y-29324300D01*
X161496000Y-33068000D02*
X161496000Y-28273000D01*
X154292300Y-27825700D02*
X155346400Y-27825700D01*
X153876000Y-28242000D02*
X154292300Y-27825700D01*
X153876000Y-33068000D02*
X153876000Y-28242000D01*
X156416000Y-33068000D02*
X156416000Y-30393900D01*
X158956000Y-33068000D02*
X158956000Y-30235900D01*
X161496000Y-28273000D02*
X161048700Y-27825700D01*
X184356000Y-28273000D02*
X183908700Y-27825700D01*
X181816000Y-33068000D02*
X181816000Y-30235900D01*
X179276000Y-33068000D02*
X179276000Y-30393900D01*
X183908700Y-27825700D02*
X182727600Y-27825700D01*
X181816000Y-30235900D02*
X182727600Y-29324300D01*
X176736000Y-33068000D02*
X176736000Y-28242000D01*
X179276000Y-30393900D02*
X178206400Y-29324300D01*
X184356000Y-33068000D02*
X184356000Y-28273000D01*
X177152300Y-27825700D02*
X178206400Y-27825700D01*
X176736000Y-28242000D02*
X177152300Y-27825700D01*
X184356000Y-55928000D02*
X184356000Y-51133000D01*
X177152300Y-50685700D02*
X178206400Y-50685700D01*
X179276000Y-55928000D02*
X179276000Y-53253900D01*
X184356000Y-51133000D02*
X183908700Y-50685700D01*
X181816000Y-53095900D02*
X182727600Y-52184300D01*
X183908700Y-50685700D02*
X182727600Y-50685700D01*
X181816000Y-55928000D02*
X181816000Y-53095900D01*
X179276000Y-53253900D02*
X178206400Y-52184300D01*
X176736000Y-55928000D02*
X176736000Y-51102000D01*
X176736000Y-51102000D02*
X177152300Y-50685700D01*
X154292300Y-50685700D02*
X155346400Y-50685700D01*
X161048700Y-50685700D02*
X159867600Y-50685700D01*
X156416000Y-55928000D02*
X156416000Y-53253900D01*
X156416000Y-53253900D02*
X155346400Y-52184300D01*
X153876000Y-51102000D02*
X154292300Y-50685700D01*
X158956000Y-53095900D02*
X159867600Y-52184300D01*
X153876000Y-55928000D02*
X153876000Y-51102000D01*
X158956000Y-55928000D02*
X158956000Y-53095900D01*
X161496000Y-55928000D02*
X161496000Y-51133000D01*
X161496000Y-51133000D02*
X161048700Y-50685700D01*
X138188700Y-50685700D02*
X137007600Y-50685700D01*
X131432300Y-50685700D02*
X132486400Y-50685700D01*
X133556000Y-53253900D02*
X132486400Y-52184300D01*
X131016000Y-55928000D02*
X131016000Y-51102000D01*
X138636000Y-55928000D02*
X138636000Y-51133000D01*
X131016000Y-51102000D02*
X131432300Y-50685700D01*
X136096000Y-53095900D02*
X137007600Y-52184300D01*
X133556000Y-55928000D02*
X133556000Y-53253900D01*
X136096000Y-55928000D02*
X136096000Y-53095900D01*
X138636000Y-51133000D02*
X138188700Y-50685700D01*
X113236000Y-53095900D02*
X114147600Y-52184300D01*
X110696000Y-55928000D02*
X110696000Y-53253900D01*
X108156000Y-55928000D02*
X108156000Y-51102000D01*
X108572300Y-50685700D02*
X109626400Y-50685700D01*
X108156000Y-51102000D02*
X108572300Y-50685700D01*
X110696000Y-53253900D02*
X109626400Y-52184300D01*
X115328700Y-50685700D02*
X114147600Y-50685700D01*
X115776000Y-55928000D02*
X115776000Y-51133000D01*
X113236000Y-55928000D02*
X113236000Y-53095900D01*
X115776000Y-51133000D02*
X115328700Y-50685700D01*
M02*
