<?xml version="1.0" encoding="UTF-8" standalone="no"?>
<!-- Created with Inkscape (http://www.inkscape.org/) -->

<svg
   xmlns:dc="http://purl.org/dc/elements/1.1/"
   xmlns:cc="http://creativecommons.org/ns#"
   xmlns:rdf="http://www.w3.org/1999/02/22-rdf-syntax-ns#"
   xmlns:svg="http://www.w3.org/2000/svg"
   xmlns="http://www.w3.org/2000/svg"
   xmlns:sodipodi="http://sodipodi.sourceforge.net/DTD/sodipodi-0.dtd"
   xmlns:inkscape="http://www.inkscape.org/namespaces/inkscape"
   width="50mm"
   height="29.962118mm"
   viewBox="0 0 177.16535 106.16498"
   id="svg2"
   version="1.1"
   inkscape:version="0.92.4 (5da689c313, 2019-01-14)"
   sodipodi:docname="kitByHand.svg">
  <defs
     id="defs4">
    <inkscape:path-effect
       effect="bspline"
       id="path-effect133"
       is_visible="true"
       weight="33.333333"
       steps="2"
       helper_size="0"
       apply_no_weight="true"
       apply_with_weight="true"
       only_selected="false" />
    <inkscape:path-effect
       effect="bspline"
       id="path-effect127"
       is_visible="true"
       weight="33.333333"
       steps="2"
       helper_size="0"
       apply_no_weight="true"
       apply_with_weight="true"
       only_selected="false" />
    <inkscape:path-effect
       effect="bspline"
       id="path-effect123"
       is_visible="true"
       weight="33.333333"
       steps="2"
       helper_size="0"
       apply_no_weight="true"
       apply_with_weight="true"
       only_selected="false" />
  </defs>
  <sodipodi:namedview
     id="base"
     pagecolor="#232323"
     bordercolor="#666666"
     borderopacity="1.0"
     inkscape:pageopacity="0.03137255"
     inkscape:pageshadow="2"
     inkscape:zoom="2.8284272"
     inkscape:cx="28.320392"
     inkscape:cy="34.879304"
     inkscape:document-units="px"
     inkscape:current-layer="g129"
     showgrid="false"
     inkscape:window-width="1366"
     inkscape:window-height="676"
     inkscape:window-x="0"
     inkscape:window-y="27"
     inkscape:window-maximized="1"
     inkscape:pagecheckerboard="false"
     inkscape:snap-global="false" />
  <metadata
     id="metadata7">
    <rdf:RDF>
      <cc:Work
         rdf:about="">
        <dc:format>image/svg+xml</dc:format>
        <dc:type
           rdf:resource="http://purl.org/dc/dcmitype/StillImage" />
        <dc:title></dc:title>
      </cc:Work>
    </rdf:RDF>
  </metadata>
  <g
     style="display:inline"
     transform="translate(-43.460508,-876.0123)"
     inkscape:label="SilkS"
     id="g129"
     inkscape:groupmode="layer">
    <path
       style="fill:none;fill-opacity:1;fill-rule:evenodd;stroke:#ffffff;stroke-width:0.53625;stroke-linecap:butt;stroke-linejoin:miter;stroke-miterlimit:4;stroke-dasharray:none;stroke-opacity:1"
       d="m 136.82415,875.39157 c -14.86273,0.31761 -29.79247,0.5067 -44.51537,2.7817 -8.068566,4.2212 -10.941438,14.88473 -19.16697,18.14854 -6.742472,-0.0155 -13.731393,3.59358 -12.632439,10.61981 -9.79985,8.36684 -14.753361,20.96803 -16.94359,33.37166 -1.483737,8.88385 0.6554,18.19047 6.069669,25.37253 2.80561,5.93082 2.418125,16.73614 11.572248,16.06024 7.159537,-0.0356 14.461543,0.19716 18.533082,-6.61844 9.451526,-0.1525 19.266686,0.7084 28.8651,0.89673 15.21084,0.85219 30.42878,0.75185 45.62242,-0.32178 11.1963,-0.56163 22.39259,-1.12326 33.58889,-1.6849 1.57354,10.5385 15.85786,8.0812 22.99135,5.85009 6.10932,-5.62855 2.82348,-14.98046 6.44816,-21.85963 3.27768,-9.79106 4.34169,-20.76816 0.0268,-30.43413 -1.82196,-8.75668 -8.29801,-15.41626 -11.79713,-23.08156 0.99912,-7.90588 -6.09364,-9.07841 -12.09964,-8.90116 -8.94364,-4.17021 -11.60596,-16.40209 -21.71933,-18.94458 -11.56967,-0.71246 -23.22027,-1.2593 -34.84328,-1.25512 z"
       id="path4572"
       inkscape:connector-curvature="0" />
    <path
       style="fill:none;fill-opacity:1;fill-rule:evenodd;stroke:#ffffff;stroke-width:0.53625;stroke-linecap:butt;stroke-linejoin:miter;stroke-miterlimit:4;stroke-dasharray:none;stroke-opacity:1"
       d="m 195.77312,897.00168 c 4.52666,-3.66538 13.18625,9.75711 6.69262,3.5616 -0.47706,-1.17203 -10.62842,-3.41033 -6.69262,-3.5616 z"
       id="path4570"
       inkscape:connector-curvature="0" />
    <path
       style="fill:none;fill-opacity:1;fill-rule:evenodd;stroke:#ffffff;stroke-width:0.53625;stroke-linecap:butt;stroke-linejoin:miter;stroke-miterlimit:4;stroke-dasharray:none;stroke-opacity:1"
       d="m 71.492123,898.51962 c 0.274711,2.07789 -9.082176,2.25083 -9.396973,6.91956 -0.498736,-5.13324 5.147986,-7.36128 9.396973,-6.91956 z"
       id="path4568"
       inkscape:connector-curvature="0" />
    <path
       style="fill:none;fill-opacity:1;fill-rule:evenodd;stroke:#ffffff;stroke-width:0.53625;stroke-linecap:butt;stroke-linejoin:miter;stroke-miterlimit:4;stroke-dasharray:none;stroke-opacity:1"
       d="m 54.944882,950.68454 c 5.788073,1.77834 19.510754,-3.69044 18.390954,6.45306 -4.2814,5.20279 -13.798464,0.82099 -18.779525,0.79173 -0.66994,-2.27026 -1.142023,-5.21778 0.388571,-7.24479 z"
       id="path4566"
       inkscape:connector-curvature="0" />
    <path
       style="fill:none;fill-opacity:1;fill-rule:evenodd;stroke:#ffffff;stroke-width:0.53625;stroke-linecap:butt;stroke-linejoin:miter;stroke-miterlimit:4;stroke-dasharray:none;stroke-opacity:1"
       d="m 207.33257,950.91342 c 5.13443,8.58925 -6.68129,9.41324 -12.30731,8.64836 -9.43883,2.47593 -7.43513,-10.86064 0.96083,-8.29074 3.8074,0.20217 7.55979,-0.11625 11.34648,-0.35762 z"
       id="path4564"
       inkscape:connector-curvature="0" />
    <path
       style="fill:none;fill-opacity:1;fill-rule:evenodd;stroke:#ffffff;stroke-width:0.53625;stroke-linecap:butt;stroke-linejoin:miter;stroke-miterlimit:4;stroke-dasharray:none;stroke-opacity:1"
       d="m 74.383358,951.70627 c 5.55587,2.2523 20.571405,-2.263 18.294995,7.26319 -5.295665,3.09092 -13.013133,0.49502 -18.426783,-0.16876 -0.908799,-2.2753 -0.04969,-4.766 0.131788,-7.09443 z"
       id="path4562"
       inkscape:connector-curvature="0" />
    <path
       style="fill:none;fill-opacity:1;fill-rule:evenodd;stroke:#ffffff;stroke-width:0.53625;stroke-linecap:butt;stroke-linejoin:miter;stroke-miterlimit:4;stroke-dasharray:none;stroke-opacity:1"
       d="m 188.07537,952.1091 c 3.57962,9.51711 -8.3531,8.38149 -14.14126,8.41828 -10.08349,0.0476 -3.77711,-10.35991 3.52649,-7.58265 3.5482,-0.15896 7.0738,-0.58041 10.61477,-0.83563 z"
       id="path4560"
       inkscape:connector-curvature="0" />
    <path
       style="fill:none;fill-opacity:1;fill-rule:evenodd;stroke:#ffffff;stroke-width:0.53625;stroke-linecap:butt;stroke-linejoin:miter;stroke-miterlimit:4;stroke-dasharray:none;stroke-opacity:1"
       d="m 168.48858,953.6893 c 2.35264,10.57827 -13.39703,7.31729 -18.98087,6.4142 -2.60524,-6.3007 5.56817,-5.23458 9.48645,-5.64792 3.16481,-0.25542 6.32961,-0.51085 9.49442,-0.76628 z"
       id="path4558"
       inkscape:connector-curvature="0" />
    <path
       style="fill:none;fill-opacity:1;fill-rule:evenodd;stroke:#ffffff;stroke-width:0.53625;stroke-linecap:butt;stroke-linejoin:miter;stroke-miterlimit:4;stroke-dasharray:none;stroke-opacity:1"
       d="m 93.788875,953.72958 c 5.92542,1.88047 16.737925,-0.85901 19.410755,4.10113 -1.24108,6.45601 -11.25568,1.30969 -16.251237,2.54718 -4.756427,0.88967 -2.753771,-3.68542 -3.159518,-6.64831 z"
       id="path4556"
       inkscape:connector-curvature="0" />
    <path
       style="fill:none;fill-opacity:1;fill-rule:evenodd;stroke:#ffffff;stroke-width:0.53625;stroke-linecap:butt;stroke-linejoin:miter;stroke-miterlimit:4;stroke-dasharray:none;stroke-opacity:1"
       d="m 216.70757,958.68991 c -7.86937,4.37522 -17.24351,1.50192 -25.75892,3.00708 -20.11996,0.89133 -40.24212,1.79954 -60.37938,2.19311 28.71037,-1.77327 57.4494,-3.08576 86.1383,-5.20019 z"
       id="path4554"
       inkscape:connector-curvature="0" />
    <path
       style="fill:none;fill-opacity:1;fill-rule:evenodd;stroke:#ffffff;stroke-width:0.53625;stroke-linecap:butt;stroke-linejoin:miter;stroke-miterlimit:4;stroke-dasharray:none;stroke-opacity:1"
       d="m 214.4334,963.56418 c -5.3519,4.50993 -13.05721,1.27432 -19.37587,3.00168 -21.53177,1.2686 -43.06372,3.02182 -64.64939,2.85037 28.01975,-1.77336 56.07897,-3.08106 84.02526,-5.85205 z"
       id="path4552"
       inkscape:connector-curvature="0" />
    <path
       style="fill:none;fill-opacity:1;fill-rule:evenodd;stroke:#ffffff;stroke-width:0.53625;stroke-linecap:butt;stroke-linejoin:miter;stroke-miterlimit:4;stroke-dasharray:none;stroke-opacity:1"
       d="m 132.35821,970.87924 c 16.92589,1.87228 33.99085,1.65268 50.98571,1.16272 0.85148,4.7291 -9.80071,1.18483 -13.26771,2.66135 -12.62699,0.51303 -25.25398,1.02605 -37.88097,1.53909 0.0543,-1.78772 0.10865,-3.57544 0.16297,-5.36316 z"
       id="path127"
       inkscape:connector-curvature="0" />
    <path
       style="display:inline;opacity:1;fill:none;fill-opacity:1;fill-rule:evenodd;stroke:#ffffff;stroke-width:0.53625;stroke-linecap:butt;stroke-linejoin:miter;stroke-miterlimit:4;stroke-dasharray:none;stroke-opacity:1"
       d="m 185.15202,924.22873 c 8.50479,0.33044 19.88667,-1.67051 26.61021,2.04094 3.32006,4.96988 -0.25511,8.68152 -5.662,6.68864 -6.31136,-1.36969 -17.16285,2.55471 -20.48834,-2.29449 -0.3639,-2.11931 -0.72837,-4.28067 -0.45987,-6.43509 z"
       id="path4295"
       inkscape:connector-curvature="0" />
    <path
       style="display:inline;opacity:1;fill:none;fill-opacity:1;fill-rule:evenodd;stroke:#ffffff;stroke-width:0.53625;stroke-linecap:butt;stroke-linejoin:miter;stroke-miterlimit:4;stroke-dasharray:none;stroke-opacity:1"
       d="m 53.508624,925.4151 c 7.93408,0.59918 19.951296,-3.50352 25.302181,0.70997 1.205394,10.99755 -11.757499,6.20364 -18.412447,7.29141 -6.970008,-0.31205 -13.308428,2.99986 -6.889734,-8.00138 z"
       id="path4297"
       inkscape:connector-curvature="0" />
  </g>
  <g
     inkscape:groupmode="layer"
     id="layer3"
     inkscape:label="Mask"
     transform="translate(-43.460508,-876.0123)"
     style="display:none">
    <path
       transform="matrix(0.1608911,0,0,0.1608911,84.250317,857.30871)"
       sodipodi:nodetypes="ccccccccssc"
       inkscape:connector-curvature="0"
       id="maskWindow"
       d="m -59.599,282.62597 c 132.330458,-6.84073 227.01164,-9.71838 336.3808,-14.14214 l 19.1929,-12.12183 110.0998,1.50822 111.1236,1.52224 12.12183,11.11167 c 45.73412,2.35702 89.62561,4.71405 131.31983,7.07107 l 16.16245,3.03046 C 637.77936,216.30105 609.54042,177.79237 561.64482,141.20461 535.68306,121.37226 75.691379,121.75086 50.002551,144.23507 5.3267379,183.33769 -27.044511,229.7015 -59.599,282.62597 Z"
       style="display:inline;opacity:1;fill:#74ffff;fill-opacity:0.37244903;fill-rule:evenodd;stroke:none;stroke-width:1px;stroke-linecap:butt;stroke-linejoin:miter;stroke-opacity:1" />
    <path
       style="opacity:1;fill:#74ffff;fill-opacity:0.37254902;stroke:none;stroke-width:0.53503931;stroke-miterlimit:4;stroke-dasharray:none;stroke-opacity:1"
       d="m 103.79134,933.99252 c 18.0851,-0.22539 37.48143,0.0211 55.56759,-0.0379 l -2.8125,4.51172 -50.5664,0.27936 z"
       id="chaserMask"
       inkscape:connector-curvature="0"
       sodipodi:nodetypes="ccccc" />
  </g>
  <g
     inkscape:groupmode="layer"
     id="layer4"
     inkscape:label="CU"
     style="display:inline;opacity:0.17099998">
    <path
       style="display:inline;opacity:1;fill:#ffffff;fill-opacity:1;fill-rule:evenodd;stroke:none;stroke-width:1px;stroke-linecap:butt;stroke-linejoin:miter;stroke-opacity:1"
       d="m -59.599,282.62597 c 132.330458,-6.84073 227.01164,-9.71838 336.3808,-14.14214 l 19.1929,-12.12183 110.0998,1.50822 111.1236,1.52224 12.12183,11.11167 c 45.73412,2.35702 89.62561,4.71405 131.31983,7.07107 l 16.16245,3.03046 C 637.77936,216.30105 609.54042,177.79237 561.64482,141.20461 535.68306,121.37226 75.691379,121.75086 50.002551,144.23507 5.3267379,183.33769 -27.044511,229.7015 -59.599,282.62597 Z"
       id="cuWindow"
       inkscape:connector-curvature="0"
       sodipodi:nodetypes="ccccccccssc"
       transform="matrix(0.1608911,0,0,0.1608911,40.789809,-18.70359)"
       inkscape:label="cuWindow" />
    <path
       style="opacity:1;fill:#ffffff;fill-opacity:1;fill-rule:evenodd;stroke:none;stroke-width:1px;stroke-linecap:butt;stroke-linejoin:miter;stroke-opacity:1"
       d="m -118.65065,305.72443 c -42.76992,12.73919 -72.92492,59.36159 -94.20649,103.06635 -15.8399,43.75756 -33.41172,87.26771 -36.42857,132.85714 l 397.85714,53.57143 9.28571,-10 130.20921,6.50779 131.21936,-6.50779 10,10.71428 c 137.33949,-11.57006 349.05396,-22.52027 395.00001,-44.28571 12.1282,-5.74534 17.14312,-23.00836 17.14285,-36.42857 -6.4e-4,-31.35203 -14.48202,-72.85715 -27.85714,-109.28572 -12.25158,-30.88678 -27.7509,-57.44324 -45.71429,-80.71428 -11.85108,-10.97578 -22.17948,-15.86079 -32.14285,-19.28572 16.32446,22.38827 33.17301,47.12377 45,73.21429 13.63429,30.07745 22.55383,62.72015 29.28571,94.64286 l -327.85714,0.71428 -15,1.42857 -17.85715,28.57143 L 135,505.93363 l -13.57143,-29.28571 -337.14286,2.85715 c 5.06557,-24.83413 11.40856,-42.84092 19.58158,-63.39068 6.89013,-17.32416 24.70414,-50.18076 24.70414,-50.18076 11.84857,-23.30416 31.17283,-42.01176 52.77792,-60.2092 z"
       id="cuTrim"
       inkscape:connector-curvature="0"
       sodipodi:nodetypes="ccccccccsscccacccccccacc"
       transform="matrix(0.1608911,0,0,0.1608911,40.789809,-18.70359)"
       inkscape:label="cuTrim" />
    <path
       style="display:inline;fill:#ffffff;fill-opacity:1;fill-rule:evenodd;stroke:none;stroke-width:1px;stroke-linecap:butt;stroke-linejoin:miter;stroke-opacity:1"
       d="m -192.14285,419.50506 c 0,0 158.761646,-8.04053 163.153003,-3.85986 4.124803,3.9269 -3.666147,27.13941 -6.811096,58.14558 l 662.943803,-4.64286 c 0.92437,0 -8.11489,-52.01763 -5.35715,-56.25 3.57076,-5.48012 166.78572,3.03571 166.78572,3.03571 C 777.70716,384.49946 749.26585,303.85401 700,293.79078 l -158.57143,-10 c -26.38722,45.09876 -91.24945,58.71798 -137.14285,87.85714 37.92178,-35.95238 99.35205,-71.90476 108.57142,-107.85714 l -215.71428,-2.85715 -32.85715,20 -338.571424,8.57143 c -26.633546,6.30849 -45.186026,18.33691 -62.142856,35 -26.18419,25.73061 -41.14639,58.65079 -55.71428,95 z"
       id="cuHood"
       inkscape:connector-curvature="0"
       sodipodi:nodetypes="csccsccccccccac"
       transform="matrix(0.1608911,0,0,0.1608911,40.789809,-18.70359)" />
  </g>
</svg>
