<?xml version="1.0" encoding="UTF-8" standalone="no"?>
<!-- Created with Inkscape (http://www.inkscape.org/) -->

<svg
   xmlns:dc="http://purl.org/dc/elements/1.1/"
   xmlns:cc="http://creativecommons.org/ns#"
   xmlns:rdf="http://www.w3.org/1999/02/22-rdf-syntax-ns#"
   xmlns:svg="http://www.w3.org/2000/svg"
   xmlns="http://www.w3.org/2000/svg"
   xmlns:sodipodi="http://sodipodi.sourceforge.net/DTD/sodipodi-0.dtd"
   xmlns:inkscape="http://www.inkscape.org/namespaces/inkscape"
   width="50mm"
   height="29.962118mm"
   viewBox="0 0 177.16535 106.16498"
   id="svg2"
   version="1.1"
   inkscape:version="0.92.4 (5da689c313, 2019-01-14)"
   sodipodi:docname="kitByHand.svg">
  <defs
     id="defs4">
    <inkscape:path-effect
       effect="bspline"
       id="path-effect133"
       is_visible="true"
       weight="33.333333"
       steps="2"
       helper_size="0"
       apply_no_weight="true"
       apply_with_weight="true"
       only_selected="false" />
    <inkscape:path-effect
       effect="bspline"
       id="path-effect127"
       is_visible="true"
       weight="33.333333"
       steps="2"
       helper_size="0"
       apply_no_weight="true"
       apply_with_weight="true"
       only_selected="false" />
    <inkscape:path-effect
       effect="bspline"
       id="path-effect123"
       is_visible="true"
       weight="33.333333"
       steps="2"
       helper_size="0"
       apply_no_weight="true"
       apply_with_weight="true"
       only_selected="false" />
  </defs>
  <sodipodi:namedview
     id="base"
     pagecolor="#232323"
     bordercolor="#666666"
     borderopacity="1.0"
     inkscape:pageopacity="0.03137255"
     inkscape:pageshadow="2"
     inkscape:zoom="8.0000001"
     inkscape:cx="95.491112"
     inkscape:cy="57.288008"
     inkscape:document-units="px"
     inkscape:current-layer="g129"
     showgrid="false"
     inkscape:window-width="1920"
     inkscape:window-height="1147"
     inkscape:window-x="-8"
     inkscape:window-y="-8"
     inkscape:window-maximized="1"
     inkscape:pagecheckerboard="false" />
  <metadata
     id="metadata7">
    <rdf:RDF>
      <cc:Work
         rdf:about="">
        <dc:format>image/svg+xml</dc:format>
        <dc:type
           rdf:resource="http://purl.org/dc/dcmitype/StillImage" />
        <dc:title />
      </cc:Work>
    </rdf:RDF>
  </metadata>
  <g
     style="display:inline"
     transform="translate(-43.460508,-876.0123)"
     inkscape:label="SilkS"
     id="g129"
     inkscape:groupmode="layer">
    <path
       style="fill:none;fill-opacity:1;fill-rule:evenodd;stroke:#ffffff;stroke-width:0.57200003;stroke-linecap:butt;stroke-linejoin:miter;stroke-miterlimit:4;stroke-dasharray:none;stroke-opacity:1"
       d="m 99.587891,-0.66210938 c -0.986539,0 -1.934956,0.004179 -2.835938,0.0136719 C 81.571195,-0.49484818 53.987059,1.0915481 51.322266,2.5859375 49.237095,3.7552709 40.495777,13.123811 34.082031,21.988281 c -0.881996,0.02667 -2.132931,0.0735 -2.935547,0.15625 -3.087203,0.318326 -6.609271,-0.248209 -9.193359,1.470703 -1.741853,1.158656 -2.902549,3.280181 -3.310547,5.332032 -0.235787,1.185792 0.356952,3.268442 0.611328,4.082031 -1.305279,0.66784 -2.486675,1.383577 -3.351562,2.117187 C 11.086148,39.231626 8.021014,45.179041 5.4453125,50.945312 2.3304921,57.91854 0.07136569,65.487404 -0.34570312,73.113281 -0.94319862,82.666295 2.6557838,89.131285 6.8046875,97.277344 l 1.6367187,1.171875 c -0.4022409,5.332421 2.9251568,14.051291 6.7207028,14.105471 5.955682,0.085 8.726586,-0.0536 16.96875,-0.27735 3.644841,-2.61528 4.252477,-4.56922 5.769532,-6.7207 l 56.546875,1.96875 59.533204,-2.98633 c 0,0 1.59884,5.97443 4.04883,7.28516 1.71013,0.91491 18.84143,0.86308 20.17187,-0.36133 4.71219,-4.33654 4.63021,-11.30929 5.25586,-18.222656 0,0 4.18831,-12.18749 4.87109,-18.541015 0.39945,-3.716832 0.33191,-7.55424 -0.48046,-11.203125 -2.10876,-9.471691 -6.4192,-19.867794 -11.20899,-26.865235 -0.86103,-1.257898 -2.39367,-2.558101 -4.1875,-3.722656 0.28207,-1.053611 0.91671,-3.696544 0.59375,-5.185547 -0.44343,-2.044491 -1.56674,-4.173375 -3.30859,-5.332031 -2.58409,-1.718912 -6.10616,-1.152378 -9.19336,-1.470703 -0.85119,-0.08779 -2.21412,-0.136904 -3.0918,-0.16211 C 152.14302,13.53296 143.68726,3.6732549 139.94727,1.5488281 137.8129,0.33645476 114.386,-0.66209871 99.587891,-0.66210938 Z M 162.4668,22.388672 c 2.63292,-0.07827 5.73904,0.319977 7.75781,1.925781 1.54111,1.225857 2.40225,3.832376 2.26758,5.455078 -2.4324,-4.972105 -8.31246,-6.054326 -12.44336,-7.169922 0.71507,-0.105118 1.54032,-0.184847 2.41797,-0.210937 z m -132.566409,1.61914 c 0.877641,0.02609 1.702897,0.103867 2.417968,0.208985 -4.130901,1.115596 -10.009012,2.19977 -12.441406,7.171875 -0.134676,-1.622702 0.72647,-4.229222 2.267578,-5.455078 2.01877,-1.605804 5.122934,-2.004051 7.75586,-1.925782 z M 12.25,79.650391 l 15.765625,0.572265 3.736328,0.388672 c 0.144975,0.151296 0.234375,0.353264 0.234375,0.582031 v 6.865235 c 0,0.475379 -0.382356,0.874697 -0.857422,0.857422 L 12.25,88.230469 c -0.475066,-0.01727 -0.857422,-0.382043 -0.857422,-0.857422 v -6.865235 c 0,-0.475379 0.382356,-0.874696 0.857422,-0.857421 z m 162.54688,0.24414 c 0.47506,-0.01727 0.85742,0.382043 0.85742,0.857422 v 6.865235 c 0,0.475379 -0.38236,0.8421 -0.85742,0.859374 l -18.87891,0.685547 c -0.47507,0.01727 -0.85742,-0.382042 -0.85742,-0.857421 v -6.865235 c 0,-0.122433 0.0264,-0.23802 0.0723,-0.341797 l 11.01172,-0.888672 z m -141.812505,0.845703 20.208984,2.107422 v 6.167969 c 0,0.47538 -0.382356,0.874697 -0.857421,0.857422 L 33.457031,89.1875 c -0.475065,-0.01727 -0.857422,-0.383995 -0.857422,-0.859375 v -6.865234 c 0,-0.299858 0.153002,-0.568594 0.384766,-0.722657 z m 121.271485,0.429688 c 0.11764,0.149077 0.19141,0.335475 0.19141,0.539062 v 6.865235 c 0,0.475379 -0.38236,0.840147 -0.85743,0.857422 l -18.8789,0.685547 c -0.47507,0.01727 -0.85742,-0.382043 -0.85742,-0.857422 v -6.44336 z m -20.89258,1.685547 v 6.453125 c 0,0.475379 -0.38236,0.8421 -0.85742,0.859375 l -18.87891,0.685547 c -0.47506,0.01727 -0.85742,-0.382043 -0.85742,-0.857422 v -5.478516 z m -79.679686,0.04297 20.59375,2.146484 V 89.75 c 0,0.47538 -0.382357,0.87665 -0.857422,0.859375 l -18.878906,-0.6875 C 54.06595,89.9046 53.683594,89.539833 53.683594,89.064453 Z m 131.113286,5.291015 c -0.77323,0.859462 -1.17055,1.844175 -3.81446,2.080078 -22.71157,1.15573 -67.82466,3.169153 -88.066404,3.466797 C 123.54287,91.88716 166.305,89.681711 184.79688,88.189454 Z m -2.42579,5.199219 -1.56054,1.908203 c -19.1396,1.444663 -76.79041,5.095824 -88.066409,4.333984 6.974817,-0.486727 68.155689,-3.794121 89.626949,-6.242187 z m -87.546871,7.802737 c 18.204871,2.36657 51.449181,1.45865 54.384761,1.24023 l 0.91602,2.22656 -55.474609,2.25391 z"
       id="path127"
       inkscape:connector-curvature="0"
       transform="matrix(0.93749995,0,0,0.93749995,43.460508,876.0123)" />
    <path
       transform="matrix(0.1608911,0,0,0.1608911,84.250317,857.30871)"
       sodipodi:nodetypes="cscccc"
       inkscape:connector-curvature="0"
       id="path4295"
       d="m 627.14286,415.93363 c 42.01469,-3.29807 84.02939,-0.32815 126.04408,1.61966 11.79483,0.54681 23.58966,1.01307 35.38449,1.23749 6.08428,16.17762 11.73978,32.78402 15,51.78571 l -171.42857,-1.42857 c -3.25517,-19.85611 -7.24175,-40.68742 -5,-53.21429 z"
       style="display:inline;opacity:1;fill:none;fill-opacity:1;fill-rule:evenodd;stroke:#ffffff;stroke-width:3.33299961;stroke-linecap:butt;stroke-linejoin:miter;stroke-miterlimit:4;stroke-dasharray:none;stroke-opacity:1" />
    <path
       transform="matrix(0.1608911,0,0,0.1608911,84.250317,857.30871)"
       sodipodi:nodetypes="cccccc"
       inkscape:connector-curvature="0"
       id="path4297"
       d="m -191.07143,423.30736 c 137.081131,-8.42533 156.952116,-8.16054 158.701416,-4.32532 1.467715,7.53326 -6.237407,33.1238 -9.058557,52.66588 l -68.605669,0.8935 -99.25518,1.29268 c 2.02599,-17.0235 9.52533,-34.45562 18.21799,-50.52674 z"
       style="display:inline;opacity:1;fill:none;fill-opacity:1;fill-rule:evenodd;stroke:#ffffff;stroke-width:3.33299961;stroke-linecap:butt;stroke-linejoin:miter;stroke-miterlimit:4;stroke-dasharray:none;stroke-opacity:1" />
  </g>
</svg>
