<?xml version="1.0" encoding="UTF-8" standalone="no"?>
<!-- Created with Inkscape (http://www.inkscape.org/) -->

<svg
   xmlns:dc="http://purl.org/dc/elements/1.1/"
   xmlns:cc="http://creativecommons.org/ns#"
   xmlns:rdf="http://www.w3.org/1999/02/22-rdf-syntax-ns#"
   xmlns:svg="http://www.w3.org/2000/svg"
   xmlns="http://www.w3.org/2000/svg"
   xmlns:sodipodi="http://sodipodi.sourceforge.net/DTD/sodipodi-0.dtd"
   xmlns:inkscape="http://www.inkscape.org/namespaces/inkscape"
   width="50mm"
   height="29.962118mm"
   viewBox="0 0 177.16535 106.16498"
   id="svg2"
   version="1.1"
   inkscape:version="0.92.4 (5da689c313, 2019-01-14)"
   sodipodi:docname="kitt.svg">
  <defs
     id="defs4">
    <inkscape:path-effect
       effect="bspline"
       id="path-effect133"
       is_visible="true"
       weight="33.333333"
       steps="2"
       helper_size="0"
       apply_no_weight="true"
       apply_with_weight="true"
       only_selected="false" />
    <inkscape:path-effect
       effect="bspline"
       id="path-effect127"
       is_visible="true"
       weight="33.333333"
       steps="2"
       helper_size="0"
       apply_no_weight="true"
       apply_with_weight="true"
       only_selected="false" />
    <inkscape:path-effect
       effect="bspline"
       id="path-effect123"
       is_visible="true"
       weight="33.333333"
       steps="2"
       helper_size="0"
       apply_no_weight="true"
       apply_with_weight="true"
       only_selected="false" />
  </defs>
  <sodipodi:namedview
     id="base"
     pagecolor="#232323"
     bordercolor="#666666"
     borderopacity="1.0"
     inkscape:pageopacity="0.03137255"
     inkscape:pageshadow="2"
     inkscape:zoom="5.6568543"
     inkscape:cx="95.271197"
     inkscape:cy="58.121237"
     inkscape:document-units="px"
     inkscape:current-layer="g129"
     showgrid="false"
     inkscape:window-width="1920"
     inkscape:window-height="1147"
     inkscape:window-x="-8"
     inkscape:window-y="-8"
     inkscape:window-maximized="1"
     inkscape:pagecheckerboard="false" />
  <metadata
     id="metadata7">
    <rdf:RDF>
      <cc:Work
         rdf:about="">
        <dc:format>image/svg+xml</dc:format>
        <dc:type
           rdf:resource="http://purl.org/dc/dcmitype/StillImage" />
        <dc:title />
      </cc:Work>
    </rdf:RDF>
  </metadata>
  <g
     style="display:inline"
     transform="translate(-43.460508,-876.0123)"
     inkscape:label="SilkS"
     id="g129"
     inkscape:groupmode="layer">
    <path
       style="fill:#000000;fill-opacity:1;fill-rule:evenodd;stroke:#ffffff;stroke-width:0.57200003;stroke-linecap:butt;stroke-linejoin:miter;stroke-miterlimit:4;stroke-dasharray:none;stroke-opacity:1"
       d="m 99.587891,-0.66210938 c -0.986539,0 -1.934956,0.004179 -2.835938,0.0136719 C 81.571195,-0.49484818 53.987059,1.0915481 51.322266,2.5859375 49.237095,3.7552709 40.495777,13.123811 34.082031,21.988281 c -0.881996,0.02667 -2.132931,0.0735 -2.935547,0.15625 -3.087203,0.318326 -6.609271,-0.248209 -9.193359,1.470703 -1.741853,1.158656 -2.902549,3.280181 -3.310547,5.332032 -0.235787,1.185792 0.356952,3.268442 0.611328,4.082031 -1.305279,0.66784 -2.486675,1.383577 -3.351562,2.117187 C 11.086148,39.231626 8.021014,45.179041 5.4453125,50.945312 2.3304921,57.91854 0.07136569,65.487404 -0.34570312,73.113281 -0.94319862,82.666295 2.6557838,89.131285 6.8046875,97.277344 l 1.6367187,1.171875 c -0.4022409,5.332421 2.9251568,14.051291 6.7207028,14.105471 5.955682,0.085 8.726586,-0.0536 16.96875,-0.27735 3.644841,-2.61528 4.252477,-4.56922 5.769532,-6.7207 l 56.546875,1.96875 59.533204,-2.98633 c 0,0 1.59884,5.97443 4.04883,7.28516 1.71013,0.91491 18.84143,0.86308 20.17187,-0.36133 4.71219,-4.33654 4.63021,-11.30929 5.25586,-18.222656 0,0 4.18831,-12.18749 4.87109,-18.541015 0.39945,-3.716832 0.33191,-7.55424 -0.48046,-11.203125 -2.10876,-9.471691 -6.4192,-19.867794 -11.20899,-26.865235 -0.86103,-1.257898 -2.39367,-2.558101 -4.1875,-3.722656 0.28207,-1.053611 0.91671,-3.696544 0.59375,-5.185547 -0.44343,-2.044491 -1.56674,-4.173375 -3.30859,-5.332031 -2.58409,-1.718912 -6.10616,-1.152378 -9.19336,-1.470703 -0.85119,-0.08779 -2.21412,-0.136904 -3.0918,-0.16211 C 152.14302,13.53296 143.68726,3.6732549 139.94727,1.5488281 137.8129,0.33645476 114.386,-0.66209871 99.587891,-0.66210938 Z M 162.4668,22.388672 c 2.63292,-0.07827 5.73904,0.319977 7.75781,1.925781 1.54111,1.225857 2.40225,3.832376 2.26758,5.455078 -2.4324,-4.972105 -8.31246,-6.054326 -12.44336,-7.169922 0.71507,-0.105118 1.54032,-0.184847 2.41797,-0.210937 z m -132.566409,1.61914 c 0.877641,0.02609 1.702897,0.103867 2.417968,0.208985 -4.130901,1.115596 -10.009012,2.19977 -12.441406,7.171875 -0.134676,-1.622702 0.72647,-4.229222 2.267578,-5.455078 2.01877,-1.605804 5.122934,-2.004051 7.75586,-1.925782 z M 12.25,79.650391 l 15.765625,0.572265 3.736328,0.388672 c 0.144975,0.151296 0.234375,0.353264 0.234375,0.582031 v 6.865235 c 0,0.475379 -0.382356,0.874697 -0.857422,0.857422 L 12.25,88.230469 c -0.475066,-0.01727 -0.857422,-0.382043 -0.857422,-0.857422 v -6.865235 c 0,-0.475379 0.382356,-0.874696 0.857422,-0.857421 z m 162.54688,0.24414 c 0.47506,-0.01727 0.85742,0.382043 0.85742,0.857422 v 6.865235 c 0,0.475379 -0.38236,0.8421 -0.85742,0.859374 l -18.87891,0.685547 c -0.47507,0.01727 -0.85742,-0.382042 -0.85742,-0.857421 v -6.865235 c 0,-0.122433 0.0264,-0.23802 0.0723,-0.341797 l 11.01172,-0.888672 z m -141.812505,0.845703 20.208984,2.107422 v 6.167969 c 0,0.47538 -0.382356,0.874697 -0.857421,0.857422 L 33.457031,89.1875 c -0.475065,-0.01727 -0.857422,-0.383995 -0.857422,-0.859375 v -6.865234 c 0,-0.299858 0.153002,-0.568594 0.384766,-0.722657 z m 121.271485,0.429688 c 0.11764,0.149077 0.19141,0.335475 0.19141,0.539062 v 6.865235 c 0,0.475379 -0.38236,0.840147 -0.85743,0.857422 l -18.8789,0.685547 c -0.47507,0.01727 -0.85742,-0.382043 -0.85742,-0.857422 v -6.44336 z m -20.89258,1.685547 v 6.453125 c 0,0.475379 -0.38236,0.8421 -0.85742,0.859375 l -18.87891,0.685547 c -0.47506,0.01727 -0.85742,-0.382043 -0.85742,-0.857422 v -5.478516 z m -79.679686,0.04297 20.59375,2.146484 V 89.75 c 0,0.47538 -0.382357,0.87665 -0.857422,0.859375 l -18.878906,-0.6875 C 54.06595,89.9046 53.683594,89.539833 53.683594,89.064453 Z m 131.113286,5.291015 c -0.77323,0.859462 -1.17055,1.844175 -3.81446,2.080078 -22.71157,1.15573 -67.82466,3.169153 -88.066404,3.466797 C 123.54287,91.88716 166.305,89.681711 184.79688,88.189454 Z m -2.42579,5.199219 -1.56054,1.908203 c -19.1396,1.444663 -76.79041,5.095824 -88.066409,4.333984 6.974817,-0.486727 68.155689,-3.794121 89.626949,-6.242187 z m -87.546871,7.802737 c 18.204871,2.36657 51.449181,1.45865 54.384761,1.24023 l 0.91602,2.22656 -55.474609,2.25391 z"
       transform="matrix(0.93749995,0,0,0.93749995,43.460508,876.0123)"
       id="path127"
       inkscape:connector-curvature="0" />
    <path
       transform="matrix(0.1608911,0,0,0.1608911,84.250317,857.30871)"
       sodipodi:nodetypes="ccccc"
       inkscape:connector-curvature="0"
       id="path4295"
       d="m 627.14286,415.93363 c 53.80952,-4.22394 107.61905,1.83332 161.42857,2.85715 6.08428,16.17762 11.73978,32.78402 15,51.78571 l -171.42857,-1.42857 c -3.25517,-19.85611 -7.24175,-40.68742 -5,-53.21429 z"
       style="display:inline;opacity:1;fill:#1a1a1a;fill-opacity:1;fill-rule:evenodd;stroke:none;stroke-width:1px;stroke-linecap:butt;stroke-linejoin:miter;stroke-opacity:1" />
    <path
       transform="matrix(0.1608911,0,0,0.1608911,84.250317,857.30871)"
       sodipodi:nodetypes="ccccc"
       inkscape:connector-curvature="0"
       id="path4297"
       d="m -191.07143,423.30736 c 137.081131,-8.42533 156.952116,-8.16054 158.701416,-4.32532 1.467715,7.53326 -6.237407,33.1238 -9.058557,52.66588 l -167.860849,2.18618 c 2.02599,-17.0235 9.52533,-34.45562 18.21799,-50.52674 z"
       style="display:inline;opacity:1;fill:#1a1a1a;fill-opacity:1;fill-rule:evenodd;stroke:none;stroke-width:1px;stroke-linecap:butt;stroke-linejoin:miter;stroke-opacity:1" />
  </g>
  <g
     inkscape:groupmode="layer"
     id="layer3"
     inkscape:label="Mask"
     transform="translate(-43.460508,-876.0123)"
     style="display:none" />
  <g
     inkscape:label="Layer 1"
     inkscape:groupmode="layer"
     id="layer1"
     transform="translate(-43.460508,-876.0123)"
     style="display:none;opacity:1">
    <g
       id="g4393"
       transform="matrix(0.1608911,0,0,0.1608911,84.250317,857.30871)">
      <path
         sodipodi:nodetypes="csccscccccac"
         inkscape:connector-curvature="0"
         id="path4293"
         d="m -192.14285,419.50506 c 0,0 158.761646,-8.04053 163.153003,-3.85986 4.124803,3.9269 -3.666147,27.13941 -6.811096,58.14558 l 662.943803,-4.64286 c 0.92437,0 -8.11489,-52.01763 -5.35715,-56.25 3.57076,-5.48012 166.78572,3.03571 166.78572,3.03571 C 777.70716,384.49946 749.26585,303.85401 700,293.79078 402.17471,317.70307 661.83776,265.76404 297.14286,260.93363 l -32.85715,20 -338.571424,8.57143 c -26.633546,6.30849 -45.186026,18.33691 -62.142856,35 -26.18419,25.73061 -41.14639,58.65079 -55.71428,95 z"
         style="fill:#333333;fill-opacity:1;fill-rule:evenodd;stroke:none;stroke-width:1px;stroke-linecap:butt;stroke-linejoin:miter;stroke-opacity:1" />
      <path
         sodipodi:nodetypes="ccccccccssc"
         inkscape:connector-curvature="0"
         id="path4318"
         d="m -59.599,282.62597 c 132.330458,-6.84073 227.01164,-9.71838 336.3808,-14.14214 l 19.1929,-12.12183 110.0998,1.50822 111.1236,1.52224 12.12183,11.11167 c 45.73412,2.35702 89.62561,4.71405 131.31983,7.07107 l 16.16245,3.03046 C 637.77936,216.30105 609.54042,177.79237 561.64482,141.20461 535.68306,121.37226 75.691379,121.75086 50.002551,144.23507 5.3267379,183.33769 -27.044511,229.7015 -59.599,282.62597 Z"
         style="fill:#cc00a5;fill-opacity:1;fill-rule:evenodd;stroke:none;stroke-width:1px;stroke-linecap:butt;stroke-linejoin:miter;stroke-opacity:1" />
      <path
         sodipodi:nodetypes="ccccccccsscccacccccccacc"
         inkscape:connector-curvature="0"
         id="path4320"
         d="m -118.65065,305.72443 c -42.76992,12.73919 -72.92492,59.36159 -94.20649,103.06635 -15.8399,43.75756 -33.41172,87.26771 -36.42857,132.85714 l 397.85714,53.57143 9.28571,-10 130.20921,6.50779 131.21936,-6.50779 10,10.71428 c 137.33949,-11.57006 349.05396,-22.52027 395.00001,-44.28571 12.1282,-5.74534 17.14312,-23.00836 17.14285,-36.42857 -6.4e-4,-31.35203 -14.48202,-72.85715 -27.85714,-109.28572 -12.25158,-30.88678 -27.7509,-57.44324 -45.71429,-80.71428 -11.85108,-10.97578 -22.17948,-15.86079 -32.14285,-19.28572 16.32446,22.38827 33.17301,47.12377 45,73.21429 13.63429,30.07745 22.55383,62.72015 29.28571,94.64286 l -327.85714,0.71428 -15,1.42857 -17.85715,28.57143 L 135,505.93363 l -13.57143,-29.28571 -337.14286,2.85715 c 5.06557,-24.83413 11.40856,-42.84092 19.58158,-63.39068 6.89013,-17.32416 24.70414,-50.18076 24.70414,-50.18076 11.84857,-23.30416 31.17283,-42.01176 52.77792,-60.2092 z"
         style="fill:#333333;fill-opacity:1;fill-rule:evenodd;stroke:none;stroke-width:1px;stroke-linecap:butt;stroke-linejoin:miter;stroke-opacity:1" />
      <path
         sodipodi:nodetypes="cccccssccccccccccccc"
         inkscape:connector-curvature="0"
         id="path4328"
         d="m -177.85714,354.50507 c 73.47156,-4.38848 153.440756,1.7817 242.142854,22.14285 L 47.142857,355.21935 c 83.688453,4.79419 158.810293,-3.02167 229.234953,-9.59645 l 8.20377,-3.44887 c 11.08203,-5.34654 6.93055,-24.68809 21.84699,-29.81183 43.889,-15.07568 122.49404,-13.35264 177.85714,-9.28571 10.1441,0.74518 23.57143,22.14286 23.57143,22.14286 17.26972,0.69866 36.84805,-3.21991 50.71429,4.28571 l -15.71429,22.85714 c 73.53815,-4.27919 126.26407,-18.01849 237.85715,-4.99999 -21.09366,-18.66828 -19.68047,-36.9698 -89.28572,-56.42858 -50.01458,-1.67396 -111.29622,-8.98144 -150,-5 l -25.71428,-17.85714 c -60.6537,-4.38528 -106.76838,-13.61689 -221.42858,0 -7.71298,11.43965 -10.72147,27.09232 -24.28571,32.85714 -82.42109,5.27548 -166.40832,2.72029 -250.714286,-1.42857 l 3.571429,12.85714 c -36.311464,-13.59083 -72.016054,-21.11292 -106.428572,-15.71428 -63.339831,18.51164 -78.595681,35.4851 -94.285711,57.85715 z"
         style="fill:#ffffff;fill-opacity:0.81215473;fill-rule:evenodd;stroke:none;stroke-width:1px;stroke-linecap:butt;stroke-linejoin:miter;stroke-opacity:1" />
    </g>
    <flowRoot
       xml:space="preserve"
       id="flowRoot4410"
       style="font-style:normal;font-weight:normal;line-height:0.01%;font-family:sans-serif;letter-spacing:0px;word-spacing:0px;fill:#000000;fill-opacity:1;stroke:none;stroke-width:1px;stroke-linecap:butt;stroke-linejoin:miter;stroke-opacity:1"
       transform="translate(0,680.31496)"><flowRegion
         id="flowRegion4412"><rect
           id="rect4414"
           width="222.85715"
           height="103.57143"
           x="13.571428"
           y="19.1901" /></flowRegion><flowPara
         id="flowPara4416"
         style="font-size:40px;line-height:10">KITT</flowPara></flowRoot>    <path
       transform="matrix(0.1608911,0,0,0.1608911,84.250317,857.30871)"
       sodipodi:nodetypes="ccccc"
       inkscape:connector-curvature="0"
       id="path4410"
       d="M 53.7114,136.37793 C 37.920451,147.81763 23.789316,164.9138 15.253814,174.53964 211.5216,158.50282 417.27362,150.86832 602.90878,173.52949 593.03138,159.87748 578.52873,146.19025 569.79783,137.38808 499.50362,118.8437 215.45151,118.89588 53.7114,136.37793 Z"
       style="fill:#ffffff;fill-opacity:0.81215473;fill-rule:evenodd;stroke:none;stroke-width:1px;stroke-linecap:butt;stroke-linejoin:miter;stroke-opacity:1" />
  </g>
  <g
     inkscape:groupmode="layer"
     id="layer2"
     inkscape:label="Headlights"
     style="display:inline" />
  <g
     inkscape:groupmode="layer"
     id="layer4"
     inkscape:label="CU"
     style="display:none;opacity:0.17099998">
    <path
       transform="matrix(0.1608911,0,0,0.1608911,40.789809,-18.70359)"
       style="fill:#ffffff;fill-opacity:1;fill-rule:evenodd;stroke:none;stroke-width:1px;stroke-linecap:butt;stroke-linejoin:miter;stroke-opacity:1"
       d="m -118.65065,305.72443 c -42.76992,12.73919 -72.92492,59.36159 -94.20649,103.06635 -15.8399,43.75756 -33.41172,87.26771 -36.42857,132.85714 l 397.85714,53.57143 9.28571,-10 130.20921,6.50779 131.21936,-6.50779 10,10.71428 c 137.33949,-11.57006 349.05396,-22.52027 395.00001,-44.28571 12.1282,-5.74534 17.14312,-23.00836 17.14285,-36.42857 -6.4e-4,-31.35203 -14.48202,-72.85715 -27.85714,-109.28572 -12.25158,-30.88678 -27.7509,-57.44324 -45.71429,-80.71428 -11.85108,-10.97578 -22.17948,-15.86079 -32.14285,-19.28572 16.32446,22.38827 33.17301,47.12377 45,73.21429 13.63429,30.07745 22.55383,62.72015 29.28571,94.64286 l -327.85714,0.71428 -15,1.42857 -17.85715,28.57143 L 135,505.93363 l -13.57143,-29.28571 -337.14286,2.85715 c 5.06557,-24.83413 11.40856,-42.84092 19.58158,-63.39068 6.89013,-17.32416 24.70414,-50.18076 24.70414,-50.18076 11.84857,-23.30416 31.17283,-42.01176 52.77792,-60.2092 z"
       id="path72"
       inkscape:connector-curvature="0"
       sodipodi:nodetypes="ccccccccsscccacccccccacc" />
    <path
       style="display:inline;fill:#ffffff;fill-opacity:1;fill-rule:evenodd;stroke:none;stroke-width:1px;stroke-linecap:butt;stroke-linejoin:miter;stroke-opacity:1"
       d="m -192.14285,419.50506 c 0,0 158.761646,-8.04053 163.153003,-3.85986 4.124803,3.9269 -3.666147,27.13941 -6.811096,58.14558 l 662.943803,-4.64286 c 0.92437,0 -8.11489,-52.01763 -5.35715,-56.25 3.57076,-5.48012 166.78572,3.03571 166.78572,3.03571 C 777.70716,384.49946 749.26585,303.85401 700,293.79078 l -158.57143,-10 c -26.38722,45.09876 -91.24945,58.71798 -137.14285,87.85714 37.92178,-35.95238 99.35205,-71.90476 108.57142,-107.85714 l -215.71428,-2.85715 -32.85715,20 -338.571424,8.57143 c -26.633546,6.30849 -45.186026,18.33691 -62.142856,35 -26.18419,25.73061 -41.14639,58.65079 -55.71428,95 z"
       id="path77"
       inkscape:connector-curvature="0"
       sodipodi:nodetypes="csccsccccccccac"
       transform="matrix(0.1608911,0,0,0.1608911,40.789809,-18.70359)" />
  </g>
</svg>
