<?xml version="1.0" encoding="UTF-8" standalone="no"?>
<!-- Created with Inkscape (http://www.inkscape.org/) -->

<svg
   xmlns:dc="http://purl.org/dc/elements/1.1/"
   xmlns:cc="http://creativecommons.org/ns#"
   xmlns:rdf="http://www.w3.org/1999/02/22-rdf-syntax-ns#"
   xmlns:svg="http://www.w3.org/2000/svg"
   xmlns="http://www.w3.org/2000/svg"
   xmlns:sodipodi="http://sodipodi.sourceforge.net/DTD/sodipodi-0.dtd"
   xmlns:inkscape="http://www.inkscape.org/namespaces/inkscape"
   width="50mm"
   height="29.962118mm"
   viewBox="0 0 177.16535 106.16498"
   id="svg2"
   version="1.1"
   inkscape:version="0.92.4 (5da689c313, 2019-01-14)"
   sodipodi:docname="kitt.svg">
  <defs
     id="defs4">
    <inkscape:path-effect
       effect="bspline"
       id="path-effect133"
       is_visible="true"
       weight="33.333333"
       steps="2"
       helper_size="0"
       apply_no_weight="true"
       apply_with_weight="true"
       only_selected="false" />
    <inkscape:path-effect
       effect="bspline"
       id="path-effect127"
       is_visible="true"
       weight="33.333333"
       steps="2"
       helper_size="0"
       apply_no_weight="true"
       apply_with_weight="true"
       only_selected="false" />
    <inkscape:path-effect
       effect="bspline"
       id="path-effect123"
       is_visible="true"
       weight="33.333333"
       steps="2"
       helper_size="0"
       apply_no_weight="true"
       apply_with_weight="true"
       only_selected="false" />
  </defs>
  <sodipodi:namedview
     id="base"
     pagecolor="#ffffff"
     bordercolor="#666666"
     borderopacity="1.0"
     inkscape:pageopacity="0.0"
     inkscape:pageshadow="2"
     inkscape:zoom="8"
     inkscape:cx="147.12209"
     inkscape:cy="71.941608"
     inkscape:document-units="px"
     inkscape:current-layer="layer5"
     showgrid="false"
     inkscape:window-width="1366"
     inkscape:window-height="676"
     inkscape:window-x="0"
     inkscape:window-y="27"
     inkscape:window-maximized="1" />
  <metadata
     id="metadata7">
    <rdf:RDF>
      <cc:Work
         rdf:about="">
        <dc:format>image/svg+xml</dc:format>
        <dc:type
           rdf:resource="http://purl.org/dc/dcmitype/StillImage" />
        <dc:title />
      </cc:Work>
    </rdf:RDF>
  </metadata>
  <g
     inkscape:groupmode="layer"
     id="layer2"
     inkscape:label="SilkS"
     transform="translate(-43.460508,-876.0123)"
     style="display:inline">
    <path
       id="path4425"
       d="m 136.82453,875.39082 c -0.92488,0 -1.8138,0.004 -2.65847,0.0129 -14.23196,0.14399 -40.092022,1.63143 -42.590266,3.03242 -1.954847,1.09625 -10.150385,9.87905 -16.163271,18.18949 -0.826871,0.025 -1.999351,0.0698 -2.751803,0.14738 -2.894253,0.29843 -6.196718,-0.23259 -8.6193,1.37889 -1.632987,1.08624 -2.720313,3.07564 -3.102811,4.99925 -0.22105,1.11168 0.333754,3.06376 0.572232,3.8265 -1.223699,0.6261 -2.331259,1.29699 -3.142091,1.98475 -4.515183,3.82982 -7.388952,9.40552 -9.803672,14.8114 -2.920144,6.5374 -5.037187,13.63335 -5.428189,20.78261 -0.560152,8.95595 2.814093,15.01698 6.70369,22.65391 l 1.532866,1.09764 c -0.377101,4.99914 2.74408,13.17339 6.302405,13.22418 5.583451,0.0797 8.181079,-0.0504 15.908108,-0.26019 3.417038,-2.45183 3.986153,-4.28289 5.408392,-6.2999 l 53.01299,1.84522 55.81224,-2.80051 c 0,0 1.49917,5.60215 3.79603,6.83096 1.60325,0.85773 17.66401,0.80818 18.9113,-0.3397 4.41768,-4.06551 4.33917,-10.60082 4.92572,-17.0821 0,0 3.92736,-11.42578 4.56748,-17.38221 0.37448,-3.48453 0.3113,-7.08329 -0.4503,-10.50412 -1.97696,-8.87971 -6.01872,-18.62658 -10.50915,-25.18668 -0.80722,-1.17928 -2.24346,-2.39693 -3.92517,-3.4887 0.26444,-0.98776 0.86023,-3.4663 0.55746,-4.86224 -0.41572,-1.91671 -1.46982,-3.91301 -3.10281,-4.99925 -2.42258,-1.61148 -5.72505,-1.08046 -8.6193,-1.37889 -0.79799,-0.0823 -2.07511,-0.12815 -2.89793,-0.15178 -4.97639,-6.7733 -12.90433,-16.0159 -16.41057,-18.00755 -2.00097,-1.1366 -23.96258,-2.07366 -37.83581,-2.07367 z"
       style="fill:#000000;fill-opacity:1;fill-rule:evenodd;stroke:none;stroke-width:0.1608911px;stroke-linecap:butt;stroke-linejoin:miter;stroke-opacity:1"
       inkscape:connector-curvature="0" />
  </g>
  <g
     inkscape:groupmode="layer"
     id="layer3"
     inkscape:label="Mask"
     transform="translate(-43.460508,-876.0123)"
     style="display:inline" />
  <g
     inkscape:label="Layer 1"
     inkscape:groupmode="layer"
     id="layer1"
     transform="translate(-43.460508,-876.0123)"
     style="display:inline">
    <g
       id="g4393"
       transform="matrix(0.1608911,0,0,0.1608911,84.250317,857.30871)">
      <path
         sodipodi:nodetypes="csccsccccccccac"
         inkscape:connector-curvature="0"
         id="path4293"
         d="m -192.14285,419.50506 c 0,0 158.761646,-8.04053 163.153003,-3.85986 4.124803,3.9269 -3.666147,27.13941 -6.811096,58.14558 l 662.943803,-4.64286 c 0.92437,0 -8.11489,-52.01763 -5.35715,-56.25 3.57076,-5.48012 166.78572,3.03571 166.78572,3.03571 C 777.70716,384.49946 749.26585,303.85401 700,293.79078 l -158.57143,-10 c -26.38722,45.09876 -91.24945,58.71798 -137.14285,87.85714 37.92178,-35.95238 99.35205,-71.90476 108.57142,-107.85714 l -215.71428,-2.85715 -32.85715,20 -338.571424,8.57143 c -26.633546,6.30849 -45.186026,18.33691 -62.142856,35 -26.18419,25.73061 -41.14639,58.65079 -55.71428,95 z"
         style="fill:#333333;fill-opacity:1;fill-rule:evenodd;stroke:none;stroke-width:1px;stroke-linecap:butt;stroke-linejoin:miter;stroke-opacity:1" />
      <path
         sodipodi:nodetypes="ccccc"
         inkscape:connector-curvature="0"
         id="path4295"
         d="m 627.14286,415.93363 c 53.80952,-4.22394 107.61905,1.83332 161.42857,2.85715 6.08428,16.17762 11.73978,32.78402 15,51.78571 l -171.42857,-1.42857 c -3.25517,-19.85611 -7.24175,-40.68742 -5,-53.21429 z"
         style="fill:#1a1a1a;fill-opacity:1;fill-rule:evenodd;stroke:none;stroke-width:1px;stroke-linecap:butt;stroke-linejoin:miter;stroke-opacity:1" />
      <path
         sodipodi:nodetypes="ccccc"
         inkscape:connector-curvature="0"
         id="path4297"
         d="m -191.07143,423.30736 c 137.081131,-8.42533 156.952116,-8.16054 158.701416,-4.32532 1.467715,7.53326 -6.237407,33.1238 -9.058557,52.66588 l -167.860849,2.18618 c 2.02599,-17.0235 9.52533,-34.45562 18.21799,-50.52674 z"
         style="fill:#1a1a1a;fill-opacity:1;fill-rule:evenodd;stroke:none;stroke-width:1px;stroke-linecap:butt;stroke-linejoin:miter;stroke-opacity:1" />
      <path
         sodipodi:nodetypes="ccccccccssc"
         inkscape:connector-curvature="0"
         id="path4318"
         d="m -59.599,282.62597 c 132.330458,-6.84073 227.01164,-9.71838 336.3808,-14.14214 l 19.1929,-12.12183 110.0998,1.50822 111.1236,1.52224 12.12183,11.11167 c 45.73412,2.35702 89.62561,4.71405 131.31983,7.07107 l 16.16245,3.03046 C 637.77936,216.30105 609.54042,177.79237 561.64482,141.20461 535.68306,121.37226 75.691379,121.75086 50.002551,144.23507 5.3267379,183.33769 -27.044511,229.7015 -59.599,282.62597 Z"
         style="fill:#cc00a5;fill-opacity:1;fill-rule:evenodd;stroke:none;stroke-width:1px;stroke-linecap:butt;stroke-linejoin:miter;stroke-opacity:1" />
      <path
         sodipodi:nodetypes="ccccccccsscccacccccccacc"
         inkscape:connector-curvature="0"
         id="path4320"
         d="m -118.65065,305.72443 c -42.76992,12.73919 -72.92492,59.36159 -94.20649,103.06635 -15.8399,43.75756 -33.41172,87.26771 -36.42857,132.85714 l 397.85714,53.57143 9.28571,-10 130.20921,6.50779 131.21936,-6.50779 10,10.71428 c 137.33949,-11.57006 349.05396,-22.52027 395.00001,-44.28571 12.1282,-5.74534 17.14312,-23.00836 17.14285,-36.42857 -6.4e-4,-31.35203 -14.48202,-72.85715 -27.85714,-109.28572 -12.25158,-30.88678 -27.7509,-57.44324 -45.71429,-80.71428 -11.85108,-10.97578 -22.17948,-15.86079 -32.14285,-19.28572 16.32446,22.38827 33.17301,47.12377 45,73.21429 13.63429,30.07745 22.55383,62.72015 29.28571,94.64286 l -327.85714,0.71428 -15,1.42857 -17.85715,28.57143 L 135,505.93363 l -13.57143,-29.28571 -337.14286,2.85715 c 5.06557,-24.83413 11.40856,-42.84092 19.58158,-63.39068 6.89013,-17.32416 24.70414,-50.18076 24.70414,-50.18076 11.84857,-23.30416 31.17283,-42.01176 52.77792,-60.2092 z"
         style="fill:#333333;fill-opacity:1;fill-rule:evenodd;stroke:none;stroke-width:1px;stroke-linecap:butt;stroke-linejoin:miter;stroke-opacity:1" />
      <path
         sodipodi:nodetypes="cccccssccccccccccccc"
         inkscape:connector-curvature="0"
         id="path4328"
         d="m -177.85714,354.50507 c 73.47156,-4.38848 153.440756,1.7817 242.142854,22.14285 L 47.142857,355.21935 c 83.688453,4.79419 158.810293,-3.02167 229.234953,-9.59645 l 8.20377,-3.44887 c 11.08203,-5.34654 6.93055,-24.68809 21.84699,-29.81183 43.889,-15.07568 122.49404,-13.35264 177.85714,-9.28571 10.1441,0.74518 23.57143,22.14286 23.57143,22.14286 17.26972,0.69866 36.84805,-3.21991 50.71429,4.28571 l -15.71429,22.85714 c 73.53815,-4.27919 126.26407,-18.01849 237.85715,-4.99999 -21.09366,-18.66828 -19.68047,-36.9698 -89.28572,-56.42858 -50.01458,-1.67396 -111.29622,-8.98144 -150,-5 l -25.71428,-17.85714 c -60.6537,-4.38528 -106.76838,-13.61689 -221.42858,0 -7.71298,11.43965 -10.72147,27.09232 -24.28571,32.85714 -82.42109,5.27548 -166.40832,2.72029 -250.714286,-1.42857 l 3.571429,12.85714 c -36.311464,-13.59083 -72.016054,-21.11292 -106.428572,-15.71428 -63.339831,18.51164 -78.595681,35.4851 -94.285711,57.85715 z"
         style="fill:#ffffff;fill-opacity:0.81215473;fill-rule:evenodd;stroke:none;stroke-width:1px;stroke-linecap:butt;stroke-linejoin:miter;stroke-opacity:1" />
      <path
         id="path4378"
         d="m -182.14258,580.36133 c -2.76817,-0.10066 -5,2.23 -5,5 v 40 c 0,2.77 2.23183,4.89934 5,5 l 110.000002,4 c 2.76817,0.10066 5,-2.23 5,-5 v -40 c 0,-1.33301 -0.526336,-2.50904 -1.371094,-3.39063 l -21.769531,-2.26953 z m 120.812502,6.35742 c -1.350473,0.89771 -2.242188,2.46759 -2.242188,4.21484 v 40 c 0,2.77 2.23183,4.89934 5,5 l 110,4 c 2.76817,0.10066 5,-2.23 5,-5 v -35.9414 z m 120.615234,12.57031 v 35.92969 c 0,2.77 2.23183,4.89934 5,5 l 110.000004,4 c 2.76817,0.10066 5,-2.23 5,-5 v -27.42383 z"
         style="fill:#ffffff;fill-opacity:0.81215473;stroke:none;stroke-width:6;stroke-miterlimit:4;stroke-dasharray:none;stroke-opacity:1"
         inkscape:connector-curvature="0" />
      <path
         id="path4381"
         d="m 765,581.79102 -50.4082,1.83203 -64.17188,5.18164 C 650.15281,589.40939 650,590.07761 650,590.79102 v 40 c 0,2.77 2.23183,5.10066 5,5 l 110,-4 c 2.76817,-0.10066 5,-2.23 5,-5 v -40 c 0,-2.77 -2.23183,-5.10066 -5,-5 z m -119.68359,7.42578 -118.88868,9.59765 v 37.54688 c 0,2.77 2.23183,5.10066 5,5 l 110,-4 c 2.76817,-0.10066 5,-2.23 5,-5 v -40 c 0,-1.18629 -0.42583,-2.27587 -1.11132,-3.14453 z m -121.74414,9.82812 -120,9.6875 v 31.91602 c 0,2.77 2.23183,5.10066 5,5 l 110,-4 c 2.76817,-0.10066 5,-2.23 5,-5 z"
         style="fill:#ffffff;fill-opacity:0.81215473;stroke:none;stroke-width:6;stroke-miterlimit:4;stroke-dasharray:none;stroke-opacity:1"
         inkscape:connector-curvature="0" />
      <path
         sodipodi:nodetypes="ccccc"
         inkscape:connector-curvature="0"
         id="path4389"
         d="m 299.00515,705.87988 -1.01015,33.33504 323.24882,-13.13199 -5.34066,-12.97697 c -17.10543,1.27269 -210.81964,6.56374 -316.89801,-7.22608 z"
         style="fill:#cc00a5;fill-opacity:1;fill-rule:evenodd;stroke:none;stroke-width:1px;stroke-linecap:butt;stroke-linejoin:miter;stroke-opacity:1" />
      <path
         sodipodi:nodetypes="cccc"
         inkscape:connector-curvature="0"
         id="path4391"
         d="m 287.89348,662.44332 c 117.94707,-1.73435 380.81895,-13.4687 513.15749,-20.20305 15.40583,-1.37459 17.71781,-7.11381 22.22335,-12.12183 -107.75074,8.69527 -356.92056,21.54992 -535.38084,32.32488 z"
         style="fill:#cc00a5;fill-opacity:1;fill-rule:evenodd;stroke:none;stroke-width:1px;stroke-linecap:butt;stroke-linejoin:miter;stroke-opacity:1" />
      <path
         sodipodi:nodetypes="cccc"
         inkscape:connector-curvature="0"
         id="path4393"
         d="m 286.88332,696.78851 c 65.70435,4.43921 401.63258,-16.83587 513.1575,-25.25381 l 9.09137,-11.11168 c -125.11138,14.26469 -481.60715,33.52937 -522.24887,36.36549 z"
         style="fill:#cc00a5;fill-opacity:1;fill-rule:evenodd;stroke:none;stroke-width:1px;stroke-linecap:butt;stroke-linejoin:miter;stroke-opacity:1" />
      <path
         sodipodi:nodetypes="ccac"
         inkscape:connector-curvature="0"
         id="path4430"
         d="m 679.07143,247.93363 c 24.07044,6.50049 58.32663,12.81365 72.5,41.78572 0.78475,-9.45536 -4.23436,-24.64275 -13.21428,-31.78572 -15.68429,-12.47586 -42.61905,-12.45006 -59.28572,-10 z"
         style="fill:#ffffff;fill-rule:evenodd;stroke:none;stroke-width:1px;stroke-linecap:butt;stroke-linejoin:miter;stroke-opacity:1" />
      <path
         style="fill:#ffffff;fill-rule:evenodd;stroke:none;stroke-width:1px;stroke-linecap:butt;stroke-linejoin:miter;stroke-opacity:1"
         d="m -65.205553,257.3622 c -24.07044,6.50049 -58.326627,12.81365 -72.499997,41.78572 -0.78475,-9.45536 4.23436,-24.64275 13.21428,-31.78572 15.68429,-12.47586 42.619047,-12.45006 59.285717,-10 z"
         id="path4432"
         inkscape:connector-curvature="0"
         sodipodi:nodetypes="ccac" />
    </g>
    <flowRoot
       xml:space="preserve"
       id="flowRoot4410"
       style="font-style:normal;font-weight:normal;line-height:0.01%;font-family:sans-serif;letter-spacing:0px;word-spacing:0px;fill:#000000;fill-opacity:1;stroke:none;stroke-width:1px;stroke-linecap:butt;stroke-linejoin:miter;stroke-opacity:1"
       transform="translate(0,680.31496)"><flowRegion
         id="flowRegion4412"><rect
           id="rect4414"
           width="222.85715"
           height="103.57143"
           x="13.571428"
           y="19.1901" /></flowRegion><flowPara
         id="flowPara4416"
         style="font-size:40px;line-height:10">KITT</flowPara></flowRoot>    <path
       transform="matrix(0.1608911,0,0,0.1608911,84.250317,857.30871)"
       sodipodi:nodetypes="ccccc"
       inkscape:connector-curvature="0"
       id="path4410"
       d="M 53.7114,136.37793 C 37.920451,147.81763 23.789316,164.9138 15.253814,174.53964 211.5216,158.50282 417.27362,150.86832 602.90878,173.52949 593.03138,159.87748 578.52873,146.19025 569.79783,137.38808 499.50362,118.8437 215.45151,118.89588 53.7114,136.37793 Z"
       style="fill:#ffffff;fill-opacity:0.81215473;fill-rule:evenodd;stroke:none;stroke-width:1px;stroke-linecap:butt;stroke-linejoin:miter;stroke-opacity:1" />
  </g>
  <g
     inkscape:groupmode="layer"
     id="layer4"
     inkscape:label="CU"
     style="display:inline;opacity:1">
    <path
       transform="matrix(0.1608911,0,0,0.1608911,40.789809,-18.70359)"
       style="fill:#ff0000;fill-opacity:1;fill-rule:evenodd;stroke:none;stroke-width:1px;stroke-linecap:butt;stroke-linejoin:miter;stroke-opacity:1"
       d="m -118.65065,305.72443 c -42.76992,12.73919 -72.92492,59.36159 -94.20649,103.06635 -15.8399,43.75756 -33.41172,87.26771 -36.42857,132.85714 l 397.85714,53.57143 9.28571,-10 130.20921,6.50779 131.21936,-6.50779 10,10.71428 c 137.33949,-11.57006 349.05396,-22.52027 395.00001,-44.28571 12.1282,-5.74534 17.14312,-23.00836 17.14285,-36.42857 -6.4e-4,-31.35203 -14.48202,-72.85715 -27.85714,-109.28572 -12.25158,-30.88678 -27.7509,-57.44324 -45.71429,-80.71428 -11.85108,-10.97578 -22.17948,-15.86079 -32.14285,-19.28572 16.32446,22.38827 33.17301,47.12377 45,73.21429 13.63429,30.07745 22.55383,62.72015 29.28571,94.64286 l -327.85714,0.71428 -15,1.42857 -17.85715,28.57143 L 135,505.93363 l -13.57143,-29.28571 -337.14286,2.85715 c 5.06557,-24.83413 11.40856,-42.84092 19.58158,-63.39068 6.89013,-17.32416 24.70414,-50.18076 24.70414,-50.18076 11.84857,-23.30416 31.17283,-42.01176 52.77792,-60.2092 z"
       id="path72"
       inkscape:connector-curvature="0"
       sodipodi:nodetypes="ccccccccsscccacccccccacc" />
    <path
       style="display:inline;fill:#ff0000;fill-opacity:1;fill-rule:evenodd;stroke:none;stroke-width:1px;stroke-linecap:butt;stroke-linejoin:miter;stroke-opacity:1"
       d="m -192.14285,419.50506 c 0,0 158.761646,-8.04053 163.153003,-3.85986 4.124803,3.9269 -3.666147,27.13941 -6.811096,58.14558 l 662.943803,-4.64286 c 0.92437,0 -8.11489,-52.01763 -5.35715,-56.25 3.57076,-5.48012 166.78572,3.03571 166.78572,3.03571 C 777.70716,384.49946 749.26585,303.85401 700,293.79078 l -158.57143,-10 c -26.38722,45.09876 -91.24945,58.71798 -137.14285,87.85714 37.92178,-35.95238 99.35205,-71.90476 108.57142,-107.85714 l -215.71428,-2.85715 -32.85715,20 -338.571424,8.57143 c -26.633546,6.30849 -45.186026,18.33691 -62.142856,35 -26.18419,25.73061 -41.14639,58.65079 -55.71428,95 z"
       id="path77"
       inkscape:connector-curvature="0"
       sodipodi:nodetypes="csccsccccccccac"
       transform="matrix(0.1608911,0,0,0.1608911,40.789809,-18.70359)" />
  </g>
  <g
     inkscape:groupmode="layer"
     id="layer5"
     inkscape:label="SilkS 1"
     style="display:inline;opacity:0.68999999">
    <path
       style="display:inline;opacity:1;fill:none;stroke:#ffff00;stroke-width:0.93749994px;stroke-linecap:butt;stroke-linejoin:miter;stroke-opacity:1"
       d="m 6.0832996,58.444508 c 2.1181937,-6.994035 4.0609244,-13.40871 6.5901634,-18.00766 2.529239,-4.59895 5.852265,-7.336814 9.026513,-9.952098"
       id="path121"
       inkscape:connector-curvature="0"
       inkscape:path-effect="#path-effect123"
       inkscape:original-d="M 6.0832996,58.444508 C 9.0283148,51.700882 10.144823,45.035979 12.174178,38.33312 c 2.958209,-2.580565 6.351469,-5.233184 9.525798,-7.84837"
       transform="matrix(1.0186251,0,0,1.0115946,0.05891731,-0.34816492)" />
    <path
       style="display:inline;opacity:1;fill:none;stroke:#ffff00;stroke-width:0.93749994px;stroke-linecap:butt;stroke-linejoin:miter;stroke-opacity:1"
       d="m 0.6819569,68.44274 c 0.3804522,-3.834027 0.760963,-7.668645 1.4310046,-10.766646 0.6700417,-3.098001 1.6318164,-5.468019 2.5828129,-7.69083 0.9509965,-2.222812 1.8958527,-4.309613 2.8663416,-6.286793 0.9704889,-1.97718 1.9625999,-3.836928 3.190717,-5.504029 1.228117,-1.667101 2.691829,-3.141078 3.947949,-4.314223 1.25612,-1.173145 2.302269,-2.043536 3.34955,-2.914869"
       id="path125"
       inkscape:connector-curvature="0"
       inkscape:path-effect="#path-effect127"
       inkscape:original-d="m 0.6819569,68.44274 c 0.3812884,-3.833944 0.7617993,-7.668562 1.1410526,-11.499018 0.9604719,-2.365435 1.9222464,-4.735453 2.8798146,-7.096477 0.9443723,-2.0846 1.8892287,-4.171401 2.8345344,-6.260328 0.9955868,-1.865444 1.9876978,-3.725192 2.9795385,-5.585253 1.464057,-1.474319 2.927768,-2.948297 4.391133,-4.421933 1.048795,-0.87275 2.094943,-1.743141 3.142302,-2.614381"
       sodipodi:nodetypes="ccccccc" />
    <path
       style="fill:none;stroke:#ffff00;stroke-width:0.93749994px;stroke-linecap:butt;stroke-linejoin:miter;stroke-opacity:1"
       d="m 171.1116,57.525129 c -1.84992,-5.331921 -3.69964,-10.663297 -5.01807,-14.053863 -1.31842,-3.390565 -2.10595,-4.841273 -2.95375,-6.315368 -0.84781,-1.474095 -1.75683,-2.973268 -2.61667,-4.12496 -0.85984,-1.151693 -1.67085,-1.9563 -2.48208,-2.761122"
       id="path131"
       inkscape:connector-curvature="0"
       inkscape:path-effect="#path-effect133"
       inkscape:original-d="m 171.1116,57.525129 c -1.84879,-5.332312 -3.69852,-10.663687 -5.54918,-15.994125 -0.78619,-1.45091 -1.57372,-2.901617 -2.36163,-4.350363 -0.90772,-1.499503 -1.81734,-2.998313 -2.72678,-4.497055 -0.80981,-0.80528 -1.62082,-1.609889 -2.43298,-2.41377"
       sodipodi:nodetypes="ccccc" />
  </g>
</svg>
