<?xml version="1.0" encoding="UTF-8" standalone="no"?>
<!-- Created with Inkscape (http://www.inkscape.org/) -->

<svg
   xmlns:dc="http://purl.org/dc/elements/1.1/"
   xmlns:cc="http://creativecommons.org/ns#"
   xmlns:rdf="http://www.w3.org/1999/02/22-rdf-syntax-ns#"
   xmlns:svg="http://www.w3.org/2000/svg"
   xmlns="http://www.w3.org/2000/svg"
   xmlns:sodipodi="http://sodipodi.sourceforge.net/DTD/sodipodi-0.dtd"
   xmlns:inkscape="http://www.inkscape.org/namespaces/inkscape"
   width="50mm"
   height="29.962118mm"
   viewBox="0 0 177.16535 106.16498"
   id="svg2"
   version="1.1"
   inkscape:version="0.92.4 (5da689c313, 2019-01-14)"
   sodipodi:docname="kittExclusion.svg">
  <defs
     id="defs4">
    <inkscape:path-effect
       effect="bspline"
       id="path-effect133"
       is_visible="true"
       weight="33.333333"
       steps="2"
       helper_size="0"
       apply_no_weight="true"
       apply_with_weight="true"
       only_selected="false" />
    <inkscape:path-effect
       effect="bspline"
       id="path-effect127"
       is_visible="true"
       weight="33.333333"
       steps="2"
       helper_size="0"
       apply_no_weight="true"
       apply_with_weight="true"
       only_selected="false" />
    <inkscape:path-effect
       effect="bspline"
       id="path-effect123"
       is_visible="true"
       weight="33.333333"
       steps="2"
       helper_size="0"
       apply_no_weight="true"
       apply_with_weight="true"
       only_selected="false" />
  </defs>
  <sodipodi:namedview
     id="base"
     pagecolor="#ffffff"
     bordercolor="#666666"
     borderopacity="1.0"
     inkscape:pageopacity="0.0"
     inkscape:pageshadow="2"
     inkscape:zoom="4"
     inkscape:cx="202.91152"
     inkscape:cy="84.416214"
     inkscape:document-units="px"
     inkscape:current-layer="layer3"
     showgrid="false"
     inkscape:window-width="1920"
     inkscape:window-height="1027"
     inkscape:window-x="1912"
     inkscape:window-y="127"
     inkscape:window-maximized="1" />
  <metadata
     id="metadata7">
    <rdf:RDF>
      <cc:Work
         rdf:about="">
        <dc:format>image/svg+xml</dc:format>
        <dc:type
           rdf:resource="http://purl.org/dc/dcmitype/StillImage" />
        <dc:title></dc:title>
      </cc:Work>
    </rdf:RDF>
  </metadata>
  <g
     inkscape:groupmode="layer"
     id="layer2"
     inkscape:label="SilkS"
     transform="translate(-43.460508,-876.0123)"
     style="display:inline">
    <path
       style="fill:#000000;fill-opacity:1;fill-rule:evenodd;stroke:none;stroke-width:0.17161718px;stroke-linecap:butt;stroke-linejoin:miter;stroke-opacity:1"
       d="m 99.587891,-0.66210938 c -0.986539,0 -1.934956,0.004179 -2.835938,0.0136719 C 81.571195,-0.49484818 53.987059,1.0915481 51.322266,2.5859375 49.237095,3.7552709 40.495777,13.123811 34.082031,21.988281 c -0.881996,0.02667 -2.132931,0.0735 -2.935547,0.15625 -3.087203,0.318326 -6.609271,-0.248209 -9.193359,1.470703 -1.741853,1.158656 -2.902549,3.280181 -3.310547,5.332032 -0.235787,1.185792 0.356952,3.268442 0.611328,4.082031 -1.305279,0.66784 -2.486675,1.383577 -3.351562,2.117187 C 11.086148,39.231626 8.021014,45.179041 5.4453125,50.945312 2.3304921,57.91854 0.07136569,65.487404 -0.34570312,73.113281 -0.94319862,82.666295 2.6557838,89.131285 6.8046875,97.277344 l 1.6367187,1.171875 c -0.4022409,5.332421 2.9251568,14.051291 6.7207028,14.105471 5.955682,0.085 8.726586,-0.0536 16.96875,-0.27735 3.644841,-2.61528 4.252477,-4.56922 5.769532,-6.7207 l 56.546875,1.96875 59.533204,-2.98633 c 0,0 1.59884,5.97443 4.04883,7.28516 1.71013,0.91491 18.84143,0.86308 20.17187,-0.36133 4.71219,-4.33654 4.63021,-11.30929 5.25586,-18.222656 0,0 4.18831,-12.18749 4.87109,-18.541015 0.39945,-3.716832 0.33191,-7.55424 -0.48046,-11.203125 -2.10876,-9.471691 -6.4192,-19.867794 -11.20899,-26.865235 -0.86103,-1.257898 -2.39367,-2.558101 -4.1875,-3.722656 0.28207,-1.053611 0.91671,-3.696544 0.59375,-5.185547 -0.44343,-2.044491 -1.56674,-4.173375 -3.30859,-5.332031 -2.58409,-1.718912 -6.10616,-1.152378 -9.19336,-1.470703 -0.85119,-0.08779 -2.21412,-0.136904 -3.0918,-0.16211 C 152.14302,13.53296 143.68726,3.6732549 139.94727,1.5488281 137.8129,0.33645476 114.386,-0.66209871 99.587891,-0.66210938 Z m 3.308589,1.88476558 c 17.16469,0.020551 32.36855,0.8130298 38.4004,2.4042969 1.49837,1.5106036 3.9865,3.8602055 5.68164,6.203125 -0.28336,-0.03459 -0.57158,-0.061933 -0.85547,-0.095703 4.85019,4.8838149 8.71719,10.5300649 13.53711,18.4726559 l -2.77344,-0.521484 c -7.15545,-0.404505 -14.68835,-0.808386 -22.53711,-1.212891 L 132.26953,24.566406 113.19922,24.304688 94.302734,24.044922 91.009766,26.125 C 72.240139,26.884193 55.99143,27.378748 33.28125,28.552734 37.501808,21.691291 41.707807,15.475692 46.816406,9.9511719 46.587619,9.9697197 46.355592,9.9852244 46.126953,10.003906 47.591792,8.3519467 50.016564,5.4183272 52.726562,3.4550781 66.605253,1.954968 85.731794,1.2021057 102.89648,1.2226562 Z M 46.816406,9.9511719 C 79.992629,7.2615781 114.70442,5.997061 146.12305,9.734375 144.23417,7.8324089 142.20036,6.0431499 139.89648,4.2832031 135.441,0.87963111 56.498488,0.94405762 52.089844,4.8027344 50.214745,6.4439196 48.470251,8.1626786 46.816406,9.9511719 Z m 47.6875,14.8789061 11.878904,0.158203 c 6.18708,-0.301289 10.91922,-0.118255 15.24414,0.201172 l 9.89649,0.130859 c -0.0579,0.225921 -0.1511,0.451815 -0.23242,0.677735 0.244,0.0187 0.47604,0.04076 0.72265,0.05859 l 4.2461,2.947265 c 0.053,-0.08636 0.11663,-0.164216 0.16796,-0.251953 l 3.07422,0.193359 c 6.54151,-0.163005 15.30777,0.786862 22.66797,1.033204 3.57673,0.999907 6.04694,1.981808 7.86914,2.953125 -0.0899,-0.123958 -0.17974,-0.255771 -0.26953,-0.378907 1.70989,0.587777 3.48373,1.426915 5.51758,3.310547 3.08283,3.993711 5.74312,8.550861 7.8457,13.851563 2.2954,6.251768 4.77919,13.375312 4.7793,18.755859 5e-5,2.303139 -0.86,5.265954 -2.94141,6.251953 -7.88513,3.735324 -44.21924,5.613989 -67.78906,7.59961 l -1.7168,-1.839844 -22.519528,1.117187 -22.345703,-1.117187 -1.59375,1.716797 -68.2792965,-9.19336 C 1.2443058,65.18193 4.2601166,57.714627 6.9785156,50.205078 10.630799,42.70459 15.806431,34.703842 23.146484,32.517578 c -0.378367,0.31869 -0.730341,0.645539 -1.099609,0.966797 0.485679,-0.215372 0.997261,-0.4293 1.542969,-0.644531 2.033832,-1.382768 4.334336,-2.433825 7.169922,-3.105469 l 58.105468,-1.472656 z m -70.914062,8.009766 c -1.24457,0.846161 -2.389395,1.814782 -3.494141,2.90039 -1.558913,1.531909 -2.875891,3.221486 -4.048828,5.023438 11.766513,-0.422428 24.489378,0.711054 38.494141,3.925781 l -2.941407,-3.677734 c 14.362377,0.822765 27.253762,-0.518139 39.339844,-1.646485 l 1.408203,-0.59375 c 1.901867,-0.917558 1.190083,-4.235912 3.75,-5.115234 7.532104,-2.587246 21.022174,-2.291705 30.523434,-1.59375 0.0627,0.0046 0.12736,0.02364 0.19141,0.03711 2.11016,-2.033638 3.74649,-4.067924 4.47852,-6.101562 -3.27634,-0.251104 -6.36533,-0.564958 -9.66407,-0.808594 l -15.24414,-0.201172 c -3.57651,0.174164 -7.624837,0.504933 -12.369138,1.06836 -1.32368,1.96324 -1.840112,4.649329 -4.167969,5.638671 -14.144875,0.905364 -28.558991,0.465922 -43.027344,-0.246093 l 0.613282,2.207031 C 41.19997,31.32383 35.071795,30.032485 29.166016,30.958984 c -2.169495,0.634055 -3.997887,1.258371 -5.576172,1.88086 z M 126.8125,32.099609 c -4.05763,3.910488 -9.79718,7.819981 -13.92188,11.730469 5.24886,-3.33266 11.93562,-5.489605 17.15821,-8.84375 -0.75325,-1.035041 -2.07155,-2.64174 -3.23633,-2.886719 z m 3.23633,2.886719 c 0.355,0.487811 0.61719,0.876953 0.61719,0.876953 2.96378,0.119902 6.32344,-0.553718 8.70312,0.734375 l -2.69726,3.923828 c 11.71065,-0.681443 20.36054,-2.754411 36.8457,-1.265625 -2.48778,-4.218428 -5.75453,-7.945047 -9.87696,-8.787109 l -24.13867,-1.523438 c -1.0871,0.02709 -2.12767,0.07841 -3.07422,0.175782 l -0.16796,-0.117188 c -1.50708,2.454884 -3.68568,4.360601 -6.21094,5.982422 z m 43.46875,4.269531 c 2.61451,4.433338 4.36881,9.411459 5.32422,12.175782 0,0 -28.01025,-1.461968 -28.62305,-0.521485 -0.47328,0.726348 1.07661,9.652344 0.91797,9.652344 L 37.365234,61.359375 c 0.539728,-5.321192 1.875856,-9.304592 1.167969,-9.978516 -0.753632,-0.717474 -28,0.66211 -28,0.66211 1.63278,-4.074047 3.305552,-7.887021 5.513672,-11.279297 -0.248182,0.0089 -0.494865,0.02094 -0.742187,0.03125 -0.438058,0.665661 -0.853011,1.343021 -1.214844,2.054687 0,0 -3.05777,5.638205 -4.2402346,8.611329 -1.4026307,3.526691 -2.4919893,6.616942 -3.3613282,10.878906 l 57.8593748,-0.490235 2.330078,5.027344 53.937496,-0.246094 3.06446,-4.902343 2.57422,-0.246094 56.26562,-0.123047 c -1.15531,-5.478486 -2.68746,-11.08038 -5.02734,-16.242187 -0.89737,-1.979604 -1.96713,-3.909225 -3.11914,-5.783204 -0.28861,-0.02778 -0.57158,-0.05249 -0.85547,-0.07813 z m 0.85547,0.07813 c 1.01332,0.09754 2.04463,0.202772 3.11914,0.328125 -2.53612,-2.244511 -3.18958,-4.457809 -7.45313,-6.730468 1.47568,2.033864 2.96381,4.173489 4.33399,6.402343 z M 15.304688,40.794922 c 1.772504,-2.693457 4.136734,-5.043836 6.742187,-7.310547 -5.147718,2.282728 -7.091093,4.596098 -9.060547,7.404297 0.764227,-0.04565 1.545855,-0.06155 2.31836,-0.09375 z M 12.25,79.650391 l 15.765625,0.572265 3.736328,0.388672 c 0.144975,0.151296 0.234375,0.353264 0.234375,0.582031 v 6.865235 c 0,0.475379 -0.382356,0.874697 -0.857422,0.857422 L 12.25,88.230469 c -0.475066,-0.01727 -0.857422,-0.382043 -0.857422,-0.857422 v -6.865235 c 0,-0.475379 0.382356,-0.874696 0.857422,-0.857421 z m 162.54688,0.24414 c 0.47506,-0.01727 0.85742,0.382043 0.85742,0.857422 v 6.865235 c 0,0.475379 -0.38236,0.8421 -0.85742,0.859374 l -18.87891,0.685547 c -0.47507,0.01727 -0.85742,-0.382042 -0.85742,-0.857421 v -6.865235 c 0,-0.122433 0.0264,-0.23802 0.0723,-0.341797 l 11.01172,-0.888672 z m -141.812505,0.845703 20.208984,2.107422 v 6.167969 c 0,0.47538 -0.382356,0.874697 -0.857421,0.857422 L 33.457031,89.1875 c -0.475065,-0.01727 -0.857422,-0.383995 -0.857422,-0.859375 v -6.865234 c 0,-0.299858 0.153002,-0.568594 0.384766,-0.722657 z m 121.271485,0.429688 c 0.11764,0.149077 0.19141,0.335475 0.19141,0.539062 v 6.865235 c 0,0.475379 -0.38236,0.840147 -0.85743,0.857422 l -18.8789,0.685547 c -0.47507,0.01727 -0.85742,-0.382043 -0.85742,-0.857422 v -6.44336 z m -20.89258,1.685547 v 6.453125 c 0,0.475379 -0.38236,0.8421 -0.85742,0.859375 l -18.87891,0.685547 c -0.47506,0.01727 -0.85742,-0.382043 -0.85742,-0.857422 v -5.478516 z m -79.679686,0.04297 20.59375,2.146484 V 89.75 c 0,0.47538 -0.382357,0.87665 -0.857422,0.859375 l -18.878906,-0.6875 C 54.06595,89.9046 53.683594,89.539833 53.683594,89.064453 Z m 131.113286,5.291015 c -0.77323,0.859462 -1.17055,1.844175 -3.81446,2.080078 -22.71157,1.15573 -67.82466,3.169153 -88.066404,3.466797 C 123.54287,91.88716 166.305,89.681711 184.79688,88.189454 Z m -2.42579,5.199219 -1.56054,1.908203 c -19.1396,1.444663 -76.79041,5.095824 -88.066409,4.333984 6.974817,-0.486727 68.155689,-3.794121 89.626949,-6.242187 z m -87.546871,7.802737 c 18.204871,2.36657 51.449181,1.45865 54.384761,1.24023 l 0.91602,2.22656 -55.474609,2.25391 z"
       transform="matrix(0.93749995,0,0,0.93749995,43.460508,876.0123)"
       id="path4425"
       inkscape:connector-curvature="0" />
  </g>
  <g
     inkscape:groupmode="layer"
     id="layer3"
     inkscape:label="Mask"
     transform="translate(-43.460508,-876.0123)"
     style="display:none" />
  <g
     inkscape:label="Layer 1"
     inkscape:groupmode="layer"
     id="layer1"
     transform="translate(-43.460508,-876.0123)"
     style="display:none">
    <g
       id="g4393"
       transform="matrix(0.1608911,0,0,0.1608911,84.250317,857.30871)">
      <path
         sodipodi:nodetypes="csccsccccccccac"
         inkscape:connector-curvature="0"
         id="path4293"
         d="m -192.14285,419.50506 c 0,0 158.761646,-8.04053 163.153003,-3.85986 4.124803,3.9269 -3.666147,27.13941 -6.811096,58.14558 l 662.943803,-4.64286 c 0.92437,0 -8.11489,-52.01763 -5.35715,-56.25 3.57076,-5.48012 166.78572,3.03571 166.78572,3.03571 C 777.70716,384.49946 749.26585,303.85401 700,293.79078 l -158.57143,-10 c -26.38722,45.09876 -91.24945,58.71798 -137.14285,87.85714 37.92178,-35.95238 99.35205,-71.90476 108.57142,-107.85714 l -215.71428,-2.85715 -32.85715,20 -338.571424,8.57143 c -26.633546,6.30849 -45.186026,18.33691 -62.142856,35 -26.18419,25.73061 -41.14639,58.65079 -55.71428,95 z"
         style="fill:#333333;fill-opacity:1;fill-rule:evenodd;stroke:none;stroke-width:1px;stroke-linecap:butt;stroke-linejoin:miter;stroke-opacity:1" />
      <path
         sodipodi:nodetypes="ccccc"
         inkscape:connector-curvature="0"
         id="path4295"
         d="m 627.14286,415.93363 c 53.80952,-4.22394 107.61905,1.83332 161.42857,2.85715 6.08428,16.17762 11.73978,32.78402 15,51.78571 l -171.42857,-1.42857 c -3.25517,-19.85611 -7.24175,-40.68742 -5,-53.21429 z"
         style="fill:#1a1a1a;fill-opacity:1;fill-rule:evenodd;stroke:none;stroke-width:1px;stroke-linecap:butt;stroke-linejoin:miter;stroke-opacity:1" />
      <path
         sodipodi:nodetypes="ccccc"
         inkscape:connector-curvature="0"
         id="path4297"
         d="m -191.07143,423.30736 c 137.081131,-8.42533 156.952116,-8.16054 158.701416,-4.32532 1.467715,7.53326 -6.237407,33.1238 -9.058557,52.66588 l -167.860849,2.18618 c 2.02599,-17.0235 9.52533,-34.45562 18.21799,-50.52674 z"
         style="fill:#1a1a1a;fill-opacity:1;fill-rule:evenodd;stroke:none;stroke-width:1px;stroke-linecap:butt;stroke-linejoin:miter;stroke-opacity:1" />
      <path
         sodipodi:nodetypes="ccccccccsscccacccccccacc"
         inkscape:connector-curvature="0"
         id="path4320"
         d="m -118.65065,305.72443 c -42.76992,12.73919 -72.92492,59.36159 -94.20649,103.06635 -15.8399,43.75756 -33.41172,87.26771 -36.42857,132.85714 l 397.85714,53.57143 9.28571,-10 130.20921,6.50779 131.21936,-6.50779 10,10.71428 c 137.33949,-11.57006 349.05396,-22.52027 395.00001,-44.28571 12.1282,-5.74534 17.14312,-23.00836 17.14285,-36.42857 -6.4e-4,-31.35203 -14.48202,-72.85715 -27.85714,-109.28572 -12.25158,-30.88678 -27.7509,-57.44324 -45.71429,-80.71428 -11.85108,-10.97578 -22.17948,-15.86079 -32.14285,-19.28572 16.32446,22.38827 33.17301,47.12377 45,73.21429 13.63429,30.07745 22.55383,62.72015 29.28571,94.64286 l -327.85714,0.71428 -15,1.42857 -17.85715,28.57143 L 135,505.93363 l -13.57143,-29.28571 -337.14286,2.85715 c 5.06557,-24.83413 11.40856,-42.84092 19.58158,-63.39068 6.89013,-17.32416 24.70414,-50.18076 24.70414,-50.18076 11.84857,-23.30416 31.17283,-42.01176 52.77792,-60.2092 z"
         style="fill:#333333;fill-opacity:1;fill-rule:evenodd;stroke:none;stroke-width:1px;stroke-linecap:butt;stroke-linejoin:miter;stroke-opacity:1" />
      <path
         sodipodi:nodetypes="ccac"
         inkscape:connector-curvature="0"
         id="path4430"
         d="m 679.07143,247.93363 c 24.07044,6.50049 58.32663,12.81365 72.5,41.78572 0.78475,-9.45536 -4.23436,-24.64275 -13.21428,-31.78572 -15.68429,-12.47586 -42.61905,-12.45006 -59.28572,-10 z"
         style="fill:#ffffff;fill-rule:evenodd;stroke:none;stroke-width:1px;stroke-linecap:butt;stroke-linejoin:miter;stroke-opacity:1" />
      <path
         style="fill:#ffffff;fill-rule:evenodd;stroke:none;stroke-width:1px;stroke-linecap:butt;stroke-linejoin:miter;stroke-opacity:1"
         d="m -65.205553,257.3622 c -24.07044,6.50049 -58.326627,12.81365 -72.499997,41.78572 -0.78475,-9.45536 4.23436,-24.64275 13.21428,-31.78572 15.68429,-12.47586 42.619047,-12.45006 59.285717,-10 z"
         id="path4432"
         inkscape:connector-curvature="0"
         sodipodi:nodetypes="ccac" />
    </g>
    <flowRoot
       xml:space="preserve"
       id="flowRoot4410"
       style="font-style:normal;font-weight:normal;line-height:0.01%;font-family:sans-serif;letter-spacing:0px;word-spacing:0px;fill:#000000;fill-opacity:1;stroke:none;stroke-width:1px;stroke-linecap:butt;stroke-linejoin:miter;stroke-opacity:1"
       transform="translate(0,680.31496)"><flowRegion
         id="flowRegion4412"><rect
           id="rect4414"
           width="222.85715"
           height="103.57143"
           x="13.571428"
           y="19.1901" /></flowRegion><flowPara
         id="flowPara4416"
         style="font-size:40px;line-height:10">KITT</flowPara></flowRoot>  </g>
  <g
     inkscape:groupmode="layer"
     id="layer4"
     inkscape:label="CU"
     style="display:none;opacity:1" />
</svg>
