<?xml version="1.0" encoding="utf-8"?>
<!-- Generator: Adobe Illustrator 16.0.0, SVG Export Plug-In . SVG Version: 6.00 Build 0)  -->
<!DOCTYPE svg PUBLIC "-//W3C//DTD SVG 1.1//EN" "http://www.w3.org/Graphics/SVG/1.1/DTD/svg11.dtd">
<svg version="1.1" id="Layer_1" xmlns="http://www.w3.org/2000/svg" xmlns:xlink="http://www.w3.org/1999/xlink" x="0px" y="0px"
	 width="864px" height="864px" viewBox="0 0 864 864" enable-background="new 0 0 864 864" xml:space="preserve">
<path fill-rule="evenodd" clip-rule="evenodd" d="M441.804,56.28c183.746-0.849,328.473,117.096,367.514,299.952
	c17.362,81.317,17.017,161.386-20.795,237.891c-20.254,40.979-51.019,70.843-94.586,86.795c-4.028,1.476-8.789,5.93-9.819,9.884
	c-22.025,84.6-80.79,124.949-163.615,135.471c-70.619,8.972-140.898,6.926-210.134-11.325
	c-64.329-16.96-101.825-59.408-116.885-123.319c-1.141-4.848-4.978-11.36-9.104-12.863c-67.9-24.71-101.03-78.587-117.144-144.013
	C29.568,381.806,93.328,193.133,242.43,106.425C297.99,74.116,365.46,56.633,441.804,56.28z"/>
<path fill-rule="evenodd" clip-rule="evenodd" fill="#ED1C24" d="M685.373,667.922c7.02-32.306-16.387-43.433-36.924-56.536
	c-140.233-89.465-305.992-76.363-442.745,12.011c-10.894,7.038-13.903,26.275-21.422,41.562
	c-27.258-9.144-52.482-28.571-69.648-56.167c-13.614-21.888-23.366-46.299-33.451-70.172c-2.188-5.178-0.821-14.952,2.867-19.052
	c50.281-55.924,63.026-123.404,60.065-195.235c-1.066-25.891-7.257-51.537-9.64-77.43c-0.788-8.57,0.461-19.337,5.128-26.093
	C199.258,134.447,282.016,85.26,385.805,72.016c103.699-13.23,200.038,5.326,282.253,73.412
	c23.944,19.83,43.096,45.423,64.628,68.201c10.878,11.51,10.979,23.899,7.82,38.982c-15.825,75.571-12.902,149.805,21.962,220.295
	c7.789,15.75,19.963,29.279,28.762,44.61c3.553,6.192,6.311,15.232,4.59,21.688c-14.612,54.878-42.504,100.109-95.995,125.462
	c-2.123,1.007-4.374,1.781-6.621,2.482C692.115,667.487,690.896,667.405,685.373,667.922z M438.546,457.616
	c104.921-0.24,186.102-82.478,185.953-188.373c-0.146-102.98-84.027-185.928-187.604-185.514
	c-103.248,0.412-186.635,84.175-186.373,187.213C250.788,375.807,333.431,457.856,438.546,457.616z"/>
<path fill-rule="evenodd" clip-rule="evenodd" fill="#C2B59B" d="M451.185,820.429c-58.462-3.286-109.465-5.137-157.64-24.683
	c-55.454-22.499-92.622-78.538-90.293-138.29c0.324-8.295,4.15-20.123,10.316-23.979c114.34-71.5,235.337-94.648,364.114-43.826
	c28.342,11.185,53.858,29.458,80.846,44.162c13.35,7.272,16.478,18.653,16.093,32.805c-1.555,57.337-47.672,116.71-106.608,135.795
	c-13.465,4.36-27.281,8.42-41.245,10.286C499.195,816.383,471.408,818.437,451.185,820.429z M338.432,656.715
	c1.434,16.776,1.157,31.873,4.61,46.06c1.668,6.849,7.078,16.105,15.933,16.671c9.538,0.609,16.827-9.2,17.132-14.856
	c4.19-33.086,5.096-65.375,0.381-99.06c-0.809-5.782-6.752-16.711-17.065-16.736c-7.189-0.276-13.717,10.52-15.081,16.945
	C340.683,622.989,340.069,640.887,338.432,656.715z M545.182,652.58c-1.266-14.802-1.078-31.099-4.706-46.498
	c-1.581-6.712-8.088-17.264-16.835-17.291c-8.756,1.234-14.957,10.72-15.334,16.54c-2.053,31.741-2.287,63.633-2.142,95.468
	c0.049,10.646,4.572,19.022,17.476,19.005c13.877-0.019,15.769-12.124,17.67-20.028C544.858,685.007,544.077,669.197,545.182,652.58
	z"/>
<g>
	<path fill-rule="evenodd" clip-rule="evenodd" fill="#FFFFFF" d="M800.157,514.867c-64.733-82.987-69.251-173.264-50.406-269.621
		C793.304,294.882,822.266,447.291,800.157,514.867z"/>
	<path fill-rule="evenodd" clip-rule="evenodd" fill="#FFFFFF" d="M76.678,510.994c-24.06-54.689,5.806-218.942,47.702-262.339
		C152.384,342.657,130.342,463.875,76.678,510.994z"/>
	<path fill-rule="evenodd" clip-rule="evenodd" fill="#FFFFFF" d="M438.7,92.952c97.734,0.779,177.985,81.133,177.944,178.173
		c-0.042,97.127-82.76,179.254-179.846,178.56c-97.082-0.695-178.331-82.429-177.646-178.702
		C259.855,172.201,340.568,92.171,438.7,92.952z"/>
</g>
</svg>
