<?xml version="1.0" encoding="utf-8"?>
<!-- Generator: Adobe Illustrator 23.0.6, SVG Export Plug-In . SVG Version: 6.00 Build 0)  -->
<svg version="1.1" id="Layer_1" xmlns="http://www.w3.org/2000/svg" xmlns:xlink="http://www.w3.org/1999/xlink" x="0px" y="0px"
	 viewBox="0 0 733.24 826" style="enable-background:new 0 0 733.24 826;" xml:space="preserve">
<style type="text/css">
	.st0{fill:#0099AD;}
	.st1{fill:#035191;}
	.st2{fill:#000560;}
	.st3{fill:#D8D8D8;}
	.st4{fill:#878787;}
	.st5{fill:#686868;}
	.st6{fill:#D81212;}
	.st7{fill:#C10808;}
	.st8{fill:#871000;}
</style>
<polygon class="st0" points="225.27,0 225.27,291.53 0,388.71 0,97.18 "/>
<polygon class="st1" points="450.55,388.71 225.27,291.53 225.27,0 450.55,97.18 "/>
<polygon class="st2" points="225.27,472.63 450.55,388.71 225.27,291.53 0,388.71 "/>
<polygon class="st3" points="229.69,353.37 229.69,644.9 4.42,742.07 4.42,450.55 "/>
<polygon class="st4" points="454.96,742.07 229.69,644.9 229.69,353.37 454.96,450.55 "/>
<polygon class="st5" points="229.69,826 454.96,742.07 229.69,644.9 4.42,742.07 "/>
<polygon class="st6" points="507.97,66.26 507.97,357.79 282.7,454.96 282.7,163.43 "/>
<polygon class="st7" points="733.24,454.96 507.97,357.79 507.97,66.26 733.24,163.43 "/>
<polygon class="st8" points="507.97,538.89 733.24,454.96 507.97,357.79 282.7,454.96 "/>
</svg>
