M48
; DRILL file {KiCad 5.1.4+dfsg1-1} date Tue 20 Aug 2019 11:52:50 PM EDT
; FORMAT={-:-/ absolute / inch / decimal}
; #@! TF.CreationDate,2019-08-20T23:52:50-04:00
; #@! TF.GenerationSoftware,Kicad,Pcbnew,5.1.4+dfsg1-1
; #@! TF.FileFunction,Plated,1,2,PTH
FMAT,2
INCH
T1C0.0295
T2C0.0300
T3C0.0315
T4C0.0354
T5C0.0461
T6C0.0591
%
G90
G05
T1
X6.63Y-5.13
X6.68Y-5.13
X6.73Y-5.13
T2
X6.13Y-4.62
X6.13Y-4.92
X6.23Y-4.62
X6.23Y-4.92
X6.33Y-4.62
X6.33Y-4.92
X6.43Y-4.62
X6.43Y-4.92
T3
X7.44Y-3.86
X7.44Y-4.16
X6.47Y-3.86
X6.47Y-4.16
X6.99Y-3.86
X6.99Y-4.16
X6.7913Y-4.69
X6.87Y-4.69
X6.72Y-3.85
X6.72Y-4.15
X7.25Y-3.86
X7.25Y-4.16
X7.12Y-4.68
X7.2184Y-4.68
X7.76Y-3.87
X7.76Y-4.17
X5.52Y-4.73
X5.82Y-4.73
T4
X6.18Y-3.9131
X6.18Y-4.0116
X6.18Y-4.11
X5.6Y-2.89
X5.7Y-2.89
X5.97Y-2.9
X6.07Y-2.9
T5
X5.127Y-4.141
T6
X5.9144Y-4.141
T0
M30
