G04 #@! TF.GenerationSoftware,KiCad,Pcbnew,5.1.4+dfsg1-1*
G04 #@! TF.CreationDate,2019-08-20T23:53:14-04:00*
G04 #@! TF.ProjectId,hello_world,68656c6c-6f5f-4776-9f72-6c642e6b6963,v01*
G04 #@! TF.SameCoordinates,Original*
G04 #@! TF.FileFunction,Soldermask,Bot*
G04 #@! TF.FilePolarity,Negative*
%FSLAX46Y46*%
G04 Gerber Fmt 4.6, Leading zero omitted, Abs format (unit mm)*
G04 Created by KiCad (PCBNEW 5.1.4+dfsg1-1) date 2019-08-20 23:53:14*
%MOMM*%
%LPD*%
G04 APERTURE LIST*
%ADD10C,0.100000*%
G04 APERTURE END LIST*
D10*
G36*
X171054915Y-129509334D02*
G01*
X171163491Y-129542271D01*
X171163494Y-129542272D01*
X171199600Y-129561571D01*
X171263556Y-129595756D01*
X171351264Y-129667736D01*
X171423244Y-129755443D01*
X171457429Y-129819399D01*
X171476728Y-129855505D01*
X171476729Y-129855508D01*
X171509666Y-129964084D01*
X171518000Y-130048702D01*
X171518000Y-130555297D01*
X171509666Y-130639916D01*
X171477252Y-130746767D01*
X171476728Y-130748495D01*
X171466761Y-130767141D01*
X171423244Y-130848557D01*
X171351264Y-130936264D01*
X171263557Y-131008244D01*
X171199601Y-131042429D01*
X171163495Y-131061728D01*
X171163492Y-131061729D01*
X171054916Y-131094666D01*
X170942000Y-131105787D01*
X170829085Y-131094666D01*
X170720509Y-131061729D01*
X170720506Y-131061728D01*
X170684400Y-131042429D01*
X170620444Y-131008244D01*
X170532737Y-130936264D01*
X170460757Y-130848557D01*
X170417239Y-130767141D01*
X170403625Y-130746766D01*
X170386298Y-130729439D01*
X170365924Y-130715826D01*
X170343285Y-130706448D01*
X170319252Y-130701668D01*
X170294748Y-130701668D01*
X170270715Y-130706448D01*
X170248076Y-130715826D01*
X170227701Y-130729440D01*
X170210374Y-130746767D01*
X170196761Y-130767141D01*
X170153244Y-130848557D01*
X170081264Y-130936264D01*
X169993557Y-131008244D01*
X169929601Y-131042429D01*
X169893495Y-131061728D01*
X169893492Y-131061729D01*
X169784916Y-131094666D01*
X169672000Y-131105787D01*
X169559085Y-131094666D01*
X169450509Y-131061729D01*
X169450506Y-131061728D01*
X169414400Y-131042429D01*
X169350444Y-131008244D01*
X169262737Y-130936264D01*
X169199622Y-130859359D01*
X169182297Y-130842034D01*
X169161923Y-130828420D01*
X169139284Y-130819043D01*
X169115250Y-130814263D01*
X169090746Y-130814263D01*
X169066713Y-130819044D01*
X169044074Y-130828421D01*
X169023700Y-130842035D01*
X169006373Y-130859362D01*
X168992759Y-130879736D01*
X168983382Y-130902375D01*
X168978000Y-130938660D01*
X168978000Y-131103000D01*
X167826000Y-131103000D01*
X167826000Y-129501000D01*
X168978000Y-129501000D01*
X168978000Y-129665341D01*
X168980402Y-129689727D01*
X168987515Y-129713176D01*
X168999066Y-129734787D01*
X169014611Y-129753729D01*
X169033553Y-129769274D01*
X169055164Y-129780825D01*
X169078613Y-129787938D01*
X169102999Y-129790340D01*
X169127385Y-129787938D01*
X169150834Y-129780825D01*
X169172445Y-129769274D01*
X169191387Y-129753729D01*
X169199608Y-129744657D01*
X169262736Y-129667736D01*
X169350443Y-129595756D01*
X169414399Y-129561571D01*
X169450505Y-129542272D01*
X169450508Y-129542271D01*
X169559084Y-129509334D01*
X169672000Y-129498213D01*
X169784915Y-129509334D01*
X169893491Y-129542271D01*
X169893494Y-129542272D01*
X169929600Y-129561571D01*
X169993556Y-129595756D01*
X170081264Y-129667736D01*
X170153244Y-129755443D01*
X170196761Y-129836859D01*
X170210375Y-129857234D01*
X170227702Y-129874561D01*
X170248076Y-129888174D01*
X170270715Y-129897552D01*
X170294748Y-129902332D01*
X170319252Y-129902332D01*
X170343285Y-129897552D01*
X170365924Y-129888174D01*
X170386299Y-129874560D01*
X170403626Y-129857233D01*
X170417239Y-129836860D01*
X170460756Y-129755444D01*
X170532736Y-129667736D01*
X170620443Y-129595756D01*
X170684399Y-129561571D01*
X170720505Y-129542272D01*
X170720508Y-129542271D01*
X170829084Y-129509334D01*
X170942000Y-129498213D01*
X171054915Y-129509334D01*
X171054915Y-129509334D01*
G37*
G36*
X158479142Y-124186242D02*
G01*
X158627101Y-124247529D01*
X158760255Y-124336499D01*
X158873501Y-124449745D01*
X158962471Y-124582899D01*
X159023758Y-124730858D01*
X159055000Y-124887925D01*
X159055000Y-125048075D01*
X159023758Y-125205142D01*
X158962471Y-125353101D01*
X158873501Y-125486255D01*
X158760255Y-125599501D01*
X158627101Y-125688471D01*
X158479142Y-125749758D01*
X158322075Y-125781000D01*
X158161925Y-125781000D01*
X158004858Y-125749758D01*
X157856899Y-125688471D01*
X157723745Y-125599501D01*
X157610499Y-125486255D01*
X157521529Y-125353101D01*
X157460242Y-125205142D01*
X157429000Y-125048075D01*
X157429000Y-124887925D01*
X157460242Y-124730858D01*
X157521529Y-124582899D01*
X157610499Y-124449745D01*
X157723745Y-124336499D01*
X157856899Y-124247529D01*
X158004858Y-124186242D01*
X158161925Y-124155000D01*
X158322075Y-124155000D01*
X158479142Y-124186242D01*
X158479142Y-124186242D01*
G37*
G36*
X161019142Y-124186242D02*
G01*
X161167101Y-124247529D01*
X161300255Y-124336499D01*
X161413501Y-124449745D01*
X161502471Y-124582899D01*
X161563758Y-124730858D01*
X161595000Y-124887925D01*
X161595000Y-125048075D01*
X161563758Y-125205142D01*
X161502471Y-125353101D01*
X161413501Y-125486255D01*
X161300255Y-125599501D01*
X161167101Y-125688471D01*
X161019142Y-125749758D01*
X160862075Y-125781000D01*
X160701925Y-125781000D01*
X160544858Y-125749758D01*
X160396899Y-125688471D01*
X160263745Y-125599501D01*
X160150499Y-125486255D01*
X160061529Y-125353101D01*
X160000242Y-125205142D01*
X159969000Y-125048075D01*
X159969000Y-124887925D01*
X160000242Y-124730858D01*
X160061529Y-124582899D01*
X160150499Y-124449745D01*
X160263745Y-124336499D01*
X160396899Y-124247529D01*
X160544858Y-124186242D01*
X160701925Y-124155000D01*
X160862075Y-124155000D01*
X161019142Y-124186242D01*
X161019142Y-124186242D01*
G37*
G36*
X163559142Y-124186242D02*
G01*
X163707101Y-124247529D01*
X163840255Y-124336499D01*
X163953501Y-124449745D01*
X164042471Y-124582899D01*
X164103758Y-124730858D01*
X164135000Y-124887925D01*
X164135000Y-125048075D01*
X164103758Y-125205142D01*
X164042471Y-125353101D01*
X163953501Y-125486255D01*
X163840255Y-125599501D01*
X163707101Y-125688471D01*
X163559142Y-125749758D01*
X163402075Y-125781000D01*
X163241925Y-125781000D01*
X163084858Y-125749758D01*
X162936899Y-125688471D01*
X162803745Y-125599501D01*
X162690499Y-125486255D01*
X162601529Y-125353101D01*
X162540242Y-125205142D01*
X162509000Y-125048075D01*
X162509000Y-124887925D01*
X162540242Y-124730858D01*
X162601529Y-124582899D01*
X162690499Y-124449745D01*
X162803745Y-124336499D01*
X162936899Y-124247529D01*
X163084858Y-124186242D01*
X163241925Y-124155000D01*
X163402075Y-124155000D01*
X163559142Y-124186242D01*
X163559142Y-124186242D01*
G37*
G36*
X155939142Y-124186242D02*
G01*
X156087101Y-124247529D01*
X156220255Y-124336499D01*
X156333501Y-124449745D01*
X156422471Y-124582899D01*
X156483758Y-124730858D01*
X156515000Y-124887925D01*
X156515000Y-125048075D01*
X156483758Y-125205142D01*
X156422471Y-125353101D01*
X156333501Y-125486255D01*
X156220255Y-125599501D01*
X156087101Y-125688471D01*
X155939142Y-125749758D01*
X155782075Y-125781000D01*
X155621925Y-125781000D01*
X155464858Y-125749758D01*
X155316899Y-125688471D01*
X155183745Y-125599501D01*
X155070499Y-125486255D01*
X154981529Y-125353101D01*
X154920242Y-125205142D01*
X154889000Y-125048075D01*
X154889000Y-124887925D01*
X154920242Y-124730858D01*
X154981529Y-124582899D01*
X155070499Y-124449745D01*
X155183745Y-124336499D01*
X155316899Y-124247529D01*
X155464858Y-124186242D01*
X155621925Y-124155000D01*
X155782075Y-124155000D01*
X155939142Y-124186242D01*
X155939142Y-124186242D01*
G37*
G36*
X140456228Y-119323703D02*
G01*
X140611100Y-119387853D01*
X140750481Y-119480985D01*
X140869015Y-119599519D01*
X140962147Y-119738900D01*
X141026297Y-119893772D01*
X141059000Y-120058184D01*
X141059000Y-120225816D01*
X141026297Y-120390228D01*
X140962147Y-120545100D01*
X140869015Y-120684481D01*
X140750481Y-120803015D01*
X140611100Y-120896147D01*
X140456228Y-120960297D01*
X140291816Y-120993000D01*
X140124184Y-120993000D01*
X139959772Y-120960297D01*
X139804900Y-120896147D01*
X139665519Y-120803015D01*
X139546985Y-120684481D01*
X139453853Y-120545100D01*
X139389703Y-120390228D01*
X139357000Y-120225816D01*
X139357000Y-120058184D01*
X139389703Y-119893772D01*
X139453853Y-119738900D01*
X139546985Y-119599519D01*
X139665519Y-119480985D01*
X139804900Y-119387853D01*
X139959772Y-119323703D01*
X140124184Y-119291000D01*
X140291816Y-119291000D01*
X140456228Y-119323703D01*
X140456228Y-119323703D01*
G37*
G36*
X147994823Y-119303313D02*
G01*
X148155242Y-119351976D01*
X148287906Y-119422886D01*
X148303078Y-119430996D01*
X148432659Y-119537341D01*
X148539004Y-119666922D01*
X148539005Y-119666924D01*
X148618024Y-119814758D01*
X148666687Y-119975177D01*
X148683117Y-120142000D01*
X148666687Y-120308823D01*
X148618024Y-120469242D01*
X148577477Y-120545100D01*
X148539004Y-120617078D01*
X148432659Y-120746659D01*
X148303078Y-120853004D01*
X148303076Y-120853005D01*
X148155242Y-120932024D01*
X147994823Y-120980687D01*
X147869804Y-120993000D01*
X147786196Y-120993000D01*
X147661177Y-120980687D01*
X147500758Y-120932024D01*
X147352924Y-120853005D01*
X147352922Y-120853004D01*
X147223341Y-120746659D01*
X147116996Y-120617078D01*
X147078523Y-120545100D01*
X147037976Y-120469242D01*
X146989313Y-120308823D01*
X146972883Y-120142000D01*
X146989313Y-119975177D01*
X147037976Y-119814758D01*
X147116995Y-119666924D01*
X147116996Y-119666922D01*
X147223341Y-119537341D01*
X147352922Y-119430996D01*
X147368094Y-119422886D01*
X147500758Y-119351976D01*
X147661177Y-119303313D01*
X147786196Y-119291000D01*
X147869804Y-119291000D01*
X147994823Y-119303313D01*
X147994823Y-119303313D01*
G37*
G36*
X174746228Y-118307703D02*
G01*
X174901100Y-118371853D01*
X175040481Y-118464985D01*
X175159015Y-118583519D01*
X175252147Y-118722900D01*
X175316297Y-118877772D01*
X175349000Y-119042184D01*
X175349000Y-119209816D01*
X175316297Y-119374228D01*
X175252147Y-119529100D01*
X175159015Y-119668481D01*
X175040481Y-119787015D01*
X174901100Y-119880147D01*
X174746228Y-119944297D01*
X174581816Y-119977000D01*
X174414184Y-119977000D01*
X174249772Y-119944297D01*
X174094900Y-119880147D01*
X173955519Y-119787015D01*
X173836985Y-119668481D01*
X173743853Y-119529100D01*
X173679703Y-119374228D01*
X173647000Y-119209816D01*
X173647000Y-119042184D01*
X173679703Y-118877772D01*
X173743853Y-118722900D01*
X173836985Y-118583519D01*
X173955519Y-118464985D01*
X174094900Y-118371853D01*
X174249772Y-118307703D01*
X174414184Y-118275000D01*
X174581816Y-118275000D01*
X174746228Y-118307703D01*
X174746228Y-118307703D01*
G37*
G36*
X173349000Y-119977000D02*
G01*
X171647000Y-119977000D01*
X171647000Y-118275000D01*
X173349000Y-118275000D01*
X173349000Y-119977000D01*
X173349000Y-119977000D01*
G37*
G36*
X181699000Y-119723000D02*
G01*
X179997000Y-119723000D01*
X179997000Y-118021000D01*
X181699000Y-118021000D01*
X181699000Y-119723000D01*
X181699000Y-119723000D01*
G37*
G36*
X183596228Y-118053703D02*
G01*
X183751100Y-118117853D01*
X183890481Y-118210985D01*
X184009015Y-118329519D01*
X184102147Y-118468900D01*
X184166297Y-118623772D01*
X184199000Y-118788184D01*
X184199000Y-118955816D01*
X184166297Y-119120228D01*
X184102147Y-119275100D01*
X184009015Y-119414481D01*
X183890481Y-119533015D01*
X183751100Y-119626147D01*
X183596228Y-119690297D01*
X183431816Y-119723000D01*
X183264184Y-119723000D01*
X183099772Y-119690297D01*
X182944900Y-119626147D01*
X182805519Y-119533015D01*
X182686985Y-119414481D01*
X182593853Y-119275100D01*
X182529703Y-119120228D01*
X182497000Y-118955816D01*
X182497000Y-118788184D01*
X182529703Y-118623772D01*
X182593853Y-118468900D01*
X182686985Y-118329519D01*
X182805519Y-118210985D01*
X182944900Y-118117853D01*
X183099772Y-118053703D01*
X183264184Y-118021000D01*
X183431816Y-118021000D01*
X183596228Y-118053703D01*
X183596228Y-118053703D01*
G37*
G36*
X163559142Y-116566242D02*
G01*
X163707101Y-116627529D01*
X163840255Y-116716499D01*
X163953501Y-116829745D01*
X164042471Y-116962899D01*
X164103758Y-117110858D01*
X164135000Y-117267925D01*
X164135000Y-117428075D01*
X164103758Y-117585142D01*
X164042471Y-117733101D01*
X163953501Y-117866255D01*
X163840255Y-117979501D01*
X163707101Y-118068471D01*
X163559142Y-118129758D01*
X163402075Y-118161000D01*
X163241925Y-118161000D01*
X163084858Y-118129758D01*
X162936899Y-118068471D01*
X162803745Y-117979501D01*
X162690499Y-117866255D01*
X162601529Y-117733101D01*
X162540242Y-117585142D01*
X162509000Y-117428075D01*
X162509000Y-117267925D01*
X162540242Y-117110858D01*
X162601529Y-116962899D01*
X162690499Y-116829745D01*
X162803745Y-116716499D01*
X162936899Y-116627529D01*
X163084858Y-116566242D01*
X163241925Y-116535000D01*
X163402075Y-116535000D01*
X163559142Y-116566242D01*
X163559142Y-116566242D01*
G37*
G36*
X161019142Y-116566242D02*
G01*
X161167101Y-116627529D01*
X161300255Y-116716499D01*
X161413501Y-116829745D01*
X161502471Y-116962899D01*
X161563758Y-117110858D01*
X161595000Y-117267925D01*
X161595000Y-117428075D01*
X161563758Y-117585142D01*
X161502471Y-117733101D01*
X161413501Y-117866255D01*
X161300255Y-117979501D01*
X161167101Y-118068471D01*
X161019142Y-118129758D01*
X160862075Y-118161000D01*
X160701925Y-118161000D01*
X160544858Y-118129758D01*
X160396899Y-118068471D01*
X160263745Y-117979501D01*
X160150499Y-117866255D01*
X160061529Y-117733101D01*
X160000242Y-117585142D01*
X159969000Y-117428075D01*
X159969000Y-117267925D01*
X160000242Y-117110858D01*
X160061529Y-116962899D01*
X160150499Y-116829745D01*
X160263745Y-116716499D01*
X160396899Y-116627529D01*
X160544858Y-116566242D01*
X160701925Y-116535000D01*
X160862075Y-116535000D01*
X161019142Y-116566242D01*
X161019142Y-116566242D01*
G37*
G36*
X158479142Y-116566242D02*
G01*
X158627101Y-116627529D01*
X158760255Y-116716499D01*
X158873501Y-116829745D01*
X158962471Y-116962899D01*
X159023758Y-117110858D01*
X159055000Y-117267925D01*
X159055000Y-117428075D01*
X159023758Y-117585142D01*
X158962471Y-117733101D01*
X158873501Y-117866255D01*
X158760255Y-117979501D01*
X158627101Y-118068471D01*
X158479142Y-118129758D01*
X158322075Y-118161000D01*
X158161925Y-118161000D01*
X158004858Y-118129758D01*
X157856899Y-118068471D01*
X157723745Y-117979501D01*
X157610499Y-117866255D01*
X157521529Y-117733101D01*
X157460242Y-117585142D01*
X157429000Y-117428075D01*
X157429000Y-117267925D01*
X157460242Y-117110858D01*
X157521529Y-116962899D01*
X157610499Y-116829745D01*
X157723745Y-116716499D01*
X157856899Y-116627529D01*
X158004858Y-116566242D01*
X158161925Y-116535000D01*
X158322075Y-116535000D01*
X158479142Y-116566242D01*
X158479142Y-116566242D01*
G37*
G36*
X155939142Y-116566242D02*
G01*
X156087101Y-116627529D01*
X156220255Y-116716499D01*
X156333501Y-116829745D01*
X156422471Y-116962899D01*
X156483758Y-117110858D01*
X156515000Y-117267925D01*
X156515000Y-117428075D01*
X156483758Y-117585142D01*
X156422471Y-117733101D01*
X156333501Y-117866255D01*
X156220255Y-117979501D01*
X156087101Y-118068471D01*
X155939142Y-118129758D01*
X155782075Y-118161000D01*
X155621925Y-118161000D01*
X155464858Y-118129758D01*
X155316899Y-118068471D01*
X155183745Y-117979501D01*
X155070499Y-117866255D01*
X154981529Y-117733101D01*
X154920242Y-117585142D01*
X154889000Y-117428075D01*
X154889000Y-117267925D01*
X154920242Y-117110858D01*
X154981529Y-116962899D01*
X155070499Y-116829745D01*
X155183745Y-116716499D01*
X155316899Y-116627529D01*
X155464858Y-116566242D01*
X155621925Y-116535000D01*
X155782075Y-116535000D01*
X155939142Y-116566242D01*
X155939142Y-116566242D01*
G37*
G36*
X197352228Y-105099703D02*
G01*
X197507100Y-105163853D01*
X197646481Y-105256985D01*
X197765015Y-105375519D01*
X197858147Y-105514900D01*
X197922297Y-105669772D01*
X197955000Y-105834184D01*
X197955000Y-106001816D01*
X197922297Y-106166228D01*
X197858147Y-106321100D01*
X197765015Y-106460481D01*
X197646481Y-106579015D01*
X197507100Y-106672147D01*
X197352228Y-106736297D01*
X197187816Y-106769000D01*
X197020184Y-106769000D01*
X196855772Y-106736297D01*
X196700900Y-106672147D01*
X196561519Y-106579015D01*
X196442985Y-106460481D01*
X196349853Y-106321100D01*
X196285703Y-106166228D01*
X196253000Y-106001816D01*
X196253000Y-105834184D01*
X196285703Y-105669772D01*
X196349853Y-105514900D01*
X196442985Y-105375519D01*
X196561519Y-105256985D01*
X196700900Y-105163853D01*
X196855772Y-105099703D01*
X197020184Y-105067000D01*
X197187816Y-105067000D01*
X197352228Y-105099703D01*
X197352228Y-105099703D01*
G37*
G36*
X164586228Y-104845703D02*
G01*
X164741100Y-104909853D01*
X164880481Y-105002985D01*
X164999015Y-105121519D01*
X165092147Y-105260900D01*
X165156297Y-105415772D01*
X165189000Y-105580184D01*
X165189000Y-105747816D01*
X165156297Y-105912228D01*
X165092147Y-106067100D01*
X164999015Y-106206481D01*
X164880481Y-106325015D01*
X164741100Y-106418147D01*
X164586228Y-106482297D01*
X164421816Y-106515000D01*
X164254184Y-106515000D01*
X164089772Y-106482297D01*
X163934900Y-106418147D01*
X163795519Y-106325015D01*
X163676985Y-106206481D01*
X163583853Y-106067100D01*
X163519703Y-105912228D01*
X163487000Y-105747816D01*
X163487000Y-105580184D01*
X163519703Y-105415772D01*
X163583853Y-105260900D01*
X163676985Y-105121519D01*
X163795519Y-105002985D01*
X163934900Y-104909853D01*
X164089772Y-104845703D01*
X164254184Y-104813000D01*
X164421816Y-104813000D01*
X164586228Y-104845703D01*
X164586228Y-104845703D01*
G37*
G36*
X189224228Y-104845703D02*
G01*
X189379100Y-104909853D01*
X189518481Y-105002985D01*
X189637015Y-105121519D01*
X189730147Y-105260900D01*
X189794297Y-105415772D01*
X189827000Y-105580184D01*
X189827000Y-105747816D01*
X189794297Y-105912228D01*
X189730147Y-106067100D01*
X189637015Y-106206481D01*
X189518481Y-106325015D01*
X189379100Y-106418147D01*
X189224228Y-106482297D01*
X189059816Y-106515000D01*
X188892184Y-106515000D01*
X188727772Y-106482297D01*
X188572900Y-106418147D01*
X188433519Y-106325015D01*
X188314985Y-106206481D01*
X188221853Y-106067100D01*
X188157703Y-105912228D01*
X188125000Y-105747816D01*
X188125000Y-105580184D01*
X188157703Y-105415772D01*
X188221853Y-105260900D01*
X188314985Y-105121519D01*
X188433519Y-105002985D01*
X188572900Y-104909853D01*
X188727772Y-104845703D01*
X188892184Y-104813000D01*
X189059816Y-104813000D01*
X189224228Y-104845703D01*
X189224228Y-104845703D01*
G37*
G36*
X184398228Y-104845703D02*
G01*
X184553100Y-104909853D01*
X184692481Y-105002985D01*
X184811015Y-105121519D01*
X184904147Y-105260900D01*
X184968297Y-105415772D01*
X185001000Y-105580184D01*
X185001000Y-105747816D01*
X184968297Y-105912228D01*
X184904147Y-106067100D01*
X184811015Y-106206481D01*
X184692481Y-106325015D01*
X184553100Y-106418147D01*
X184398228Y-106482297D01*
X184233816Y-106515000D01*
X184066184Y-106515000D01*
X183901772Y-106482297D01*
X183746900Y-106418147D01*
X183607519Y-106325015D01*
X183488985Y-106206481D01*
X183395853Y-106067100D01*
X183331703Y-105912228D01*
X183299000Y-105747816D01*
X183299000Y-105580184D01*
X183331703Y-105415772D01*
X183395853Y-105260900D01*
X183488985Y-105121519D01*
X183607519Y-105002985D01*
X183746900Y-104909853D01*
X183901772Y-104845703D01*
X184066184Y-104813000D01*
X184233816Y-104813000D01*
X184398228Y-104845703D01*
X184398228Y-104845703D01*
G37*
G36*
X177794228Y-104845703D02*
G01*
X177949100Y-104909853D01*
X178088481Y-105002985D01*
X178207015Y-105121519D01*
X178300147Y-105260900D01*
X178364297Y-105415772D01*
X178397000Y-105580184D01*
X178397000Y-105747816D01*
X178364297Y-105912228D01*
X178300147Y-106067100D01*
X178207015Y-106206481D01*
X178088481Y-106325015D01*
X177949100Y-106418147D01*
X177794228Y-106482297D01*
X177629816Y-106515000D01*
X177462184Y-106515000D01*
X177297772Y-106482297D01*
X177142900Y-106418147D01*
X177003519Y-106325015D01*
X176884985Y-106206481D01*
X176791853Y-106067100D01*
X176727703Y-105912228D01*
X176695000Y-105747816D01*
X176695000Y-105580184D01*
X176727703Y-105415772D01*
X176791853Y-105260900D01*
X176884985Y-105121519D01*
X177003519Y-105002985D01*
X177142900Y-104909853D01*
X177297772Y-104845703D01*
X177462184Y-104813000D01*
X177629816Y-104813000D01*
X177794228Y-104845703D01*
X177794228Y-104845703D01*
G37*
G36*
X150604888Y-103929997D02*
G01*
X150841654Y-104028069D01*
X150841656Y-104028070D01*
X151054740Y-104170448D01*
X151235954Y-104351662D01*
X151374493Y-104559000D01*
X151378333Y-104564748D01*
X151476405Y-104801514D01*
X151526401Y-105052862D01*
X151526401Y-105309140D01*
X151476405Y-105560488D01*
X151435919Y-105658229D01*
X151378332Y-105797256D01*
X151235954Y-106010340D01*
X151054740Y-106191554D01*
X150841656Y-106333932D01*
X150841655Y-106333933D01*
X150841654Y-106333933D01*
X150604888Y-106432005D01*
X150353540Y-106482001D01*
X150097262Y-106482001D01*
X149845914Y-106432005D01*
X149609148Y-106333933D01*
X149609147Y-106333933D01*
X149609146Y-106333932D01*
X149396062Y-106191554D01*
X149214848Y-106010340D01*
X149072470Y-105797256D01*
X149014883Y-105658229D01*
X148974397Y-105560488D01*
X148924401Y-105309140D01*
X148924401Y-105052862D01*
X148974397Y-104801514D01*
X149072469Y-104564748D01*
X149076310Y-104559000D01*
X149214848Y-104351662D01*
X149396062Y-104170448D01*
X149609146Y-104028070D01*
X149609148Y-104028069D01*
X149845914Y-103929997D01*
X150097262Y-103880001D01*
X150353540Y-103880001D01*
X150604888Y-103929997D01*
X150604888Y-103929997D01*
G37*
G36*
X131361401Y-106317001D02*
G01*
X129089401Y-106317001D01*
X129089401Y-104045001D01*
X131361401Y-104045001D01*
X131361401Y-106317001D01*
X131361401Y-106317001D01*
G37*
G36*
X170936228Y-104591703D02*
G01*
X171091100Y-104655853D01*
X171230481Y-104748985D01*
X171349015Y-104867519D01*
X171442147Y-105006900D01*
X171506297Y-105161772D01*
X171539000Y-105326184D01*
X171539000Y-105493816D01*
X171506297Y-105658228D01*
X171442147Y-105813100D01*
X171349015Y-105952481D01*
X171230481Y-106071015D01*
X171091100Y-106164147D01*
X170936228Y-106228297D01*
X170771816Y-106261000D01*
X170604184Y-106261000D01*
X170439772Y-106228297D01*
X170284900Y-106164147D01*
X170145519Y-106071015D01*
X170026985Y-105952481D01*
X169933853Y-105813100D01*
X169869703Y-105658228D01*
X169837000Y-105493816D01*
X169837000Y-105326184D01*
X169869703Y-105161772D01*
X169933853Y-105006900D01*
X170026985Y-104867519D01*
X170145519Y-104748985D01*
X170284900Y-104655853D01*
X170439772Y-104591703D01*
X170604184Y-104559000D01*
X170771816Y-104559000D01*
X170936228Y-104591703D01*
X170936228Y-104591703D01*
G37*
G36*
X157973000Y-105395000D02*
G01*
X155971000Y-105395000D01*
X155971000Y-103393000D01*
X157973000Y-103393000D01*
X157973000Y-105395000D01*
X157973000Y-105395000D01*
G37*
G36*
X157167285Y-100912234D02*
G01*
X157263981Y-100931468D01*
X157446151Y-101006926D01*
X157610100Y-101116473D01*
X157749527Y-101255900D01*
X157859074Y-101419849D01*
X157934532Y-101602019D01*
X157973000Y-101795410D01*
X157973000Y-101992590D01*
X157934532Y-102185981D01*
X157859074Y-102368151D01*
X157749527Y-102532100D01*
X157610100Y-102671527D01*
X157446151Y-102781074D01*
X157263981Y-102856532D01*
X157167285Y-102875766D01*
X157070591Y-102895000D01*
X156873409Y-102895000D01*
X156776715Y-102875766D01*
X156680019Y-102856532D01*
X156497849Y-102781074D01*
X156333900Y-102671527D01*
X156194473Y-102532100D01*
X156084926Y-102368151D01*
X156009468Y-102185981D01*
X155971000Y-101992590D01*
X155971000Y-101795410D01*
X156009468Y-101602019D01*
X156084926Y-101419849D01*
X156194473Y-101255900D01*
X156333900Y-101116473D01*
X156497849Y-101006926D01*
X156680019Y-100931468D01*
X156776715Y-100912234D01*
X156873409Y-100893000D01*
X157070591Y-100893000D01*
X157167285Y-100912234D01*
X157167285Y-100912234D01*
G37*
G36*
X157167285Y-98412234D02*
G01*
X157263981Y-98431468D01*
X157446151Y-98506926D01*
X157610100Y-98616473D01*
X157749527Y-98755900D01*
X157859074Y-98919849D01*
X157934532Y-99102019D01*
X157973000Y-99295410D01*
X157973000Y-99492590D01*
X157934532Y-99685981D01*
X157859074Y-99868151D01*
X157749527Y-100032100D01*
X157610100Y-100171527D01*
X157446151Y-100281074D01*
X157263981Y-100356532D01*
X157167285Y-100375766D01*
X157070591Y-100395000D01*
X156873409Y-100395000D01*
X156776715Y-100375766D01*
X156680019Y-100356532D01*
X156497849Y-100281074D01*
X156333900Y-100171527D01*
X156194473Y-100032100D01*
X156084926Y-99868151D01*
X156009468Y-99685981D01*
X155971000Y-99492590D01*
X155971000Y-99295410D01*
X156009468Y-99102019D01*
X156084926Y-98919849D01*
X156194473Y-98755900D01*
X156333900Y-98616473D01*
X156497849Y-98506926D01*
X156680019Y-98431468D01*
X156873409Y-98393000D01*
X157070591Y-98393000D01*
X157167285Y-98412234D01*
X157167285Y-98412234D01*
G37*
G36*
X197270823Y-97459313D02*
G01*
X197431242Y-97507976D01*
X197563906Y-97578886D01*
X197579078Y-97586996D01*
X197708659Y-97693341D01*
X197815004Y-97822922D01*
X197815005Y-97822924D01*
X197894024Y-97970758D01*
X197942687Y-98131177D01*
X197959117Y-98298000D01*
X197942687Y-98464823D01*
X197894024Y-98625242D01*
X197885601Y-98641000D01*
X197815004Y-98773078D01*
X197708659Y-98902659D01*
X197579078Y-99009004D01*
X197579076Y-99009005D01*
X197431242Y-99088024D01*
X197270823Y-99136687D01*
X197145804Y-99149000D01*
X197062196Y-99149000D01*
X196937177Y-99136687D01*
X196776758Y-99088024D01*
X196628924Y-99009005D01*
X196628922Y-99009004D01*
X196499341Y-98902659D01*
X196392996Y-98773078D01*
X196322399Y-98641000D01*
X196313976Y-98625242D01*
X196265313Y-98464823D01*
X196248883Y-98298000D01*
X196265313Y-98131177D01*
X196313976Y-97970758D01*
X196392995Y-97822924D01*
X196392996Y-97822922D01*
X196499341Y-97693341D01*
X196628922Y-97586996D01*
X196644094Y-97578886D01*
X196776758Y-97507976D01*
X196937177Y-97459313D01*
X197062196Y-97447000D01*
X197145804Y-97447000D01*
X197270823Y-97459313D01*
X197270823Y-97459313D01*
G37*
G36*
X184316823Y-97205313D02*
G01*
X184477242Y-97253976D01*
X184609906Y-97324886D01*
X184625078Y-97332996D01*
X184754659Y-97439341D01*
X184861004Y-97568922D01*
X184861005Y-97568924D01*
X184940024Y-97716758D01*
X184988687Y-97877177D01*
X185005117Y-98044000D01*
X184988687Y-98210823D01*
X184940024Y-98371242D01*
X184928394Y-98393000D01*
X184861004Y-98519078D01*
X184754659Y-98648659D01*
X184625078Y-98755004D01*
X184625076Y-98755005D01*
X184477242Y-98834024D01*
X184316823Y-98882687D01*
X184191804Y-98895000D01*
X184108196Y-98895000D01*
X183983177Y-98882687D01*
X183822758Y-98834024D01*
X183674924Y-98755005D01*
X183674922Y-98755004D01*
X183545341Y-98648659D01*
X183438996Y-98519078D01*
X183371606Y-98393000D01*
X183359976Y-98371242D01*
X183311313Y-98210823D01*
X183294883Y-98044000D01*
X183311313Y-97877177D01*
X183359976Y-97716758D01*
X183438995Y-97568924D01*
X183438996Y-97568922D01*
X183545341Y-97439341D01*
X183674922Y-97332996D01*
X183690094Y-97324886D01*
X183822758Y-97253976D01*
X183983177Y-97205313D01*
X184108196Y-97193000D01*
X184191804Y-97193000D01*
X184316823Y-97205313D01*
X184316823Y-97205313D01*
G37*
G36*
X164504823Y-97205313D02*
G01*
X164665242Y-97253976D01*
X164797906Y-97324886D01*
X164813078Y-97332996D01*
X164942659Y-97439341D01*
X165049004Y-97568922D01*
X165049005Y-97568924D01*
X165128024Y-97716758D01*
X165176687Y-97877177D01*
X165193117Y-98044000D01*
X165176687Y-98210823D01*
X165128024Y-98371242D01*
X165116394Y-98393000D01*
X165049004Y-98519078D01*
X164942659Y-98648659D01*
X164813078Y-98755004D01*
X164813076Y-98755005D01*
X164665242Y-98834024D01*
X164504823Y-98882687D01*
X164379804Y-98895000D01*
X164296196Y-98895000D01*
X164171177Y-98882687D01*
X164010758Y-98834024D01*
X163862924Y-98755005D01*
X163862922Y-98755004D01*
X163733341Y-98648659D01*
X163626996Y-98519078D01*
X163559606Y-98393000D01*
X163547976Y-98371242D01*
X163499313Y-98210823D01*
X163482883Y-98044000D01*
X163499313Y-97877177D01*
X163547976Y-97716758D01*
X163626995Y-97568924D01*
X163626996Y-97568922D01*
X163733341Y-97439341D01*
X163862922Y-97332996D01*
X163878094Y-97324886D01*
X164010758Y-97253976D01*
X164171177Y-97205313D01*
X164296196Y-97193000D01*
X164379804Y-97193000D01*
X164504823Y-97205313D01*
X164504823Y-97205313D01*
G37*
G36*
X189142823Y-97205313D02*
G01*
X189303242Y-97253976D01*
X189435906Y-97324886D01*
X189451078Y-97332996D01*
X189580659Y-97439341D01*
X189687004Y-97568922D01*
X189687005Y-97568924D01*
X189766024Y-97716758D01*
X189814687Y-97877177D01*
X189831117Y-98044000D01*
X189814687Y-98210823D01*
X189766024Y-98371242D01*
X189754394Y-98393000D01*
X189687004Y-98519078D01*
X189580659Y-98648659D01*
X189451078Y-98755004D01*
X189451076Y-98755005D01*
X189303242Y-98834024D01*
X189142823Y-98882687D01*
X189017804Y-98895000D01*
X188934196Y-98895000D01*
X188809177Y-98882687D01*
X188648758Y-98834024D01*
X188500924Y-98755005D01*
X188500922Y-98755004D01*
X188371341Y-98648659D01*
X188264996Y-98519078D01*
X188197606Y-98393000D01*
X188185976Y-98371242D01*
X188137313Y-98210823D01*
X188120883Y-98044000D01*
X188137313Y-97877177D01*
X188185976Y-97716758D01*
X188264995Y-97568924D01*
X188264996Y-97568922D01*
X188371341Y-97439341D01*
X188500922Y-97332996D01*
X188516094Y-97324886D01*
X188648758Y-97253976D01*
X188809177Y-97205313D01*
X188934196Y-97193000D01*
X189017804Y-97193000D01*
X189142823Y-97205313D01*
X189142823Y-97205313D01*
G37*
G36*
X177712823Y-97205313D02*
G01*
X177873242Y-97253976D01*
X178005906Y-97324886D01*
X178021078Y-97332996D01*
X178150659Y-97439341D01*
X178257004Y-97568922D01*
X178257005Y-97568924D01*
X178336024Y-97716758D01*
X178384687Y-97877177D01*
X178401117Y-98044000D01*
X178384687Y-98210823D01*
X178336024Y-98371242D01*
X178324394Y-98393000D01*
X178257004Y-98519078D01*
X178150659Y-98648659D01*
X178021078Y-98755004D01*
X178021076Y-98755005D01*
X177873242Y-98834024D01*
X177712823Y-98882687D01*
X177587804Y-98895000D01*
X177504196Y-98895000D01*
X177379177Y-98882687D01*
X177218758Y-98834024D01*
X177070924Y-98755005D01*
X177070922Y-98755004D01*
X176941341Y-98648659D01*
X176834996Y-98519078D01*
X176767606Y-98393000D01*
X176755976Y-98371242D01*
X176707313Y-98210823D01*
X176690883Y-98044000D01*
X176707313Y-97877177D01*
X176755976Y-97716758D01*
X176834995Y-97568924D01*
X176834996Y-97568922D01*
X176941341Y-97439341D01*
X177070922Y-97332996D01*
X177086094Y-97324886D01*
X177218758Y-97253976D01*
X177379177Y-97205313D01*
X177504196Y-97193000D01*
X177587804Y-97193000D01*
X177712823Y-97205313D01*
X177712823Y-97205313D01*
G37*
G36*
X170854823Y-96951313D02*
G01*
X171015242Y-96999976D01*
X171147906Y-97070886D01*
X171163078Y-97078996D01*
X171292659Y-97185341D01*
X171399004Y-97314922D01*
X171399005Y-97314924D01*
X171478024Y-97462758D01*
X171526687Y-97623177D01*
X171543117Y-97790000D01*
X171526687Y-97956823D01*
X171478024Y-98117242D01*
X171428004Y-98210823D01*
X171399004Y-98265078D01*
X171292659Y-98394659D01*
X171163078Y-98501004D01*
X171151999Y-98506926D01*
X171015242Y-98580024D01*
X170854823Y-98628687D01*
X170729804Y-98641000D01*
X170646196Y-98641000D01*
X170521177Y-98628687D01*
X170360758Y-98580024D01*
X170224001Y-98506926D01*
X170212922Y-98501004D01*
X170083341Y-98394659D01*
X169976996Y-98265078D01*
X169947996Y-98210823D01*
X169897976Y-98117242D01*
X169849313Y-97956823D01*
X169832883Y-97790000D01*
X169849313Y-97623177D01*
X169897976Y-97462758D01*
X169976995Y-97314924D01*
X169976996Y-97314922D01*
X170083341Y-97185341D01*
X170212922Y-97078996D01*
X170228094Y-97070886D01*
X170360758Y-96999976D01*
X170521177Y-96951313D01*
X170646196Y-96939000D01*
X170729804Y-96939000D01*
X170854823Y-96951313D01*
X170854823Y-96951313D01*
G37*
G36*
X154455395Y-72745546D02*
G01*
X154628466Y-72817234D01*
X154628467Y-72817235D01*
X154784227Y-72921310D01*
X154916690Y-73053773D01*
X154916691Y-73053775D01*
X155020766Y-73209534D01*
X155092454Y-73382605D01*
X155129000Y-73566333D01*
X155129000Y-73753667D01*
X155092454Y-73937395D01*
X155020766Y-74110466D01*
X154969081Y-74187818D01*
X154916690Y-74266227D01*
X154784227Y-74398690D01*
X154705818Y-74451081D01*
X154628466Y-74502766D01*
X154455395Y-74574454D01*
X154271667Y-74611000D01*
X154084333Y-74611000D01*
X153900605Y-74574454D01*
X153727534Y-74502766D01*
X153650182Y-74451081D01*
X153571773Y-74398690D01*
X153439310Y-74266227D01*
X153386919Y-74187818D01*
X153335234Y-74110466D01*
X153263546Y-73937395D01*
X153227000Y-73753667D01*
X153227000Y-73566333D01*
X153263546Y-73382605D01*
X153335234Y-73209534D01*
X153439309Y-73053775D01*
X153439310Y-73053773D01*
X153571773Y-72921310D01*
X153727533Y-72817235D01*
X153727534Y-72817234D01*
X153900605Y-72745546D01*
X154084333Y-72709000D01*
X154271667Y-72709000D01*
X154455395Y-72745546D01*
X154455395Y-72745546D01*
G37*
G36*
X152589000Y-74611000D02*
G01*
X150687000Y-74611000D01*
X150687000Y-72709000D01*
X152589000Y-72709000D01*
X152589000Y-74611000D01*
X152589000Y-74611000D01*
G37*
G36*
X143191000Y-74357000D02*
G01*
X141289000Y-74357000D01*
X141289000Y-72455000D01*
X143191000Y-72455000D01*
X143191000Y-74357000D01*
X143191000Y-74357000D01*
G37*
G36*
X145057395Y-72491546D02*
G01*
X145230466Y-72563234D01*
X145230467Y-72563235D01*
X145386227Y-72667310D01*
X145518690Y-72799773D01*
X145571081Y-72878182D01*
X145622766Y-72955534D01*
X145694454Y-73128605D01*
X145731000Y-73312333D01*
X145731000Y-73499667D01*
X145694454Y-73683395D01*
X145622766Y-73856466D01*
X145622765Y-73856467D01*
X145518690Y-74012227D01*
X145386227Y-74144690D01*
X145307818Y-74197081D01*
X145230466Y-74248766D01*
X145057395Y-74320454D01*
X144873667Y-74357000D01*
X144686333Y-74357000D01*
X144502605Y-74320454D01*
X144329534Y-74248766D01*
X144252182Y-74197081D01*
X144173773Y-74144690D01*
X144041310Y-74012227D01*
X143937235Y-73856467D01*
X143937234Y-73856466D01*
X143865546Y-73683395D01*
X143829000Y-73499667D01*
X143829000Y-73312333D01*
X143865546Y-73128605D01*
X143937234Y-72955534D01*
X143988919Y-72878182D01*
X144041310Y-72799773D01*
X144173773Y-72667310D01*
X144329533Y-72563235D01*
X144329534Y-72563234D01*
X144502605Y-72491546D01*
X144686333Y-72455000D01*
X144873667Y-72455000D01*
X145057395Y-72491546D01*
X145057395Y-72491546D01*
G37*
M02*
