G04 #@! TF.GenerationSoftware,KiCad,Pcbnew,(5.1.4)-1*
G04 #@! TF.CreationDate,2019-11-19T12:22:33-05:00*
G04 #@! TF.ProjectId,bob_ws2811_driver,626f625f-7773-4323-9831-315f64726976,rev?*
G04 #@! TF.SameCoordinates,Original*
G04 #@! TF.FileFunction,Copper,L2,Bot*
G04 #@! TF.FilePolarity,Positive*
%FSLAX46Y46*%
G04 Gerber Fmt 4.6, Leading zero omitted, Abs format (unit mm)*
G04 Created by KiCad (PCBNEW (5.1.4)-1) date 2019-11-19 12:22:33*
%MOMM*%
%LPD*%
G04 APERTURE LIST*
%ADD10C,1.500000*%
%ADD11R,1.498600X0.899160*%
%ADD12C,0.250000*%
G04 APERTURE END LIST*
D10*
X187531000Y-32941000D03*
X184991000Y-32941000D03*
X182451000Y-32941000D03*
X179911000Y-32941000D03*
X187785000Y-38179000D03*
X187785000Y-40719000D03*
X187785000Y-43259000D03*
X187785000Y-45799000D03*
X179403000Y-45799000D03*
X179403000Y-43259000D03*
X179403000Y-40719000D03*
X179403000Y-38179000D03*
D11*
X185191400Y-29324300D03*
X185191400Y-27825700D03*
X182092600Y-27825700D03*
X182092600Y-29324300D03*
D10*
X160988000Y-32941000D03*
X163528000Y-32941000D03*
X166068000Y-32941000D03*
X168608000Y-32941000D03*
X168862000Y-45799000D03*
X168862000Y-43259000D03*
X168862000Y-40719000D03*
X168862000Y-38179000D03*
X160480000Y-38179000D03*
X160480000Y-40719000D03*
X160480000Y-43259000D03*
X160480000Y-45799000D03*
D11*
X163169600Y-29324300D03*
X163169600Y-27825700D03*
X166268400Y-27825700D03*
X166268400Y-29324300D03*
D10*
X149558000Y-32941000D03*
X147018000Y-32941000D03*
X144478000Y-32941000D03*
X141938000Y-32941000D03*
X149812000Y-38179000D03*
X149812000Y-40719000D03*
X149812000Y-43259000D03*
X149812000Y-45799000D03*
X141430000Y-45799000D03*
X141430000Y-43259000D03*
X141430000Y-40719000D03*
X141430000Y-38179000D03*
D11*
X147218400Y-29324300D03*
X147218400Y-27825700D03*
X144119600Y-27825700D03*
X144119600Y-29324300D03*
D10*
X124158000Y-32941000D03*
X126698000Y-32941000D03*
X129238000Y-32941000D03*
X131778000Y-32941000D03*
X132032000Y-45799000D03*
X132032000Y-43259000D03*
X132032000Y-40719000D03*
X132032000Y-38179000D03*
X123650000Y-38179000D03*
X123650000Y-40719000D03*
X123650000Y-43259000D03*
X123650000Y-45799000D03*
D11*
X126339600Y-29324300D03*
X126339600Y-27825700D03*
X129438400Y-27825700D03*
X129438400Y-29324300D03*
D10*
X180165000Y-55293000D03*
X182705000Y-55293000D03*
X185245000Y-55293000D03*
X187785000Y-55293000D03*
X188039000Y-68151000D03*
X188039000Y-65611000D03*
X188039000Y-63071000D03*
X188039000Y-60531000D03*
X179657000Y-60531000D03*
X179657000Y-63071000D03*
X179657000Y-65611000D03*
X179657000Y-68151000D03*
D11*
X182346600Y-51676300D03*
X182346600Y-50177700D03*
X185445400Y-50177700D03*
X185445400Y-51676300D03*
D10*
X168735000Y-55420000D03*
X166195000Y-55420000D03*
X163655000Y-55420000D03*
X161115000Y-55420000D03*
X160607000Y-68278000D03*
X160607000Y-65738000D03*
X160607000Y-63198000D03*
X160607000Y-60658000D03*
X168989000Y-60658000D03*
X168989000Y-63198000D03*
X168989000Y-65738000D03*
X168989000Y-68278000D03*
D11*
X166395400Y-51803300D03*
X166395400Y-50304700D03*
X163296600Y-50304700D03*
X163296600Y-51803300D03*
D10*
X149939000Y-68405000D03*
X149939000Y-65865000D03*
X149939000Y-63325000D03*
X149939000Y-60785000D03*
X141557000Y-60785000D03*
X141557000Y-63325000D03*
X141557000Y-65865000D03*
X141557000Y-68405000D03*
D11*
X144246600Y-51930300D03*
X144246600Y-50431700D03*
X147345400Y-50431700D03*
X147345400Y-51930300D03*
D10*
X142065000Y-55547000D03*
X144605000Y-55547000D03*
X147145000Y-55547000D03*
X149685000Y-55547000D03*
X132159000Y-60912000D03*
X132159000Y-63452000D03*
X132159000Y-65992000D03*
X132159000Y-68532000D03*
X123777000Y-68532000D03*
X123777000Y-65992000D03*
X123777000Y-63452000D03*
X123777000Y-60912000D03*
X131905000Y-55674000D03*
X129365000Y-55674000D03*
X126825000Y-55674000D03*
X124285000Y-55674000D03*
D11*
X129565400Y-52057300D03*
X129565400Y-50558700D03*
X126466600Y-50558700D03*
X126466600Y-52057300D03*
D10*
X106505000Y-55801000D03*
X109045000Y-55801000D03*
X111585000Y-55801000D03*
X114125000Y-55801000D03*
X114379000Y-68659000D03*
X114379000Y-66119000D03*
X114379000Y-63579000D03*
X114379000Y-61039000D03*
X105997000Y-61039000D03*
X105997000Y-63579000D03*
X105997000Y-66119000D03*
X105997000Y-68659000D03*
D11*
X108686600Y-52184300D03*
X108686600Y-50685700D03*
X111785400Y-50685700D03*
X111785400Y-52184300D03*
D10*
X114125000Y-32941000D03*
X111585000Y-32941000D03*
X109045000Y-32941000D03*
X106505000Y-32941000D03*
X114379000Y-38179000D03*
X114379000Y-40719000D03*
X114379000Y-43259000D03*
X114379000Y-45799000D03*
D11*
X111785400Y-29324300D03*
X111785400Y-27825700D03*
X108686600Y-27825700D03*
X108686600Y-29324300D03*
D10*
X105997000Y-45799000D03*
X105997000Y-43259000D03*
X105997000Y-40719000D03*
X105997000Y-38179000D03*
D12*
X106505000Y-32941000D02*
X106505000Y-28877000D01*
X107556300Y-27825700D02*
X108686600Y-27825700D01*
X106505000Y-28877000D02*
X107556300Y-27825700D01*
X109045000Y-29682700D02*
X108686600Y-29324300D01*
X109045000Y-32941000D02*
X109045000Y-29682700D01*
X111585000Y-29524700D02*
X111785400Y-29324300D01*
X111585000Y-32941000D02*
X111585000Y-29524700D01*
X114125000Y-32941000D02*
X114125000Y-29035000D01*
X112915700Y-27825700D02*
X111785400Y-27825700D01*
X114125000Y-29035000D02*
X112915700Y-27825700D01*
X106505000Y-55801000D02*
X106505000Y-51737000D01*
X106505000Y-51737000D02*
X107556300Y-50685700D01*
X111585000Y-55801000D02*
X111585000Y-52384700D01*
X107556300Y-50685700D02*
X108686600Y-50685700D01*
X109045000Y-55801000D02*
X109045000Y-52542700D01*
X114125000Y-51895000D02*
X112915700Y-50685700D01*
X112915700Y-50685700D02*
X111785400Y-50685700D01*
X109045000Y-52542700D02*
X108686600Y-52184300D01*
X114125000Y-55801000D02*
X114125000Y-51895000D01*
X111585000Y-52384700D02*
X111785400Y-52184300D01*
X126825000Y-52415700D02*
X126466600Y-52057300D01*
X124285000Y-55674000D02*
X124285000Y-51610000D01*
X131905000Y-55674000D02*
X131905000Y-51768000D01*
X129365000Y-55674000D02*
X129365000Y-52257700D01*
X126825000Y-55674000D02*
X126825000Y-52415700D01*
X129365000Y-52257700D02*
X129565400Y-52057300D01*
X131905000Y-51768000D02*
X130695700Y-50558700D01*
X124285000Y-51610000D02*
X125336300Y-50558700D01*
X130695700Y-50558700D02*
X129565400Y-50558700D01*
X125336300Y-50558700D02*
X126466600Y-50558700D01*
X142065000Y-51483000D02*
X143116300Y-50431700D01*
X147145000Y-55547000D02*
X147145000Y-52130700D01*
X144605000Y-55547000D02*
X144605000Y-52288700D01*
X142065000Y-55547000D02*
X142065000Y-51483000D01*
X149685000Y-51641000D02*
X148475700Y-50431700D01*
X148475700Y-50431700D02*
X147345400Y-50431700D01*
X149685000Y-55547000D02*
X149685000Y-51641000D01*
X147145000Y-52130700D02*
X147345400Y-51930300D01*
X143116300Y-50431700D02*
X144246600Y-50431700D01*
X144605000Y-52288700D02*
X144246600Y-51930300D01*
X166195000Y-55420000D02*
X166195000Y-52003700D01*
X168735000Y-51514000D02*
X167525700Y-50304700D01*
X161115000Y-55420000D02*
X161115000Y-51356000D01*
X167525700Y-50304700D02*
X166395400Y-50304700D01*
X163655000Y-55420000D02*
X163655000Y-52161700D01*
X168735000Y-55420000D02*
X168735000Y-51514000D01*
X162166300Y-50304700D02*
X163296600Y-50304700D01*
X163655000Y-52161700D02*
X163296600Y-51803300D01*
X161115000Y-51356000D02*
X162166300Y-50304700D01*
X166195000Y-52003700D02*
X166395400Y-51803300D01*
X182705000Y-55293000D02*
X182705000Y-52034700D01*
X187785000Y-55293000D02*
X187785000Y-51387000D01*
X186575700Y-50177700D02*
X185445400Y-50177700D01*
X185245000Y-51876700D02*
X185445400Y-51676300D01*
X182705000Y-52034700D02*
X182346600Y-51676300D01*
X181216300Y-50177700D02*
X182346600Y-50177700D01*
X180165000Y-55293000D02*
X180165000Y-51229000D01*
X187785000Y-51387000D02*
X186575700Y-50177700D01*
X180165000Y-51229000D02*
X181216300Y-50177700D01*
X185245000Y-55293000D02*
X185245000Y-51876700D01*
X124158000Y-32941000D02*
X124158000Y-28877000D01*
X124158000Y-28877000D02*
X125209300Y-27825700D01*
X129238000Y-32941000D02*
X129238000Y-29524700D01*
X125209300Y-27825700D02*
X126339600Y-27825700D01*
X126698000Y-32941000D02*
X126698000Y-29682700D01*
X131778000Y-29035000D02*
X130568700Y-27825700D01*
X130568700Y-27825700D02*
X129438400Y-27825700D01*
X126698000Y-29682700D02*
X126339600Y-29324300D01*
X131778000Y-32941000D02*
X131778000Y-29035000D01*
X129238000Y-29524700D02*
X129438400Y-29324300D01*
X144478000Y-32941000D02*
X144478000Y-29682700D01*
X147018000Y-29524700D02*
X147218400Y-29324300D01*
X141938000Y-28877000D02*
X142989300Y-27825700D01*
X142989300Y-27825700D02*
X144119600Y-27825700D01*
X147018000Y-32941000D02*
X147018000Y-29524700D01*
X149558000Y-32941000D02*
X149558000Y-29035000D01*
X149558000Y-29035000D02*
X148348700Y-27825700D01*
X148348700Y-27825700D02*
X147218400Y-27825700D01*
X144478000Y-29682700D02*
X144119600Y-29324300D01*
X141938000Y-32941000D02*
X141938000Y-28877000D01*
X163528000Y-32941000D02*
X163528000Y-29682700D01*
X160988000Y-28877000D02*
X162039300Y-27825700D01*
X166068000Y-29524700D02*
X166268400Y-29324300D01*
X162039300Y-27825700D02*
X163169600Y-27825700D01*
X166068000Y-32941000D02*
X166068000Y-29524700D01*
X168608000Y-32941000D02*
X168608000Y-29035000D01*
X167398700Y-27825700D02*
X166268400Y-27825700D01*
X168608000Y-29035000D02*
X167398700Y-27825700D01*
X160988000Y-32941000D02*
X160988000Y-28877000D01*
X163528000Y-29682700D02*
X163169600Y-29324300D01*
X187531000Y-32941000D02*
X187531000Y-29035000D01*
X182451000Y-32941000D02*
X182451000Y-29682700D01*
X184991000Y-32941000D02*
X184991000Y-29524700D01*
X180962300Y-27825700D02*
X182092600Y-27825700D01*
X184991000Y-29524700D02*
X185191400Y-29324300D01*
X187531000Y-29035000D02*
X186321700Y-27825700D01*
X179911000Y-28877000D02*
X180962300Y-27825700D01*
X186321700Y-27825700D02*
X185191400Y-27825700D01*
X179911000Y-32941000D02*
X179911000Y-28877000D01*
X182451000Y-29682700D02*
X182092600Y-29324300D01*
M02*
