M48
; DRILL file {KiCad (5.1.4)-1} date 11/19/2019 12:22:30 PM
; FORMAT={-:-/ absolute / inch / decimal}
; #@! TF.CreationDate,2019-11-19T12:22:30-05:00
; #@! TF.GenerationSoftware,Kicad,Pcbnew,(5.1.4)-1
; #@! TF.FileFunction,Plated,1,2,PTH
FMAT,2
INCH
T1C0.0315
%
G90
G05
T1
X5.8981Y-1.5031
X5.8981Y-1.6031
X5.8981Y-1.7031
X5.8981Y-1.8031
X4.5031Y-1.5031
X4.5031Y-1.6031
X4.5031Y-1.7031
X4.5031Y-1.8031
X4.1731Y-2.4031
X4.1731Y-2.5031
X4.1731Y-2.6031
X4.1731Y-2.7031
X4.8931Y-2.1919
X4.9931Y-2.1919
X5.0931Y-2.1919
X5.1931Y-2.1919
X7.0931Y-2.1769
X7.1931Y-2.1769
X7.2931Y-2.1769
X7.3931Y-2.1769
X6.3231Y-2.3881
X6.3231Y-2.4881
X6.3231Y-2.5881
X6.3231Y-2.6881
X7.3931Y-1.5031
X7.3931Y-1.6031
X7.3931Y-1.7031
X7.3931Y-1.8031
X6.6531Y-2.3881
X6.6531Y-2.4881
X6.6531Y-2.5881
X6.6531Y-2.6881
X6.3381Y-1.2969
X6.4381Y-1.2969
X6.5381Y-1.2969
X6.6381Y-1.2969
X7.0731Y-2.3831
X7.0731Y-2.4831
X7.0731Y-2.5831
X7.0731Y-2.6831
X7.0831Y-1.2969
X7.1831Y-1.2969
X7.2831Y-1.2969
X7.3831Y-1.2969
X4.8681Y-1.5031
X4.8681Y-1.6031
X4.8681Y-1.7031
X4.8681Y-1.8031
X4.8881Y-1.2969
X4.9881Y-1.2969
X5.0881Y-1.2969
X5.1881Y-1.2969
X5.5681Y-1.5031
X5.5681Y-1.6031
X5.5681Y-1.7031
X5.5681Y-1.8031
X5.5881Y-1.2969
X5.6881Y-1.2969
X5.7881Y-1.2969
X5.8881Y-1.2969
X4.1931Y-1.2969
X4.2931Y-1.2969
X4.3931Y-1.2969
X4.4931Y-1.2969
X6.3181Y-1.5031
X6.3181Y-1.6031
X6.3181Y-1.7031
X6.3181Y-1.8031
X6.6481Y-1.5031
X6.6481Y-1.6031
X6.6481Y-1.7031
X6.6481Y-1.8031
X5.5931Y-2.1869
X5.6931Y-2.1869
X5.7931Y-2.1869
X5.8931Y-2.1869
X5.5731Y-2.3931
X5.5731Y-2.4931
X5.5731Y-2.5931
X5.5731Y-2.6931
X6.3431Y-2.1819
X6.4431Y-2.1819
X6.5431Y-2.1819
X6.6431Y-2.1819
X7.4031Y-2.3831
X7.4031Y-2.4831
X7.4031Y-2.5831
X7.4031Y-2.6831
X4.8731Y-2.3981
X4.8731Y-2.4981
X4.8731Y-2.5981
X4.8731Y-2.6981
X4.5031Y-2.4031
X4.5031Y-2.5031
X4.5031Y-2.6031
X4.5031Y-2.7031
X7.0631Y-1.5031
X7.0631Y-1.6031
X7.0631Y-1.7031
X7.0631Y-1.8031
X4.1931Y-2.1969
X4.2931Y-2.1969
X4.3931Y-2.1969
X4.4931Y-2.1969
X5.9031Y-2.3931
X5.9031Y-2.4931
X5.9031Y-2.5931
X5.9031Y-2.6931
X4.1731Y-1.5031
X4.1731Y-1.6031
X4.1731Y-1.7031
X4.1731Y-1.8031
X5.2031Y-2.3981
X5.2031Y-2.4981
X5.2031Y-2.5981
X5.2031Y-2.6981
X5.1981Y-1.5031
X5.1981Y-1.6031
X5.1981Y-1.7031
X5.1981Y-1.8031
T0
M30
