G04 #@! TF.GenerationSoftware,KiCad,Pcbnew,(5.1.4)-1*
G04 #@! TF.CreationDate,2019-11-19T12:22:33-05:00*
G04 #@! TF.ProjectId,bob_ws2811_driver,626f625f-7773-4323-9831-315f64726976,rev?*
G04 #@! TF.SameCoordinates,Original*
G04 #@! TF.FileFunction,Copper,L1,Top*
G04 #@! TF.FilePolarity,Positive*
%FSLAX46Y46*%
G04 Gerber Fmt 4.6, Leading zero omitted, Abs format (unit mm)*
G04 Created by KiCad (PCBNEW (5.1.4)-1) date 2019-11-19 12:22:33*
%MOMM*%
%LPD*%
G04 APERTURE LIST*
%ADD10C,1.500000*%
%ADD11R,1.100000X0.600000*%
%ADD12C,0.250000*%
G04 APERTURE END LIST*
D10*
X187531000Y-32941000D03*
X184991000Y-32941000D03*
X182451000Y-32941000D03*
X179911000Y-32941000D03*
X187785000Y-38179000D03*
X187785000Y-40719000D03*
X187785000Y-43259000D03*
X187785000Y-45799000D03*
D11*
X184742000Y-40035000D03*
X184742000Y-41285000D03*
X184742000Y-42535000D03*
X184742000Y-43785000D03*
X182542000Y-43785000D03*
X182542000Y-42535000D03*
X182542000Y-41285000D03*
X182542000Y-40035000D03*
D10*
X179403000Y-45799000D03*
X179403000Y-43259000D03*
X179403000Y-40719000D03*
X179403000Y-38179000D03*
X160988000Y-32941000D03*
X163528000Y-32941000D03*
X166068000Y-32941000D03*
X168608000Y-32941000D03*
X168862000Y-45799000D03*
X168862000Y-43259000D03*
X168862000Y-40719000D03*
X168862000Y-38179000D03*
D11*
X163619000Y-40035000D03*
X163619000Y-41285000D03*
X163619000Y-42535000D03*
X163619000Y-43785000D03*
X165819000Y-43785000D03*
X165819000Y-42535000D03*
X165819000Y-41285000D03*
X165819000Y-40035000D03*
D10*
X160480000Y-38179000D03*
X160480000Y-40719000D03*
X160480000Y-43259000D03*
X160480000Y-45799000D03*
X149558000Y-32941000D03*
X147018000Y-32941000D03*
X144478000Y-32941000D03*
X141938000Y-32941000D03*
X149812000Y-38179000D03*
X149812000Y-40719000D03*
X149812000Y-43259000D03*
X149812000Y-45799000D03*
D11*
X146769000Y-40035000D03*
X146769000Y-41285000D03*
X146769000Y-42535000D03*
X146769000Y-43785000D03*
X144569000Y-43785000D03*
X144569000Y-42535000D03*
X144569000Y-41285000D03*
X144569000Y-40035000D03*
D10*
X141430000Y-45799000D03*
X141430000Y-43259000D03*
X141430000Y-40719000D03*
X141430000Y-38179000D03*
X124158000Y-32941000D03*
X126698000Y-32941000D03*
X129238000Y-32941000D03*
X131778000Y-32941000D03*
X132032000Y-45799000D03*
X132032000Y-43259000D03*
X132032000Y-40719000D03*
X132032000Y-38179000D03*
D11*
X126789000Y-40035000D03*
X126789000Y-41285000D03*
X126789000Y-42535000D03*
X126789000Y-43785000D03*
X128989000Y-43785000D03*
X128989000Y-42535000D03*
X128989000Y-41285000D03*
X128989000Y-40035000D03*
D10*
X123650000Y-38179000D03*
X123650000Y-40719000D03*
X123650000Y-43259000D03*
X123650000Y-45799000D03*
D11*
X182796000Y-62387000D03*
X182796000Y-63637000D03*
X182796000Y-64887000D03*
X182796000Y-66137000D03*
X184996000Y-66137000D03*
X184996000Y-64887000D03*
X184996000Y-63637000D03*
X184996000Y-62387000D03*
D10*
X180165000Y-55293000D03*
X182705000Y-55293000D03*
X185245000Y-55293000D03*
X187785000Y-55293000D03*
X188039000Y-68151000D03*
X188039000Y-65611000D03*
X188039000Y-63071000D03*
X188039000Y-60531000D03*
X179657000Y-60531000D03*
X179657000Y-63071000D03*
X179657000Y-65611000D03*
X179657000Y-68151000D03*
D11*
X165946000Y-62514000D03*
X165946000Y-63764000D03*
X165946000Y-65014000D03*
X165946000Y-66264000D03*
X163746000Y-66264000D03*
X163746000Y-65014000D03*
X163746000Y-63764000D03*
X163746000Y-62514000D03*
D10*
X168735000Y-55420000D03*
X166195000Y-55420000D03*
X163655000Y-55420000D03*
X161115000Y-55420000D03*
X160607000Y-68278000D03*
X160607000Y-65738000D03*
X160607000Y-63198000D03*
X160607000Y-60658000D03*
X168989000Y-60658000D03*
X168989000Y-63198000D03*
X168989000Y-65738000D03*
X168989000Y-68278000D03*
X149939000Y-68405000D03*
X149939000Y-65865000D03*
X149939000Y-63325000D03*
X149939000Y-60785000D03*
D11*
X144696000Y-62641000D03*
X144696000Y-63891000D03*
X144696000Y-65141000D03*
X144696000Y-66391000D03*
X146896000Y-66391000D03*
X146896000Y-65141000D03*
X146896000Y-63891000D03*
X146896000Y-62641000D03*
D10*
X141557000Y-60785000D03*
X141557000Y-63325000D03*
X141557000Y-65865000D03*
X141557000Y-68405000D03*
X142065000Y-55547000D03*
X144605000Y-55547000D03*
X147145000Y-55547000D03*
X149685000Y-55547000D03*
X132159000Y-60912000D03*
X132159000Y-63452000D03*
X132159000Y-65992000D03*
X132159000Y-68532000D03*
D11*
X129116000Y-62768000D03*
X129116000Y-64018000D03*
X129116000Y-65268000D03*
X129116000Y-66518000D03*
X126916000Y-66518000D03*
X126916000Y-65268000D03*
X126916000Y-64018000D03*
X126916000Y-62768000D03*
D10*
X123777000Y-68532000D03*
X123777000Y-65992000D03*
X123777000Y-63452000D03*
X123777000Y-60912000D03*
X131905000Y-55674000D03*
X129365000Y-55674000D03*
X126825000Y-55674000D03*
X124285000Y-55674000D03*
X106505000Y-55801000D03*
X109045000Y-55801000D03*
X111585000Y-55801000D03*
X114125000Y-55801000D03*
X114379000Y-68659000D03*
X114379000Y-66119000D03*
X114379000Y-63579000D03*
X114379000Y-61039000D03*
D11*
X109136000Y-62895000D03*
X109136000Y-64145000D03*
X109136000Y-65395000D03*
X109136000Y-66645000D03*
X111336000Y-66645000D03*
X111336000Y-65395000D03*
X111336000Y-64145000D03*
X111336000Y-62895000D03*
D10*
X105997000Y-61039000D03*
X105997000Y-63579000D03*
X105997000Y-66119000D03*
X105997000Y-68659000D03*
X114125000Y-32941000D03*
X111585000Y-32941000D03*
X109045000Y-32941000D03*
X106505000Y-32941000D03*
X114379000Y-38179000D03*
X114379000Y-40719000D03*
X114379000Y-43259000D03*
X114379000Y-45799000D03*
D11*
X111336000Y-40035000D03*
X111336000Y-41285000D03*
X111336000Y-42535000D03*
X111336000Y-43785000D03*
X109136000Y-43785000D03*
X109136000Y-42535000D03*
X109136000Y-41285000D03*
X109136000Y-40035000D03*
D10*
X105997000Y-45799000D03*
X105997000Y-43259000D03*
X105997000Y-40719000D03*
X105997000Y-38179000D03*
D12*
X113192000Y-38179000D02*
X111336000Y-40035000D01*
X114379000Y-38179000D02*
X113192000Y-38179000D01*
X114379000Y-40719000D02*
X113459000Y-40719000D01*
X112893000Y-41285000D02*
X111336000Y-41285000D01*
X113459000Y-40719000D02*
X112893000Y-41285000D01*
X114379000Y-43259000D02*
X113490000Y-43259000D01*
X112766000Y-42535000D02*
X111336000Y-42535000D01*
X113490000Y-43259000D02*
X112766000Y-42535000D01*
X113350000Y-45799000D02*
X111336000Y-43785000D01*
X114379000Y-45799000D02*
X113350000Y-45799000D01*
X107122000Y-45799000D02*
X109136000Y-43785000D01*
X105997000Y-45799000D02*
X107122000Y-45799000D01*
X105997000Y-43259000D02*
X107109000Y-43259000D01*
X107833000Y-42535000D02*
X109136000Y-42535000D01*
X107109000Y-43259000D02*
X107833000Y-42535000D01*
X105997000Y-40719000D02*
X106886000Y-40719000D01*
X107452000Y-41285000D02*
X109136000Y-41285000D01*
X106886000Y-40719000D02*
X107452000Y-41285000D01*
X107280000Y-38179000D02*
X109136000Y-40035000D01*
X105997000Y-38179000D02*
X107280000Y-38179000D01*
X106886000Y-63579000D02*
X107452000Y-64145000D01*
X107452000Y-64145000D02*
X109136000Y-64145000D01*
X107122000Y-68659000D02*
X109136000Y-66645000D01*
X105997000Y-68659000D02*
X107122000Y-68659000D01*
X107833000Y-65395000D02*
X109136000Y-65395000D01*
X114379000Y-68659000D02*
X113350000Y-68659000D01*
X114379000Y-66119000D02*
X113490000Y-66119000D01*
X114379000Y-63579000D02*
X113459000Y-63579000D01*
X112766000Y-65395000D02*
X111336000Y-65395000D01*
X114379000Y-61039000D02*
X113192000Y-61039000D01*
X113459000Y-63579000D02*
X112893000Y-64145000D01*
X112893000Y-64145000D02*
X111336000Y-64145000D01*
X107109000Y-66119000D02*
X107833000Y-65395000D01*
X105997000Y-66119000D02*
X107109000Y-66119000D01*
X113350000Y-68659000D02*
X111336000Y-66645000D01*
X113490000Y-66119000D02*
X112766000Y-65395000D01*
X113192000Y-61039000D02*
X111336000Y-62895000D01*
X107280000Y-61039000D02*
X109136000Y-62895000D01*
X105997000Y-61039000D02*
X107280000Y-61039000D01*
X105997000Y-63579000D02*
X106886000Y-63579000D01*
X123777000Y-63452000D02*
X124666000Y-63452000D01*
X131130000Y-68532000D02*
X129116000Y-66518000D01*
X131270000Y-65992000D02*
X130546000Y-65268000D01*
X130673000Y-64018000D02*
X129116000Y-64018000D01*
X123777000Y-68532000D02*
X124902000Y-68532000D01*
X130546000Y-65268000D02*
X129116000Y-65268000D01*
X125060000Y-60912000D02*
X126916000Y-62768000D01*
X123777000Y-65992000D02*
X124889000Y-65992000D01*
X124902000Y-68532000D02*
X126916000Y-66518000D01*
X132159000Y-63452000D02*
X131239000Y-63452000D01*
X124889000Y-65992000D02*
X125613000Y-65268000D01*
X123777000Y-60912000D02*
X125060000Y-60912000D01*
X124666000Y-63452000D02*
X125232000Y-64018000D01*
X132159000Y-68532000D02*
X131130000Y-68532000D01*
X131239000Y-63452000D02*
X130673000Y-64018000D01*
X125232000Y-64018000D02*
X126916000Y-64018000D01*
X132159000Y-60912000D02*
X130972000Y-60912000D01*
X130972000Y-60912000D02*
X129116000Y-62768000D01*
X132159000Y-65992000D02*
X131270000Y-65992000D01*
X125613000Y-65268000D02*
X126916000Y-65268000D01*
X142840000Y-60785000D02*
X144696000Y-62641000D01*
X148453000Y-63891000D02*
X146896000Y-63891000D01*
X148326000Y-65141000D02*
X146896000Y-65141000D01*
X149050000Y-65865000D02*
X148326000Y-65141000D01*
X149939000Y-63325000D02*
X149019000Y-63325000D01*
X142669000Y-65865000D02*
X143393000Y-65141000D01*
X149019000Y-63325000D02*
X148453000Y-63891000D01*
X142446000Y-63325000D02*
X143012000Y-63891000D01*
X141557000Y-65865000D02*
X142669000Y-65865000D01*
X142682000Y-68405000D02*
X144696000Y-66391000D01*
X149939000Y-68405000D02*
X148910000Y-68405000D01*
X143012000Y-63891000D02*
X144696000Y-63891000D01*
X141557000Y-68405000D02*
X142682000Y-68405000D01*
X148752000Y-60785000D02*
X146896000Y-62641000D01*
X143393000Y-65141000D02*
X144696000Y-65141000D01*
X148910000Y-68405000D02*
X146896000Y-66391000D01*
X141557000Y-60785000D02*
X142840000Y-60785000D01*
X149939000Y-60785000D02*
X148752000Y-60785000D01*
X141557000Y-63325000D02*
X142446000Y-63325000D01*
X149939000Y-65865000D02*
X149050000Y-65865000D01*
X167960000Y-68278000D02*
X165946000Y-66264000D01*
X161719000Y-65738000D02*
X162443000Y-65014000D01*
X167802000Y-60658000D02*
X165946000Y-62514000D01*
X160607000Y-65738000D02*
X161719000Y-65738000D01*
X160607000Y-63198000D02*
X161496000Y-63198000D01*
X168069000Y-63198000D02*
X167503000Y-63764000D01*
X161890000Y-60658000D02*
X163746000Y-62514000D01*
X167503000Y-63764000D02*
X165946000Y-63764000D01*
X167376000Y-65014000D02*
X165946000Y-65014000D01*
X162443000Y-65014000D02*
X163746000Y-65014000D01*
X168989000Y-65738000D02*
X168100000Y-65738000D01*
X160607000Y-60658000D02*
X161890000Y-60658000D01*
X168989000Y-60658000D02*
X167802000Y-60658000D01*
X161732000Y-68278000D02*
X163746000Y-66264000D01*
X161496000Y-63198000D02*
X162062000Y-63764000D01*
X168989000Y-63198000D02*
X168069000Y-63198000D01*
X168989000Y-68278000D02*
X167960000Y-68278000D01*
X162062000Y-63764000D02*
X163746000Y-63764000D01*
X168100000Y-65738000D02*
X167376000Y-65014000D01*
X160607000Y-68278000D02*
X161732000Y-68278000D01*
X180546000Y-63071000D02*
X181112000Y-63637000D01*
X180940000Y-60531000D02*
X182796000Y-62387000D01*
X186426000Y-64887000D02*
X184996000Y-64887000D01*
X186553000Y-63637000D02*
X184996000Y-63637000D01*
X181493000Y-64887000D02*
X182796000Y-64887000D01*
X188039000Y-60531000D02*
X186852000Y-60531000D01*
X188039000Y-63071000D02*
X187119000Y-63071000D01*
X188039000Y-68151000D02*
X187010000Y-68151000D01*
X179657000Y-68151000D02*
X180782000Y-68151000D01*
X188039000Y-65611000D02*
X187150000Y-65611000D01*
X180782000Y-68151000D02*
X182796000Y-66137000D01*
X181112000Y-63637000D02*
X182796000Y-63637000D01*
X187150000Y-65611000D02*
X186426000Y-64887000D01*
X179657000Y-60531000D02*
X180940000Y-60531000D01*
X187010000Y-68151000D02*
X184996000Y-66137000D01*
X186852000Y-60531000D02*
X184996000Y-62387000D01*
X180769000Y-65611000D02*
X181493000Y-64887000D01*
X187119000Y-63071000D02*
X186553000Y-63637000D01*
X179657000Y-63071000D02*
X180546000Y-63071000D01*
X179657000Y-65611000D02*
X180769000Y-65611000D01*
X124539000Y-40719000D02*
X125105000Y-41285000D01*
X125105000Y-41285000D02*
X126789000Y-41285000D01*
X124775000Y-45799000D02*
X126789000Y-43785000D01*
X123650000Y-45799000D02*
X124775000Y-45799000D01*
X125486000Y-42535000D02*
X126789000Y-42535000D01*
X132032000Y-45799000D02*
X131003000Y-45799000D01*
X132032000Y-43259000D02*
X131143000Y-43259000D01*
X132032000Y-40719000D02*
X131112000Y-40719000D01*
X130419000Y-42535000D02*
X128989000Y-42535000D01*
X132032000Y-38179000D02*
X130845000Y-38179000D01*
X131112000Y-40719000D02*
X130546000Y-41285000D01*
X130546000Y-41285000D02*
X128989000Y-41285000D01*
X124762000Y-43259000D02*
X125486000Y-42535000D01*
X123650000Y-43259000D02*
X124762000Y-43259000D01*
X131003000Y-45799000D02*
X128989000Y-43785000D01*
X131143000Y-43259000D02*
X130419000Y-42535000D01*
X130845000Y-38179000D02*
X128989000Y-40035000D01*
X124933000Y-38179000D02*
X126789000Y-40035000D01*
X123650000Y-38179000D02*
X124933000Y-38179000D01*
X123650000Y-40719000D02*
X124539000Y-40719000D01*
X149812000Y-43259000D02*
X148923000Y-43259000D01*
X148326000Y-41285000D02*
X146769000Y-41285000D01*
X148783000Y-45799000D02*
X146769000Y-43785000D01*
X148923000Y-43259000D02*
X148199000Y-42535000D01*
X148625000Y-38179000D02*
X146769000Y-40035000D01*
X141430000Y-38179000D02*
X142713000Y-38179000D01*
X141430000Y-40719000D02*
X142319000Y-40719000D01*
X149812000Y-40719000D02*
X148892000Y-40719000D01*
X149812000Y-38179000D02*
X148625000Y-38179000D01*
X141430000Y-43259000D02*
X142542000Y-43259000D01*
X142713000Y-38179000D02*
X144569000Y-40035000D01*
X141430000Y-45799000D02*
X142555000Y-45799000D01*
X143266000Y-42535000D02*
X144569000Y-42535000D01*
X149812000Y-45799000D02*
X148783000Y-45799000D01*
X148199000Y-42535000D02*
X146769000Y-42535000D01*
X142885000Y-41285000D02*
X144569000Y-41285000D01*
X142555000Y-45799000D02*
X144569000Y-43785000D01*
X148892000Y-40719000D02*
X148326000Y-41285000D01*
X142542000Y-43259000D02*
X143266000Y-42535000D01*
X142319000Y-40719000D02*
X142885000Y-41285000D01*
X167675000Y-38179000D02*
X165819000Y-40035000D01*
X160480000Y-40719000D02*
X161369000Y-40719000D01*
X167973000Y-43259000D02*
X167249000Y-42535000D01*
X168862000Y-43259000D02*
X167973000Y-43259000D01*
X167833000Y-45799000D02*
X165819000Y-43785000D01*
X160480000Y-38179000D02*
X161763000Y-38179000D01*
X167376000Y-41285000D02*
X165819000Y-41285000D01*
X168862000Y-40719000D02*
X167942000Y-40719000D01*
X168862000Y-38179000D02*
X167675000Y-38179000D01*
X160480000Y-43259000D02*
X161592000Y-43259000D01*
X161763000Y-38179000D02*
X163619000Y-40035000D01*
X160480000Y-45799000D02*
X161605000Y-45799000D01*
X162316000Y-42535000D02*
X163619000Y-42535000D01*
X167942000Y-40719000D02*
X167376000Y-41285000D01*
X167249000Y-42535000D02*
X165819000Y-42535000D01*
X161605000Y-45799000D02*
X163619000Y-43785000D01*
X161935000Y-41285000D02*
X163619000Y-41285000D01*
X168862000Y-45799000D02*
X167833000Y-45799000D01*
X161592000Y-43259000D02*
X162316000Y-42535000D01*
X161369000Y-40719000D02*
X161935000Y-41285000D01*
X179403000Y-45799000D02*
X180528000Y-45799000D01*
X187785000Y-45799000D02*
X186756000Y-45799000D01*
X180292000Y-40719000D02*
X180858000Y-41285000D01*
X187785000Y-40719000D02*
X186865000Y-40719000D01*
X186172000Y-42535000D02*
X184742000Y-42535000D01*
X180686000Y-38179000D02*
X182542000Y-40035000D01*
X180528000Y-45799000D02*
X182542000Y-43785000D01*
X181239000Y-42535000D02*
X182542000Y-42535000D01*
X187785000Y-43259000D02*
X186896000Y-43259000D01*
X179403000Y-43259000D02*
X180515000Y-43259000D01*
X180858000Y-41285000D02*
X182542000Y-41285000D01*
X186299000Y-41285000D02*
X184742000Y-41285000D01*
X180515000Y-43259000D02*
X181239000Y-42535000D01*
X186598000Y-38179000D02*
X184742000Y-40035000D01*
X186865000Y-40719000D02*
X186299000Y-41285000D01*
X186896000Y-43259000D02*
X186172000Y-42535000D01*
X179403000Y-38179000D02*
X180686000Y-38179000D01*
X186756000Y-45799000D02*
X184742000Y-43785000D01*
X187785000Y-38179000D02*
X186598000Y-38179000D01*
X179403000Y-40719000D02*
X180292000Y-40719000D01*
M02*
