<?xml version="1.0" encoding="UTF-8" standalone="no"?>
<!-- Generator: Adobe Illustrator 19.0.0, SVG Export Plug-In . SVG Version: 6.00 Build 0)  -->

<svg
   xmlns:dc="http://purl.org/dc/elements/1.1/"
   xmlns:cc="http://creativecommons.org/ns#"
   xmlns:rdf="http://www.w3.org/1999/02/22-rdf-syntax-ns#"
   xmlns:svg="http://www.w3.org/2000/svg"
   xmlns="http://www.w3.org/2000/svg"
   xmlns:sodipodi="http://sodipodi.sourceforge.net/DTD/sodipodi-0.dtd"
   xmlns:inkscape="http://www.inkscape.org/namespaces/inkscape"
   version="1.1"
   id="Layer_1"
   x="0px"
   y="0px"
   viewBox="-389 111 233.60001 96"
   xml:space="preserve"
   sodipodi:docname="AT&amp;T-logo-vector-01.svg"
   width="233.60001"
   height="96"
   inkscape:version="0.92.4 (5da689c313, 2019-01-14)"><metadata
   id="metadata1692"><rdf:RDF><cc:Work
       rdf:about=""><dc:format>image/svg+xml</dc:format><dc:type
         rdf:resource="http://purl.org/dc/dcmitype/StillImage" /></cc:Work></rdf:RDF></metadata><defs
   id="defs1690" /><sodipodi:namedview
   pagecolor="#ffffff"
   bordercolor="#666666"
   borderopacity="1"
   objecttolerance="10"
   gridtolerance="10"
   guidetolerance="10"
   inkscape:pageopacity="0"
   inkscape:pageshadow="2"
   inkscape:window-width="1920"
   inkscape:window-height="1027"
   id="namedview1688"
   showgrid="false"
   inkscape:zoom="0.472"
   inkscape:cx="116.8"
   inkscape:cy="180"
   inkscape:window-x="1912"
   inkscape:window-y="127"
   inkscape:window-maximized="1"
   inkscape:current-layer="g1685" />
<style
   type="text/css"
   id="style1578">
	.st0{fill:#B2B4B6;}
	.st1{fill:#B2B4B7;}
	.st2{fill:#B3B5B8;}
	.st3{fill:#B4B6B8;}
	.st4{fill:#B5B7B9;}
	.st5{fill:#B6B8BA;}
	.st6{fill:#B7B9BB;}
	.st7{fill:#B7B9BC;}
	.st8{fill:#B8BABC;}
	.st9{fill:#B9BBBD;}
	.st10{fill:#BABCBE;}
	.st11{fill:#BBBDBF;}
	.st12{fill:#BCBDC0;}
	.st13{fill:#BCBEC0;}
	.st14{fill:#BDBFC1;}
	.st15{fill:#BEC0C2;}
	.st16{fill:#BFC1C3;}
	.st17{fill:#C0C2C4;}
	.st18{fill:#C1C2C4;}
	.st19{fill:#C1C3C5;}
	.st20{fill:#C2C4C6;}
	.st21{fill:#C3C5C7;}
	.st22{fill:#C4C6C8;}
	.st23{fill:#C5C6C8;}
	.st24{fill:#C5C7C9;}
	.st25{fill:#C6C8CA;}
	.st26{fill:#C7C9CB;}
	.st27{fill:#C8CACC;}
	.st28{fill:#C9CBCC;}
	.st29{fill:#CACBCD;}
	.st30{fill:#CBCCCE;}
	.st31{fill:#CBCDCF;}
	.st32{fill:#CCCED0;}
	.st33{fill:#CDCFD0;}
	.st34{fill:#CECFD1;}
	.st35{fill:#CFD0D2;}
	.st36{fill:#D0D1D3;}
	.st37{fill:#D0D2D3;}
	.st38{fill:#D1D3D4;}
	.st39{fill:#D2D3D5;}
	.st40{fill:#D3D4D6;}
	.st41{fill:#D4D5D7;}
	.st42{fill:#D5D6D7;}
	.st43{fill:#D5D7D8;}
	.st44{fill:#D6D7D9;}
	.st45{fill:#D7D8DA;}
	.st46{fill:#D8D9DB;}
	.st47{fill:#D9DADB;}
	.st48{fill:#D9DBDC;}
	.st49{fill:#DADCDD;}
	.st50{fill:#DBDCDE;}
	.st51{fill:#DCDDDE;}
	.st52{fill:#DDDEDF;}
	.st53{fill:#DEDFE0;}
	.st54{fill:#DEE0E1;}
	.st55{fill:#DFE0E2;}
	.st56{fill:#E0E1E2;}
	.st57{fill:#E1E2E3;}
	.st58{fill:#E2E3E4;}
	.st59{fill:#E3E4E5;}
	.st60{fill:#E4E5E6;}
	.st61{fill:#E5E6E7;}
	.st62{fill:#E6E7E8;}
	.st63{fill:#E7E8E9;}
	.st64{fill:#E8E8E9;}
	.st65{fill:#E9E9EA;}
	.st66{fill:#E9EAEB;}
	.st67{fill:#EAEBEC;}
	.st68{fill:#EBECED;}
	.st69{fill:#ECEDED;}
	.st70{fill:#EDEDEE;}
	.st71{fill:#EEEEEF;}
	.st72{fill:#EEEFF0;}
	.st73{fill:#EFF0F0;}
	.st74{fill:#F0F1F1;}
	.st75{fill:#F1F1F2;}
	.st76{fill:#F2F2F3;}
	.st77{fill:#F3F3F3;}
	.st78{fill:#F3F4F4;}
	.st79{fill:#F4F5F5;}
	.st80{fill:#F5F6F6;}
	.st81{fill:#F6F6F7;}
	.st82{fill:#F7F7F8;}
	.st83{fill:#F8F8F9;}
	.st84{fill:#F9F9FA;}
	.st85{fill:#FAFBFB;}
	.st86{fill:#FCFCFC;}
	.st87{fill:#FDFDFD;}
	.st88{fill:#FFFFFF;}
	.st89{fill:#32A5DD;}
	.st90{fill:#0096D7;}
</style>
<g
   id="g1685"
   transform="translate(-133.2,-334)">
	
	<g
   id="g5">
		<path
   id="path7"
   d="m -67.6,535.2 -14,-14.5 c -0.4,-0.3 -0.6,-1 -0.2,-1.6 l 10.7,-18 c 0.2,-0.5 0.3,-0.8 0.3,-1 0,-1.1 -0.9,-2.1 -2.1,-2.1 h -7.8 c -0.8,0 -1.5,0.4 -1.9,1.1 l -6.8,11.7 c -0.3,0.5 -1,0.6 -1.5,0.2 l -10.9,-11.2 c -0.2,-0.2 -0.3,-0.4 -0.3,-0.7 0,-0.3 0.1,-0.6 0.3,-0.8 l 0.1,-0.1 c 6.2,-3.6 13.2,-8.9 13.2,-18.2 0,-10.7 -7.7,-17.9 -19.1,-17.9 -11.2,0 -19.7,7.5 -19.7,18.7 0,4.9 2.1,9.8 6.3,15 l 0.1,0.1 c 0.2,0.2 0.3,0.5 0.2,0.8 0,0.3 -0.2,0.5 -0.4,0.7 -9.3,5.3 -14,12.3 -14,20.9 0,14.6 12.2,22.2 24.2,22.2 8.3,0 14.7,-3.2 20.9,-10.3 l 0.1,-0.2 c 0.4,-0.4 1.1,-0.4 1.5,0.1 l 7.5,7.8 0.2,0.2 c 0.4,0.4 0.9,0.6 1.5,0.6 h 9.9 c 1.2,0 2.1,-0.9 2.1,-2.1 0.2,-0.5 0,-1 -0.4,-1.4 z M -107.2,473 c 4.7,0 7.2,3.2 7.2,7.2 0,4.6 -4.1,7.3 -9.1,10.1 l -0.3,0.1 c -0.4,0.2 -0.9,0.1 -1.2,-0.2 l -0.1,-0.1 c -2.2,-2.4 -4.7,-6.1 -4.7,-8.9 0,-4.6 3.3,-8.2 8.2,-8.2 z m 10,49.4 v 0 c -3.7,4.4 -7.6,7.2 -13.4,7.2 -6.9,0 -12.2,-4.9 -12.2,-11.2 0,-5.6 2.4,-8.9 9.4,-13.1 0.5,-0.3 1,-0.2 1.4,0.1 l 14.7,15.4 c 0.3,0.3 0.4,0.5 0.4,0.8 v 0 c 0,0.3 -0.1,0.5 -0.3,0.8 z"
   inkscape:connector-curvature="0" />
		<path
   id="path9"
   d="m -144.2,529.5 h -0.4 c -11.3,0 -17,-6 -17,-17.7 v -34.6 c 0,-0.6 0.5,-1.1 1.1,-1.1 h 17.6 c 1.2,0 2.1,-1 2.1,-2.1 v -7.7 c 0,-1.2 -1,-2.1 -2.1,-2.1 h -17.6 c -0.6,0 -1.2,-0.5 -1.2,-1.1 v -15.9 c 0.1,-1.1 -0.8,-2.1 -2,-2.2 h -0.2 l -9,0.7 c -1.1,0 -2.1,0.9 -2.1,2.1 v 15.3 c 0,0.6 -0.5,1.1 -1.1,1.1 h -11.1 c -1.2,0 -2.1,0.9 -2.1,2.1 v 7.7 c 0,0.6 0.2,1.1 0.7,1.5 0.4,0.4 0.9,0.6 1.5,0.6 h 11 c 0.6,0 1.1,0.5 1.1,1.1 v 36.9 c 0,19.8 14.9,26.9 28,26.9 0,0 1.6,0 2.7,-0.1 1.2,-0.1 2.1,-0.9 2.1,-2.1 v -7.3 c 0.1,-1.1 -0.9,-2 -2,-2 z"
   inkscape:connector-curvature="0" />
		<path
   id="path11"
   d="m -194.7,535.8 c -0.7,-2 -0.9,-4.2 -1,-5.2 0,-0.7 -0.1,-3.6 -0.1,-3.6 v -36.6 c 0,-19.3 -13.7,-26.2 -26.5,-26.2 -10.1,0 -19.4,2.6 -25.3,6.6 -0.5,0.3 -0.8,0.8 -0.9,1.3 -0.1,0.5 0,1.1 0.3,1.5 0,0.1 4.7,6.4 4.7,6.4 0.7,0.9 2,1.1 2.9,0.5 l 0.6,-0.4 c 4.6,-2.9 10.1,-4.6 15.7,-4.6 15.8,0 15.3,12.4 15.3,14 0,0.8 -0.5,1 -1.1,1 l -2.4,-0.1 c -12.3,-0.5 -43.3,3.7 -43.3,28.4 0,14.5 12.1,21.8 23.3,21.8 10.9,0 19.7,-4.3 24,-9.6 v -0.1 c 0.1,-0.1 0.1,-0.1 0.2,-0.1 0.1,0 0.3,0.1 0.3,0.3 0,0.7 0,2.2 0.1,3.5 0.1,1.2 0.3,2.1 0.5,2.7 0.2,0.6 0.5,1.2 1.1,1.4 0.3,0.1 0.6,0.2 0.9,0.2 h 8.8 c 1.1,0 2.1,-0.9 2.1,-2 0.1,-0.2 -0.2,-1.1 -0.2,-1.1 z m -13.5,-28.7 c -1.8,12.6 -8,19.9 -19.5,21.8 -8.1,1.3 -15.4,-2 -15.8,-10.7 -0.4,-9.5 10.6,-17.5 31,-16.6 0,0 1.5,0.1 2.5,0.2 0.9,0.1 1.4,0.4 1.8,0.9 0.4,0.5 0.4,1.6 0,4.4 z"
   inkscape:connector-curvature="0" />
		<path
   id="path13"
   d="m -25.6,529.5 h -0.5 c -11.2,0 -17,-6 -17,-17.7 v -34.6 c 0,-0.6 0.5,-1.1 1.1,-1.1 h 17.7 c 1.2,0 2.1,-1 2.1,-2.1 v -7.7 c 0,-1.2 -1,-2.1 -2.1,-2.1 h -17.6 c -0.6,0 -1.2,-0.5 -1.2,-1.1 v -15.9 c 0.1,-1.1 -0.8,-2.1 -2,-2.2 h -0.2 l -9,0.7 c -1.1,0 -2.1,0.9 -2.1,2.1 v 15.3 c 0,0.6 -0.5,1.1 -1.1,1.1 h -11.1 c -1.2,0 -2.1,0.9 -2.1,2.1 v 7.7 c 0,0.6 0.3,1.1 0.7,1.5 0.4,0.4 0.9,0.6 1.5,0.6 h 11 c 0.6,0 1.1,0.5 1.1,1.1 v 36.9 c 0,19.8 14.9,26.9 28,26.9 0,0 1.6,0 2.7,-0.1 1.2,-0.1 2.1,-0.9 2.1,-2.1 v -7.3 c 0.1,-1.1 -0.9,-2 -2,-2 z"
   inkscape:connector-curvature="0" />
	</g>
	
	
</g>
</svg>