G04 #@! TF.GenerationSoftware,KiCad,Pcbnew,5.1.4+dfsg1-1*
G04 #@! TF.CreationDate,2019-08-20T23:46:59-04:00*
G04 #@! TF.ProjectId,hello_world,68656c6c-6f5f-4776-9f72-6c642e6b6963,v01*
G04 #@! TF.SameCoordinates,Original*
G04 #@! TF.FileFunction,Legend,Top*
G04 #@! TF.FilePolarity,Positive*
%FSLAX46Y46*%
G04 Gerber Fmt 4.6, Leading zero omitted, Abs format (unit mm)*
G04 Created by KiCad (PCBNEW 5.1.4+dfsg1-1) date 2019-08-20 23:46:59*
%MOMM*%
%LPD*%
G04 APERTURE LIST*
%ADD10C,0.100000*%
%ADD11C,0.120000*%
%ADD12C,0.203200*%
%ADD13C,0.150000*%
G04 APERTURE END LIST*
D10*
G36*
X184150000Y-80010000D02*
G01*
X166370000Y-80010000D01*
X166370000Y-67310000D01*
X184150000Y-67310000D01*
X184150000Y-80010000D01*
G37*
X184150000Y-80010000D02*
X166370000Y-80010000D01*
X166370000Y-67310000D01*
X184150000Y-67310000D01*
X184150000Y-80010000D01*
G36*
X191770000Y-91440000D02*
G01*
X124460000Y-91440000D01*
X124460000Y-78740000D01*
X191770000Y-78740000D01*
X191770000Y-91440000D01*
G37*
X191770000Y-91440000D02*
X124460000Y-91440000D01*
X124460000Y-78740000D01*
X191770000Y-78740000D01*
X191770000Y-91440000D01*
X151002601Y-109092601D02*
X151002601Y-106247801D01*
X151002601Y-101269401D02*
X151002601Y-104114201D01*
X148259401Y-109092601D02*
X151002601Y-109092601D01*
X148259401Y-101269401D02*
X151002601Y-101269401D01*
X148919801Y-105181001D02*
G75*
G03X148919801Y-105181001I-11226800J0D01*
G01*
D11*
X176118000Y-119126000D02*
G75*
G03X176118000Y-119126000I-2620000J0D01*
G01*
X173498000Y-120166000D02*
X173498000Y-121706000D01*
X173498000Y-116546000D02*
X173498000Y-118086000D01*
X173538000Y-120166000D02*
X173538000Y-121706000D01*
X173538000Y-116546000D02*
X173538000Y-118086000D01*
X173578000Y-116547000D02*
X173578000Y-118086000D01*
X173578000Y-120166000D02*
X173578000Y-121705000D01*
X173618000Y-116548000D02*
X173618000Y-118086000D01*
X173618000Y-120166000D02*
X173618000Y-121704000D01*
X173658000Y-116550000D02*
X173658000Y-118086000D01*
X173658000Y-120166000D02*
X173658000Y-121702000D01*
X173698000Y-116553000D02*
X173698000Y-118086000D01*
X173698000Y-120166000D02*
X173698000Y-121699000D01*
X173738000Y-116557000D02*
X173738000Y-118086000D01*
X173738000Y-120166000D02*
X173738000Y-121695000D01*
X173778000Y-116561000D02*
X173778000Y-118086000D01*
X173778000Y-120166000D02*
X173778000Y-121691000D01*
X173818000Y-116565000D02*
X173818000Y-118086000D01*
X173818000Y-120166000D02*
X173818000Y-121687000D01*
X173858000Y-116570000D02*
X173858000Y-118086000D01*
X173858000Y-120166000D02*
X173858000Y-121682000D01*
X173898000Y-116576000D02*
X173898000Y-118086000D01*
X173898000Y-120166000D02*
X173898000Y-121676000D01*
X173938000Y-116583000D02*
X173938000Y-118086000D01*
X173938000Y-120166000D02*
X173938000Y-121669000D01*
X173978000Y-116590000D02*
X173978000Y-118086000D01*
X173978000Y-120166000D02*
X173978000Y-121662000D01*
X174018000Y-116598000D02*
X174018000Y-118086000D01*
X174018000Y-120166000D02*
X174018000Y-121654000D01*
X174058000Y-116606000D02*
X174058000Y-118086000D01*
X174058000Y-120166000D02*
X174058000Y-121646000D01*
X174098000Y-116615000D02*
X174098000Y-118086000D01*
X174098000Y-120166000D02*
X174098000Y-121637000D01*
X174138000Y-116625000D02*
X174138000Y-118086000D01*
X174138000Y-120166000D02*
X174138000Y-121627000D01*
X174178000Y-116635000D02*
X174178000Y-118086000D01*
X174178000Y-120166000D02*
X174178000Y-121617000D01*
X174219000Y-116646000D02*
X174219000Y-118086000D01*
X174219000Y-120166000D02*
X174219000Y-121606000D01*
X174259000Y-116658000D02*
X174259000Y-118086000D01*
X174259000Y-120166000D02*
X174259000Y-121594000D01*
X174299000Y-116671000D02*
X174299000Y-118086000D01*
X174299000Y-120166000D02*
X174299000Y-121581000D01*
X174339000Y-116684000D02*
X174339000Y-118086000D01*
X174339000Y-120166000D02*
X174339000Y-121568000D01*
X174379000Y-116698000D02*
X174379000Y-118086000D01*
X174379000Y-120166000D02*
X174379000Y-121554000D01*
X174419000Y-116712000D02*
X174419000Y-118086000D01*
X174419000Y-120166000D02*
X174419000Y-121540000D01*
X174459000Y-116728000D02*
X174459000Y-118086000D01*
X174459000Y-120166000D02*
X174459000Y-121524000D01*
X174499000Y-116744000D02*
X174499000Y-118086000D01*
X174499000Y-120166000D02*
X174499000Y-121508000D01*
X174539000Y-116761000D02*
X174539000Y-118086000D01*
X174539000Y-120166000D02*
X174539000Y-121491000D01*
X174579000Y-116778000D02*
X174579000Y-118086000D01*
X174579000Y-120166000D02*
X174579000Y-121474000D01*
X174619000Y-116797000D02*
X174619000Y-118086000D01*
X174619000Y-120166000D02*
X174619000Y-121455000D01*
X174659000Y-116816000D02*
X174659000Y-118086000D01*
X174659000Y-120166000D02*
X174659000Y-121436000D01*
X174699000Y-116836000D02*
X174699000Y-118086000D01*
X174699000Y-120166000D02*
X174699000Y-121416000D01*
X174739000Y-116858000D02*
X174739000Y-118086000D01*
X174739000Y-120166000D02*
X174739000Y-121394000D01*
X174779000Y-116879000D02*
X174779000Y-118086000D01*
X174779000Y-120166000D02*
X174779000Y-121373000D01*
X174819000Y-116902000D02*
X174819000Y-118086000D01*
X174819000Y-120166000D02*
X174819000Y-121350000D01*
X174859000Y-116926000D02*
X174859000Y-118086000D01*
X174859000Y-120166000D02*
X174859000Y-121326000D01*
X174899000Y-116951000D02*
X174899000Y-118086000D01*
X174899000Y-120166000D02*
X174899000Y-121301000D01*
X174939000Y-116977000D02*
X174939000Y-118086000D01*
X174939000Y-120166000D02*
X174939000Y-121275000D01*
X174979000Y-117004000D02*
X174979000Y-118086000D01*
X174979000Y-120166000D02*
X174979000Y-121248000D01*
X175019000Y-117031000D02*
X175019000Y-118086000D01*
X175019000Y-120166000D02*
X175019000Y-121221000D01*
X175059000Y-117061000D02*
X175059000Y-118086000D01*
X175059000Y-120166000D02*
X175059000Y-121191000D01*
X175099000Y-117091000D02*
X175099000Y-118086000D01*
X175099000Y-120166000D02*
X175099000Y-121161000D01*
X175139000Y-117122000D02*
X175139000Y-118086000D01*
X175139000Y-120166000D02*
X175139000Y-121130000D01*
X175179000Y-117155000D02*
X175179000Y-118086000D01*
X175179000Y-120166000D02*
X175179000Y-121097000D01*
X175219000Y-117189000D02*
X175219000Y-118086000D01*
X175219000Y-120166000D02*
X175219000Y-121063000D01*
X175259000Y-117225000D02*
X175259000Y-118086000D01*
X175259000Y-120166000D02*
X175259000Y-121027000D01*
X175299000Y-117262000D02*
X175299000Y-118086000D01*
X175299000Y-120166000D02*
X175299000Y-120990000D01*
X175339000Y-117300000D02*
X175339000Y-118086000D01*
X175339000Y-120166000D02*
X175339000Y-120952000D01*
X175379000Y-117341000D02*
X175379000Y-118086000D01*
X175379000Y-120166000D02*
X175379000Y-120911000D01*
X175419000Y-117383000D02*
X175419000Y-118086000D01*
X175419000Y-120166000D02*
X175419000Y-120869000D01*
X175459000Y-117427000D02*
X175459000Y-118086000D01*
X175459000Y-120166000D02*
X175459000Y-120825000D01*
X175499000Y-117473000D02*
X175499000Y-118086000D01*
X175499000Y-120166000D02*
X175499000Y-120779000D01*
X175539000Y-117521000D02*
X175539000Y-120731000D01*
X175579000Y-117572000D02*
X175579000Y-120680000D01*
X175619000Y-117626000D02*
X175619000Y-120626000D01*
X175659000Y-117683000D02*
X175659000Y-120569000D01*
X175699000Y-117743000D02*
X175699000Y-120509000D01*
X175739000Y-117807000D02*
X175739000Y-120445000D01*
X175779000Y-117875000D02*
X175779000Y-120377000D01*
X175819000Y-117948000D02*
X175819000Y-120304000D01*
X175859000Y-118028000D02*
X175859000Y-120224000D01*
X175899000Y-118115000D02*
X175899000Y-120137000D01*
X175939000Y-118211000D02*
X175939000Y-120041000D01*
X175979000Y-118321000D02*
X175979000Y-119931000D01*
X176019000Y-118449000D02*
X176019000Y-119803000D01*
X176059000Y-118608000D02*
X176059000Y-119644000D01*
X176099000Y-118842000D02*
X176099000Y-119410000D01*
X170693225Y-117651000D02*
X171193225Y-117651000D01*
X170943225Y-117401000D02*
X170943225Y-117901000D01*
X185368000Y-118872000D02*
G75*
G03X185368000Y-118872000I-3270000J0D01*
G01*
X182098000Y-115642000D02*
X182098000Y-122102000D01*
X182138000Y-115642000D02*
X182138000Y-122102000D01*
X182178000Y-115642000D02*
X182178000Y-122102000D01*
X182218000Y-115644000D02*
X182218000Y-122100000D01*
X182258000Y-115645000D02*
X182258000Y-122099000D01*
X182298000Y-115648000D02*
X182298000Y-122096000D01*
X182338000Y-115650000D02*
X182338000Y-117832000D01*
X182338000Y-119912000D02*
X182338000Y-122094000D01*
X182378000Y-115654000D02*
X182378000Y-117832000D01*
X182378000Y-119912000D02*
X182378000Y-122090000D01*
X182418000Y-115657000D02*
X182418000Y-117832000D01*
X182418000Y-119912000D02*
X182418000Y-122087000D01*
X182458000Y-115661000D02*
X182458000Y-117832000D01*
X182458000Y-119912000D02*
X182458000Y-122083000D01*
X182498000Y-115666000D02*
X182498000Y-117832000D01*
X182498000Y-119912000D02*
X182498000Y-122078000D01*
X182538000Y-115671000D02*
X182538000Y-117832000D01*
X182538000Y-119912000D02*
X182538000Y-122073000D01*
X182578000Y-115677000D02*
X182578000Y-117832000D01*
X182578000Y-119912000D02*
X182578000Y-122067000D01*
X182618000Y-115683000D02*
X182618000Y-117832000D01*
X182618000Y-119912000D02*
X182618000Y-122061000D01*
X182658000Y-115690000D02*
X182658000Y-117832000D01*
X182658000Y-119912000D02*
X182658000Y-122054000D01*
X182698000Y-115697000D02*
X182698000Y-117832000D01*
X182698000Y-119912000D02*
X182698000Y-122047000D01*
X182738000Y-115705000D02*
X182738000Y-117832000D01*
X182738000Y-119912000D02*
X182738000Y-122039000D01*
X182778000Y-115713000D02*
X182778000Y-117832000D01*
X182778000Y-119912000D02*
X182778000Y-122031000D01*
X182819000Y-115722000D02*
X182819000Y-117832000D01*
X182819000Y-119912000D02*
X182819000Y-122022000D01*
X182859000Y-115731000D02*
X182859000Y-117832000D01*
X182859000Y-119912000D02*
X182859000Y-122013000D01*
X182899000Y-115741000D02*
X182899000Y-117832000D01*
X182899000Y-119912000D02*
X182899000Y-122003000D01*
X182939000Y-115751000D02*
X182939000Y-117832000D01*
X182939000Y-119912000D02*
X182939000Y-121993000D01*
X182979000Y-115762000D02*
X182979000Y-117832000D01*
X182979000Y-119912000D02*
X182979000Y-121982000D01*
X183019000Y-115774000D02*
X183019000Y-117832000D01*
X183019000Y-119912000D02*
X183019000Y-121970000D01*
X183059000Y-115786000D02*
X183059000Y-117832000D01*
X183059000Y-119912000D02*
X183059000Y-121958000D01*
X183099000Y-115798000D02*
X183099000Y-117832000D01*
X183099000Y-119912000D02*
X183099000Y-121946000D01*
X183139000Y-115811000D02*
X183139000Y-117832000D01*
X183139000Y-119912000D02*
X183139000Y-121933000D01*
X183179000Y-115825000D02*
X183179000Y-117832000D01*
X183179000Y-119912000D02*
X183179000Y-121919000D01*
X183219000Y-115839000D02*
X183219000Y-117832000D01*
X183219000Y-119912000D02*
X183219000Y-121905000D01*
X183259000Y-115854000D02*
X183259000Y-117832000D01*
X183259000Y-119912000D02*
X183259000Y-121890000D01*
X183299000Y-115870000D02*
X183299000Y-117832000D01*
X183299000Y-119912000D02*
X183299000Y-121874000D01*
X183339000Y-115886000D02*
X183339000Y-117832000D01*
X183339000Y-119912000D02*
X183339000Y-121858000D01*
X183379000Y-115902000D02*
X183379000Y-117832000D01*
X183379000Y-119912000D02*
X183379000Y-121842000D01*
X183419000Y-115920000D02*
X183419000Y-117832000D01*
X183419000Y-119912000D02*
X183419000Y-121824000D01*
X183459000Y-115938000D02*
X183459000Y-117832000D01*
X183459000Y-119912000D02*
X183459000Y-121806000D01*
X183499000Y-115956000D02*
X183499000Y-117832000D01*
X183499000Y-119912000D02*
X183499000Y-121788000D01*
X183539000Y-115976000D02*
X183539000Y-117832000D01*
X183539000Y-119912000D02*
X183539000Y-121768000D01*
X183579000Y-115996000D02*
X183579000Y-117832000D01*
X183579000Y-119912000D02*
X183579000Y-121748000D01*
X183619000Y-116016000D02*
X183619000Y-117832000D01*
X183619000Y-119912000D02*
X183619000Y-121728000D01*
X183659000Y-116038000D02*
X183659000Y-117832000D01*
X183659000Y-119912000D02*
X183659000Y-121706000D01*
X183699000Y-116060000D02*
X183699000Y-117832000D01*
X183699000Y-119912000D02*
X183699000Y-121684000D01*
X183739000Y-116082000D02*
X183739000Y-117832000D01*
X183739000Y-119912000D02*
X183739000Y-121662000D01*
X183779000Y-116106000D02*
X183779000Y-117832000D01*
X183779000Y-119912000D02*
X183779000Y-121638000D01*
X183819000Y-116130000D02*
X183819000Y-117832000D01*
X183819000Y-119912000D02*
X183819000Y-121614000D01*
X183859000Y-116156000D02*
X183859000Y-117832000D01*
X183859000Y-119912000D02*
X183859000Y-121588000D01*
X183899000Y-116182000D02*
X183899000Y-117832000D01*
X183899000Y-119912000D02*
X183899000Y-121562000D01*
X183939000Y-116208000D02*
X183939000Y-117832000D01*
X183939000Y-119912000D02*
X183939000Y-121536000D01*
X183979000Y-116236000D02*
X183979000Y-117832000D01*
X183979000Y-119912000D02*
X183979000Y-121508000D01*
X184019000Y-116265000D02*
X184019000Y-117832000D01*
X184019000Y-119912000D02*
X184019000Y-121479000D01*
X184059000Y-116294000D02*
X184059000Y-117832000D01*
X184059000Y-119912000D02*
X184059000Y-121450000D01*
X184099000Y-116324000D02*
X184099000Y-117832000D01*
X184099000Y-119912000D02*
X184099000Y-121420000D01*
X184139000Y-116356000D02*
X184139000Y-117832000D01*
X184139000Y-119912000D02*
X184139000Y-121388000D01*
X184179000Y-116388000D02*
X184179000Y-117832000D01*
X184179000Y-119912000D02*
X184179000Y-121356000D01*
X184219000Y-116422000D02*
X184219000Y-117832000D01*
X184219000Y-119912000D02*
X184219000Y-121322000D01*
X184259000Y-116456000D02*
X184259000Y-117832000D01*
X184259000Y-119912000D02*
X184259000Y-121288000D01*
X184299000Y-116492000D02*
X184299000Y-117832000D01*
X184299000Y-119912000D02*
X184299000Y-121252000D01*
X184339000Y-116529000D02*
X184339000Y-117832000D01*
X184339000Y-119912000D02*
X184339000Y-121215000D01*
X184379000Y-116567000D02*
X184379000Y-117832000D01*
X184379000Y-119912000D02*
X184379000Y-121177000D01*
X184419000Y-116607000D02*
X184419000Y-121137000D01*
X184459000Y-116648000D02*
X184459000Y-121096000D01*
X184499000Y-116690000D02*
X184499000Y-121054000D01*
X184539000Y-116735000D02*
X184539000Y-121009000D01*
X184579000Y-116780000D02*
X184579000Y-120964000D01*
X184619000Y-116828000D02*
X184619000Y-120916000D01*
X184659000Y-116877000D02*
X184659000Y-120867000D01*
X184699000Y-116928000D02*
X184699000Y-120816000D01*
X184739000Y-116982000D02*
X184739000Y-120762000D01*
X184779000Y-117038000D02*
X184779000Y-120706000D01*
X184819000Y-117096000D02*
X184819000Y-120648000D01*
X184859000Y-117158000D02*
X184859000Y-120586000D01*
X184899000Y-117222000D02*
X184899000Y-120522000D01*
X184939000Y-117291000D02*
X184939000Y-120453000D01*
X184979000Y-117363000D02*
X184979000Y-120381000D01*
X185019000Y-117440000D02*
X185019000Y-120304000D01*
X185059000Y-117522000D02*
X185059000Y-120222000D01*
X185099000Y-117610000D02*
X185099000Y-120134000D01*
X185139000Y-117707000D02*
X185139000Y-120037000D01*
X185179000Y-117813000D02*
X185179000Y-119931000D01*
X185219000Y-117932000D02*
X185219000Y-119812000D01*
X185259000Y-118070000D02*
X185259000Y-119674000D01*
X185299000Y-118239000D02*
X185299000Y-119505000D01*
X185339000Y-118470000D02*
X185339000Y-119274000D01*
X178597759Y-117033000D02*
X179227759Y-117033000D01*
X178912759Y-116718000D02*
X178912759Y-117348000D01*
X154580335Y-72581392D02*
G75*
G03X151348000Y-72424484I-1672335J-1078608D01*
G01*
X154580335Y-74738608D02*
G75*
G02X151348000Y-74895516I-1672335J1078608D01*
G01*
X153949130Y-72580163D02*
G75*
G03X151867039Y-72580000I-1041130J-1079837D01*
G01*
X153949130Y-74739837D02*
G75*
G02X151867039Y-74740000I-1041130J1079837D01*
G01*
X151348000Y-72424000D02*
X151348000Y-72580000D01*
X151348000Y-74740000D02*
X151348000Y-74896000D01*
X141950000Y-74486000D02*
X141950000Y-74642000D01*
X141950000Y-72170000D02*
X141950000Y-72326000D01*
X144551130Y-74485837D02*
G75*
G02X142469039Y-74486000I-1041130J1079837D01*
G01*
X144551130Y-72326163D02*
G75*
G03X142469039Y-72326000I-1041130J-1079837D01*
G01*
X145182335Y-74484608D02*
G75*
G02X141950000Y-74641516I-1672335J1078608D01*
G01*
X145182335Y-72327392D02*
G75*
G03X141950000Y-72170484I-1672335J-1078608D01*
G01*
X167872000Y-132152000D02*
X171472000Y-132152000D01*
X167833522Y-132140478D02*
G75*
G02X169672000Y-127702000I1838478J1838478D01*
G01*
X171510478Y-132140478D02*
G75*
G03X169672000Y-127702000I-1838478J1838478D01*
G01*
X140748000Y-119102000D02*
X140748000Y-118772000D01*
X140748000Y-118772000D02*
X147288000Y-118772000D01*
X147288000Y-118772000D02*
X147288000Y-119102000D01*
X140748000Y-121182000D02*
X140748000Y-121512000D01*
X140748000Y-121512000D02*
X147288000Y-121512000D01*
X147288000Y-121512000D02*
X147288000Y-121182000D01*
X178916000Y-98584000D02*
X178586000Y-98584000D01*
X178916000Y-105124000D02*
X178916000Y-98584000D01*
X178586000Y-105124000D02*
X178916000Y-105124000D01*
X176176000Y-98584000D02*
X176506000Y-98584000D01*
X176176000Y-105124000D02*
X176176000Y-98584000D01*
X176506000Y-105124000D02*
X176176000Y-105124000D01*
X163298000Y-105124000D02*
X162968000Y-105124000D01*
X162968000Y-105124000D02*
X162968000Y-98584000D01*
X162968000Y-98584000D02*
X163298000Y-98584000D01*
X165378000Y-105124000D02*
X165708000Y-105124000D01*
X165708000Y-105124000D02*
X165708000Y-98584000D01*
X165708000Y-98584000D02*
X165378000Y-98584000D01*
X172058000Y-98330000D02*
X171728000Y-98330000D01*
X172058000Y-104870000D02*
X172058000Y-98330000D01*
X171728000Y-104870000D02*
X172058000Y-104870000D01*
X169318000Y-98330000D02*
X169648000Y-98330000D01*
X169318000Y-104870000D02*
X169318000Y-98330000D01*
X169648000Y-104870000D02*
X169318000Y-104870000D01*
X196064000Y-105378000D02*
X195734000Y-105378000D01*
X195734000Y-105378000D02*
X195734000Y-98838000D01*
X195734000Y-98838000D02*
X196064000Y-98838000D01*
X198144000Y-105378000D02*
X198474000Y-105378000D01*
X198474000Y-105378000D02*
X198474000Y-98838000D01*
X198474000Y-98838000D02*
X198144000Y-98838000D01*
X190346000Y-98584000D02*
X190016000Y-98584000D01*
X190346000Y-105124000D02*
X190346000Y-98584000D01*
X190016000Y-105124000D02*
X190346000Y-105124000D01*
X187606000Y-98584000D02*
X187936000Y-98584000D01*
X187606000Y-105124000D02*
X187606000Y-98584000D01*
X187936000Y-105124000D02*
X187606000Y-105124000D01*
X183110000Y-105124000D02*
X182780000Y-105124000D01*
X182780000Y-105124000D02*
X182780000Y-98584000D01*
X182780000Y-98584000D02*
X183110000Y-98584000D01*
X185190000Y-105124000D02*
X185520000Y-105124000D01*
X185520000Y-105124000D02*
X185520000Y-98584000D01*
X185520000Y-98584000D02*
X185190000Y-98584000D01*
D10*
X159072000Y-96094000D02*
X159072000Y-96594000D01*
X159072000Y-96094000D02*
X158572000Y-96094000D01*
X159072000Y-107994000D02*
X159072000Y-107494000D01*
X159072000Y-107994000D02*
X158572000Y-107994000D01*
X154872000Y-107994000D02*
X154872000Y-107494000D01*
X154872000Y-107994000D02*
X155372000Y-107994000D01*
X154872000Y-96094000D02*
X155372000Y-96094000D01*
X154872000Y-96094000D02*
X154872000Y-96594000D01*
D12*
X154432000Y-124714000D02*
X154432000Y-117602000D01*
X164592000Y-124714000D02*
X164592000Y-117602000D01*
X154432000Y-120650000D02*
G75*
G02X154432000Y-121666000I0J-508000D01*
G01*
X154432000Y-117602000D02*
X164592000Y-117602000D01*
X164592000Y-124714000D02*
X154432000Y-124714000D01*
X154178000Y-125730000D02*
G75*
G03X154178000Y-125730000I-254000J0D01*
G01*
D13*
X136539675Y-92803272D02*
X136682532Y-92850891D01*
X136730151Y-92898510D01*
X136777770Y-92993748D01*
X136777770Y-93136605D01*
X136730151Y-93231843D01*
X136682532Y-93279462D01*
X136587294Y-93327081D01*
X136206341Y-93327081D01*
X136206341Y-92327081D01*
X136539675Y-92327081D01*
X136634913Y-92374701D01*
X136682532Y-92422320D01*
X136730151Y-92517558D01*
X136730151Y-92612796D01*
X136682532Y-92708034D01*
X136634913Y-92755653D01*
X136539675Y-92803272D01*
X136206341Y-92803272D01*
X137158722Y-93041367D02*
X137634913Y-93041367D01*
X137063484Y-93327081D02*
X137396818Y-92327081D01*
X137730151Y-93327081D01*
X137920627Y-92327081D02*
X138492056Y-92327081D01*
X138206341Y-93327081D02*
X138206341Y-92327081D01*
X139349199Y-93327081D02*
X138777770Y-93327081D01*
X139063484Y-93327081D02*
X139063484Y-92327081D01*
X138968246Y-92469939D01*
X138873008Y-92565177D01*
X138777770Y-92612796D01*
X173331333Y-115733142D02*
X173283714Y-115780761D01*
X173140857Y-115828380D01*
X173045619Y-115828380D01*
X172902761Y-115780761D01*
X172807523Y-115685523D01*
X172759904Y-115590285D01*
X172712285Y-115399809D01*
X172712285Y-115256952D01*
X172759904Y-115066476D01*
X172807523Y-114971238D01*
X172902761Y-114876000D01*
X173045619Y-114828380D01*
X173140857Y-114828380D01*
X173283714Y-114876000D01*
X173331333Y-114923619D01*
X174283714Y-115828380D02*
X173712285Y-115828380D01*
X173998000Y-115828380D02*
X173998000Y-114828380D01*
X173902761Y-114971238D01*
X173807523Y-115066476D01*
X173712285Y-115114095D01*
X181931333Y-114829142D02*
X181883714Y-114876761D01*
X181740857Y-114924380D01*
X181645619Y-114924380D01*
X181502761Y-114876761D01*
X181407523Y-114781523D01*
X181359904Y-114686285D01*
X181312285Y-114495809D01*
X181312285Y-114352952D01*
X181359904Y-114162476D01*
X181407523Y-114067238D01*
X181502761Y-113972000D01*
X181645619Y-113924380D01*
X181740857Y-113924380D01*
X181883714Y-113972000D01*
X181931333Y-114019619D01*
X182312285Y-114019619D02*
X182359904Y-113972000D01*
X182455142Y-113924380D01*
X182693238Y-113924380D01*
X182788476Y-113972000D01*
X182836095Y-114019619D01*
X182883714Y-114114857D01*
X182883714Y-114210095D01*
X182836095Y-114352952D01*
X182264666Y-114924380D01*
X182883714Y-114924380D01*
X152169904Y-71152380D02*
X152169904Y-70152380D01*
X152408000Y-70152380D01*
X152550857Y-70200000D01*
X152646095Y-70295238D01*
X152693714Y-70390476D01*
X152741333Y-70580952D01*
X152741333Y-70723809D01*
X152693714Y-70914285D01*
X152646095Y-71009523D01*
X152550857Y-71104761D01*
X152408000Y-71152380D01*
X152169904Y-71152380D01*
X153693714Y-71152380D02*
X153122285Y-71152380D01*
X153408000Y-71152380D02*
X153408000Y-70152380D01*
X153312761Y-70295238D01*
X153217523Y-70390476D01*
X153122285Y-70438095D01*
X142771904Y-70898380D02*
X142771904Y-69898380D01*
X143010000Y-69898380D01*
X143152857Y-69946000D01*
X143248095Y-70041238D01*
X143295714Y-70136476D01*
X143343333Y-70326952D01*
X143343333Y-70469809D01*
X143295714Y-70660285D01*
X143248095Y-70755523D01*
X143152857Y-70850761D01*
X143010000Y-70898380D01*
X142771904Y-70898380D01*
X143724285Y-69993619D02*
X143771904Y-69946000D01*
X143867142Y-69898380D01*
X144105238Y-69898380D01*
X144200476Y-69946000D01*
X144248095Y-69993619D01*
X144295714Y-70088857D01*
X144295714Y-70184095D01*
X144248095Y-70326952D01*
X143676666Y-70898380D01*
X144295714Y-70898380D01*
X169576761Y-127289619D02*
X169481523Y-127242000D01*
X169386285Y-127146761D01*
X169243428Y-127003904D01*
X169148190Y-126956285D01*
X169052952Y-126956285D01*
X169100571Y-127194380D02*
X169005333Y-127146761D01*
X168910095Y-127051523D01*
X168862476Y-126861047D01*
X168862476Y-126527714D01*
X168910095Y-126337238D01*
X169005333Y-126242000D01*
X169100571Y-126194380D01*
X169291047Y-126194380D01*
X169386285Y-126242000D01*
X169481523Y-126337238D01*
X169529142Y-126527714D01*
X169529142Y-126861047D01*
X169481523Y-127051523D01*
X169386285Y-127146761D01*
X169291047Y-127194380D01*
X169100571Y-127194380D01*
X170481523Y-127194380D02*
X169910095Y-127194380D01*
X170195809Y-127194380D02*
X170195809Y-126194380D01*
X170100571Y-126337238D01*
X170005333Y-126432476D01*
X169910095Y-126480095D01*
X143851333Y-118224380D02*
X143518000Y-117748190D01*
X143279904Y-118224380D02*
X143279904Y-117224380D01*
X143660857Y-117224380D01*
X143756095Y-117272000D01*
X143803714Y-117319619D01*
X143851333Y-117414857D01*
X143851333Y-117557714D01*
X143803714Y-117652952D01*
X143756095Y-117700571D01*
X143660857Y-117748190D01*
X143279904Y-117748190D01*
X144803714Y-118224380D02*
X144232285Y-118224380D01*
X144518000Y-118224380D02*
X144518000Y-117224380D01*
X144422761Y-117367238D01*
X144327523Y-117462476D01*
X144232285Y-117510095D01*
X175628380Y-102020666D02*
X175152190Y-102354000D01*
X175628380Y-102592095D02*
X174628380Y-102592095D01*
X174628380Y-102211142D01*
X174676000Y-102115904D01*
X174723619Y-102068285D01*
X174818857Y-102020666D01*
X174961714Y-102020666D01*
X175056952Y-102068285D01*
X175104571Y-102115904D01*
X175152190Y-102211142D01*
X175152190Y-102592095D01*
X174723619Y-101639714D02*
X174676000Y-101592095D01*
X174628380Y-101496857D01*
X174628380Y-101258761D01*
X174676000Y-101163523D01*
X174723619Y-101115904D01*
X174818857Y-101068285D01*
X174914095Y-101068285D01*
X175056952Y-101115904D01*
X175628380Y-101687333D01*
X175628380Y-101068285D01*
X162420380Y-102020666D02*
X161944190Y-102354000D01*
X162420380Y-102592095D02*
X161420380Y-102592095D01*
X161420380Y-102211142D01*
X161468000Y-102115904D01*
X161515619Y-102068285D01*
X161610857Y-102020666D01*
X161753714Y-102020666D01*
X161848952Y-102068285D01*
X161896571Y-102115904D01*
X161944190Y-102211142D01*
X161944190Y-102592095D01*
X161420380Y-101687333D02*
X161420380Y-101068285D01*
X161801333Y-101401619D01*
X161801333Y-101258761D01*
X161848952Y-101163523D01*
X161896571Y-101115904D01*
X161991809Y-101068285D01*
X162229904Y-101068285D01*
X162325142Y-101115904D01*
X162372761Y-101163523D01*
X162420380Y-101258761D01*
X162420380Y-101544476D01*
X162372761Y-101639714D01*
X162325142Y-101687333D01*
X168770380Y-101766666D02*
X168294190Y-102100000D01*
X168770380Y-102338095D02*
X167770380Y-102338095D01*
X167770380Y-101957142D01*
X167818000Y-101861904D01*
X167865619Y-101814285D01*
X167960857Y-101766666D01*
X168103714Y-101766666D01*
X168198952Y-101814285D01*
X168246571Y-101861904D01*
X168294190Y-101957142D01*
X168294190Y-102338095D01*
X168103714Y-100909523D02*
X168770380Y-100909523D01*
X167722761Y-101147619D02*
X168437047Y-101385714D01*
X168437047Y-100766666D01*
X195186380Y-102274666D02*
X194710190Y-102608000D01*
X195186380Y-102846095D02*
X194186380Y-102846095D01*
X194186380Y-102465142D01*
X194234000Y-102369904D01*
X194281619Y-102322285D01*
X194376857Y-102274666D01*
X194519714Y-102274666D01*
X194614952Y-102322285D01*
X194662571Y-102369904D01*
X194710190Y-102465142D01*
X194710190Y-102846095D01*
X194186380Y-101369904D02*
X194186380Y-101846095D01*
X194662571Y-101893714D01*
X194614952Y-101846095D01*
X194567333Y-101750857D01*
X194567333Y-101512761D01*
X194614952Y-101417523D01*
X194662571Y-101369904D01*
X194757809Y-101322285D01*
X194995904Y-101322285D01*
X195091142Y-101369904D01*
X195138761Y-101417523D01*
X195186380Y-101512761D01*
X195186380Y-101750857D01*
X195138761Y-101846095D01*
X195091142Y-101893714D01*
X187058380Y-102020666D02*
X186582190Y-102354000D01*
X187058380Y-102592095D02*
X186058380Y-102592095D01*
X186058380Y-102211142D01*
X186106000Y-102115904D01*
X186153619Y-102068285D01*
X186248857Y-102020666D01*
X186391714Y-102020666D01*
X186486952Y-102068285D01*
X186534571Y-102115904D01*
X186582190Y-102211142D01*
X186582190Y-102592095D01*
X186058380Y-101163523D02*
X186058380Y-101354000D01*
X186106000Y-101449238D01*
X186153619Y-101496857D01*
X186296476Y-101592095D01*
X186486952Y-101639714D01*
X186867904Y-101639714D01*
X186963142Y-101592095D01*
X187010761Y-101544476D01*
X187058380Y-101449238D01*
X187058380Y-101258761D01*
X187010761Y-101163523D01*
X186963142Y-101115904D01*
X186867904Y-101068285D01*
X186629809Y-101068285D01*
X186534571Y-101115904D01*
X186486952Y-101163523D01*
X186439333Y-101258761D01*
X186439333Y-101449238D01*
X186486952Y-101544476D01*
X186534571Y-101592095D01*
X186629809Y-101639714D01*
X181613333Y-102306380D02*
X181280000Y-101830190D01*
X181041904Y-102306380D02*
X181041904Y-101306380D01*
X181422857Y-101306380D01*
X181518095Y-101354000D01*
X181565714Y-101401619D01*
X181613333Y-101496857D01*
X181613333Y-101639714D01*
X181565714Y-101734952D01*
X181518095Y-101782571D01*
X181422857Y-101830190D01*
X181041904Y-101830190D01*
X181946666Y-101306380D02*
X182613333Y-101306380D01*
X182184761Y-102306380D01*
X154356761Y-102665904D02*
X154404380Y-102523047D01*
X154404380Y-102284952D01*
X154356761Y-102189714D01*
X154309142Y-102142095D01*
X154213904Y-102094476D01*
X154118666Y-102094476D01*
X154023428Y-102142095D01*
X153975809Y-102189714D01*
X153928190Y-102284952D01*
X153880571Y-102475428D01*
X153832952Y-102570666D01*
X153785333Y-102618285D01*
X153690095Y-102665904D01*
X153594857Y-102665904D01*
X153499619Y-102618285D01*
X153452000Y-102570666D01*
X153404380Y-102475428D01*
X153404380Y-102237333D01*
X153452000Y-102094476D01*
X154404380Y-101142095D02*
X154404380Y-101713523D01*
X154404380Y-101427809D02*
X153404380Y-101427809D01*
X153547238Y-101523047D01*
X153642476Y-101618285D01*
X153690095Y-101713523D01*
X158750095Y-114006380D02*
X158750095Y-114815904D01*
X158797714Y-114911142D01*
X158845333Y-114958761D01*
X158940571Y-115006380D01*
X159131047Y-115006380D01*
X159226285Y-114958761D01*
X159273904Y-114911142D01*
X159321523Y-114815904D01*
X159321523Y-114006380D01*
X160321523Y-115006380D02*
X159750095Y-115006380D01*
X160035809Y-115006380D02*
X160035809Y-114006380D01*
X159940571Y-114149238D01*
X159845333Y-114244476D01*
X159750095Y-114292095D01*
M02*
